<svg width="645" height="220" viewBox="0 0 645 220" fill="none" xmlns="http://www.w3.org/2000/svg">
<g filter="url(#filter0_d_279_187)">
<path d="M174.238 52.2197C174.675 52.9285 175.441 53.375 176.273 53.375H182.361C184.045 53.375 185.168 51.6454 184.393 50.1496C174.971 31.9483 156.07 20 132.313 20C93.7732 20 56.8928 51.4042 50.0951 90C50.0518 90.2465 50.01 90.4926 49.9696 90.7383C49.6461 92.7084 51.8466 93.9945 53.473 92.8376L58.7373 89.0933C59.2218 88.7486 59.5548 88.2307 59.6795 87.6492C66.6432 55.168 97.9782 29.1226 130.703 29.1226C149.972 29.1226 165.572 38.1612 174.238 52.2197Z" fill="#FB7F01"/>
<path d="M186.079 83.7391H157.805C151.136 83.7391 148.234 82.0668 149.094 77.1994C149.953 72.3271 153.417 70.7991 160.085 70.7991H200.155C200.637 70.7991 201.099 70.5995 201.429 70.2474L209.238 61.9323C210.288 60.8151 209.496 58.984 207.964 58.984H158.222C156.761 58.984 155.37 59.0338 154.023 59.1283C138.062 60.2083 130.142 67.5791 128.259 78.2695C126.38 88.93 132.438 96.0718 148.363 96.0718H179.927C184.464 96.0718 186.287 97.2762 185.716 100.521C185.144 103.766 182.879 105.065 178.342 105.065H144.285C143.794 105.065 143.325 105.272 142.993 105.635L131.629 118.086C130.603 119.209 131.4 121.016 132.92 121.016H176.185C195.073 121.016 204.091 113.416 206.328 100.71C208.34 89.3032 201.264 83.7391 186.079 83.7391Z" fill="#2C7864"/>
<path d="M48.2914 121.016H94.3284C95.4155 121.016 96.2394 121.998 96.0512 123.069L95.406 126.742C95.2178 127.813 96.0416 128.795 97.1288 128.795H112.8C113.648 128.795 114.374 128.186 114.522 127.351L114.713 126.277L115.383 122.463C115.53 121.626 116.256 121.016 117.106 121.016H121.663C122.155 121.016 122.624 120.809 122.955 120.446L134.316 107.995C135.341 106.872 134.544 105.065 133.024 105.065H120.529C119.441 105.065 118.617 104.083 118.806 103.012L124.338 71.5756L124.596 70.1173C126.122 61.4625 121.496 57.9638 115.667 57.9638C113.336 57.9638 109.59 58.8397 105.928 61.4625L45.7074 104.289C42.2688 106.717 40.6092 109.539 40.1272 112.262C39.3222 116.83 42.3732 121.016 48.2963 121.016H48.2914ZM99.7296 84.991C101.005 84.0873 102.735 85.1841 102.463 86.7241L99.4749 103.62C99.3271 104.456 98.6009 105.065 97.7524 105.065H76.8857C75.1802 105.065 74.483 102.873 75.8749 101.887L99.7296 84.991Z" fill="#A9541E"/>
<path d="M163.385 126.272C162.733 126.272 162.111 126.546 161.663 127.021C147.997 141.511 128.881 150.872 109.267 150.872C89.8431 150.872 74.3852 141.834 65.7269 127.776C65.2902 127.067 64.5245 126.62 63.692 126.62H57.6038C55.92 126.62 54.7977 128.35 55.572 129.845C64.9951 148.047 83.8999 160 107.662 160C131.236 160 154.422 148.104 170.264 129.963C171.543 128.498 170.472 126.272 168.528 126.272H163.385Z" fill="#FB7F01"/>
<path d="M230.666 55C230.666 42.1134 241.108 31.6667 253.989 31.6667H423.664L412.002 87.0833H230.666V55Z" fill="white"/>
<path d="M429.494 31.6667H581.677C594.558 31.6667 605 42.1134 605 55V87.0833H417.833L429.494 31.6667Z" fill="white"/>
<path d="M230.666 92.9167H446.987L435.325 148.333H253.989C241.108 148.333 230.666 137.887 230.666 125V92.9167Z" fill="white"/>
<path d="M452.817 92.9167H605V125C605 137.887 594.558 148.333 581.677 148.333H441.156L452.817 92.9167Z" fill="white"/>
<path d="M285.074 69.378C284.243 69.378 283.464 69.322 282.737 69.21C282.018 69.1073 281.361 68.972 280.763 68.804C280.176 68.6267 279.658 68.4447 279.21 68.258L278.832 64.226C279.569 64.5713 280.442 64.8933 281.449 65.192C282.457 65.4813 283.525 65.626 284.654 65.626C285.745 65.626 286.52 65.4907 286.977 65.22C287.443 64.94 287.676 64.506 287.676 63.918V63.82C287.676 63.428 287.569 63.1107 287.355 62.868C287.149 62.616 286.799 62.3873 286.305 62.182C285.82 61.9673 285.162 61.7387 284.332 61.496C283.082 61.1227 282.037 60.7073 281.197 60.25C280.367 59.7927 279.747 59.2233 279.336 58.542C278.926 57.8513 278.72 56.9787 278.72 55.924V55.742C278.72 54.118 279.271 52.8767 280.372 52.018C281.482 51.1593 283.11 50.73 285.255 50.73C286.543 50.73 287.653 50.842 288.586 51.066C289.528 51.29 290.326 51.556 290.979 51.864L291.357 55.616C290.638 55.2707 289.822 54.9813 288.908 54.748C288.003 54.5053 287.033 54.384 285.997 54.384C285.269 54.384 284.696 54.4447 284.276 54.566C283.865 54.6873 283.576 54.8647 283.408 55.098C283.24 55.322 283.156 55.5973 283.156 55.924V55.98C283.156 56.316 283.25 56.61 283.436 56.862C283.632 57.114 283.977 57.3567 284.472 57.59C284.976 57.8233 285.689 58.0753 286.613 58.346C287.854 58.71 288.88 59.102 289.692 59.522C290.512 59.9327 291.124 60.4693 291.525 61.132C291.935 61.7853 292.14 62.658 292.14 63.75V63.974C292.14 65.7753 291.557 67.1287 290.391 68.034C289.225 68.93 287.453 69.378 285.074 69.378Z" fill="#A9541E"/>
<path d="M301.561 69.392C299.014 69.392 297.116 68.72 295.866 67.376C294.625 66.0227 294.005 64.0953 294.005 61.594V58.416C294.005 55.9613 294.63 54.0667 295.88 52.732C297.13 51.388 299.014 50.716 301.533 50.716C302.205 50.716 302.825 50.7673 303.395 50.87C303.964 50.9727 304.481 51.1127 304.948 51.29C305.414 51.458 305.825 51.6493 306.179 51.864L306.501 55.616C305.951 55.3267 305.344 55.0747 304.682 54.86C304.029 54.636 303.269 54.524 302.401 54.524C301.067 54.524 300.078 54.8833 299.434 55.602C298.8 56.3113 298.483 57.31 298.483 58.598V61.426C298.483 62.7047 298.805 63.7033 299.448 64.422C300.101 65.1407 301.142 65.5 302.569 65.5C303.409 65.5 304.16 65.388 304.822 65.164C305.484 64.94 306.091 64.6693 306.641 64.352L306.319 68.188C305.965 68.4027 305.55 68.6033 305.074 68.79C304.598 68.9673 304.066 69.112 303.478 69.224C302.9 69.336 302.261 69.392 301.561 69.392Z" fill="#A9541E"/>
<path d="M313.526 69H309.146V51.108H313.526V69ZM324.189 69H319.795V51.108H324.189V69ZM311.664 58.024H321.446V61.678H311.664V58.024Z" fill="#A9541E"/>
<path d="M334.693 69.434C332.09 69.434 330.136 68.7807 328.83 67.474C327.533 66.1673 326.885 64.2867 326.885 61.832V58.43C326.885 55.966 327.538 54.0667 328.844 52.732C330.159 51.388 332.109 50.716 334.693 50.716C337.277 50.716 339.223 51.388 340.529 52.732C341.844 54.0667 342.502 55.966 342.502 58.43V61.832C342.502 64.2867 341.849 66.1673 340.543 67.474C339.237 68.7807 337.287 69.434 334.693 69.434ZM334.693 65.822C335.822 65.822 336.662 65.4907 337.212 64.828C337.763 64.1653 338.038 63.2367 338.038 62.042V58.206C338.038 56.9553 337.763 55.994 337.212 55.322C336.662 54.65 335.822 54.314 334.693 54.314C333.564 54.314 332.725 54.65 332.174 55.322C331.624 55.994 331.349 56.9553 331.349 58.206V62.042C331.349 63.2367 331.624 64.1653 332.174 64.828C332.725 65.4907 333.564 65.822 334.693 65.822Z" fill="#A9541E"/>
<path d="M352.459 69.434C349.856 69.434 347.901 68.7807 346.595 67.474C345.299 66.1673 344.65 64.2867 344.65 61.832V58.43C344.65 55.966 345.303 54.0667 346.609 52.732C347.925 51.388 349.875 50.716 352.459 50.716C355.043 50.716 356.988 51.388 358.294 52.732C359.61 54.0667 360.267 55.966 360.267 58.43V61.832C360.267 64.2867 359.614 66.1673 358.308 67.474C357.002 68.7807 355.052 69.434 352.459 69.434ZM352.459 65.822C353.588 65.822 354.427 65.4907 354.978 64.828C355.528 64.1653 355.803 63.2367 355.803 62.042V58.206C355.803 56.9553 355.528 55.994 354.978 55.322C354.427 54.65 353.588 54.314 352.459 54.314C351.33 54.314 350.49 54.65 349.94 55.322C349.389 55.994 349.114 56.9553 349.114 58.206V62.042C349.114 63.2367 349.389 64.1653 349.94 64.828C350.49 65.4907 351.33 65.822 352.459 65.822Z" fill="#A9541E"/>
<path d="M367.342 69H362.962V51.108H367.342V69ZM365.452 65.318H374.8V69H365.452V65.318Z" fill="#A9541E"/>
<path d="M256.503 129.461C255.673 129.461 254.894 129.405 254.166 129.293C253.448 129.191 252.79 129.055 252.193 128.887C251.605 128.71 251.087 128.528 250.639 128.341L250.262 124.309C250.999 124.655 251.871 124.977 252.878 125.275C253.886 125.565 254.954 125.709 256.083 125.709C257.175 125.709 257.949 125.574 258.406 125.303C258.872 125.023 259.106 124.589 259.106 124.001V123.903C259.106 123.511 258.998 123.194 258.784 122.951C258.579 122.699 258.229 122.471 257.734 122.265C257.249 122.051 256.592 121.822 255.761 121.579C254.511 121.206 253.466 120.791 252.627 120.333C251.796 119.876 251.176 119.307 250.765 118.625C250.355 117.935 250.15 117.062 250.15 116.007V115.825C250.15 114.201 250.7 112.96 251.801 112.101C252.911 111.243 254.539 110.813 256.685 110.813C257.972 110.813 259.082 110.925 260.015 111.149C260.958 111.373 261.755 111.639 262.408 111.947L262.786 115.699C262.068 115.354 261.251 115.065 260.337 114.831C259.432 114.589 258.462 114.467 257.426 114.467C256.699 114.467 256.125 114.528 255.705 114.649C255.295 114.771 255.006 114.948 254.838 115.181C254.67 115.405 254.586 115.681 254.586 116.007V116.063C254.586 116.399 254.679 116.693 254.866 116.945C255.062 117.197 255.407 117.44 255.901 117.673C256.405 117.907 257.119 118.159 258.042 118.429C259.283 118.793 260.309 119.185 261.121 119.605C261.942 120.016 262.553 120.553 262.954 121.215C263.365 121.869 263.57 122.741 263.57 123.833V124.057C263.57 125.859 262.987 127.212 261.821 128.117C260.654 129.013 258.882 129.461 256.503 129.461Z" fill="#2C7864"/>
<path d="M265.838 129.083L266.398 111.191H272.5L275.452 121.859H275.634L278.587 111.191H284.688L285.248 129.083H281.008L280.882 123.217L280.756 116.077H280.546L277.481 126.983H273.591L270.526 116.077H270.303L270.191 123.231L270.079 129.083H265.838Z" fill="#2C7864"/>
<path d="M287.008 129.083L292.13 111.191H298.707L303.801 129.083H299.379L295.586 114.075H295.265L291.43 129.083H287.008ZM291.36 124.869V121.467H299.421V124.869H291.36Z" fill="#2C7864"/>
<path d="M315.795 129.083L315.445 125.709C315.389 125.112 315.272 124.627 315.095 124.253C314.918 123.871 314.647 123.591 314.284 123.413C313.92 123.227 313.435 123.133 312.828 123.133L308.784 123.119V119.773L312.996 119.759C313.91 119.759 314.568 119.559 314.969 119.157C315.37 118.756 315.571 118.154 315.571 117.351V117.071C315.571 116.278 315.37 115.685 314.969 115.293C314.577 114.892 313.915 114.691 312.982 114.691H308.756V111.191H313.612C315.804 111.191 317.404 111.616 318.412 112.465C319.429 113.315 319.937 114.537 319.937 116.133V116.497C319.937 117.701 319.629 118.639 319.013 119.311C318.398 119.983 317.46 120.366 316.201 120.459V121.075L315.305 120.473C316.387 120.548 317.227 120.772 317.824 121.145C318.421 121.519 318.859 122.041 319.139 122.713C319.429 123.376 319.638 124.202 319.769 125.191L320.287 129.083H315.795ZM305.747 129.083V111.191H310.001V120.977L310.029 122.601V129.083H305.747Z" fill="#2C7864"/>
<path d="M326.409 129.083V112.031H330.789V129.083H326.409ZM321.469 114.845V111.191H335.715V114.845H321.469Z" fill="#2C7864"/>
<path d="M346.64 129.083V125.625H351.356C352.196 125.625 352.793 125.467 353.147 125.149C353.511 124.832 353.693 124.356 353.693 123.721V123.483C353.693 122.849 353.511 122.373 353.147 122.055C352.793 121.729 352.182 121.565 351.314 121.565H346.57V118.373H351.202C352.014 118.373 352.588 118.215 352.923 117.897C353.259 117.58 353.427 117.118 353.427 116.511V116.371C353.427 115.774 353.259 115.326 352.923 115.027C352.588 114.719 352.014 114.565 351.202 114.565H346.556V111.191H351.664C353.828 111.191 355.382 111.555 356.324 112.283C357.266 113.002 357.737 114.066 357.737 115.475V115.685C357.737 116.749 357.457 117.575 356.898 118.163C356.347 118.751 355.48 119.083 354.295 119.157V119.311C355.61 119.489 356.571 119.932 357.178 120.641C357.784 121.351 358.087 122.345 358.087 123.623V124.001C358.087 125.681 357.593 126.951 356.604 127.809C355.624 128.659 354.052 129.083 351.888 129.083H346.64ZM343.52 129.083V111.191H347.718V129.083H343.52Z" fill="#2C7864"/>
<path d="M367.81 129.517C365.207 129.517 363.253 128.864 361.947 127.557C360.65 126.251 360.002 124.37 360.002 121.915V118.513C360.002 116.049 360.655 114.15 361.961 112.815C363.276 111.471 365.226 110.799 367.81 110.799C370.394 110.799 372.339 111.471 373.645 112.815C374.961 114.15 375.619 116.049 375.619 118.513V121.915C375.619 124.37 374.966 126.251 373.659 127.557C372.353 128.864 370.404 129.517 367.81 129.517ZM367.81 125.905C368.939 125.905 369.779 125.574 370.329 124.911C370.879 124.249 371.155 123.32 371.155 122.125V118.289C371.155 117.039 370.879 116.077 370.329 115.405C369.779 114.733 368.939 114.397 367.81 114.397C366.681 114.397 365.842 114.733 365.291 115.405C364.741 116.077 364.466 117.039 364.466 118.289V122.125C364.466 123.32 364.741 124.249 365.291 124.911C365.842 125.574 366.681 125.905 367.81 125.905Z" fill="#2C7864"/>
<path d="M376.465 129.083L381.587 111.191H388.164L393.257 129.083H388.835L385.043 114.075H384.721L380.887 129.083H376.465ZM380.817 124.869V121.467H388.877V124.869H380.817Z" fill="#2C7864"/>
<path d="M405.251 129.083L404.902 125.709C404.846 125.112 404.729 124.627 404.552 124.253C404.374 123.871 404.104 123.591 403.74 123.413C403.376 123.227 402.891 123.133 402.285 123.133L398.24 123.119V119.773L402.453 119.759C403.367 119.759 404.025 119.559 404.426 119.157C404.827 118.756 405.027 118.154 405.027 117.351V117.071C405.027 116.278 404.827 115.685 404.426 115.293C404.034 114.892 403.372 114.691 402.439 114.691H398.212V111.191H403.068C405.261 111.191 406.861 111.616 407.868 112.465C408.885 113.315 409.394 114.537 409.394 116.133V116.497C409.394 117.701 409.086 118.639 408.47 119.311C407.854 119.983 406.917 120.366 405.657 120.459V121.075L404.762 120.473C405.844 120.548 406.683 120.772 407.28 121.145C407.878 121.519 408.316 122.041 408.596 122.713C408.885 123.376 409.095 124.202 409.226 125.191L409.743 129.083H405.251ZM395.204 129.083V111.191H399.458V120.977L399.486 122.601V129.083H395.204Z" fill="#2C7864"/>
<path d="M415.214 129.083V125.415H419.118C420.238 125.415 421.078 125.112 421.637 124.505C422.197 123.899 422.477 123.031 422.477 121.901V118.317C422.477 117.188 422.197 116.325 421.637 115.727C421.078 115.121 420.238 114.817 419.118 114.817H415.2V111.191H419.272C421.819 111.191 423.722 111.807 424.982 113.039C426.251 114.262 426.885 116.021 426.885 118.317V121.915C426.885 124.221 426.255 125.994 424.996 127.235C423.736 128.467 421.828 129.083 419.272 129.083H415.214ZM412.149 129.083V111.191H416.46V129.083H412.149Z" fill="#2C7864"/>
<path d="M496.147 129.461C495.317 129.461 494.538 129.405 493.81 129.293C493.092 129.191 492.434 129.055 491.837 128.887C491.249 128.71 490.731 128.528 490.283 128.341L489.906 124.309C490.643 124.655 491.515 124.977 492.522 125.275C493.53 125.565 494.598 125.709 495.727 125.709C496.819 125.709 497.593 125.574 498.05 125.303C498.516 125.023 498.75 124.589 498.75 124.001V123.903C498.75 123.511 498.642 123.194 498.428 122.951C498.223 122.699 497.873 122.471 497.378 122.265C496.893 122.051 496.235 121.822 495.405 121.579C494.155 121.206 493.11 120.791 492.271 120.333C491.44 119.876 490.82 119.307 490.409 118.625C489.999 117.935 489.794 117.062 489.794 116.007V115.825C489.794 114.201 490.344 112.96 491.445 112.101C492.555 111.243 494.183 110.813 496.329 110.813C497.616 110.813 498.726 110.925 499.659 111.149C500.602 111.373 501.399 111.639 502.052 111.947L502.43 115.699C501.712 115.354 500.895 115.065 499.981 114.831C499.076 114.589 498.106 114.467 497.07 114.467C496.343 114.467 495.769 114.528 495.349 114.649C494.939 114.771 494.65 114.948 494.482 115.181C494.314 115.405 494.23 115.681 494.23 116.007V116.063C494.23 116.399 494.323 116.693 494.51 116.945C494.706 117.197 495.051 117.44 495.545 117.673C496.049 117.907 496.763 118.159 497.686 118.429C498.927 118.793 499.953 119.185 500.765 119.605C501.586 120.016 502.197 120.553 502.598 121.215C503.008 121.869 503.214 122.741 503.214 123.833V124.057C503.214 125.859 502.631 127.212 501.464 128.117C500.298 129.013 498.526 129.461 496.147 129.461Z" fill="#A9541E"/>
<path d="M515.837 129.083L510.701 121.243H509.61V118.611H510.701L515.767 111.191H520.721L514.382 120.179V119.199L520.917 129.083H515.837ZM505.706 129.083V111.191H510.044V129.083H505.706Z" fill="#A9541E"/>
<path d="M526.991 129.083H522.597V111.191H526.991V129.083Z" fill="#A9541E"/>
<path d="M534.63 129.083H530.25V111.191H534.63V129.083ZM532.74 125.401H542.088V129.083H532.74V125.401Z" fill="#A9541E"/>
<path d="M548.569 129.083H544.189V111.191H548.569V129.083ZM546.68 125.401H556.027V129.083H546.68V125.401Z" fill="#A9541E"/>
<path d="M461.162 69.378C460.332 69.378 459.553 69.322 458.825 69.21C458.107 69.1073 457.449 68.972 456.852 68.804C456.264 68.6267 455.747 68.4447 455.299 68.258L454.921 64.226C455.658 64.5713 456.53 64.8933 457.538 65.192C458.545 65.4813 459.614 65.626 460.742 65.626C461.834 65.626 462.608 65.4907 463.065 65.22C463.532 64.94 463.765 64.506 463.765 63.918V63.82C463.765 63.428 463.658 63.1107 463.443 62.868C463.238 62.616 462.888 62.3873 462.394 62.182C461.909 61.9673 461.251 61.7387 460.421 61.496C459.171 61.1227 458.126 60.7073 457.286 60.25C456.456 59.7927 455.835 59.2233 455.425 58.542C455.014 57.8513 454.809 56.9787 454.809 55.924V55.742C454.809 54.118 455.36 52.8767 456.46 52.018C457.571 51.1593 459.199 50.73 461.344 50.73C462.632 50.73 463.742 50.842 464.675 51.066C465.617 51.29 466.415 51.556 467.068 51.864L467.446 55.616C466.727 55.2707 465.911 54.9813 464.997 54.748C464.092 54.5053 463.121 54.384 462.086 54.384C461.358 54.384 460.785 54.4447 460.365 54.566C459.954 54.6873 459.665 54.8647 459.497 55.098C459.329 55.322 459.245 55.5973 459.245 55.924V55.98C459.245 56.316 459.338 56.61 459.525 56.862C459.721 57.114 460.066 57.3567 460.561 57.59C461.064 57.8233 461.778 58.0753 462.702 58.346C463.942 58.71 464.969 59.102 465.78 59.522C466.601 59.9327 467.212 60.4693 467.613 61.132C468.024 61.7853 468.229 62.658 468.229 63.75V63.974C468.229 65.7753 467.646 67.1287 466.48 68.034C465.314 68.93 463.541 69.378 461.162 69.378Z" fill="#2C7864"/>
<path d="M474.137 69V51.948H478.517V69H474.137ZM469.197 54.762V51.108H483.443V54.762H469.197Z" fill="#2C7864"/>
<path d="M493.156 69.434C490.599 69.434 488.706 68.818 487.474 67.586C486.252 66.3447 485.641 64.5293 485.641 62.14V51.108H490.035V62.224C490.035 63.3813 490.282 64.2587 490.777 64.856C491.28 65.444 492.073 65.738 493.156 65.738C494.247 65.738 495.04 65.444 495.535 64.856C496.029 64.2587 496.276 63.3813 496.276 62.224V51.108H500.67V62.14C500.67 64.5293 500.059 66.3447 498.837 67.586C497.624 68.818 495.731 69.434 493.156 69.434Z" fill="#2C7864"/>
<path d="M506.83 69V65.332H510.734C511.854 65.332 512.693 65.0287 513.253 64.422C513.813 63.8153 514.093 62.9473 514.093 61.818V58.234C514.093 57.1047 513.813 56.2413 513.253 55.644C512.693 55.0373 511.854 54.734 510.734 54.734H506.816V51.108H510.888C513.435 51.108 515.338 51.724 516.597 52.956C517.866 54.1787 518.501 55.938 518.501 58.234V61.832C518.501 64.1373 517.871 65.9107 516.611 67.152C515.352 68.384 513.444 69 510.888 69H506.83ZM503.765 69V51.108H508.075V69H503.765Z" fill="#2C7864"/>
<path d="M521.175 69V51.108H525.458V69H521.175ZM522.449 69V65.346H533.7V69H522.449ZM523.68 61.678V58.164H533.364V61.678H523.68ZM522.435 54.72V51.108H533.574V54.72H522.435Z" fill="#2C7864"/>
<path d="M542.485 51.094L547.327 64.226H547.523L547.327 56.666V51.094H551.497V69H545.634L540.61 55.574H540.428L540.624 63.302V69H536.454V51.094H542.485Z" fill="#2C7864"/>
<path d="M558.783 69V51.948H563.163V69H558.783ZM553.843 54.762V51.108H568.089V54.762H553.843Z" fill="#2C7864"/>
</g>
<defs>
<filter id="filter0_d_279_187" x="0" y="0" width="645" height="220" filterUnits="userSpaceOnUse" color-interpolation-filters="sRGB">
<feFlood flood-opacity="0" result="BackgroundImageFix"/>
<feColorMatrix in="SourceAlpha" type="matrix" values="0 0 0 0 0 0 0 0 0 0 0 0 0 0 0 0 0 0 127 0" result="hardAlpha"/>
<feOffset dy="20"/>
<feGaussianBlur stdDeviation="20"/>
<feComposite in2="hardAlpha" operator="out"/>
<feColorMatrix type="matrix" values="0 0 0 0 0 0 0 0 0 0 0 0 0 0 0 0 0 0 0.08 0"/>
<feBlend mode="normal" in2="BackgroundImageFix" result="effect1_dropShadow_279_187"/>
<feBlend mode="normal" in="SourceGraphic" in2="effect1_dropShadow_279_187" result="shape"/>
</filter>
</defs>
</svg>
