<svg width="526" height="410" viewBox="0 0 526 410" fill="none" xmlns="http://www.w3.org/2000/svg">
<circle cx="265" cy="205" r="205" fill="#2C7864"/>
<g filter="url(#filter0_d_216_506)">
<path d="M502 79C502 63.536 489.464 51 474 51H52C36.536 51 24 63.536 24 79V104C24 119.464 36.536 132 52 132H474C489.464 132 502 119.464 502 104V79Z" fill="#FB7F01"/>
<path d="M501.5 92V172.5C491.501 145.927 481.375 136.715 454 132L400 96.5L501.5 92Z" fill="#FB7F01"/>
</g>
<path d="M372.754 107.798C371.378 107.798 370.362 107.421 369.706 106.668C369.066 105.915 368.746 104.863 368.746 103.511V103.228C368.746 101.893 369.066 100.841 369.706 100.071C370.362 99.3006 371.378 98.9156 372.754 98.9156C374.098 98.9156 375.098 99.3006 375.754 100.071C376.41 100.841 376.738 101.893 376.738 103.228V103.511C376.738 104.863 376.41 105.915 375.754 106.668C375.098 107.421 374.098 107.798 372.754 107.798ZM372.754 91.6764C371.378 91.6764 370.362 91.2999 369.706 90.5468C369.066 89.7938 368.746 88.7413 368.746 87.3893V87.1069C368.746 85.772 369.066 84.7195 369.706 83.9494C370.362 83.1793 371.378 82.7942 372.754 82.7942C374.098 82.7942 375.098 83.1793 375.754 83.9494C376.41 84.7195 376.738 85.772 376.738 87.1069V87.3893C376.738 88.7413 376.41 89.7938 375.754 90.5468C375.098 91.2999 374.098 91.6764 372.754 91.6764Z" fill="white"/>
<path d="M347.485 78.8666V71.4477C347.485 69.5994 347.101 68.2388 346.333 67.366C345.565 66.4761 344.301 66.0311 342.541 66.0311C340.813 66.0311 339.565 66.4589 338.797 67.3146C338.029 68.1703 337.645 69.471 337.645 71.2166V74.3998H330.325V71.653C330.325 67.6655 331.373 64.6962 333.469 62.7452C335.565 60.7942 338.589 59.8187 342.541 59.8187C345.069 59.8187 347.245 60.2722 349.069 61.1793C350.909 62.0692 352.325 63.4127 353.317 65.2096C354.309 66.9895 354.805 69.2143 354.805 71.8841V78.8666H347.485ZM347.485 95.1933V76.2481H354.805V95.1933H347.485ZM347.485 107.105V92.4465H354.805V107.105H347.485Z" fill="white"/>
<path d="M333.464 107.798C329.048 107.798 325.784 106.951 323.672 105.256C321.576 103.562 320.528 101.115 320.528 97.9144V97.401C320.528 95.7238 320.816 94.2606 321.392 93.0112C321.968 91.7619 322.928 90.7094 324.272 89.8537C325.616 88.9809 327.416 88.3049 329.672 87.8257L332.456 87.2096C333.544 86.9529 334.312 86.6106 334.76 86.1828C335.208 85.7549 335.432 85.2073 335.432 84.5398V84.4115C335.432 83.5387 335.072 82.914 334.352 82.5375C333.648 82.161 332.472 81.9727 330.824 81.9727C329.528 81.9727 328.2 82.1268 326.84 82.4348C325.496 82.7258 324.208 83.0852 322.976 83.513L323.744 77.0696C324.672 76.6418 325.864 76.2652 327.32 75.9401C328.776 75.6149 330.312 75.4523 331.928 75.4523C335.464 75.4523 338.184 76.1797 340.088 77.6344C342.008 79.0719 342.968 81.3139 342.968 84.3601V84.6939C342.968 86.1486 342.712 87.4235 342.2 88.5188C341.704 89.597 340.936 90.4955 339.896 91.2143C338.872 91.9331 337.56 92.4722 335.96 92.8315L332.168 93.6787C331.176 93.9012 330.376 94.1921 329.768 94.5515C329.176 94.8938 328.744 95.3131 328.472 95.8094C328.216 96.3057 328.088 96.8961 328.088 97.5807V97.7347C328.088 98.9156 328.568 99.7884 329.528 100.353C330.488 100.901 332.016 101.175 334.112 101.175C335.104 101.175 336.144 101.089 337.232 100.918C338.32 100.73 339.376 100.481 340.4 100.173C341.424 99.8483 342.352 99.4889 343.184 99.0953L342.56 106.026C341.376 106.557 340 106.985 338.432 107.31C336.864 107.635 335.208 107.798 333.464 107.798Z" fill="white"/>
<path d="M311.471 74.3998C308.735 73.082 305.983 71.7557 303.215 70.4208C300.463 69.0688 297.711 67.7168 294.959 66.3648L298.727 59.408C301.287 61.1365 303.847 62.8736 306.407 64.6192C308.967 66.3477 311.519 68.0762 314.063 69.8047L311.471 74.3998Z" fill="white"/>
<path d="M308.972 95.1933V76.2481H316.292V95.1933H308.972ZM308.972 107.105V92.4465H316.292V107.105H308.972ZM300.548 94.0894V87.6974H313.004L313.508 94.0894H300.548ZM293.132 104.204C289.532 104.204 286.828 103.237 285.02 101.303C283.228 99.3691 282.332 96.3998 282.332 92.3952V88.3391C282.332 85.8576 282.612 83.59 283.172 81.5363C283.748 79.4656 284.596 77.7028 285.716 76.2481H293.252C292.132 77.9253 291.284 79.7565 290.708 81.7417C290.148 83.7098 289.868 85.8747 289.868 88.2365V92.6005C289.868 94.2435 290.132 95.4928 290.66 96.3485C291.204 97.1871 292.052 97.6063 293.204 97.6063C295.236 97.6063 296.252 96.2629 296.252 93.576V80.9973H303.476V93.3706C303.476 97.033 302.604 99.7542 300.86 101.534C299.132 103.314 296.556 104.204 293.132 104.204Z" fill="white"/>
<path d="M256.975 97.709L250.231 96.2201V90.4185L256.639 90.3928C258.287 90.3757 259.543 90.042 260.407 89.3916C261.271 88.7413 261.703 87.723 261.703 86.3368V85.9004C261.703 84.5313 261.303 83.5301 260.503 82.8969C259.719 82.2466 258.583 81.9214 257.095 81.9214C256.055 81.9214 255.023 82.0241 253.999 82.2295C252.991 82.4177 252.047 82.6744 251.167 82.9996L251.695 76.7872C252.591 76.3936 253.631 76.077 254.815 75.8374C255.999 75.5807 257.319 75.4523 258.775 75.4523C260.967 75.4523 262.847 75.8203 264.415 76.5562C265.999 77.2921 267.207 78.4045 268.039 79.8934C268.871 81.3652 269.287 83.2477 269.287 85.541V86.3111C269.287 89.5114 268.455 91.9759 266.791 93.7044C265.127 95.4329 262.743 96.2971 259.639 96.2971H257.071L256.975 97.709ZM264.751 107.798C262.767 107.798 260.991 107.455 259.423 106.771C257.855 106.086 256.559 105 255.535 103.511C254.511 102.005 253.791 100.019 253.375 97.555L252.727 93.6787L259.687 92.9856L260.287 96.3228C260.639 98.2053 261.351 99.506 262.423 100.225C263.495 100.926 264.759 101.277 266.215 101.277C266.791 101.277 267.367 101.217 267.943 101.098C268.519 100.978 268.951 100.867 269.239 100.764L268.687 107.13C268.111 107.336 267.503 107.498 266.863 107.618C266.223 107.738 265.519 107.798 264.751 107.798Z" fill="white"/>
<path d="M238.139 125.408C235.595 125.408 233.347 124.946 231.395 124.022C229.459 123.098 227.819 121.686 226.475 119.786C225.147 117.886 224.107 115.465 223.355 112.521H230.123C230.859 115.088 231.875 116.954 233.171 118.117C234.467 119.281 236.059 119.863 237.947 119.863C239.163 119.863 240.043 119.615 240.587 119.119C241.131 118.639 241.403 117.981 241.403 117.142V116.988C241.403 116.184 241.155 115.533 240.659 115.037C240.163 114.558 239.331 114.318 238.163 114.318C237.363 114.318 236.579 114.412 235.811 114.601C235.043 114.806 234.267 115.071 233.483 115.396L234.035 109.877C234.819 109.535 235.643 109.27 236.507 109.081C237.371 108.91 238.339 108.825 239.411 108.825C242.211 108.825 244.291 109.552 245.651 111.007C247.027 112.478 247.715 114.429 247.715 116.86V117.168C247.715 119.701 246.939 121.703 245.387 123.175C243.851 124.664 241.435 125.408 238.139 125.408Z" fill="white"/>
<path d="M239.126 107.798C235.398 107.798 232.558 107.053 230.606 105.564C228.654 104.058 227.678 101.911 227.678 99.1209V98.8129C227.678 96.6565 228.206 94.9622 229.262 93.73C230.334 92.4978 231.934 91.7277 234.062 91.4196V91.2656C232.014 91.026 230.494 90.3415 229.502 89.2119C228.51 88.0653 228.014 86.4138 228.014 84.2575V83.9494C228.014 81.1085 228.966 78.9864 230.87 77.583C232.774 76.1626 235.446 75.4523 238.886 75.4523C240.55 75.4523 242.062 75.6149 243.422 75.9401C244.782 76.2481 245.926 76.6246 246.854 77.0696L247.502 83.4873C246.478 83.0081 245.342 82.6316 244.094 82.3578C242.846 82.0669 241.566 81.9214 240.254 81.9214C238.734 81.9214 237.574 82.1867 236.774 82.7172C235.99 83.2306 235.598 84.0008 235.598 85.0276V85.2073C235.598 86.1143 235.91 86.816 236.534 87.3123C237.158 87.7915 238.118 88.0482 239.414 88.0824L245.222 88.2365V94.3975L239.462 94.6028C238.022 94.6542 236.958 94.9366 236.27 95.45C235.598 95.9463 235.262 96.725 235.262 97.786V97.9657C235.262 99.061 235.678 99.8825 236.51 100.43C237.358 100.961 238.614 101.226 240.278 101.226C241.814 101.226 243.198 101.046 244.43 100.687C245.662 100.327 246.846 99.8739 247.982 99.3263L247.382 105.975C246.422 106.488 245.23 106.916 243.806 107.259C242.398 107.618 240.838 107.798 239.126 107.798Z" fill="white"/>
<path d="M215.72 95.1933V76.2481H223.04V95.1933H215.72ZM215.72 107.105V92.4465H223.04V107.105H215.72Z" fill="white"/>
<path d="M201.514 108.825C196.986 108.825 193.538 107.935 191.17 106.155C188.802 104.358 187.618 101.688 187.618 98.1454C187.618 97.4438 187.658 96.7421 187.738 96.0404C187.818 95.3387 187.93 94.6456 188.074 93.9611H195.274C195.242 94.3889 195.218 94.8253 195.202 95.2703C195.202 95.7153 195.202 96.1602 195.202 96.6052C195.202 98.5048 195.85 99.9167 197.146 100.841C198.442 101.748 200.282 102.201 202.666 102.201C204.17 102.201 205.626 102.065 207.034 101.791C208.442 101.517 209.778 101.166 211.042 100.738L210.442 107.361C209.21 107.806 207.834 108.157 206.314 108.414C204.81 108.688 203.21 108.825 201.514 108.825ZM203.65 98.5818C203.762 98.154 203.842 97.7433 203.89 97.3496C203.954 96.956 203.986 96.5538 203.986 96.1431C203.986 94.9794 203.73 94.1237 203.218 93.576C202.706 93.0112 201.778 92.6946 200.434 92.6262L196.714 92.4208C194.154 92.301 192.162 91.5908 190.738 90.2901C189.33 88.9724 188.626 87.0556 188.626 84.5398V84.2575C188.626 81.331 189.554 79.1318 191.41 77.66C193.282 76.1882 196.074 75.4523 199.786 75.4523C201.61 75.4523 203.266 75.6235 204.754 75.9657C206.242 76.308 207.498 76.7016 208.522 77.1466L209.146 83.5387C208.026 83.0766 206.77 82.7001 205.378 82.4092C203.986 82.1011 202.538 81.9471 201.034 81.9471C199.306 81.9471 198.058 82.161 197.29 82.5888C196.538 83.0167 196.162 83.6242 196.162 84.4115V84.5142C196.162 85.1303 196.418 85.6266 196.93 86.0031C197.458 86.3796 198.306 86.6021 199.474 86.6705L204.178 87.0042C206.674 87.1583 208.498 87.8172 209.65 88.9809C210.818 90.1275 211.402 91.8047 211.402 94.0124C211.402 94.7825 211.322 95.5612 211.162 96.3485C211.018 97.1186 210.794 97.8631 210.49 98.5818H203.65Z" fill="white"/>
<path d="M175.894 95.1933V76.2481H183.214V95.1933H175.894ZM175.894 107.105V92.4465H183.214V107.105H175.894ZM167.47 94.0894V87.6974H179.926L180.43 94.0894H167.47ZM160.054 104.204C156.454 104.204 153.75 103.237 151.942 101.303C150.15 99.3691 149.254 96.3998 149.254 92.3952V88.3391C149.254 85.8576 149.534 83.59 150.094 81.5363C150.67 79.4656 151.518 77.7028 152.638 76.2481H160.174C159.054 77.9253 158.206 79.7565 157.63 81.7417C157.07 83.7098 156.79 85.8747 156.79 88.2365V92.6005C156.79 94.2435 157.054 95.4928 157.582 96.3485C158.126 97.1871 158.974 97.6063 160.126 97.6063C162.158 97.6063 163.174 96.2629 163.174 93.576V80.9973H170.398V93.3706C170.398 97.033 169.526 99.7542 167.782 101.534C166.054 103.314 163.478 104.204 160.054 104.204Z" fill="white"/>
<path d="M127.382 184.8L122.502 183.86V180.06L127.182 180.04C128.529 180.013 129.535 179.72 130.202 179.16C130.869 178.587 131.202 177.687 131.202 176.46V176.02C131.202 174.9 130.909 174.073 130.322 173.54C129.735 172.993 128.902 172.72 127.822 172.72C126.969 172.72 126.149 172.82 125.362 173.02C124.589 173.207 123.875 173.433 123.222 173.7L123.602 169.56C124.242 169.253 124.995 169 125.862 168.8C126.742 168.587 127.749 168.48 128.882 168.48C131.255 168.48 133.095 169.087 134.402 170.3C135.709 171.5 136.362 173.34 136.362 175.82V176.58C136.362 178.94 135.755 180.76 134.542 182.04C133.329 183.307 131.569 183.94 129.262 183.94H127.422L127.382 184.8ZM134.382 193.5C132.835 193.5 131.442 193.227 130.202 192.68C128.975 192.133 127.949 191.287 127.122 190.14C126.295 188.98 125.715 187.48 125.382 185.64L124.802 182.48L129.602 182.02L130.162 184.82C130.375 185.873 130.722 186.727 131.202 187.38C131.695 188.02 132.289 188.487 132.982 188.78C133.675 189.073 134.442 189.22 135.282 189.22C135.735 189.22 136.149 189.187 136.522 189.12C136.895 189.053 137.209 188.973 137.462 188.88L137.062 193.08C136.689 193.2 136.282 193.3 135.842 193.38C135.415 193.46 134.929 193.5 134.382 193.5ZM138.182 182.64C137.329 182.64 136.489 182.593 135.662 182.5C134.835 182.393 134.069 182.247 133.362 182.06L133.762 178.42H141.042C141.575 178.42 142.155 178.42 142.782 178.42C143.422 178.42 144.015 178.42 144.562 178.42L144.922 182.62L138.182 182.64ZM149.262 189.44C147.422 189.44 145.895 189.093 144.682 188.4C143.482 187.707 142.582 186.7 141.982 185.38C141.395 184.047 141.102 182.44 141.102 180.56V177.96C141.102 174.973 141.789 172.74 143.162 171.26C144.535 169.78 146.562 169.04 149.242 169.04C150.002 169.04 150.695 169.1 151.322 169.22C151.949 169.327 152.462 169.46 152.862 169.62L153.262 173.68C152.929 173.573 152.542 173.487 152.102 173.42C151.675 173.353 151.175 173.32 150.602 173.32C149.149 173.32 148.075 173.727 147.382 174.54C146.702 175.34 146.362 176.547 146.362 178.16V180.28C146.362 181.88 146.735 183.08 147.482 183.88C148.242 184.667 149.382 185.06 150.902 185.06C152.262 185.06 153.349 184.767 154.162 184.18C154.989 183.593 155.509 182.807 155.722 181.82L155.882 185.74H155.442C155.215 186.46 154.842 187.1 154.322 187.66C153.815 188.22 153.142 188.66 152.302 188.98C151.475 189.287 150.462 189.44 149.262 189.44ZM155.662 183.44V169.04H160.762V183.44H155.662ZM155.662 193V181.06H160.762V193H155.662ZM187.075 183.44V169.04H192.195V183.44H187.075ZM187.075 193V181.06H192.195V193H187.075ZM179.775 182.5V178.3H189.895L190.255 182.5H179.775ZM173.695 190.52C170.868 190.52 168.748 189.793 167.335 188.34C165.922 186.887 165.215 184.647 165.215 181.62V178.36C165.215 176.36 165.468 174.587 165.975 173.04C166.482 171.493 167.215 170.16 168.175 169.04H173.555C172.528 170.373 171.762 171.787 171.255 173.28C170.748 174.773 170.495 176.46 170.495 178.34V181.72C170.495 183.2 170.755 184.32 171.275 185.08C171.808 185.827 172.628 186.2 173.735 186.2C175.775 186.2 176.795 184.953 176.795 182.46V172.8H181.855V182.34C181.855 185.1 181.168 187.153 179.795 188.5C178.435 189.847 176.402 190.52 173.695 190.52ZM208.88 186.56C210.334 186.56 211.494 186.253 212.36 185.64C213.24 185.027 213.82 184.253 214.1 183.32L214.24 187.2H213.74C213.5 187.907 213.12 188.54 212.6 189.1C212.094 189.66 211.414 190.1 210.56 190.42C209.707 190.74 208.64 190.9 207.36 190.9C204.76 190.9 202.76 190.267 201.36 189C199.974 187.733 199.18 185.84 198.98 183.32L198.86 181.94L204.04 181.5L204.16 182.88C204.24 184.08 204.687 184.993 205.5 185.62C206.314 186.247 207.44 186.56 208.88 186.56ZM213.94 183.44V169.04H219.06V183.44H213.94ZM213.94 193V181.06H219.06V193H213.94ZM200.36 184.06L195.88 183.22V179.46L199.9 179.42C201.207 179.42 202.2 179.16 202.88 178.64C203.56 178.107 203.9 177.287 203.9 176.18V175.78C203.9 174.727 203.6 173.947 203 173.44C202.414 172.92 201.56 172.66 200.44 172.66C199.667 172.66 198.947 172.747 198.28 172.92C197.614 173.08 196.98 173.293 196.38 173.56L196.78 169.46C197.38 169.18 198.1 168.947 198.94 168.76C199.794 168.573 200.734 168.48 201.76 168.48C204.08 168.48 205.874 169.073 207.14 170.26C208.42 171.433 209.06 173.227 209.06 175.64V176.28C209.06 178.52 208.467 180.24 207.28 181.44C206.094 182.64 204.414 183.247 202.24 183.26H200.58L200.36 184.06ZM224.315 183.44V169.04H229.435V183.44H224.315ZM224.315 193V181.06H229.435V193H224.315ZM241.987 189.44C240.147 189.44 238.62 189.093 237.407 188.4C236.207 187.707 235.307 186.7 234.707 185.38C234.12 184.047 233.827 182.44 233.827 180.56V177.96C233.827 174.973 234.514 172.74 235.887 171.26C237.26 169.78 239.287 169.04 241.967 169.04C242.727 169.04 243.414 169.1 244.027 169.22C244.654 169.327 245.174 169.46 245.587 169.62L245.987 173.68C245.654 173.573 245.267 173.487 244.827 173.42C244.4 173.353 243.9 173.32 243.327 173.32C241.874 173.32 240.8 173.727 240.107 174.54C239.427 175.34 239.087 176.547 239.087 178.16V180.28C239.087 181.88 239.46 183.08 240.207 183.88C240.967 184.667 242.107 185.06 243.627 185.06C244.987 185.06 246.074 184.767 246.887 184.18C247.714 183.593 248.234 182.807 248.447 181.82L248.607 185.74H248.167C247.94 186.46 247.567 187.1 247.047 187.66C246.54 188.22 245.867 188.66 245.027 188.98C244.2 189.287 243.187 189.44 241.987 189.44ZM248.387 183.44V169.04H253.487V183.44H248.387ZM248.387 193V181.06H253.487V193H248.387ZM262.869 186.86C262.909 187.153 262.949 187.507 262.989 187.92C263.043 188.32 263.069 188.753 263.069 189.22C263.069 190.9 262.816 192.453 262.309 193.88C261.816 195.307 260.996 196.68 259.849 198L256.309 197.1C256.936 195.993 257.403 194.82 257.709 193.58C258.029 192.34 258.189 190.953 258.189 189.42C258.189 188.967 258.176 188.54 258.149 188.14C258.136 187.727 258.109 187.3 258.069 186.86H262.869ZM292.791 183.44V169.04H297.911V183.44H292.791ZM292.791 193V181.06H297.911V193H292.791ZM278.671 184.8L273.791 183.86V180.06L278.471 180.04C279.818 180.013 280.824 179.72 281.491 179.16C282.158 178.587 282.491 177.687 282.491 176.46V176.02C282.491 174.9 282.198 174.073 281.611 173.54C281.024 172.993 280.191 172.72 279.111 172.72C278.258 172.72 277.438 172.82 276.651 173.02C275.878 173.207 275.164 173.433 274.511 173.7L274.891 169.56C275.531 169.253 276.284 169 277.151 168.8C278.031 168.587 279.038 168.48 280.171 168.48C282.544 168.48 284.384 169.087 285.691 170.3C286.998 171.5 287.651 173.34 287.651 175.82V176.58C287.651 178.94 287.044 180.76 285.831 182.04C284.618 183.307 282.858 183.94 280.551 183.94H278.711L278.671 184.8ZM285.671 193.5C284.124 193.5 282.731 193.227 281.491 192.68C280.264 192.133 279.238 191.287 278.411 190.14C277.584 188.98 277.004 187.48 276.671 185.64L276.091 182.48L280.891 182.02L281.451 184.82C281.664 185.873 282.011 186.727 282.491 187.38C282.984 188.02 283.578 188.487 284.271 188.78C284.964 189.073 285.731 189.22 286.571 189.22C287.024 189.22 287.438 189.187 287.811 189.12C288.184 189.053 288.498 188.973 288.751 188.88L288.351 193.08C287.978 193.2 287.571 193.3 287.131 193.38C286.704 193.46 286.218 193.5 285.671 193.5ZM289.471 182.64C288.618 182.64 287.778 182.593 286.951 182.5C286.124 182.393 285.358 182.247 284.651 182.06L285.051 178.42H292.331C292.864 178.42 293.444 178.42 294.071 178.42C294.711 178.42 295.304 178.42 295.851 178.42L296.211 182.62L289.471 182.64ZM321.183 183.44V169.04H326.303V183.44H321.183ZM321.183 193V181.06H326.303V193H321.183ZM312.263 192.94C309.01 192.94 306.55 192.08 304.883 190.36C303.23 188.64 302.403 186.1 302.403 182.74V179C302.403 175.64 303.217 173.113 304.843 171.42C306.483 169.727 308.883 168.88 312.043 168.88C313.017 168.88 313.903 168.953 314.703 169.1C315.517 169.233 316.217 169.413 316.803 169.64L317.223 173.72C316.717 173.573 316.137 173.453 315.483 173.36C314.83 173.253 314.097 173.2 313.283 173.2C311.403 173.2 309.997 173.7 309.063 174.7C308.143 175.7 307.683 177.227 307.683 179.28V182.46C307.683 184.527 308.15 186.073 309.083 187.1C310.03 188.113 311.443 188.62 313.323 188.62C314.203 188.62 314.983 188.553 315.663 188.42C316.343 188.287 316.957 188.113 317.503 187.9L317.103 192.18C316.477 192.407 315.777 192.593 315.003 192.74C314.23 192.873 313.317 192.94 312.263 192.94ZM311.923 183.8L312.143 179.16L323.983 176L323.863 180.62L311.923 183.8ZM331.542 183.44V169.04H336.662V183.44H331.542ZM331.542 193V181.06H336.662V193H331.542ZM343.533 181.4V175.04C343.533 174.293 343.393 173.74 343.113 173.38C342.833 173.02 342.373 172.84 341.733 172.84C341.48 172.84 341.227 172.86 340.973 172.9C340.733 172.94 340.5 172.993 340.273 173.06L340.573 169.2C341.04 169.053 341.533 168.947 342.053 168.88C342.587 168.8 343.153 168.76 343.753 168.76C345.38 168.76 346.593 169.207 347.393 170.1C348.207 170.98 348.613 172.36 348.613 174.24V181.38L343.533 181.4ZM343.893 190.58C343.453 189.66 343.06 188.713 342.713 187.74C342.367 186.767 342.08 185.747 341.853 184.68C341.627 183.6 341.473 182.447 341.393 181.22L343.713 179.8H348.433V190.58H343.893ZM347.453 183.72V179.52H357.393L357.773 183.72H347.453ZM356.333 183.44V169.04H361.453V183.44H356.333ZM356.333 193V181.06H361.453V193H356.333ZM379.798 183.44V169.04H384.898V183.44H379.798ZM379.798 193V181.06H384.898V193H379.798ZM368.838 193C368.238 191.933 367.698 190.807 367.218 189.62C366.738 188.42 366.358 187.207 366.078 185.98C365.811 184.74 365.678 183.527 365.678 182.34C365.678 179.847 366.331 177.94 367.638 176.62C368.958 175.287 371.025 174.62 373.838 174.62H382.298V178.82H375.278C373.785 178.82 372.691 179.167 371.998 179.86C371.305 180.54 370.958 181.587 370.958 183C370.958 183.973 371.091 185.02 371.358 186.14C371.638 187.26 372.025 188.407 372.518 189.58C373.011 190.74 373.565 191.88 374.178 193H368.838ZM390.175 171V164.1C390.175 162.927 389.961 162.067 389.535 161.52C389.121 160.96 388.455 160.68 387.535 160.68C386.641 160.68 385.988 160.953 385.575 161.5C385.148 162.033 384.935 162.84 384.935 163.92V167.6H379.815V164.18C379.815 161.633 380.475 159.733 381.795 158.48C383.115 157.227 385.028 156.6 387.535 156.6C389.148 156.6 390.528 156.887 391.675 157.46C392.835 158.033 393.728 158.893 394.355 160.04C394.981 161.187 395.295 162.62 395.295 164.34V171H390.175ZM390.175 183.44V169.04H395.295V183.44H390.175ZM390.175 193V181.06H395.295V193H390.175ZM404.666 186.86C404.706 187.153 404.746 187.507 404.786 187.92C404.84 188.32 404.866 188.753 404.866 189.22C404.866 190.9 404.613 192.453 404.106 193.88C403.613 195.307 402.793 196.68 401.646 198L398.106 197.1C398.733 195.993 399.2 194.82 399.506 193.58C399.826 192.34 399.986 190.953 399.986 189.42C399.986 188.967 399.973 188.54 399.946 188.14C399.933 187.727 399.906 187.3 399.866 186.86H404.666ZM174.861 237.44V223.04H179.981V237.44H174.861ZM174.861 247V235.06H179.981V247H174.861ZM160.741 238.8L155.861 237.86V234.06L160.541 234.04C161.888 234.013 162.895 233.72 163.561 233.16C164.228 232.587 164.561 231.687 164.561 230.46V230.02C164.561 228.9 164.268 228.073 163.681 227.54C163.095 226.993 162.261 226.72 161.181 226.72C160.328 226.72 159.508 226.82 158.721 227.02C157.948 227.207 157.235 227.433 156.581 227.7L156.961 223.56C157.601 223.253 158.355 223 159.221 222.8C160.101 222.587 161.108 222.48 162.241 222.48C164.615 222.48 166.455 223.087 167.761 224.3C169.068 225.5 169.721 227.34 169.721 229.82V230.58C169.721 232.94 169.115 234.76 167.901 236.04C166.688 237.307 164.928 237.94 162.621 237.94H160.781L160.741 238.8ZM167.741 247.5C166.195 247.5 164.801 247.227 163.561 246.68C162.335 246.133 161.308 245.287 160.481 244.14C159.655 242.98 159.075 241.48 158.741 239.64L158.161 236.48L162.961 236.02L163.521 238.82C163.735 239.873 164.081 240.727 164.561 241.38C165.055 242.02 165.648 242.487 166.341 242.78C167.035 243.073 167.801 243.22 168.641 243.22C169.095 243.22 169.508 243.187 169.881 243.12C170.255 243.053 170.568 242.973 170.821 242.88L170.421 247.08C170.048 247.2 169.641 247.3 169.201 247.38C168.775 247.46 168.288 247.5 167.741 247.5ZM171.541 236.64C170.688 236.64 169.848 236.593 169.021 236.5C168.195 236.393 167.428 236.247 166.721 236.06L167.121 232.42H174.401C174.935 232.42 175.515 232.42 176.141 232.42C176.781 232.42 177.375 232.42 177.921 232.42L178.281 236.62L171.541 236.64ZM189.734 238.74L184.754 237.88V229.26C184.754 227.02 185.307 225.333 186.414 224.2C187.534 223.053 189.14 222.48 191.234 222.48C192.287 222.48 193.214 222.62 194.014 222.9C194.827 223.167 195.58 223.573 196.274 224.12C196.967 224.653 197.667 225.32 198.374 226.12L203.514 231.9L199.594 234.46L194.534 228.56C194.12 228.067 193.747 227.68 193.414 227.4C193.094 227.12 192.787 226.92 192.494 226.8C192.2 226.68 191.887 226.62 191.554 226.62C190.967 226.62 190.514 226.82 190.194 227.22C189.887 227.607 189.734 228.213 189.734 229.04V238.74ZM200.854 247.5C198.134 247.5 196.054 246.94 194.614 245.82C193.187 244.7 192.474 243.04 192.474 240.84V240.58C192.474 239.633 192.62 238.8 192.914 238.08C193.207 237.347 193.634 236.653 194.194 236C194.767 235.333 195.46 234.64 196.274 233.92L199.274 231.24L202.514 234.14L199.974 236.28C199.254 236.893 198.68 237.48 198.254 238.04C197.827 238.587 197.614 239.307 197.614 240.2V240.48C197.614 241.44 197.887 242.16 198.434 242.64C198.98 243.107 199.787 243.34 200.854 243.34C201.894 243.34 202.68 243.107 203.214 242.64C203.76 242.16 204.034 241.44 204.034 240.48V240.26C204.034 239.407 203.82 238.66 203.394 238.02C202.967 237.38 202.414 236.673 201.734 235.9L199.534 233.44L203.314 231.02L205.434 233.4C206.18 234.227 206.834 235.007 207.394 235.74C207.954 236.473 208.387 237.227 208.694 238C209.014 238.76 209.174 239.633 209.174 240.62V240.84C209.174 243.04 208.467 244.7 207.054 245.82C205.64 246.94 203.574 247.5 200.854 247.5ZM213.174 247V234.66C213.174 233.54 213.18 232.427 213.194 231.32C213.22 230.2 213.26 229.08 213.314 227.96C213.38 226.84 213.447 225.713 213.514 224.58V223.04H218.294V247H213.174ZM203.874 234.02L200.354 231.42L210.074 223.04H216.374V223.5L203.874 234.02ZM240.374 237.44V223.04H245.474V237.44H240.374ZM240.374 247V235.06H245.474V247H240.374ZM227.854 242.54C226.721 242.54 225.707 242.433 224.814 242.22C223.921 242.007 223.167 241.733 222.554 241.4L222.154 237.08C222.794 237.4 223.474 237.667 224.194 237.88C224.927 238.093 225.761 238.2 226.694 238.2C228.041 238.2 229.047 237.8 229.714 237C230.394 236.2 230.734 235 230.734 233.4V231.5C230.734 229.927 230.401 228.747 229.734 227.96C229.067 227.173 228.081 226.78 226.774 226.78C225.934 226.78 225.154 226.893 224.434 227.12C223.727 227.333 223.081 227.6 222.494 227.92L222.894 223.64C223.521 223.307 224.261 223.033 225.114 222.82C225.981 222.593 226.941 222.48 227.994 222.48C229.687 222.48 231.134 222.793 232.334 223.42C233.534 224.047 234.447 225.013 235.074 226.32C235.714 227.627 236.034 229.293 236.034 231.32V233.64C236.034 235.68 235.707 237.36 235.054 238.68C234.414 239.987 233.487 240.96 232.274 241.6C231.061 242.227 229.587 242.54 227.854 242.54ZM263.822 237.44V223.04H268.922V237.44H263.822ZM263.822 247V235.06H268.922V247H263.822ZM252.862 247C252.262 245.933 251.722 244.807 251.242 243.62C250.762 242.42 250.382 241.207 250.102 239.98C249.835 238.74 249.702 237.527 249.702 236.34C249.702 233.847 250.355 231.94 251.662 230.62C252.982 229.287 255.048 228.62 257.862 228.62H266.322V232.82H259.302C257.808 232.82 256.715 233.167 256.022 233.86C255.328 234.54 254.982 235.587 254.982 237C254.982 237.973 255.115 239.02 255.382 240.14C255.662 241.26 256.048 242.407 256.542 243.58C257.035 244.74 257.588 245.88 258.202 247H252.862ZM274.198 237.44V223.04H279.318V237.44H274.198ZM274.198 247V235.06H279.318V247H274.198ZM309.939 237.44V223.04H315.059V237.44H309.939ZM309.939 247V235.06H315.059V247H309.939ZM295.819 238.8L290.939 237.86V234.06L295.619 234.04C296.966 234.013 297.973 233.72 298.639 233.16C299.306 232.587 299.639 231.687 299.639 230.46V230.02C299.639 228.9 299.346 228.073 298.759 227.54C298.173 226.993 297.339 226.72 296.259 226.72C295.406 226.72 294.586 226.82 293.799 227.02C293.026 227.207 292.313 227.433 291.659 227.7L292.039 223.56C292.679 223.253 293.433 223 294.299 222.8C295.179 222.587 296.186 222.48 297.319 222.48C299.693 222.48 301.533 223.087 302.839 224.3C304.146 225.5 304.799 227.34 304.799 229.82V230.58C304.799 232.94 304.193 234.76 302.979 236.04C301.766 237.307 300.006 237.94 297.699 237.94H295.859L295.819 238.8ZM302.819 247.5C301.273 247.5 299.879 247.227 298.639 246.68C297.413 246.133 296.386 245.287 295.559 244.14C294.733 242.98 294.153 241.48 293.819 239.64L293.239 236.48L298.039 236.02L298.599 238.82C298.813 239.873 299.159 240.727 299.639 241.38C300.133 242.02 300.726 242.487 301.419 242.78C302.113 243.073 302.879 243.22 303.719 243.22C304.173 243.22 304.586 243.187 304.959 243.12C305.333 243.053 305.646 242.973 305.899 242.88L305.499 247.08C305.126 247.2 304.719 247.3 304.279 247.38C303.853 247.46 303.366 247.5 302.819 247.5ZM306.619 236.64C305.766 236.64 304.926 236.593 304.099 236.5C303.273 236.393 302.506 236.247 301.799 236.06L302.199 232.42H309.479C310.013 232.42 310.593 232.42 311.219 232.42C311.859 232.42 312.453 232.42 312.999 232.42L313.359 236.62L306.619 236.64ZM338.332 237.44V223.04H343.452V237.44H338.332ZM338.332 247V235.06H343.452V247H338.332ZM329.412 246.94C326.159 246.94 323.699 246.08 322.032 244.36C320.379 242.64 319.552 240.1 319.552 236.74V233C319.552 229.64 320.365 227.113 321.992 225.42C323.632 223.727 326.032 222.88 329.192 222.88C330.165 222.88 331.052 222.953 331.852 223.1C332.665 223.233 333.365 223.413 333.952 223.64L334.372 227.72C333.865 227.573 333.285 227.453 332.632 227.36C331.979 227.253 331.245 227.2 330.432 227.2C328.552 227.2 327.145 227.7 326.212 228.7C325.292 229.7 324.832 231.227 324.832 233.28V236.46C324.832 238.527 325.299 240.073 326.232 241.1C327.179 242.113 328.592 242.62 330.472 242.62C331.352 242.62 332.132 242.553 332.812 242.42C333.492 242.287 334.105 242.113 334.652 241.9L334.252 246.18C333.625 246.407 332.925 246.593 332.152 246.74C331.379 246.873 330.465 246.94 329.412 246.94ZM329.072 237.8L329.292 233.16L341.132 230L341.012 234.62L329.072 237.8ZM353.01 240.4C351.89 240.4 350.877 240.287 349.97 240.06C349.077 239.833 348.324 239.553 347.71 239.22L347.31 234.92C347.95 235.253 348.63 235.527 349.35 235.74C350.084 235.953 350.917 236.06 351.85 236.06C353.197 236.06 354.204 235.687 354.87 234.94C355.55 234.193 355.89 233.08 355.89 231.6V231.2C355.89 229.72 355.557 228.613 354.89 227.88C354.224 227.147 353.237 226.78 351.93 226.78C351.064 226.78 350.277 226.887 349.57 227.1C348.877 227.313 348.237 227.58 347.65 227.9L348.05 223.64C348.677 223.307 349.417 223.033 350.27 222.82C351.137 222.593 352.097 222.48 353.15 222.48C354.844 222.48 356.29 222.787 357.49 223.4C358.69 224 359.604 224.933 360.23 226.2C360.87 227.453 361.19 229.067 361.19 231.04V231.76C361.19 234.733 360.47 236.92 359.03 238.32C357.604 239.707 355.597 240.4 353.01 240.4ZM357.51 251.4C356.524 250.72 355.697 250.027 355.03 249.32C354.364 248.613 353.737 247.733 353.15 246.68L354.47 244.06L359.99 241.5C360.777 241.127 361.53 240.8 362.25 240.52C362.97 240.227 363.73 239.953 364.53 239.7C365.33 239.433 366.224 239.167 367.21 238.9L368.19 242.04L358.03 246.88L358.75 245.02L360.97 249.7L357.51 251.4ZM365.69 247.5V240.3H370.59V247.5H365.69ZM365.47 241.08V223.04H370.59V241.08H365.47ZM145.975 289.4V283.04C145.975 282.293 145.835 281.74 145.555 281.38C145.275 281.02 144.815 280.84 144.175 280.84C143.922 280.84 143.668 280.86 143.415 280.9C143.175 280.94 142.942 280.993 142.715 281.06L143.015 277.2C143.482 277.053 143.975 276.947 144.495 276.88C145.028 276.8 145.595 276.76 146.195 276.76C147.822 276.76 149.035 277.207 149.835 278.1C150.648 278.98 151.055 280.36 151.055 282.24V289.38L145.975 289.4ZM146.335 298.58C145.895 297.66 145.502 296.713 145.155 295.74C144.808 294.767 144.522 293.747 144.295 292.68C144.068 291.6 143.915 290.447 143.835 289.22L146.155 287.8H150.875V298.58H146.335ZM149.895 291.72V287.52H159.835L160.215 291.72H149.895ZM158.775 291.44V277.04H163.895V291.44H158.775ZM158.775 301V289.06H163.895V301H158.775ZM169.14 291.44V277.04H174.26V291.44H169.14ZM169.14 301V289.06H174.26V301H169.14ZM179.491 277.98C179.491 277.593 179.491 277.233 179.491 276.9C179.491 276.567 179.491 276.24 179.491 275.92C179.491 275.6 179.491 275.273 179.491 274.94C179.491 274.593 179.491 274.22 179.491 273.82C179.491 271.713 179.891 269.98 180.691 268.62C181.504 267.26 182.644 266.253 184.111 265.6C185.578 264.933 187.311 264.6 189.311 264.6C191.124 264.6 192.804 264.94 194.351 265.62C195.898 266.287 197.298 267.3 198.551 268.66C199.818 270.02 200.918 271.733 201.851 273.8L197.751 275.68C197.098 274.213 196.364 272.967 195.551 271.94C194.738 270.913 193.824 270.133 192.811 269.6C191.811 269.053 190.704 268.78 189.491 268.78C187.918 268.78 186.711 269.187 185.871 270C185.031 270.8 184.611 272.073 184.611 273.82C184.611 274.14 184.611 274.46 184.611 274.78C184.611 275.087 184.611 275.407 184.611 275.74C184.611 276.073 184.611 276.427 184.611 276.8C184.611 277.173 184.611 277.567 184.611 277.98H179.491ZM179.491 291.44V277.04H184.611V291.44H179.491ZM179.491 301V289.06H184.611V301H179.491ZM200.003 302.24C196.376 302.24 193.629 301.553 191.763 300.18C189.896 298.793 188.963 296.733 188.963 294C188.963 293.427 188.996 292.853 189.063 292.28C189.129 291.707 189.223 291.133 189.343 290.56H194.363C194.323 290.987 194.289 291.407 194.263 291.82C194.249 292.22 194.243 292.633 194.243 293.06C194.243 294.7 194.796 295.92 195.903 296.72C197.023 297.507 198.629 297.9 200.723 297.9C202.016 297.9 203.243 297.787 204.403 297.56C205.576 297.32 206.669 297.02 207.683 296.66L207.263 301.08C206.289 301.44 205.183 301.72 203.943 301.92C202.703 302.133 201.389 302.24 200.003 302.24ZM202.403 294.56C202.536 294.16 202.629 293.78 202.683 293.42C202.749 293.06 202.783 292.7 202.783 292.34C202.783 291.353 202.543 290.633 202.063 290.18C201.583 289.713 200.736 289.44 199.523 289.36L196.303 289.18C194.209 289.06 192.596 288.507 191.463 287.52C190.343 286.533 189.783 285.107 189.783 283.24V283.02C189.783 280.847 190.523 279.213 192.003 278.12C193.496 277.027 195.723 276.48 198.683 276.48C200.176 276.48 201.523 276.613 202.723 276.88C203.923 277.147 204.923 277.453 205.723 277.8L206.183 282.1C205.276 281.713 204.249 281.393 203.103 281.14C201.969 280.873 200.756 280.74 199.463 280.74C197.929 280.74 196.809 280.947 196.103 281.36C195.409 281.76 195.063 282.347 195.063 283.12V283.2C195.063 283.8 195.303 284.28 195.783 284.64C196.263 284.987 197.043 285.2 198.123 285.28L201.983 285.56C203.983 285.72 205.476 286.24 206.463 287.12C207.463 287.987 207.963 289.293 207.963 291.04C207.963 291.627 207.896 292.22 207.763 292.82C207.643 293.42 207.456 294 207.203 294.56H202.403ZM225.443 291.44V277.04H230.543V291.44H225.443ZM225.443 301V289.06H230.543V301H225.443ZM214.483 301C213.883 299.933 213.343 298.807 212.863 297.62C212.383 296.42 212.003 295.207 211.723 293.98C211.456 292.74 211.323 291.527 211.323 290.34C211.323 287.847 211.976 285.94 213.283 284.62C214.603 283.287 216.669 282.62 219.483 282.62H227.943V286.82H220.923C219.429 286.82 218.336 287.167 217.643 287.86C216.949 288.54 216.603 289.587 216.603 291C216.603 291.973 216.736 293.02 217.003 294.14C217.283 295.26 217.669 296.407 218.163 297.58C218.656 298.74 219.209 299.88 219.823 301H214.483ZM235.819 279V272.1C235.819 270.927 235.606 270.067 235.179 269.52C234.766 268.96 234.099 268.68 233.179 268.68C232.286 268.68 231.633 268.953 231.219 269.5C230.793 270.033 230.579 270.84 230.579 271.92V275.6H225.459V272.18C225.459 269.633 226.119 267.733 227.439 266.48C228.759 265.227 230.673 264.6 233.179 264.6C234.793 264.6 236.173 264.887 237.319 265.46C238.479 266.033 239.373 266.893 239.999 268.04C240.626 269.187 240.939 270.62 240.939 272.34V279H235.819ZM235.819 291.44V277.04H240.939V291.44H235.819ZM235.819 301V289.06H240.939V301H235.819ZM255.74 289.4V283.04C255.74 282.293 255.6 281.74 255.32 281.38C255.04 281.02 254.58 280.84 253.94 280.84C253.687 280.84 253.434 280.86 253.18 280.9C252.94 280.94 252.707 280.993 252.48 281.06L252.78 277.2C253.247 277.053 253.74 276.947 254.26 276.88C254.794 276.8 255.36 276.76 255.96 276.76C257.587 276.76 258.8 277.207 259.6 278.1C260.414 278.98 260.82 280.36 260.82 282.24V289.38L255.74 289.4ZM256.1 298.58C255.66 297.66 255.267 296.713 254.92 295.74C254.574 294.767 254.287 293.747 254.06 292.68C253.834 291.6 253.68 290.447 253.6 289.22L255.92 287.8H260.64V298.58H256.1ZM259.66 291.72V287.52H269.6L269.98 291.72H259.66ZM268.54 291.44V277.04H273.66V291.44H268.54ZM268.54 301V289.06H273.66V301H268.54ZM278.905 291.44V277.04H284.025V291.44H278.905ZM278.905 301V289.06H284.025V301H278.905ZM306.097 291.44V277.04H311.197V291.44H306.097ZM306.097 301V289.06H311.197V301H306.097ZM293.577 296.54C292.443 296.54 291.43 296.433 290.537 296.22C289.643 296.007 288.89 295.733 288.277 295.4L287.877 291.08C288.517 291.4 289.197 291.667 289.917 291.88C290.65 292.093 291.483 292.2 292.417 292.2C293.763 292.2 294.77 291.8 295.437 291C296.117 290.2 296.457 289 296.457 287.4V285.5C296.457 283.927 296.123 282.747 295.457 281.96C294.79 281.173 293.803 280.78 292.497 280.78C291.657 280.78 290.877 280.893 290.157 281.12C289.45 281.333 288.803 281.6 288.217 281.92L288.617 277.64C289.243 277.307 289.983 277.033 290.837 276.82C291.703 276.593 292.663 276.48 293.717 276.48C295.41 276.48 296.857 276.793 298.057 277.42C299.257 278.047 300.17 279.013 300.797 280.32C301.437 281.627 301.757 283.293 301.757 285.32V287.64C301.757 289.68 301.43 291.36 300.777 292.68C300.137 293.987 299.21 294.96 297.997 295.6C296.783 296.227 295.31 296.54 293.577 296.54ZM309.926 274.28L306.806 275.6C305.633 275.013 304.746 274.22 304.146 273.22C303.546 272.22 303.246 271.027 303.246 269.64V269.44C303.246 267.76 303.799 266.413 304.906 265.4C306.026 264.373 307.679 263.86 309.866 263.86C310.559 263.86 311.199 263.9 311.786 263.98C312.373 264.047 312.966 264.16 313.566 264.32L314.046 268.18C313.579 268.047 313.159 267.96 312.786 267.92C312.426 267.88 312.039 267.86 311.626 267.86C310.559 267.86 309.753 268.113 309.206 268.62C308.659 269.113 308.386 269.847 308.386 270.82V270.98C308.386 271.647 308.513 272.247 308.766 272.78C309.019 273.313 309.406 273.813 309.926 274.28ZM324.784 301.5C321.811 301.5 319.551 300.927 318.004 299.78C316.458 298.62 315.684 296.96 315.684 294.8V294.52C315.684 292.813 316.124 291.487 317.004 290.54C317.884 289.58 319.178 288.987 320.884 288.76V288.64C319.231 288.453 317.998 287.927 317.184 287.06C316.384 286.18 315.984 284.9 315.984 283.22V282.96C315.984 280.787 316.738 279.167 318.244 278.1C319.751 277.02 321.878 276.48 324.624 276.48C326.011 276.48 327.258 276.613 328.364 276.88C329.484 277.133 330.411 277.44 331.144 277.8L331.624 282.04C330.784 281.653 329.844 281.333 328.804 281.08C327.778 280.827 326.698 280.7 325.564 280.7C324.151 280.7 323.078 280.947 322.344 281.44C321.624 281.933 321.264 282.667 321.264 283.64V283.84C321.264 284.733 321.571 285.4 322.184 285.84C322.798 286.28 323.718 286.513 324.944 286.54L329.684 286.66V290.74L324.964 290.86C323.618 290.9 322.618 291.16 321.964 291.64C321.311 292.12 320.984 292.867 320.984 293.88V294.06C320.984 295.113 321.364 295.9 322.124 296.42C322.898 296.927 324.044 297.18 325.564 297.18C326.898 297.18 328.084 297.027 329.124 296.72C330.178 296.4 331.151 296 332.044 295.52L331.624 299.98C330.878 300.393 329.924 300.747 328.764 301.04C327.604 301.347 326.278 301.5 324.784 301.5ZM355.704 291.44V277.04H360.824V291.44H355.704ZM355.704 301V289.06H360.824V301H355.704ZM339.784 294.48L334.364 293.54V289.7L340.804 289.66C342.724 289.647 344.164 289.267 345.124 288.52C346.097 287.76 346.584 286.567 346.584 284.94V283.96C346.584 282.787 346.311 281.913 345.764 281.34C345.231 280.753 344.431 280.46 343.364 280.46C342.297 280.46 341.491 280.74 340.944 281.3C340.397 281.86 340.124 282.7 340.124 283.82V284C340.124 284.507 340.157 285.027 340.224 285.56C340.304 286.093 340.391 286.587 340.484 287.04H335.904C335.691 286.56 335.517 286.02 335.384 285.42C335.264 284.807 335.204 284.193 335.204 283.58V283.42C335.204 281.113 335.891 279.38 337.264 278.22C338.637 277.06 340.671 276.48 343.364 276.48C346.111 276.48 348.191 277.12 349.604 278.4C351.017 279.667 351.724 281.587 351.724 284.16V285.16C351.724 287.893 350.911 289.973 349.284 291.4C347.671 292.827 345.344 293.54 342.304 293.54H339.844L339.784 294.48ZM346.904 301.5C345.264 301.5 343.771 301.233 342.424 300.7C341.077 300.167 339.944 299.293 339.024 298.08C338.117 296.853 337.484 295.207 337.124 293.14L336.924 291.98L341.824 291.2L342.064 292.42C342.317 293.713 342.724 294.707 343.284 295.4C343.857 296.093 344.551 296.573 345.364 296.84C346.177 297.093 347.064 297.22 348.024 297.22C348.677 297.22 349.237 297.18 349.704 297.1C350.171 297.02 350.657 296.907 351.164 296.76L350.764 300.9C350.271 301.073 349.677 301.213 348.984 301.32C348.304 301.44 347.611 301.5 346.904 301.5ZM359.575 274.28L356.455 275.6C355.281 275.013 354.395 274.22 353.795 273.22C353.195 272.22 352.895 271.027 352.895 269.64V269.44C352.895 267.76 353.448 266.413 354.555 265.4C355.675 264.373 357.328 263.86 359.515 263.86C360.208 263.86 360.848 263.9 361.435 263.98C362.021 264.047 362.615 264.16 363.215 264.32L363.695 268.18C363.228 268.047 362.808 267.96 362.435 267.92C362.075 267.88 361.688 267.86 361.275 267.86C360.208 267.86 359.401 268.113 358.855 268.62C358.308 269.113 358.035 269.847 358.035 270.82V270.98C358.035 271.647 358.161 272.247 358.415 272.78C358.668 273.313 359.055 273.813 359.575 274.28ZM378.574 291.44V277.04H383.674V291.44H378.574ZM378.574 301V289.06H383.674V301H378.574ZM367.074 296.76C366.66 295.64 366.287 294.487 365.954 293.3C365.62 292.1 365.347 290.847 365.134 289.54C364.92 288.22 364.767 286.813 364.674 285.32L366.994 283.88H371.414V296.76H367.074ZM370.054 288.08V283.88H380.474L380.834 288.08H370.054ZM191.893 343.4V337.04C191.893 336.293 191.753 335.74 191.473 335.38C191.193 335.02 190.733 334.84 190.093 334.84C189.839 334.84 189.586 334.86 189.333 334.9C189.093 334.94 188.859 334.993 188.633 335.06L188.933 331.2C189.399 331.053 189.893 330.947 190.413 330.88C190.946 330.8 191.513 330.76 192.113 330.76C193.739 330.76 194.953 331.207 195.753 332.1C196.566 332.98 196.973 334.36 196.973 336.24V343.38L191.893 343.4ZM192.253 352.58C191.813 351.66 191.419 350.713 191.073 349.74C190.726 348.767 190.439 347.747 190.213 346.68C189.986 345.6 189.833 344.447 189.753 343.22L192.073 341.8H196.793V352.58H192.253ZM195.813 345.72V341.52H205.753L206.133 345.72H195.813ZM204.693 345.44V331.04H209.813V345.44H204.693ZM204.693 355V343.06H209.813V355H204.693ZM215.058 345.44V331.04H220.178V345.44H215.058ZM215.058 355V343.06H220.178V355H215.058ZM216.718 329.6C214.478 328.48 212.224 327.353 209.957 326.22C207.691 325.073 205.437 323.927 203.197 322.78L205.877 318.3C207.997 319.673 210.117 321.053 212.237 322.44C214.358 323.813 216.471 325.187 218.578 326.56L216.718 329.6ZM225.409 331.98C225.409 331.593 225.409 331.233 225.409 330.9C225.409 330.567 225.409 330.24 225.409 329.92C225.409 329.6 225.409 329.273 225.409 328.94C225.409 328.593 225.409 328.22 225.409 327.82C225.409 325.713 225.809 323.98 226.609 322.62C227.422 321.26 228.562 320.253 230.029 319.6C231.496 318.933 233.229 318.6 235.229 318.6C237.042 318.6 238.722 318.94 240.269 319.62C241.816 320.287 243.216 321.3 244.469 322.66C245.736 324.02 246.836 325.733 247.769 327.8L243.669 329.68C243.016 328.213 242.282 326.967 241.469 325.94C240.656 324.913 239.742 324.133 238.729 323.6C237.729 323.053 236.622 322.78 235.409 322.78C233.836 322.78 232.629 323.187 231.789 324C230.949 324.8 230.529 326.073 230.529 327.82C230.529 328.14 230.529 328.46 230.529 328.78C230.529 329.087 230.529 329.407 230.529 329.74C230.529 330.073 230.529 330.427 230.529 330.8C230.529 331.173 230.529 331.567 230.529 331.98H225.409ZM225.409 345.44V331.04H230.529V345.44H225.409ZM225.409 355V343.06H230.529V355H225.409ZM244.941 355.5C241.447 355.5 238.861 354.86 237.181 353.58C235.514 352.3 234.681 350.433 234.681 347.98V347.56C234.681 346.253 234.921 345.113 235.401 344.14C235.894 343.167 236.681 342.353 237.761 341.7C238.854 341.033 240.294 340.527 242.081 340.18L244.481 339.68C245.494 339.467 246.214 339.16 246.641 338.76C247.081 338.347 247.301 337.827 247.301 337.2V337.1C247.301 336.26 246.967 335.66 246.301 335.3C245.647 334.927 244.574 334.74 243.081 334.74C241.947 334.74 240.821 334.873 239.701 335.14C238.594 335.393 237.554 335.693 236.581 336.04L237.141 331.74C237.874 331.42 238.827 331.133 240.001 330.88C241.174 330.613 242.454 330.48 243.841 330.48C246.654 330.48 248.814 331.013 250.321 332.08C251.827 333.133 252.581 334.78 252.581 337.02V337.32C252.581 338.413 252.367 339.367 251.941 340.18C251.527 340.98 250.894 341.653 250.041 342.2C249.187 342.747 248.107 343.16 246.801 343.44L243.801 344.06C242.894 344.26 242.154 344.52 241.581 344.84C241.021 345.16 240.607 345.553 240.341 346.02C240.087 346.487 239.961 347.047 239.961 347.7V347.86C239.961 348.98 240.401 349.807 241.281 350.34C242.174 350.873 243.554 351.14 245.421 351.14C246.274 351.14 247.147 351.067 248.041 350.92C248.947 350.773 249.814 350.567 250.641 350.3C251.481 350.02 252.241 349.693 252.921 349.32L252.481 354.04C251.521 354.48 250.394 354.833 249.101 355.1C247.807 355.367 246.421 355.5 244.941 355.5ZM264.135 351.44C262.295 351.44 260.769 351.093 259.555 350.4C258.355 349.707 257.455 348.7 256.855 347.38C256.269 346.047 255.975 344.44 255.975 342.56V339.96C255.975 336.973 256.662 334.74 258.035 333.26C259.409 331.78 261.435 331.04 264.115 331.04C264.875 331.04 265.562 331.1 266.175 331.22C266.802 331.327 267.322 331.46 267.735 331.62L268.135 335.68C267.802 335.573 267.415 335.487 266.975 335.42C266.549 335.353 266.049 335.32 265.475 335.32C264.022 335.32 262.949 335.727 262.255 336.54C261.575 337.34 261.235 338.547 261.235 340.16V342.28C261.235 343.88 261.609 345.08 262.355 345.88C263.115 346.667 264.255 347.06 265.775 347.06C267.135 347.06 268.222 346.767 269.035 346.18C269.862 345.593 270.382 344.807 270.595 343.82L270.755 347.74H270.315C270.089 348.46 269.715 349.1 269.195 349.66C268.689 350.22 268.015 350.66 267.175 350.98C266.349 351.287 265.335 351.44 264.135 351.44ZM270.535 345.44V331.04H275.635V345.44H270.535ZM270.535 355V343.06H275.635V355H270.535ZM272.16 329.6C269.92 328.48 267.667 327.353 265.4 326.22C263.133 325.073 260.88 323.927 258.64 322.78L261.32 318.3C263.44 319.673 265.56 321.053 267.68 322.44C269.8 323.813 271.92 325.187 274.04 326.56L272.16 329.6ZM300.958 345.44V331.04H306.078V345.44H300.958ZM300.958 355V343.06H306.078V355H300.958ZM285.038 348.48L279.618 347.54V343.7L286.058 343.66C287.978 343.647 289.418 343.267 290.378 342.52C291.351 341.76 291.838 340.567 291.838 338.94V337.96C291.838 336.787 291.564 335.913 291.018 335.34C290.484 334.753 289.684 334.46 288.618 334.46C287.551 334.46 286.744 334.74 286.198 335.3C285.651 335.86 285.378 336.7 285.378 337.82V338C285.378 338.507 285.411 339.027 285.478 339.56C285.558 340.093 285.644 340.587 285.738 341.04H281.158C280.944 340.56 280.771 340.02 280.638 339.42C280.518 338.807 280.458 338.193 280.458 337.58V337.42C280.458 335.113 281.144 333.38 282.518 332.22C283.891 331.06 285.924 330.48 288.618 330.48C291.364 330.48 293.444 331.12 294.858 332.4C296.271 333.667 296.978 335.587 296.978 338.16V339.16C296.978 341.893 296.164 343.973 294.538 345.4C292.924 346.827 290.598 347.54 287.558 347.54H285.098L285.038 348.48ZM292.158 355.5C290.518 355.5 289.024 355.233 287.678 354.7C286.331 354.167 285.198 353.293 284.278 352.08C283.371 350.853 282.738 349.207 282.378 347.14L282.178 345.98L287.078 345.2L287.318 346.42C287.571 347.713 287.978 348.707 288.538 349.4C289.111 350.093 289.804 350.573 290.618 350.84C291.431 351.093 292.318 351.22 293.278 351.22C293.931 351.22 294.491 351.18 294.958 351.1C295.424 351.02 295.911 350.907 296.418 350.76L296.018 354.9C295.524 355.073 294.931 355.213 294.238 355.32C293.558 355.44 292.864 355.5 292.158 355.5ZM323.828 345.44V331.04H328.928V345.44H323.828ZM323.828 355V343.06H328.928V355H323.828ZM312.328 350.76C311.914 349.64 311.541 348.487 311.208 347.3C310.874 346.1 310.601 344.847 310.388 343.54C310.174 342.22 310.021 340.813 309.928 339.32L312.248 337.88H316.668V350.76H312.328ZM315.308 342.08V337.88H325.728L326.088 342.08H315.308ZM335.959 355.48C334.972 355.48 334.246 355.22 333.779 354.7C333.312 354.18 333.079 353.46 333.079 352.54V352.34C333.079 351.407 333.312 350.68 333.779 350.16C334.246 349.64 334.972 349.38 335.959 349.38C336.932 349.38 337.659 349.64 338.139 350.16C338.619 350.68 338.859 351.407 338.859 352.34V352.54C338.859 353.46 338.619 354.18 338.139 354.7C337.659 355.22 336.932 355.48 335.959 355.48Z" fill="white"/>
<defs>
<filter id="filter0_d_216_506" x="0" y="39" width="526" height="169.5" filterUnits="userSpaceOnUse" color-interpolation-filters="sRGB">
<feFlood flood-opacity="0" result="BackgroundImageFix"/>
<feColorMatrix in="SourceAlpha" type="matrix" values="0 0 0 0 0 0 0 0 0 0 0 0 0 0 0 0 0 0 127 0" result="hardAlpha"/>
<feOffset dy="12"/>
<feGaussianBlur stdDeviation="12"/>
<feComposite in2="hardAlpha" operator="out"/>
<feColorMatrix type="matrix" values="0 0 0 0 0 0 0 0 0 0 0 0 0 0 0 0 0 0 0.12 0"/>
<feBlend mode="normal" in2="BackgroundImageFix" result="effect1_dropShadow_216_506"/>
<feBlend mode="normal" in="SourceGraphic" in2="effect1_dropShadow_216_506" result="shape"/>
</filter>
</defs>
</svg>
