<svg width="173" height="62" viewBox="0 0 173 62" fill="none" xmlns="http://www.w3.org/2000/svg">
<path d="M163.032 19.2155C159.925 19.2155 157.592 18.6356 156.033 17.4758C154.473 16.3161 153.693 14.6884 153.693 12.5929V12.3359C153.693 10.9126 154.007 9.71327 154.637 8.73801C155.279 7.74957 156.262 6.98518 157.586 6.44483C158.91 5.90449 160.607 5.5816 162.678 5.47616L173 5.00171V9.27177L167.869 9.13339V9.33108C168.747 9.47605 169.468 9.72645 170.031 10.0823C170.608 10.425 171.034 10.8796 171.309 11.4463C171.598 11.9999 171.742 12.6852 171.742 13.5023V13.6407C171.742 15.4462 171.027 16.83 169.599 17.7921C168.183 18.741 165.994 19.2155 163.032 19.2155ZM162.737 28.408H163.327C164.271 28.408 165.031 28.3487 165.607 28.2301C166.197 28.1114 166.63 27.9335 166.905 27.6963C167.18 27.4591 167.318 27.1625 167.318 26.8067V26.7672C167.318 26.3059 167.121 25.9764 166.728 25.7787C166.348 25.581 165.771 25.4492 164.998 25.3833L159.296 24.8101L160.614 24.731C160.22 24.7969 159.88 24.9089 159.591 25.067C159.316 25.2252 159.093 25.4229 158.923 25.6601C158.765 25.8973 158.687 26.1873 158.687 26.5299V26.5695C158.687 26.9649 158.831 27.3009 159.119 27.5777C159.408 27.8545 159.847 28.0587 160.437 28.1905C161.04 28.3355 161.806 28.408 162.737 28.408ZM162.442 32.8362C160.502 32.8362 158.844 32.678 157.468 32.3617C156.105 32.0586 155.069 31.571 154.361 30.8988C153.654 30.2267 153.3 29.3371 153.3 28.2301V28.151C153.3 27.3998 153.463 26.7672 153.791 26.2532C154.119 25.7392 154.591 25.3372 155.207 25.0473C155.823 24.7573 156.544 24.5794 157.369 24.5135V24.3158C156.36 24.1313 155.58 23.8084 155.03 23.3472C154.492 22.8859 154.224 22.2401 154.224 21.4098V21.3901C154.224 20.797 154.355 20.2962 154.617 19.8876C154.892 19.4791 155.292 19.1694 155.816 18.9585C156.341 18.7344 156.983 18.6026 157.743 18.5631V17.9107L162.186 19.0376L160.889 19.0178C160.43 19.0178 160.102 19.0771 159.906 19.1957C159.722 19.3143 159.631 19.4922 159.631 19.7295V19.7492C159.631 20.0392 159.781 20.25 160.083 20.3818C160.397 20.5005 160.902 20.5993 161.597 20.6784L166.178 21.2121C168.406 21.4757 170.064 22.0292 171.152 22.8727C172.24 23.7162 172.784 25.0209 172.784 26.7869V26.9055C172.784 28.2498 172.404 29.3569 171.643 30.2267C170.896 31.1097 169.808 31.7621 168.38 32.1838C166.964 32.6187 165.234 32.8362 163.189 32.8362H162.442ZM162.835 15.1431C163.609 15.1431 164.244 15.0443 164.742 14.8466C165.254 14.6357 165.634 14.3326 165.883 13.9372C166.145 13.5287 166.276 13.041 166.276 12.4743V12.2964C166.276 11.7297 166.151 11.2487 165.902 10.8533C165.653 10.4579 165.273 10.1614 164.762 9.96368C164.264 9.75281 163.622 9.64738 162.835 9.64738H162.816C162.016 9.64738 161.361 9.75281 160.849 9.96368C160.338 10.1745 159.958 10.4777 159.709 10.873C159.473 11.2684 159.355 11.7495 159.355 12.3162V12.4743C159.355 13.041 159.48 13.5287 159.729 13.9372C159.991 14.3326 160.378 14.6357 160.889 14.8466C161.4 15.0443 162.049 15.1431 162.835 15.1431Z" fill="#AB541F"/>
<path d="M141.686 25.8181C138.566 25.8181 136.207 25.0405 134.608 23.4854C133.022 21.9171 132.229 19.7161 132.229 16.8826V14.3324C132.229 11.4594 133.028 9.23208 134.627 7.65057C136.226 6.05589 138.579 5.25854 141.686 5.25854C144.792 5.25854 147.138 6.05589 148.724 7.65057C150.323 9.23208 151.123 11.4594 151.123 14.3324V16.8826C151.123 19.7161 150.33 21.9171 148.744 23.4854C147.158 25.0405 144.805 25.8181 141.686 25.8181ZM141.686 21.0538C142.8 21.0538 143.645 20.7178 144.222 20.0456C144.812 19.3603 145.107 18.3916 145.107 17.1396V14.0754C145.107 12.7575 144.812 11.7559 144.222 11.0706C143.645 10.3853 142.8 10.0426 141.686 10.0426C140.572 10.0426 139.72 10.3853 139.13 11.0706C138.553 11.7559 138.265 12.7575 138.265 14.0754V17.1396C138.265 18.3916 138.553 19.3603 139.13 20.0456C139.72 20.7178 140.572 21.0538 141.686 21.0538Z" fill="#AB541F"/>
<path d="M123.903 20.4212L120.678 21.8248L125.023 5.83179H131.177L123.293 32.065H117.277L120.285 22.1806L123.116 24.4342H116.451L111.221 5.83179H117.414L120.757 20.4212H123.903Z" fill="#AB541F"/>
<path d="M103.915 25.2646L104.092 20.4015L103.955 20.1049V14.0359L103.915 13.2452C103.915 12.1645 103.601 11.3671 102.972 10.8531C102.343 10.3392 101.287 10.0822 99.8063 10.0822C98.5087 10.0822 97.2766 10.2469 96.11 10.5764C94.9435 10.9059 93.8424 11.2815 92.8069 11.7032L93.3181 7.01799C93.9342 6.72805 94.6223 6.45788 95.3826 6.20747C96.1559 5.94389 97.0079 5.73302 97.9385 5.57487C98.8691 5.41672 99.8653 5.33765 100.927 5.33765C102.618 5.33765 104.033 5.53533 105.174 5.93071C106.314 6.32608 107.225 6.8862 107.907 7.61106C108.588 8.33591 109.08 9.20574 109.381 10.2205C109.683 11.2222 109.833 12.3292 109.833 13.5417V25.2646H103.915ZM97.7616 25.7193C95.8348 25.7193 94.3733 25.2317 93.3771 24.2564C92.381 23.2811 91.8829 21.8907 91.8829 20.0852V19.5514C91.8829 17.6404 92.4662 16.2303 93.6327 15.3209C94.8124 14.3983 96.6802 13.7723 99.2361 13.4429L104.427 12.7509L104.781 16.3884L100.18 17.0605C99.2492 17.1792 98.5939 17.3966 98.2138 17.7129C97.8336 18.0292 97.6436 18.4971 97.6436 19.1165V19.2549C97.6436 19.8479 97.8336 20.3224 98.2138 20.6782C98.5939 21.0209 99.2034 21.1922 100.042 21.1922C100.776 21.1922 101.405 21.0802 101.93 20.8562C102.467 20.6321 102.906 20.3422 103.247 19.9863C103.588 19.6173 103.843 19.2088 104.014 18.7607L104.859 21.212H103.876C103.666 22.0555 103.339 22.8199 102.893 23.5052C102.461 24.1905 101.831 24.7308 101.006 25.1262C100.18 25.5216 99.0985 25.7193 97.7616 25.7193Z" fill="#AB541F"/>
<path d="M82.9945 25.2644V13.6799C82.9945 12.9945 82.9093 12.4081 82.7389 11.9204C82.5816 11.4196 82.3064 11.0374 81.9131 10.7738C81.533 10.5103 81.0022 10.3785 80.3206 10.3785C79.7439 10.3785 79.2392 10.4905 78.8067 10.7145C78.3741 10.9254 78.0137 11.2219 77.7253 11.6041C77.437 11.9731 77.2207 12.3949 77.0765 12.8693L76.5063 10.0424H77.0372C77.2469 9.17256 77.5811 8.3884 78.0399 7.6899C78.4987 6.97823 79.1344 6.41811 79.947 6.00956C80.7597 5.58782 81.8017 5.37695 83.0731 5.37695C84.4494 5.37695 85.5701 5.65372 86.4352 6.20724C87.3134 6.74759 87.9622 7.5647 88.3816 8.65857C88.8011 9.73927 89.0108 11.0901 89.0108 12.7112V25.2644H82.9945ZM59.3225 25.2644V5.83164H65.2995L65.1029 11.0704L65.3388 11.2681V25.2644H59.3225ZM71.1585 25.2644V13.6799C71.1585 12.9945 71.0733 12.4081 70.9029 11.9204C70.7456 11.4196 70.4704 11.0374 70.0771 10.7738C69.6839 10.5103 69.1531 10.3785 68.4846 10.3785C67.8948 10.3785 67.3836 10.4905 66.951 10.7145C66.5185 10.9254 66.158 11.2219 65.8697 11.6041C65.5944 11.9731 65.3847 12.3949 65.2405 12.8693L64.3164 10.0424H65.3388C65.5354 9.15938 65.8566 8.36863 66.3022 7.67013C66.761 6.97164 67.3901 6.41811 68.1897 6.00956C68.9892 5.58782 69.9985 5.37695 71.2175 5.37695C73.0132 5.37695 74.3633 5.84482 75.2677 6.78054C76.1852 7.70308 76.7619 9.04736 76.9979 10.8134C77.0372 11.077 77.0765 11.3998 77.1158 11.782C77.1551 12.1642 77.1748 12.5069 77.1748 12.81V25.2644H71.1585Z" fill="#AB541F"/>
<path d="M49.6301 14.3523L47.9786 10.6753H49.3942C49.7088 9.06742 50.3183 7.80881 51.2227 6.89944C52.1402 5.9769 53.4313 5.51562 55.0959 5.51562C55.3843 5.51562 55.6464 5.53539 55.8824 5.57493C56.1314 5.61447 56.3674 5.6606 56.5902 5.71331L56.8851 11.8219C56.6098 11.7428 56.2887 11.6901 55.9217 11.6637C55.5547 11.6242 55.1811 11.6044 54.801 11.6044C53.5165 11.6044 52.4351 11.8482 51.5569 12.3359C50.6787 12.8103 50.0365 13.4825 49.6301 14.3523ZM43.7318 25.2647V5.83193H49.3942L49.1386 12.0393L49.7481 12.1184V25.2647H43.7318Z" fill="#AB541F"/>
<path d="M34.0648 25.2646L34.2417 20.4015L34.1041 20.1049V14.0359L34.0648 13.2452C34.0648 12.1645 33.7502 11.3671 33.121 10.8531C32.4919 10.3392 31.4367 10.0822 29.9556 10.0822C28.658 10.0822 27.4259 10.2469 26.2593 10.5764C25.0927 10.9059 23.9917 11.2815 22.9562 11.7032L23.4674 7.01799C24.0835 6.72805 24.7716 6.45788 25.5318 6.20747C26.3052 5.94389 27.1572 5.73302 28.0878 5.57487C29.0184 5.41672 30.0146 5.33765 31.0763 5.33765C32.7671 5.33765 34.1827 5.53533 35.3231 5.93071C36.4634 6.32608 37.3744 6.8862 38.056 7.61106C38.7376 8.33591 39.2291 9.20574 39.5306 10.2205C39.832 11.2222 39.9828 12.3292 39.9828 13.5417V25.2646H34.0648ZM27.9108 25.7193C25.9841 25.7193 24.5226 25.2317 23.5264 24.2564C22.5302 23.2811 22.0322 21.8907 22.0322 20.0852V19.5514C22.0322 17.6404 22.6154 16.2303 23.782 15.3209C24.9617 14.3983 26.8295 13.7723 29.3854 13.4429L34.576 12.7509L34.9299 16.3884L30.3292 17.0605C29.3985 17.1792 28.7432 17.3966 28.363 17.7129C27.9829 18.0292 27.7929 18.4971 27.7929 19.1165V19.2549C27.7929 19.8479 27.9829 20.3224 28.363 20.6782C28.7432 21.0209 29.3527 21.1922 30.1915 21.1922C30.9255 21.1922 31.5547 21.0802 32.079 20.8562C32.6164 20.6321 33.0555 20.3422 33.3963 19.9863C33.7371 19.6173 33.9927 19.2088 34.1631 18.7607L35.0085 21.212H34.0255C33.8157 22.0555 33.488 22.8199 33.0424 23.5052C32.6098 24.1905 31.9807 24.7308 31.1549 25.1262C30.3292 25.5216 29.2478 25.7193 27.9108 25.7193Z" fill="#AB541F"/>
<path d="M14.2347 25.2645L7.01902 14.194H5.48545V10.4775H7.01902L14.1363 0H21.0964L12.1899 12.6916V11.3078L21.3716 25.2645H14.2347ZM0 25.2645V0H6.09495V25.2645H0Z" fill="#AB541F"/>
<path d="M152.018 58.0661L147.692 49.1108H149.776L151.919 53.7071L152.804 55.7927H152.932L153.817 53.7071L155.95 49.1108H158.034L153.718 58.0661H152.018ZM151.9 61.7431V56.2276H153.836V61.7431H151.9Z" fill="#161616"/>
<path d="M140.479 61.9903C138.873 61.9903 137.671 61.5422 136.871 60.646C136.078 59.7498 135.682 58.4747 135.682 56.8207V54.0135C135.682 52.3661 136.078 51.0976 136.871 50.208C137.671 49.3119 138.873 48.8638 140.479 48.8638C140.97 48.8638 141.419 48.9066 141.826 48.9923C142.232 49.0779 142.596 49.19 142.917 49.3283C143.238 49.4667 143.513 49.6117 143.743 49.7633L143.9 51.582C143.513 51.3184 143.064 51.0878 142.553 50.8901C142.042 50.6924 141.439 50.5935 140.744 50.5935C139.735 50.5935 138.971 50.8934 138.454 51.493C137.943 52.0927 137.687 52.9427 137.687 54.0432V56.7515C137.687 57.8454 137.946 58.6955 138.464 59.3017C138.988 59.9079 139.768 60.2111 140.803 60.2111C141.485 60.2111 142.088 60.1155 142.612 59.9244C143.143 59.7267 143.605 59.4862 143.998 59.2029L143.841 61.071C143.611 61.2226 143.33 61.3708 142.995 61.5158C142.668 61.6542 142.291 61.7662 141.865 61.8519C141.446 61.9441 140.983 61.9903 140.479 61.9903Z" fill="#161616"/>
<path d="M123.984 49.1108L128.614 59.5883H128.732L128.654 54.1321V49.1108H130.571V61.7431H127.69L122.991 51.147H122.873L122.952 56.8306V61.7431H121.035V49.1108H123.984Z" fill="#161616"/>
<path d="M105.702 61.7431L109.556 49.1108H112.613L116.467 61.7431H114.471L111.207 50.4354H110.962L107.698 61.7431H105.702ZM108.219 58.2144V56.5736H113.93V58.2144H108.219Z" fill="#161616"/>
<path d="M97.7801 61.7431V49.4568H99.756V61.7431H97.7801ZM94.0838 50.7714V49.1108H103.442V50.7714H94.0838Z" fill="#161616"/>
<path d="M85.9911 61.7431H84.0152V49.1108H85.9911V61.7431ZM85.0966 60.0628H91.683V61.7431H85.0966V60.0628Z" fill="#161616"/>
<path d="M73.7975 62.0001C72.1656 62.0001 70.963 61.5883 70.1897 60.7646C69.4163 59.9343 69.0297 58.7251 69.0297 57.137V49.1108H71.0056V57.1963C71.0056 58.2111 71.2219 58.9854 71.6544 59.5191C72.0935 60.0463 72.8079 60.3099 73.7975 60.3099C74.7871 60.3099 75.4982 60.0463 75.9307 59.5191C76.3698 58.9854 76.5894 58.2111 76.5894 57.1963V49.1108H78.5653V57.137C78.5653 58.7251 78.1786 59.9343 77.4053 60.7646C76.6385 61.5883 75.4359 62.0001 73.7975 62.0001Z" fill="#161616"/>
<path d="M59.7682 61.9803C59.1718 61.9803 58.6213 61.9341 58.1167 61.8419C57.612 61.7496 57.1598 61.6343 56.7601 61.4959C56.3668 61.3575 56.0326 61.2192 55.7573 61.0808L55.5706 59.1335C56.0752 59.4235 56.6716 59.6805 57.3597 59.9045C58.0544 60.1286 58.8048 60.2406 59.6109 60.2406C60.5284 60.2406 61.2035 60.089 61.636 59.7859C62.0686 59.4762 62.2848 59.0116 62.2848 58.3922V58.2439C62.2848 57.842 62.1964 57.5125 62.0194 57.2555C61.849 56.9919 61.5574 56.7679 61.1445 56.5834C60.7316 56.3923 60.1713 56.2111 59.4635 56.0397C58.5328 55.8091 57.7792 55.5389 57.2024 55.2292C56.6323 54.9129 56.2161 54.5208 55.954 54.053C55.6918 53.5785 55.5607 52.9887 55.5607 52.2837V52.1848C55.5607 51.1239 55.9114 50.3068 56.6126 49.7335C57.3138 49.1602 58.3657 48.8735 59.7682 48.8735C60.6661 48.8735 61.4328 48.9625 62.0686 49.1404C62.7108 49.3117 63.2384 49.5061 63.6513 49.7236L63.8282 51.5324C63.3498 51.2557 62.7993 51.025 62.1767 50.8405C61.5541 50.6494 60.8528 50.5539 60.073 50.5539C59.4635 50.5539 58.9752 50.6231 58.6082 50.7615C58.2412 50.8932 57.9758 51.0876 57.8119 51.3446C57.6481 51.595 57.5662 51.8982 57.5662 52.254V52.2935C57.5662 52.6626 57.6481 52.9789 57.8119 53.2424C57.9758 53.506 58.2641 53.74 58.677 53.9442C59.0965 54.1419 59.6896 54.3396 60.4563 54.5373C61.3673 54.7679 62.1013 55.0282 62.6584 55.3182C63.222 55.6015 63.6349 55.9738 63.897 56.4351C64.1592 56.8898 64.2903 57.4894 64.2903 58.2341V58.4318C64.2903 59.5981 63.9134 60.4811 63.1598 61.0808C62.4061 61.6804 61.2756 61.9803 59.7682 61.9803Z" fill="#161616"/>
<path d="M44.0501 49.1108L48.6803 59.5883H48.7983L48.7196 54.1321V49.1108H50.6366V61.7431H47.7562L43.0572 51.147H42.9393L43.0179 56.8306V61.7431H41.101V49.1108H44.0501Z" fill="#161616"/>
<path d="M30.977 62C29.3386 62 28.0934 61.5519 27.2414 60.6557C26.396 59.7596 25.9733 58.4779 25.9733 56.8107V54.0332C25.9733 52.3726 26.396 51.0942 27.2414 50.198C28.0934 49.3019 29.3386 48.8538 30.977 48.8538C32.6154 48.8538 33.8574 49.3019 34.7028 50.198C35.5548 51.0942 35.9808 52.3726 35.9808 54.0332V56.8107C35.9808 58.4779 35.5548 59.7596 34.7028 60.6557C33.8574 61.5519 32.6154 62 30.977 62ZM30.977 60.3493C31.9732 60.3493 32.7203 60.0495 33.2184 59.4498C33.723 58.8436 33.9753 57.9902 33.9753 56.8898V53.9541C33.9753 52.8471 33.723 51.997 33.2184 51.4039C32.7203 50.8043 31.9732 50.5045 30.977 50.5045C29.9809 50.5045 29.2305 50.8043 28.7258 51.4039C28.2277 51.997 27.9787 52.8471 27.9787 53.9541V56.8898C27.9787 57.9902 28.2277 58.8436 28.7258 59.4498C29.2305 60.0495 29.9809 60.3493 30.977 60.3493Z" fill="#161616"/>
<path d="M18.2258 61.9903C16.6202 61.9903 15.4176 61.5422 14.618 60.646C13.825 59.7498 13.4285 58.4747 13.4285 56.8207V54.0135C13.4285 52.3661 13.825 51.0976 14.618 50.208C15.4176 49.3119 16.6202 48.8638 18.2258 48.8638C18.7174 48.8638 19.1663 48.9066 19.5726 48.9923C19.979 49.0779 20.3427 49.19 20.6638 49.3283C20.985 49.4667 21.2602 49.6117 21.4896 49.7633L21.6469 51.582C21.2602 51.3184 20.8113 51.0878 20.3001 50.8901C19.7889 50.6924 19.186 50.5935 18.4913 50.5935C17.482 50.5935 16.7185 50.8934 16.2007 51.493C15.6896 52.0927 15.434 52.9427 15.434 54.0432V56.7515C15.434 57.8454 15.6928 58.6955 16.2106 59.3017C16.7349 59.9079 17.5148 60.2111 18.5502 60.2111C19.2318 60.2111 19.8348 60.1155 20.3591 59.9244C20.8899 59.7267 21.352 59.4862 21.7452 59.2029L21.5879 61.071C21.3585 61.2226 21.0767 61.3708 20.7425 61.5158C20.4148 61.6542 20.0379 61.7662 19.612 61.8519C19.1925 61.9441 18.7305 61.9903 18.2258 61.9903Z" fill="#161616"/>
</svg>
