<svg width="526" height="410" viewBox="0 0 526 410" fill="none" xmlns="http://www.w3.org/2000/svg">
<circle cx="265" cy="205" r="205" fill="#A9541E"/>
<g filter="url(#filter0_d_216_483)">
<path d="M24 79C24 63.536 36.536 51 52 51H474C489.464 51 502 63.536 502 79V104C502 119.464 489.464 132 474 132H52C36.536 132 24 119.464 24 104V79Z" fill="#FB7F01"/>
<path d="M24.5 92V172.5C34.4988 145.927 44.6249 136.715 72 132L126 96.5L24.5 92Z" fill="#FB7F01"/>
</g>
<path d="M463.795 111.259C462.534 111.259 461.603 110.884 461.001 110.135C460.415 109.386 460.121 108.339 460.121 106.994V106.714C460.121 105.386 460.415 104.339 461.001 103.573C461.603 102.807 462.534 102.424 463.795 102.424C465.027 102.424 465.944 102.807 466.545 103.573C467.147 104.339 467.447 105.386 467.447 106.714V106.994C467.447 108.339 467.147 109.386 466.545 110.135C465.944 110.884 465.027 111.259 463.795 111.259ZM463.795 95.2225C462.534 95.2225 461.603 94.8479 461.001 94.0989C460.415 93.3498 460.121 92.3029 460.121 90.958V90.6771C460.121 89.3492 460.415 88.3023 461.001 87.5362C461.603 86.7701 462.534 86.3871 463.795 86.3871C465.027 86.3871 465.944 86.7701 466.545 87.5362C467.147 88.3023 467.447 89.3492 467.447 90.6771V90.958C467.447 92.3029 467.147 93.3498 466.545 94.0989C465.944 94.8479 465.027 95.2225 463.795 95.2225Z" fill="white"/>
<path d="M415.96 105.513C415.432 104.1 414.956 102.602 414.53 101.019C414.105 99.4189 413.76 97.7335 413.496 95.963C413.232 94.1755 413.056 92.2944 412.968 90.3196L415.872 88.2512H421.592V105.513H415.96ZM419.876 94.6096V88.2512H432.702L433.164 94.6096H419.876ZM437.63 111.259C435.812 111.259 434.14 111.046 432.614 110.621C431.104 110.195 429.806 109.701 428.72 109.139L428.126 102.245C429.3 102.875 430.598 103.436 432.02 103.93C433.458 104.424 434.99 104.671 436.618 104.671C438.261 104.671 439.464 104.398 440.226 103.854C440.989 103.292 441.37 102.483 441.37 101.428V101.223C441.37 100.628 441.26 100.125 441.04 99.7168C440.835 99.3082 440.461 98.9592 439.918 98.6698C439.39 98.3634 438.65 98.0825 437.696 97.8271L435.914 97.393C434.052 96.9164 432.556 96.278 431.426 95.4778C430.312 94.6777 429.498 93.6988 428.984 92.5412C428.471 91.3666 428.214 90.0047 428.214 88.4555V88.098C428.214 85.1188 429.065 82.8717 430.766 81.3565C432.482 79.8414 435.042 79.0839 438.444 79.0839C440.058 79.0839 441.524 79.2626 442.844 79.6201C444.179 79.9606 445.294 80.3692 446.188 80.8458L446.76 87.2553C445.763 86.7616 444.656 86.3616 443.438 86.0551C442.221 85.7317 440.967 85.57 439.676 85.57C438.019 85.57 436.846 85.8168 436.156 86.3105C435.467 86.7872 435.122 87.4851 435.122 88.4044V88.5832C435.122 89.0769 435.232 89.511 435.452 89.8855C435.687 90.26 436.054 90.5835 436.552 90.8559C437.051 91.1282 437.696 91.3751 438.488 91.5964L440.49 92.1582C442.368 92.6689 443.871 93.3073 445 94.0734C446.144 94.8224 446.98 95.7928 447.508 96.9845C448.036 98.1591 448.3 99.6317 448.3 101.402V101.836C448.3 103.998 447.875 105.777 447.024 107.173C446.188 108.569 444.971 109.599 443.372 110.263C441.788 110.927 439.874 111.259 437.63 111.259Z" fill="white"/>
<path d="M405.9 78.0369C403.392 76.7261 400.87 75.4067 398.332 74.0789C395.81 72.734 393.287 71.3891 390.764 70.0442L394.218 63.124C396.565 64.8434 398.912 66.5714 401.258 68.3078C403.605 70.0272 405.944 71.7466 408.276 73.466L405.9 78.0369Z" fill="white"/>
<path d="M403.262 93.486L398.884 89.8089L405.99 79.8755H413.778V80.4628L403.262 93.486ZM388.522 100.074L382.032 98.823V88.4555C382.032 85.3742 382.692 83.0419 384.012 81.4587C385.347 79.8755 387.298 79.0839 389.864 79.0839C391.126 79.0839 392.233 79.2711 393.186 79.6456C394.154 80.0032 395.042 80.5394 395.848 81.2544C396.655 81.9524 397.447 82.8206 398.224 83.8591L403.724 91.0857L398.664 94.9927L393.098 87.4851C392.688 86.9404 392.328 86.5148 392.02 86.2083C391.712 85.8849 391.419 85.6636 391.14 85.5444C390.862 85.4082 390.561 85.3401 390.238 85.3401C389.681 85.3401 389.256 85.57 388.962 86.0296C388.669 86.4722 388.522 87.1447 388.522 88.0469V100.074ZM400.512 111.259C397.359 111.259 394.954 110.527 393.296 109.063C391.639 107.582 390.81 105.394 390.81 102.5V102.245C390.81 100.968 390.979 99.8274 391.316 98.823C391.668 97.8186 392.167 96.8483 392.812 95.912C393.472 94.9586 394.242 93.9202 395.122 92.7966L397.872 89.5791L402.426 93.4094L399.896 96.6014C399.163 97.5037 398.584 98.3293 398.158 99.0784C397.748 99.8104 397.542 100.679 397.542 101.683V101.913C397.542 102.951 397.792 103.726 398.29 104.237C398.789 104.747 399.53 105.003 400.512 105.003C401.466 105.003 402.184 104.747 402.668 104.237C403.167 103.726 403.416 102.951 403.416 101.913V101.683C403.416 100.747 403.189 99.8955 402.734 99.1295C402.28 98.3634 401.708 97.5292 401.018 96.627L398.796 93.7159L403.46 89.8089L405.924 92.9243C406.76 93.9797 407.494 94.9842 408.124 95.9375C408.755 96.8908 409.246 97.8697 409.598 98.8741C409.965 99.8785 410.148 101.002 410.148 102.245V102.5C410.148 105.394 409.327 107.582 407.684 109.063C406.042 110.527 403.651 111.259 400.512 111.259Z" fill="white"/>
<path d="M370.874 98.721V79.8756H377.584V98.721H370.874ZM370.874 110.57V95.9887H377.584V110.57H370.874ZM361.106 110.57C357.439 110.57 354.66 109.455 352.768 107.224C350.876 104.977 349.93 101.666 349.93 97.291V92.7967C349.93 88.4386 350.854 85.153 352.702 82.9399C354.55 80.7268 357.263 79.6202 360.842 79.6202C361.942 79.6202 362.961 79.7139 363.9 79.9011C364.838 80.0714 365.667 80.3012 366.386 80.5906L366.914 86.7703C366.342 86.583 365.704 86.4298 365 86.3106C364.296 86.1914 363.511 86.1319 362.646 86.1319C360.695 86.1319 359.236 86.7107 358.268 87.8683C357.314 89.0259 356.838 90.8134 356.838 93.2308V96.8569C356.838 99.2913 357.314 101.096 358.268 102.27C359.236 103.445 360.688 104.032 362.624 104.032C363.504 104.032 364.318 103.947 365.066 103.777C365.814 103.607 366.496 103.386 367.112 103.113L366.584 109.599C365.836 109.889 365.022 110.127 364.142 110.314C363.262 110.485 362.25 110.57 361.106 110.57ZM360.93 99.2317L361.216 92.286L374.57 88.3279L374.46 95.2226L360.93 99.2317Z" fill="white"/>
<path d="M338.968 81.1011C338.968 80.7606 338.968 80.4116 338.968 80.0541C338.968 79.6966 338.968 79.3136 338.968 78.905C338.968 78.4794 338.968 78.0368 338.968 77.5772C338.968 74.4277 339.555 71.8146 340.728 69.7377C341.916 67.6608 343.595 66.1116 345.766 65.0902C347.951 64.0517 350.533 63.5325 353.51 63.5325C356.839 63.5325 359.905 63.9836 362.706 64.8859C365.507 65.7711 368.015 67.0053 370.23 68.5886C372.459 70.1718 374.344 71.9848 375.884 74.0277L371.44 78.2156C370.017 76.6323 368.397 75.2108 366.578 73.9511C364.759 72.6913 362.765 71.6954 360.594 70.9634C358.438 70.2314 356.113 69.8653 353.62 69.8653C351.889 69.8653 350.43 70.1377 349.242 70.6825C348.069 71.2102 347.181 72.0444 346.58 73.185C345.979 74.3086 345.678 75.7726 345.678 77.5772C345.678 77.9006 345.678 78.2411 345.678 78.5986C345.678 78.9391 345.678 79.3136 345.678 79.7222C345.678 80.1137 345.678 80.5734 345.678 81.1011H338.968ZM338.968 98.7208V79.8754H345.678V98.7208H338.968ZM338.968 110.569V95.9885H345.678V110.569H338.968Z" fill="white"/>
<path d="M304.513 95.6822V88.3534C304.513 87.4341 304.366 86.7532 304.073 86.3105C303.779 85.8509 303.281 85.6211 302.577 85.6211C302.283 85.6211 301.997 85.6466 301.719 85.6977C301.455 85.7487 301.198 85.8083 300.949 85.8764L301.345 80.0798C301.931 79.8755 302.547 79.7223 303.193 79.6202C303.853 79.501 304.557 79.4414 305.305 79.4414C307.27 79.4414 308.737 80.0628 309.705 81.3055C310.673 82.5312 311.157 84.4634 311.157 87.1021V95.6311L304.513 95.6822ZM304.997 107.684C304.425 106.543 303.919 105.335 303.479 104.058C303.039 102.781 302.679 101.419 302.401 99.9722C302.122 98.5252 301.939 97.0015 301.851 95.4013L304.755 93.3584H310.915V107.684H304.997ZM309.661 99.3083V92.9498H320.309L320.793 99.3083H309.661ZM318.703 98.7209V79.8755H325.413V98.7209H318.703ZM318.703 110.57V95.9886H325.413V110.57H318.703Z" fill="white"/>
<path d="M290.757 98.7209V79.8755H297.467V98.7209H290.757ZM290.757 110.57V95.9886H297.467V110.57H290.757ZM293.045 78.0369C290.523 76.7261 288 75.4067 285.477 74.0789C282.955 72.734 280.432 71.3891 277.909 70.0442L281.363 63.124C283.71 64.8434 286.057 66.5714 288.403 68.3078C290.75 70.0272 293.089 71.7466 295.421 73.466L293.045 78.0369Z" fill="white"/>
<path d="M264.583 100.228V93.8436L273.273 92.4391L273.053 91.8773L287.287 88.6598V94.9671L277.739 96.4482L278.355 97.1121L264.583 100.228ZM274.945 111.259C273.141 111.259 271.521 111.114 270.083 110.825C268.646 110.552 267.392 110.212 266.321 109.803L265.793 103.7C266.981 104.109 268.25 104.441 269.599 104.696C270.949 104.935 272.386 105.054 273.911 105.054C275.525 105.054 276.742 104.756 277.563 104.16C278.385 103.547 278.795 102.577 278.795 101.249V101.045C278.795 99.9381 278.509 99.0529 277.937 98.3889C277.365 97.725 276.346 97.2994 274.879 97.1121L278.311 95.4778C280.643 95.4778 282.462 96.0822 283.767 97.2909C285.087 98.4996 285.747 100.27 285.747 102.602V102.934C285.747 105.76 284.787 107.854 282.865 109.216C280.959 110.578 278.319 111.259 274.945 111.259ZM270.083 102.934V102.347L274.593 96.7546L277.211 96.8568L275.253 102.934H270.083ZM273.669 94.0223C272.085 93.9712 270.707 93.6988 269.533 93.2052C268.375 92.6944 267.48 91.9539 266.849 90.9835C266.219 89.9962 265.903 88.7619 265.903 87.2809V87.0255C265.903 84.4038 266.761 82.4291 268.477 81.1012C270.208 79.7563 272.738 79.0839 276.067 79.0839C277.563 79.0839 278.935 79.2286 280.181 79.518C281.428 79.8074 282.462 80.1479 283.283 80.5394L283.855 86.6935C282.946 86.3701 281.949 86.1062 280.863 85.9019C279.793 85.6806 278.678 85.57 277.519 85.57C275.833 85.57 274.623 85.8508 273.889 86.4126C273.171 86.9574 272.811 87.7235 272.811 88.7109V88.8641C272.811 89.7323 273.134 90.4473 273.779 91.0091C274.425 91.5709 275.539 91.9113 277.123 92.0305L273.669 94.0223ZM273.669 119.124L268.543 109.574L272.767 109.497C274.351 110.467 275.627 111.421 276.595 112.357C277.578 113.31 278.385 114.23 279.015 115.115L281.941 118.92V119.124H273.669Z" fill="white"/>
<path d="M245.432 98.7209V79.8755H252.142V98.7209H245.432ZM245.432 110.57V95.9886H252.142V110.57H245.432ZM232.87 105.513C232.342 104.1 231.866 102.602 231.44 101.019C231.015 99.4189 230.67 97.7335 230.406 95.963C230.142 94.1755 229.966 92.2944 229.878 90.3196L232.782 88.2512H238.502V105.513H232.87ZM236.786 94.6096V88.2512H247.874L248.358 94.6096H236.786Z" fill="white"/>
<path d="M219.698 98.7209V79.8755H226.408V98.7209H219.698ZM219.698 110.569V95.9886H226.408V110.569H219.698ZM202.582 102.807L196.07 101.402V95.5545L203.352 95.5034C205.288 95.4864 206.748 95.0522 207.73 94.2011C208.728 93.3328 209.226 91.9624 209.226 90.0898V88.9151C209.226 87.6384 208.97 86.685 208.456 86.0551C207.958 85.4253 207.224 85.1103 206.256 85.1103C205.274 85.1103 204.526 85.4253 204.012 86.0551C203.514 86.668 203.264 87.5958 203.264 88.8385V89.0428C203.264 89.6216 203.294 90.226 203.352 90.8559C203.411 91.4857 203.477 92.0646 203.55 92.5923H197.588C197.368 91.9965 197.185 91.3325 197.038 90.6005C196.906 89.8515 196.84 89.1109 196.84 88.3789V88.2257C196.84 85.1954 197.632 82.9142 199.216 81.3821C200.815 79.8499 203.162 79.0839 206.256 79.0839C209.439 79.0839 211.852 79.9351 213.494 81.6374C215.137 83.3228 215.958 85.8594 215.958 89.2471V90.4218C215.958 93.9627 215.034 96.6695 213.186 98.5421C211.353 100.398 208.728 101.326 205.31 101.326H202.648L202.582 102.807ZM210.172 111.259C208.28 111.259 206.55 110.918 204.98 110.238C203.411 109.54 202.098 108.399 201.042 106.816C200.001 105.215 199.297 103.053 198.93 100.33L198.754 99.0273L205.178 97.8016L205.398 99.2316C205.633 100.764 206.051 101.93 206.652 102.73C207.254 103.53 207.994 104.075 208.874 104.364C209.769 104.637 210.737 104.773 211.778 104.773C212.468 104.773 213.076 104.73 213.604 104.645C214.132 104.543 214.697 104.39 215.298 104.186L214.77 110.467C214.169 110.689 213.45 110.876 212.614 111.029C211.793 111.182 210.979 111.259 210.172 111.259Z" fill="white"/>
<path d="M187.834 78.0369C185.326 76.7261 182.803 75.4067 180.266 74.0789C177.743 72.734 175.221 71.3891 172.698 70.0442L176.152 63.124C178.499 64.8434 180.845 66.5714 183.192 68.3078C185.539 70.0272 187.878 71.7466 190.21 73.466L187.834 78.0369Z" fill="white"/>
<path d="M185.549 98.721V79.8756H192.259V98.721H185.549ZM185.549 110.57V95.9887H192.259V110.57H185.549ZM175.781 110.57C172.115 110.57 169.335 109.455 167.443 107.224C165.551 104.977 164.605 101.666 164.605 97.291V92.7967C164.605 88.4386 165.529 85.153 167.377 82.9399C169.225 80.7268 171.939 79.6202 175.517 79.6202C176.617 79.6202 177.637 79.7139 178.575 79.9011C179.514 80.0714 180.343 80.3012 181.061 80.5906L181.589 86.7703C181.017 86.583 180.379 86.4298 179.675 86.3106C178.971 86.1914 178.187 86.1319 177.321 86.1319C175.371 86.1319 173.911 86.7107 172.943 87.8683C171.99 89.0259 171.513 90.8134 171.513 93.2308V96.8569C171.513 99.2913 171.99 101.096 172.943 102.27C173.911 103.445 175.363 104.032 177.299 104.032C178.179 104.032 178.993 103.947 179.741 103.777C180.489 103.607 181.171 103.386 181.787 103.113L181.259 109.599C180.511 109.889 179.697 110.127 178.817 110.314C177.937 110.485 176.925 110.57 175.781 110.57ZM175.605 99.2317L175.891 92.286L189.245 88.3279L189.135 95.2226L175.605 99.2317Z" fill="white"/>
<path d="M140.97 111.08C139.151 111.08 137.516 110.936 136.064 110.646C134.627 110.357 133.38 110.016 132.324 109.625L131.774 103.164C132.962 103.573 134.216 103.896 135.536 104.134C136.871 104.373 138.323 104.492 139.892 104.492C141.505 104.492 142.723 104.22 143.544 103.675C144.365 103.113 144.776 102.245 144.776 101.07V100.866C144.776 99.8615 144.49 99.0699 143.918 98.4911C143.346 97.8952 142.327 97.5122 140.86 97.342L144.292 95.5289C146.624 95.5289 148.443 96.1248 149.748 97.3164C151.068 98.4911 151.728 100.202 151.728 102.449V102.781C151.728 104.637 151.295 106.186 150.43 107.429C149.579 108.654 148.347 109.574 146.734 110.186C145.135 110.782 143.214 111.08 140.97 111.08ZM139.65 94.0223C138.066 93.9712 136.687 93.6989 135.514 93.2052C134.355 92.6944 133.461 91.9539 132.83 90.9835C132.199 89.9962 131.884 88.7619 131.884 87.2809V87.0255C131.884 84.4038 132.742 82.4291 134.458 81.1012C136.189 79.7563 138.719 79.0839 142.048 79.0839C143.544 79.0839 144.915 79.2286 146.162 79.518C147.409 79.8074 148.443 80.1479 149.264 80.5394L149.836 86.6935C148.927 86.3701 147.929 86.1062 146.844 85.9019C145.773 85.6806 144.659 85.57 143.5 85.57C141.813 85.57 140.603 85.8508 139.87 86.4126C139.151 86.9574 138.792 87.7235 138.792 88.7109V88.8641C138.792 89.7323 139.115 90.4473 139.76 91.0091C140.405 91.5709 141.52 91.9113 143.104 92.0305L139.65 94.0223ZM130.564 100.508V94.0989L140.486 92.5157L144.336 97.5718L130.564 100.508ZM139.65 118.971L134.524 109.395L138.748 109.344C140.332 110.297 141.608 111.25 142.576 112.204C143.559 113.157 144.365 114.076 144.996 114.962L147.922 118.766V118.971H139.65ZM139.034 92.1071L153.268 88.8896V95.2225L141.014 97.1377L139.034 92.1071Z" fill="white"/>
<path d="M120.27 94.0479V76.9645C120.27 70.8529 122.566 67.7971 127.156 67.7971C127.831 67.7971 128.418 67.8312 128.916 67.8993C129.43 67.9674 129.921 68.095 130.39 68.2823L130.852 74.2066C130.588 74.1385 130.324 74.0874 130.06 74.0534C129.811 74.0193 129.54 74.0023 129.246 74.0023C128.454 74.0023 127.875 74.2662 127.508 74.7939C127.142 75.3217 126.958 76.1899 126.958 77.3986V94.0479H120.27ZM113.692 111.259C109.542 111.259 106.491 110.442 104.54 108.808C102.604 107.173 101.636 104.909 101.636 102.015V101.658C101.636 99.6147 102.098 98.0145 103.022 96.8569C103.946 95.6822 105.376 94.9587 107.312 94.6863V94.5331C105.332 94.2777 103.888 93.5883 102.978 92.4647C102.069 91.3411 101.614 89.7153 101.614 87.5874V87.3065C101.614 84.4805 102.428 82.4036 104.056 81.0757C105.699 79.7479 108.002 79.0839 110.964 79.0839C112.05 79.0839 113.04 79.1776 113.934 79.3648C114.844 79.5521 115.606 79.7734 116.222 80.0288L116.75 86.1318C116.208 85.9275 115.599 85.7658 114.924 85.6466C114.25 85.5104 113.487 85.4424 112.636 85.4424C111.287 85.4424 110.268 85.6892 109.578 86.1829C108.889 86.6596 108.544 87.4086 108.544 88.43V88.5833C108.544 89.4855 108.801 90.1665 109.314 90.6261C109.842 91.0687 110.722 91.3241 111.954 91.3922L115.76 91.5709V97.6229L111.998 97.8017C110.781 97.8527 109.901 98.1422 109.358 98.6699C108.83 99.1976 108.566 99.9637 108.566 100.968V101.198C108.566 102.424 108.955 103.334 109.732 103.93C110.524 104.526 111.844 104.824 113.692 104.824C115.892 104.824 117.535 104.254 118.62 103.113C119.72 101.973 120.27 100.262 120.27 97.9804V92.3881H126.98V98.1081C126.98 102.5 125.866 105.794 123.636 107.99C121.422 110.17 118.107 111.259 113.692 111.259Z" fill="white"/>
<path d="M90.6088 98.7209V79.8755H97.3188V98.7209H90.6088ZM90.6088 110.57V95.9886H97.3188V110.57H90.6088Z" fill="white"/>
<path d="M78.944 98.721V79.8756H85.654V98.721H78.944ZM78.944 110.57V95.9887H85.654V110.57H78.944ZM69.176 110.57C65.5093 110.57 62.73 109.455 60.838 107.224C58.946 104.977 58 101.666 58 97.291V92.7967C58 88.4386 58.924 85.153 60.772 82.9399C62.62 80.7268 65.3333 79.6202 68.912 79.6202C70.012 79.6202 71.0313 79.7139 71.97 79.9011C72.9087 80.0714 73.7373 80.3012 74.456 80.5906L74.984 86.7703C74.412 86.583 73.774 86.4298 73.07 86.3106C72.366 86.1914 71.5813 86.1319 70.716 86.1319C68.7653 86.1319 67.306 86.7107 66.338 87.8683C65.3847 89.0259 64.908 90.8134 64.908 93.2308V96.8569C64.908 99.2913 65.3847 101.096 66.338 102.27C67.306 103.445 68.758 104.032 70.694 104.032C71.574 104.032 72.388 103.947 73.136 103.777C73.884 103.607 74.566 103.386 75.182 103.113L74.654 109.599C73.906 109.889 73.092 110.127 72.212 110.314C71.332 110.485 70.32 110.57 69.176 110.57ZM69 99.2317L69.286 92.286L82.64 88.3279L82.53 95.2226L69 99.2317Z" fill="white"/>
<path d="M185.482 174.686C182.938 174.686 180.976 174.104 179.596 172.94C178.228 171.776 177.442 170.036 177.238 167.72L177.112 166.28L181.54 165.776L181.648 167.252C181.756 168.464 182.134 169.364 182.782 169.952C183.442 170.54 184.336 170.834 185.464 170.834C186.604 170.834 187.474 170.522 188.074 169.898C188.686 169.262 188.992 168.308 188.992 167.036V157.82H193.456V167.126C193.456 169.622 192.778 171.506 191.422 172.778C190.066 174.05 188.086 174.686 185.482 174.686ZM178.336 168.224L174.43 167.54V164.12L177.67 164.102C178.762 164.09 179.59 163.838 180.154 163.346C180.73 162.842 181.018 162.08 181.018 161.06V160.574C181.018 159.602 180.772 158.882 180.28 158.414C179.8 157.934 179.11 157.694 178.21 157.694C177.562 157.694 176.956 157.766 176.392 157.91C175.84 158.054 175.318 158.24 174.826 158.468L175.168 154.832C175.66 154.568 176.248 154.352 176.932 154.184C177.628 154.016 178.384 153.932 179.2 153.932C181.216 153.932 182.782 154.46 183.898 155.516C185.026 156.56 185.59 158.162 185.59 160.322V161.168C185.59 163.208 185.074 164.768 184.042 165.848C183.022 166.928 181.576 167.468 179.704 167.468H178.354L178.336 168.224ZM197.812 167.396V154.436H202.402V167.396H197.812ZM197.812 176V165.254H202.402V176H197.812ZM191.512 166.82V163.04H199.612L199.936 166.82H191.512ZM207.136 167.396V154.436H211.726V167.396H207.136ZM207.136 176V165.254H211.726V176H207.136ZM223.346 172.13C221.87 172.13 220.652 171.854 219.692 171.302C218.732 170.75 218.018 169.934 217.55 168.854C217.094 167.762 216.866 166.424 216.866 164.84V161.546H221.474V164.3C221.474 165.632 221.768 166.616 222.356 167.252C222.944 167.876 223.814 168.188 224.966 168.188C226.046 168.188 226.904 167.93 227.54 167.414C228.188 166.898 228.614 166.208 228.818 165.344L228.998 168.818H228.548C228.38 169.43 228.08 169.988 227.648 170.492C227.228 170.984 226.658 171.38 225.938 171.68C225.23 171.98 224.366 172.13 223.346 172.13ZM216.866 162.302V159.458C216.866 158.906 216.764 158.498 216.56 158.234C216.368 157.958 216.032 157.82 215.552 157.82C215.372 157.82 215.186 157.838 214.994 157.874C214.814 157.91 214.64 157.952 214.472 158L214.742 154.616C215.102 154.484 215.492 154.382 215.912 154.31C216.332 154.238 216.782 154.202 217.262 154.202C218.678 154.202 219.734 154.58 220.43 155.336C221.126 156.08 221.474 157.238 221.474 158.81V162.302H216.866ZM228.746 167.396V154.436H233.336V167.396H228.746ZM228.746 176V165.254H233.336V176H228.746ZM259.693 167.396V154.436H264.283V167.396H259.693ZM259.693 176V165.254H264.283V176H259.693ZM249.829 168.872C248.965 168.872 248.185 168.788 247.489 168.62C246.805 168.44 246.217 168.206 245.725 167.918L245.365 164.39C245.845 164.63 246.355 164.822 246.895 164.966C247.435 165.11 248.047 165.182 248.731 165.182C249.667 165.182 250.387 164.93 250.891 164.426C251.407 163.91 251.665 163.112 251.665 162.032V160.682C251.665 159.626 251.413 158.846 250.909 158.342C250.417 157.838 249.721 157.586 248.821 157.586C248.173 157.586 247.573 157.664 247.021 157.82C246.469 157.964 245.971 158.144 245.527 158.36L245.833 154.76C246.349 154.52 246.955 154.322 247.651 154.166C248.359 154.01 249.121 153.932 249.937 153.932C251.917 153.932 253.459 154.466 254.563 155.534C255.679 156.602 256.237 158.264 256.237 160.52V162.176C256.237 164.444 255.673 166.13 254.545 167.234C253.417 168.326 251.845 168.872 249.829 168.872ZM248.245 176.45C244.729 176.45 242.101 175.712 240.361 174.236C238.633 172.76 237.769 170.444 237.769 167.288V154.436H242.377V166.964C242.377 168.884 242.905 170.294 243.961 171.194C245.029 172.082 246.679 172.526 248.911 172.526C250.003 172.526 251.113 172.436 252.241 172.256C253.369 172.064 254.455 171.806 255.499 171.482L255.121 175.406C254.257 175.706 253.231 175.952 252.043 176.144C250.855 176.348 249.589 176.45 248.245 176.45ZM268.993 167.396V154.436H273.601V167.396H268.993ZM268.993 176V165.254H273.601V176H268.993ZM301.16 167.396V154.436H305.768V167.396H301.16ZM301.16 176V165.254H305.768V176H301.16ZM288.452 168.62L284.06 167.774V164.354L288.272 164.336C289.484 164.312 290.39 164.048 290.99 163.544C291.59 163.028 291.89 162.218 291.89 161.114V160.718C291.89 159.71 291.626 158.966 291.098 158.486C290.57 157.994 289.82 157.748 288.848 157.748C288.08 157.748 287.342 157.838 286.634 158.018C285.938 158.186 285.296 158.39 284.708 158.63L285.05 154.904C285.626 154.628 286.304 154.4 287.084 154.22C287.876 154.028 288.782 153.932 289.802 153.932C291.938 153.932 293.594 154.478 294.77 155.57C295.946 156.65 296.534 158.306 296.534 160.538V161.222C296.534 163.346 295.988 164.984 294.896 166.136C293.804 167.276 292.22 167.846 290.144 167.846H288.488L288.452 168.62ZM294.752 176.45C293.36 176.45 292.106 176.204 290.99 175.712C289.886 175.22 288.962 174.458 288.218 173.426C287.474 172.382 286.952 171.032 286.652 169.376L286.13 166.532L290.45 166.118L290.954 168.638C291.146 169.586 291.458 170.354 291.89 170.942C292.334 171.518 292.868 171.938 293.492 172.202C294.116 172.466 294.806 172.598 295.562 172.598C295.97 172.598 296.342 172.568 296.678 172.508C297.014 172.448 297.296 172.376 297.524 172.292L297.164 176.072C296.828 176.18 296.462 176.27 296.066 176.342C295.682 176.414 295.244 176.45 294.752 176.45ZM298.172 166.676C297.404 166.676 296.648 166.634 295.904 166.55C295.16 166.454 294.47 166.322 293.834 166.154L294.194 162.878H300.746C301.226 162.878 301.748 162.878 302.312 162.878C302.888 162.878 303.422 162.878 303.914 162.878L304.238 166.658L298.172 166.676ZM317.659 176.342C316.171 176.342 314.845 176.228 313.681 176C312.529 175.772 311.539 175.508 310.711 175.208L310.315 171.266C311.275 171.614 312.295 171.896 313.375 172.112C314.455 172.316 315.637 172.418 316.921 172.418C318.349 172.418 319.423 172.184 320.143 171.716C320.875 171.248 321.241 170.516 321.241 169.52V169.322C321.241 168.458 320.959 167.78 320.395 167.288C319.843 166.796 318.901 166.484 317.569 166.352L319.909 165.164C321.829 165.188 323.323 165.626 324.391 166.478C325.471 167.33 326.011 168.578 326.011 170.222V170.51C326.011 171.818 325.681 172.904 325.021 173.768C324.361 174.632 323.407 175.28 322.159 175.712C320.911 176.132 319.411 176.342 317.659 176.342ZM316.885 164.516C315.565 164.468 314.425 164.27 313.465 163.922C312.505 163.562 311.767 163.034 311.251 162.338C310.747 161.642 310.495 160.772 310.495 159.728V159.512C310.495 157.664 311.161 156.272 312.493 155.336C313.837 154.4 315.805 153.932 318.397 153.932C319.609 153.932 320.713 154.04 321.709 154.256C322.705 154.472 323.521 154.724 324.157 155.012L324.571 158.72C323.839 158.456 323.029 158.234 322.141 158.054C321.253 157.862 320.311 157.766 319.315 157.766C317.875 157.766 316.837 157.994 316.201 158.45C315.565 158.894 315.247 159.536 315.247 160.376V160.52C315.247 161.288 315.547 161.906 316.147 162.374C316.759 162.842 317.785 163.124 319.225 163.22L316.885 164.516ZM309.379 168.584V164.714L317.335 163.526L320.107 166.514L309.379 168.584ZM317.101 181.904L312.421 175.118L315.409 175.136C316.537 175.76 317.461 176.372 318.181 176.972C318.901 177.584 319.525 178.184 320.053 178.772L322.807 181.778V181.904H317.101ZM316.219 163.292L327.325 161.042V164.858L317.731 166.28L316.219 163.292ZM349.77 176V160.988C349.77 159.92 349.56 159.128 349.14 158.612C348.72 158.084 348.09 157.82 347.25 157.82C346.41 157.82 345.78 158.078 345.36 158.594C344.94 159.11 344.73 159.878 344.73 160.898C344.73 161.498 344.742 162.098 344.766 162.698C344.802 163.286 344.832 163.898 344.856 164.534C344.88 165.17 344.892 165.872 344.892 166.64C344.892 169.052 344.286 170.846 343.074 172.022C341.874 173.186 340.074 173.768 337.674 173.768C335.118 173.768 333.21 173.126 331.95 171.842C330.69 170.546 330.06 168.566 330.06 165.902V162.824C330.06 161.024 330.288 159.428 330.744 158.036C331.2 156.644 331.86 155.444 332.724 154.436H337.566C336.642 155.636 335.952 156.908 335.496 158.252C335.04 159.596 334.812 161.114 334.812 162.806V166.028C334.812 167.312 335.046 168.272 335.514 168.908C335.982 169.544 336.72 169.862 337.728 169.862C339.456 169.862 340.32 168.824 340.32 166.748C340.32 166.052 340.302 165.398 340.266 164.786C340.242 164.162 340.212 163.544 340.176 162.932C340.152 162.308 340.14 161.654 340.14 160.97C340.14 158.594 340.74 156.83 341.94 155.678C343.14 154.514 344.916 153.932 347.268 153.932C349.632 153.932 351.408 154.526 352.596 155.714C353.784 156.89 354.378 158.708 354.378 161.168V176H349.77ZM126.859 222.796C125.107 222.796 123.661 222.484 122.521 221.86C121.393 221.236 120.559 220.33 120.019 219.142C119.479 217.954 119.209 216.508 119.209 214.804V212.464C119.209 209.776 119.827 207.766 121.063 206.434C122.299 205.102 124.123 204.436 126.535 204.436C127.219 204.436 127.837 204.49 128.389 204.598C128.953 204.694 129.421 204.814 129.793 204.958L130.153 208.612C129.853 208.516 129.505 208.438 129.109 208.378C128.725 208.318 128.275 208.288 127.759 208.288C126.451 208.288 125.485 208.654 124.861 209.386C124.249 210.106 123.943 211.192 123.943 212.644V214.552C123.943 215.992 124.279 217.072 124.951 217.792C125.635 218.5 126.661 218.854 128.029 218.854C129.193 218.854 130.165 218.602 130.945 218.098C131.737 217.594 132.283 216.916 132.583 216.064L133.159 218.8C132.883 219.928 132.217 220.876 131.161 221.644C130.117 222.412 128.683 222.796 126.859 222.796ZM140.575 224.362C137.803 224.362 135.685 223.636 134.221 222.184C132.757 220.732 132.025 218.71 132.025 216.118C132.025 215.614 132.037 215.158 132.061 214.75C132.085 214.33 132.115 213.922 132.151 213.526H135.211C136.339 213.514 137.191 213.292 137.767 212.86C138.355 212.416 138.649 211.714 138.649 210.754V210.376C138.649 209.464 138.403 208.792 137.911 208.36C137.419 207.916 136.705 207.694 135.769 207.694C135.133 207.694 134.539 207.766 133.987 207.91C133.435 208.054 132.919 208.24 132.439 208.468L132.781 204.796C133.285 204.532 133.879 204.322 134.563 204.166C135.259 204.01 136.033 203.932 136.885 203.932C138.913 203.932 140.485 204.448 141.601 205.48C142.729 206.512 143.293 208.096 143.293 210.232V210.79C143.293 212.746 142.771 214.24 141.727 215.272C140.683 216.304 139.201 216.82 137.281 216.82H134.815L136.723 214.282C136.711 214.63 136.699 214.936 136.687 215.2C136.675 215.452 136.669 215.77 136.669 216.154C136.669 217.534 137.113 218.596 138.001 219.34C138.889 220.084 140.167 220.456 141.835 220.456C143.407 220.456 144.637 220.174 145.525 219.61C146.425 219.034 147.025 218.272 147.325 217.324L147.451 220.816H147.037C146.833 221.476 146.479 222.076 145.975 222.616C145.471 223.156 144.775 223.582 143.887 223.894C143.011 224.206 141.907 224.362 140.575 224.362ZM147.217 217.396V204.436H151.825V217.396H147.217ZM147.217 226V215.254H151.825V226H147.217ZM156.528 205.336C156.528 205.024 156.528 204.748 156.528 204.508C156.528 204.268 156.528 204.028 156.528 203.788C156.528 203.536 156.528 203.242 156.528 202.906C156.528 200.722 157.08 198.922 158.184 197.506C159.3 196.078 160.926 195.01 163.062 194.302C165.21 193.594 167.844 193.24 170.964 193.24C173.964 193.24 176.91 193.426 179.802 193.798C182.694 194.17 185.448 194.686 188.064 195.346C190.68 195.994 193.086 196.744 195.282 197.596C197.49 198.436 199.404 199.33 201.024 200.278L198.324 203.212C196.68 202.336 194.814 201.526 192.726 200.782C190.638 200.026 188.406 199.366 186.03 198.802C183.666 198.226 181.218 197.782 178.686 197.47C176.166 197.158 173.64 197.002 171.108 197.002C167.7 197.002 165.186 197.476 163.566 198.424C161.946 199.372 161.136 200.866 161.136 202.906C161.136 203.17 161.136 203.416 161.136 203.644C161.136 203.872 161.136 204.118 161.136 204.382C161.136 204.646 161.136 204.964 161.136 205.336H156.528ZM156.528 217.396V204.436H161.136V217.396H156.528ZM156.528 226V215.254H161.136V226H156.528ZM172.252 214.516C170.932 214.468 169.792 214.27 168.832 213.922C167.872 213.562 167.134 213.034 166.618 212.338C166.114 211.642 165.862 210.772 165.862 209.728V209.512C165.862 207.664 166.528 206.272 167.86 205.336C169.204 204.4 171.172 203.932 173.764 203.932C174.976 203.932 176.08 204.04 177.076 204.256C178.072 204.472 178.888 204.724 179.524 205.012L179.938 208.72C179.206 208.456 178.396 208.234 177.508 208.054C176.62 207.862 175.678 207.766 174.682 207.766C173.242 207.766 172.204 207.994 171.568 208.45C170.932 208.894 170.614 209.536 170.614 210.376V210.52C170.614 211.288 170.914 211.906 171.514 212.374C172.126 212.842 173.152 213.124 174.592 213.22L172.252 214.516ZM173.026 226.45C171.538 226.45 170.212 226.342 169.048 226.126C167.896 225.922 166.906 225.664 166.078 225.352L165.682 221.392C166.642 221.728 167.662 222.004 168.742 222.22C169.822 222.424 171.004 222.526 172.288 222.526C173.716 222.526 174.79 222.292 175.51 221.824C176.242 221.356 176.608 220.624 176.608 219.628V219.43C176.608 218.578 176.326 217.906 175.762 217.414C175.21 216.91 174.268 216.592 172.936 216.46L175.276 215.272C177.196 215.296 178.69 215.734 179.758 216.586C180.838 217.438 181.378 218.68 181.378 220.312V220.618C181.378 222.586 180.646 224.05 179.182 225.01C177.718 225.97 175.666 226.45 173.026 226.45ZM164.746 218.62V214.75L172.702 213.544L175.474 216.55L164.746 218.62ZM182.566 211.96H187.858L188.146 215.398H182.746C181.99 215.398 181.258 215.41 180.55 215.434C179.842 215.458 179.122 215.5 178.39 215.56C177.658 215.608 176.872 215.686 176.032 215.794C175.192 215.89 174.25 216.016 173.206 216.172L171.028 213.562C172.324 213.274 173.488 213.034 174.52 212.842C175.564 212.638 176.53 212.476 177.418 212.356C178.306 212.236 179.164 212.146 179.992 212.086C180.832 212.026 181.69 211.984 182.566 211.96ZM197.542 217.396V204.436H202.132V217.396H197.542ZM197.542 226V215.254H202.132V226H197.542ZM187.678 226C187.138 225.04 186.652 224.026 186.22 222.958C185.788 221.878 185.446 220.786 185.194 219.682C184.954 218.566 184.834 217.474 184.834 216.406C184.834 214.162 185.422 212.446 186.598 211.258C187.786 210.058 189.646 209.458 192.178 209.458H199.792V213.238H193.474C192.13 213.238 191.146 213.55 190.522 214.174C189.898 214.786 189.586 215.728 189.586 217C189.586 217.876 189.712 218.818 189.964 219.826C190.216 220.834 190.558 221.866 190.99 222.922C191.434 223.966 191.932 224.992 192.484 226H187.678ZM208.798 226C208.258 225.04 207.772 224.026 207.34 222.958C206.908 221.878 206.566 220.786 206.314 219.682C206.074 218.566 205.954 217.474 205.954 216.406C205.954 214.162 206.542 212.446 207.718 211.258C208.906 210.058 210.766 209.458 213.298 209.458H220.912V213.238H214.594C213.25 213.238 212.266 213.55 211.642 214.174C211.018 214.786 210.706 215.728 210.706 217C210.706 217.876 210.826 218.818 211.066 219.826C211.318 220.834 211.666 221.866 212.11 222.922C212.554 223.966 213.052 224.992 213.604 226H208.798ZM224.926 222.796C223.27 222.796 221.896 222.484 220.804 221.86C219.724 221.236 218.914 220.33 218.374 219.142C217.846 217.942 217.582 216.496 217.582 214.804V212.464C217.582 209.776 218.2 207.766 219.436 206.434C220.672 205.102 222.496 204.436 224.908 204.436C225.592 204.436 226.216 204.49 226.78 204.598C227.344 204.694 227.806 204.814 228.166 204.958L228.526 208.612C228.226 208.516 227.878 208.438 227.482 208.378C227.098 208.318 226.648 208.288 226.132 208.288C224.824 208.288 223.858 208.654 223.234 209.386C222.622 210.106 222.316 211.192 222.316 212.644V214.552C222.316 215.992 222.652 217.072 223.324 217.792C224.008 218.5 225.034 218.854 226.402 218.854C227.626 218.854 228.604 218.59 229.336 218.062C230.08 217.534 230.548 216.826 230.74 215.938L230.884 219.466H230.488C230.284 220.114 229.948 220.69 229.48 221.194C229.024 221.698 228.418 222.094 227.662 222.382C226.918 222.658 226.006 222.796 224.926 222.796ZM230.686 217.396V204.436H235.276V217.396H230.686ZM230.686 226V215.254H235.276V226H230.686ZM251.257 217.396V204.436H255.847V217.396H251.257ZM251.257 226V215.254H255.847V226H251.257ZM240.907 222.184C240.535 221.176 240.199 220.138 239.899 219.07C239.599 217.99 239.353 216.862 239.161 215.686C238.969 214.498 238.831 213.232 238.747 211.888L240.835 210.592H244.813V222.184H240.907ZM243.589 214.372V210.592H252.967L253.291 214.372H243.589ZM260.555 217.396V204.436H265.163V217.396H260.555ZM260.555 226V215.254H265.163V226H260.555ZM284.082 224.56C281.526 224.56 279.6 224.074 278.304 223.102C277.02 222.118 276.378 220.738 276.378 218.962V218.8C276.378 217.408 276.732 216.328 277.44 215.56C278.16 214.78 279.246 214.3 280.698 214.12V214.03C279.186 213.874 278.07 213.424 277.35 212.68C276.642 211.924 276.288 210.814 276.288 209.35V209.188C276.288 207.424 276.894 206.11 278.106 205.246C279.318 204.37 281.028 203.932 283.236 203.932C284.148 203.932 284.97 204.004 285.702 204.148C286.434 204.292 287.046 204.466 287.538 204.67L287.916 208.306C287.472 208.126 286.956 207.982 286.368 207.874C285.792 207.754 285.144 207.694 284.424 207.694C283.296 207.694 282.45 207.874 281.886 208.234C281.334 208.594 281.058 209.158 281.058 209.926V210.016C281.058 210.748 281.304 211.288 281.796 211.636C282.3 211.972 283.092 212.158 284.172 212.194L286.944 212.302V215.848L284.208 215.956C283.164 215.98 282.39 216.166 281.886 216.514C281.394 216.862 281.148 217.402 281.148 218.134V218.242C281.148 219.094 281.496 219.724 282.192 220.132C282.888 220.528 283.968 220.726 285.432 220.726C287.148 220.726 288.492 220.462 289.464 219.934C290.436 219.394 291.048 218.68 291.3 217.792L291.534 221.194H291.012C290.664 222.19 289.944 223 288.852 223.624C287.76 224.248 286.17 224.56 284.082 224.56ZM291.21 217.396V204.436H295.8V217.396H291.21ZM291.21 226V215.254H295.8V226H291.21ZM307.26 226.45C305.748 226.45 304.386 226.3 303.174 226C301.974 225.688 300.954 225.334 300.114 224.938L299.682 220.762C300.63 221.23 301.686 221.644 302.85 222.004C304.014 222.352 305.268 222.526 306.612 222.526C308.052 222.526 309.114 222.298 309.798 221.842C310.482 221.374 310.824 220.678 310.824 219.754V219.574C310.824 219.046 310.722 218.608 310.518 218.26C310.326 217.912 309.972 217.618 309.456 217.378C308.952 217.126 308.25 216.892 307.35 216.676L306 216.388C304.512 216.04 303.312 215.596 302.4 215.056C301.488 214.516 300.828 213.856 300.42 213.076C300.012 212.284 299.808 211.348 299.808 210.268V209.998C299.808 207.994 300.474 206.482 301.806 205.462C303.15 204.442 305.154 203.932 307.818 203.932C309.138 203.932 310.326 204.058 311.382 204.31C312.438 204.55 313.314 204.838 314.01 205.174L314.424 209.026C313.632 208.654 312.738 208.354 311.742 208.126C310.758 207.886 309.72 207.766 308.628 207.766C307.176 207.766 306.132 207.97 305.496 208.378C304.872 208.774 304.56 209.374 304.56 210.178V210.34C304.56 210.784 304.668 211.162 304.884 211.474C305.1 211.786 305.442 212.056 305.91 212.284C306.378 212.512 307.002 212.722 307.782 212.914L309.258 213.274C310.794 213.646 312.024 214.096 312.948 214.624C313.872 215.14 314.538 215.806 314.946 216.622C315.366 217.426 315.576 218.44 315.576 219.664V220.006C315.576 221.482 315.246 222.694 314.586 223.642C313.938 224.59 312.996 225.298 311.76 225.766C310.524 226.222 309.024 226.45 307.26 226.45ZM331.056 217.396V204.436H335.646V217.396H331.056ZM331.056 226V215.254H335.646V226H331.056ZM321.192 226C320.652 225.04 320.166 224.026 319.734 222.958C319.302 221.878 318.96 220.786 318.708 219.682C318.468 218.566 318.348 217.474 318.348 216.406C318.348 214.162 318.936 212.446 320.112 211.258C321.3 210.058 323.16 209.458 325.692 209.458H333.306V213.238H326.988C325.644 213.238 324.66 213.55 324.036 214.174C323.412 214.786 323.1 215.728 323.1 217C323.1 217.876 323.22 218.818 323.46 219.826C323.712 220.834 324.06 221.866 324.504 222.922C324.948 223.966 325.446 224.992 325.998 226H321.192ZM343.688 219.052L339.062 218.17V214.732L343.814 214.714C345.218 214.702 346.28 214.432 347 213.904C347.72 213.364 348.08 212.524 348.08 211.384V210.97C348.08 209.878 347.756 209.068 347.108 208.54C346.46 208.012 345.53 207.748 344.318 207.748C343.466 207.748 342.65 207.838 341.87 208.018C341.09 208.186 340.376 208.396 339.728 208.648L340.07 204.922C340.718 204.646 341.474 204.412 342.338 204.22C343.214 204.028 344.216 203.932 345.344 203.932C346.916 203.932 348.26 204.184 349.376 204.688C350.504 205.18 351.362 205.93 351.95 206.938C352.55 207.934 352.85 209.206 352.85 210.754V211.402C352.85 213.598 352.232 215.29 350.996 216.478C349.772 217.654 347.996 218.242 345.668 218.242H343.76L343.688 219.052ZM349.736 226.45C348.284 226.45 346.994 226.21 345.866 225.73C344.75 225.238 343.82 224.476 343.076 223.444C342.344 222.4 341.822 221.044 341.51 219.376L341.006 216.676L345.398 216.28L345.884 218.656C346.172 220.096 346.73 221.116 347.558 221.716C348.398 222.304 349.406 222.598 350.582 222.598C351.05 222.598 351.5 222.556 351.932 222.472C352.364 222.376 352.688 222.292 352.904 222.22L352.544 225.982C352.16 226.114 351.74 226.222 351.284 226.306C350.828 226.402 350.312 226.45 349.736 226.45ZM365.426 215.56V209.836C365.426 209.164 365.3 208.666 365.048 208.342C364.796 208.018 364.382 207.856 363.806 207.856C363.578 207.856 363.35 207.874 363.122 207.91C362.906 207.946 362.696 207.994 362.492 208.054L362.762 204.58C363.182 204.448 363.626 204.352 364.094 204.292C364.574 204.22 365.084 204.184 365.624 204.184C367.088 204.184 368.18 204.586 368.9 205.39C369.632 206.182 369.998 207.424 369.998 209.116V215.542L365.426 215.56ZM365.75 223.822C365.354 222.994 365 222.142 364.688 221.266C364.376 220.39 364.118 219.472 363.914 218.512C363.71 217.54 363.572 216.502 363.5 215.398L365.588 214.12H369.836V223.822H365.75ZM368.954 217.648V213.868H377.9L378.242 217.648H368.954ZM376.946 217.396V204.436H381.554V217.396H376.946ZM376.946 226V215.254H381.554V226H376.946ZM386.274 217.396V204.436H390.882V217.396H386.274ZM386.274 226V215.254H390.882V226H386.274ZM403.852 226.45C400.708 226.45 398.38 225.874 396.868 224.722C395.368 223.57 394.618 221.89 394.618 219.682V219.304C394.618 218.128 394.834 217.102 395.266 216.226C395.71 215.35 396.418 214.618 397.39 214.03C398.374 213.43 399.67 212.974 401.278 212.662L403.438 212.212C404.35 212.02 404.998 211.744 405.382 211.384C405.778 211.012 405.976 210.544 405.976 209.98V209.89C405.976 209.134 405.676 208.594 405.076 208.27C404.488 207.934 403.522 207.766 402.178 207.766C401.158 207.766 400.144 207.886 399.136 208.126C398.14 208.354 397.204 208.624 396.328 208.936L396.832 205.066C397.492 204.778 398.35 204.52 399.406 204.292C400.462 204.052 401.614 203.932 402.862 203.932C405.394 203.932 407.338 204.412 408.694 205.372C410.05 206.32 410.728 207.802 410.728 209.818V210.088C410.728 211.072 410.536 211.93 410.152 212.662C409.78 213.382 409.21 213.988 408.442 214.48C407.674 214.972 406.702 215.344 405.526 215.596L402.826 216.154C402.01 216.334 401.344 216.568 400.828 216.856C400.324 217.144 399.952 217.498 399.712 217.918C399.484 218.338 399.37 218.842 399.37 219.43V219.574C399.37 220.582 399.766 221.326 400.558 221.806C401.362 222.286 402.604 222.526 404.284 222.526C405.052 222.526 405.838 222.46 406.642 222.328C407.458 222.196 408.238 222.01 408.982 221.77C409.738 221.518 410.422 221.224 411.034 220.888L410.638 225.136C409.774 225.532 408.76 225.85 407.596 226.09C406.432 226.33 405.184 226.45 403.852 226.45ZM405.842 203.14C404.102 202.084 402.35 201.028 400.586 199.972C398.834 198.904 397.082 197.848 395.33 196.804L397.958 192.97C399.578 194.218 401.198 195.472 402.818 196.732C404.438 197.992 406.058 199.252 407.678 200.512L405.842 203.14ZM137.016 255.138C137.016 254.838 137.016 254.568 137.016 254.328C137.016 254.088 137.016 253.842 137.016 253.59C137.016 253.338 137.016 253.05 137.016 252.726C137.016 250.59 137.448 248.826 138.312 247.434C139.188 246.03 140.436 244.98 142.056 244.284C143.676 243.588 145.602 243.24 147.834 243.24C149.958 243.24 151.932 243.564 153.756 244.212C155.58 244.848 157.218 245.73 158.67 246.858C160.134 247.974 161.358 249.246 162.342 250.674L159.156 253.14C158.268 251.94 157.236 250.884 156.06 249.972C154.896 249.048 153.624 248.322 152.244 247.794C150.864 247.266 149.418 247.002 147.906 247.002C146.514 247.002 145.35 247.206 144.414 247.614C143.478 248.01 142.776 248.634 142.308 249.486C141.852 250.326 141.624 251.406 141.624 252.726C141.624 252.966 141.624 253.206 141.624 253.446C141.624 253.686 141.624 253.938 141.624 254.202C141.624 254.466 141.624 254.778 141.624 255.138H137.016ZM137.016 267.396V254.436H141.624V267.396H137.016ZM137.016 276V265.254H141.624V276H137.016ZM152.921 272.796C151.265 272.796 149.891 272.484 148.799 271.86C147.719 271.236 146.909 270.33 146.369 269.142C145.841 267.942 145.577 266.496 145.577 264.804V262.464C145.577 259.776 146.195 257.766 147.431 256.434C148.667 255.102 150.491 254.436 152.903 254.436C153.587 254.436 154.205 254.49 154.757 254.598C155.321 254.694 155.789 254.814 156.161 254.958L156.521 258.612C156.221 258.516 155.873 258.438 155.477 258.378C155.093 258.318 154.643 258.288 154.127 258.288C152.819 258.288 151.853 258.654 151.229 259.386C150.617 260.106 150.311 261.192 150.311 262.644V264.552C150.311 265.992 150.647 267.072 151.319 267.792C152.003 268.5 153.029 268.854 154.397 268.854C155.621 268.854 156.599 268.59 157.331 268.062C158.075 267.534 158.543 266.826 158.735 265.938L158.879 269.466H158.483C158.279 270.114 157.943 270.69 157.475 271.194C157.019 271.698 156.413 272.094 155.657 272.382C154.913 272.658 154.001 272.796 152.921 272.796ZM158.681 267.396V254.436H163.271V267.396H158.681ZM158.681 276V265.254H163.271V276H158.681ZM181.705 277.674C179.773 277.674 178.297 277.236 177.277 276.36C176.257 275.484 175.747 274.296 175.747 272.796V272.58C175.747 271.164 176.233 270.024 177.205 269.16C178.177 268.284 179.587 267.876 181.435 267.936C181.807 267.936 182.263 267.948 182.803 267.972C183.355 267.984 183.919 268.002 184.495 268.026C185.071 268.05 185.599 268.086 186.079 268.134C186.559 268.17 186.919 268.218 187.159 268.278L187.123 270.78C186.775 270.564 186.265 270.372 185.593 270.204C184.921 270.024 184.237 269.934 183.541 269.934C182.413 269.934 181.579 270.12 181.039 270.492C180.511 270.852 180.247 271.392 180.247 272.112V272.202C180.247 272.886 180.487 273.402 180.967 273.75C181.459 274.086 182.197 274.254 183.181 274.254C184.153 274.254 184.951 274.08 185.575 273.732C186.199 273.372 186.613 272.904 186.817 272.328L186.979 275.334H186.565C186.289 276.054 185.767 276.624 184.999 277.044C184.231 277.464 183.133 277.674 181.705 277.674ZM186.637 269.466V254.436H191.227V269.466H186.637ZM186.763 278.052V268.746H191.227V278.052H186.763ZM187.285 270.636L174.325 266.73L173.119 265.272C171.535 264.792 170.419 264.126 169.771 263.274C169.135 262.422 168.817 261.324 168.817 259.98V259.71C168.817 257.85 169.405 256.422 170.581 255.426C171.769 254.43 173.533 253.932 175.873 253.932C178.249 253.932 180.025 254.43 181.201 255.426C182.389 256.422 182.983 257.874 182.983 259.782V260.088C182.983 261.072 182.839 261.912 182.551 262.608C182.263 263.292 181.807 263.886 181.183 264.39C180.559 264.894 179.743 265.356 178.735 265.776L177.493 266.946L166.279 270.186V265.956L174.379 264.156L175.333 263.796C176.065 263.544 176.671 263.28 177.151 263.004C177.631 262.716 177.985 262.368 178.213 261.96C178.453 261.54 178.573 261.012 178.573 260.376V260.178C178.573 259.278 178.351 258.606 177.907 258.162C177.463 257.718 176.785 257.496 175.873 257.496C175.009 257.496 174.349 257.718 173.893 258.162C173.449 258.606 173.227 259.266 173.227 260.142V260.394C173.227 260.97 173.317 261.462 173.497 261.87C173.689 262.266 173.989 262.608 174.397 262.896C174.817 263.184 175.369 263.454 176.053 263.706L177.817 264.282L187.285 266.694V270.636ZM207.241 267.396V254.436H211.831V267.396H207.241ZM207.241 276V265.254H211.831V276H207.241ZM196.891 272.184C196.519 271.176 196.183 270.138 195.883 269.07C195.583 267.99 195.337 266.862 195.145 265.686C194.953 264.498 194.815 263.232 194.731 261.888L196.819 260.592H200.797V272.184H196.891ZM199.573 264.372V260.592H208.951L209.275 264.372H199.573ZM216.54 267.396V254.436H221.148V267.396H216.54ZM216.54 276V265.254H221.148V276H216.54ZM234.469 265.56V259.836C234.469 259.164 234.343 258.666 234.091 258.342C233.839 258.018 233.425 257.856 232.849 257.856C232.621 257.856 232.393 257.874 232.165 257.91C231.949 257.946 231.739 257.994 231.535 258.054L231.805 254.58C232.225 254.448 232.669 254.352 233.137 254.292C233.617 254.22 234.127 254.184 234.667 254.184C236.131 254.184 237.223 254.586 237.943 255.39C238.675 256.182 239.041 257.424 239.041 259.116V265.542L234.469 265.56ZM234.793 273.822C234.397 272.994 234.043 272.142 233.731 271.266C233.419 270.39 233.161 269.472 232.957 268.512C232.753 267.54 232.615 266.502 232.543 265.398L234.631 264.12H238.879V273.822H234.793ZM237.997 267.648V263.868H246.943L247.285 267.648H237.997ZM245.989 267.396V254.436H250.597V267.396H245.989ZM245.989 276V265.254H250.597V276H245.989ZM264.461 277.116C261.197 277.116 258.725 276.498 257.045 275.262C255.365 274.014 254.525 272.16 254.525 269.7C254.525 269.184 254.555 268.668 254.615 268.152C254.675 267.636 254.759 267.12 254.867 266.604H259.385C259.349 266.988 259.319 267.366 259.295 267.738C259.283 268.098 259.277 268.47 259.277 268.854C259.277 270.33 259.775 271.428 260.771 272.148C261.779 272.856 263.225 273.21 265.109 273.21C266.273 273.21 267.377 273.108 268.421 272.904C269.477 272.688 270.461 272.418 271.373 272.094L270.995 276.072C270.119 276.396 269.123 276.648 268.007 276.828C266.891 277.02 265.709 277.116 264.461 277.116ZM266.621 270.204C266.741 269.844 266.825 269.502 266.873 269.178C266.933 268.854 266.963 268.53 266.963 268.206C266.963 267.318 266.747 266.67 266.315 266.262C265.883 265.842 265.121 265.596 264.029 265.524L261.131 265.362C259.247 265.254 257.795 264.756 256.775 263.868C255.767 262.98 255.263 261.696 255.263 260.016V259.818C255.263 257.862 255.929 256.392 257.261 255.408C258.605 254.424 260.609 253.932 263.273 253.932C264.617 253.932 265.829 254.052 266.909 254.292C267.989 254.532 268.889 254.808 269.609 255.12L270.023 258.99C269.207 258.642 268.283 258.354 267.251 258.126C266.231 257.886 265.139 257.766 263.975 257.766C262.595 257.766 261.587 257.952 260.951 258.324C260.327 258.684 260.015 259.212 260.015 259.908V259.98C260.015 260.52 260.231 260.952 260.663 261.276C261.095 261.588 261.797 261.78 262.769 261.852L266.243 262.104C268.043 262.248 269.387 262.716 270.275 263.508C271.175 264.288 271.625 265.464 271.625 267.036C271.625 267.564 271.565 268.098 271.445 268.638C271.337 269.178 271.169 269.7 270.941 270.204H266.621ZM275.462 267.396V254.436H280.07V267.396H275.462ZM275.462 276V265.254H280.07V276H275.462ZM296.046 267.396V254.436H300.636V267.396H296.046ZM296.046 276V265.254H300.636V276H296.046ZM285.696 272.184C285.324 271.176 284.988 270.138 284.688 269.07C284.388 267.99 284.142 266.862 283.95 265.686C283.758 264.498 283.62 263.232 283.536 261.888L285.624 260.592H289.602V272.184H285.696ZM288.378 264.372V260.592H297.756L298.08 264.372H288.378ZM305.344 267.396V254.436H309.952V267.396H305.344ZM305.344 276V265.254H309.952V276H305.344ZM322.347 274.362C319.587 274.362 317.469 273.636 315.993 272.184C314.529 270.732 313.797 268.71 313.797 266.118C313.797 265.614 313.809 265.158 313.833 264.75C313.857 264.33 313.893 263.922 313.941 263.526H317.001C318.117 263.514 318.969 263.292 319.557 262.86C320.145 262.416 320.439 261.714 320.439 260.754V260.376C320.439 259.464 320.187 258.792 319.683 258.36C319.191 257.916 318.483 257.694 317.559 257.694C316.923 257.694 316.329 257.766 315.777 257.91C315.225 258.054 314.709 258.24 314.229 258.468L314.553 254.796C315.069 254.532 315.669 254.322 316.353 254.166C317.037 254.01 317.805 253.932 318.657 253.932C320.685 253.932 322.263 254.448 323.391 255.48C324.519 256.512 325.083 258.096 325.083 260.232V260.79C325.083 262.746 324.561 264.24 323.517 265.272C322.473 266.304 320.991 266.82 319.071 266.82H316.605L318.513 264.282C318.501 264.63 318.489 264.936 318.477 265.2C318.465 265.452 318.459 265.77 318.459 266.154C318.459 267.534 318.903 268.596 319.791 269.34C320.679 270.084 321.957 270.456 323.625 270.456C325.185 270.456 326.409 270.174 327.297 269.61C328.197 269.034 328.803 268.272 329.115 267.324L329.223 270.816H328.809C328.617 271.476 328.263 272.076 327.747 272.616C327.243 273.156 326.547 273.582 325.659 273.894C324.783 274.206 323.679 274.362 322.347 274.362ZM329.007 267.396V254.436H333.597V267.396H329.007ZM329.007 276V265.254H333.597V276H329.007ZM344.729 264.516C343.409 264.468 342.269 264.27 341.309 263.922C340.349 263.562 339.611 263.034 339.095 262.338C338.591 261.642 338.339 260.772 338.339 259.728V259.512C338.339 257.664 339.005 256.272 340.337 255.336C341.681 254.4 343.649 253.932 346.241 253.932C347.453 253.932 348.557 254.04 349.553 254.256C350.549 254.472 351.365 254.724 352.001 255.012L352.415 258.72C351.683 258.456 350.873 258.234 349.985 258.054C349.097 257.862 348.155 257.766 347.159 257.766C345.719 257.766 344.681 257.994 344.045 258.45C343.409 258.894 343.091 259.536 343.091 260.376V260.52C343.091 261.288 343.391 261.906 343.991 262.374C344.603 262.842 345.629 263.124 347.069 263.22L344.729 264.516ZM345.503 276.45C344.015 276.45 342.689 276.342 341.525 276.126C340.373 275.922 339.383 275.664 338.555 275.352L338.159 271.392C339.119 271.728 340.139 272.004 341.219 272.22C342.299 272.424 343.481 272.526 344.765 272.526C346.193 272.526 347.267 272.292 347.987 271.824C348.719 271.356 349.085 270.624 349.085 269.628V269.43C349.085 268.578 348.803 267.906 348.239 267.414C347.687 266.91 346.745 266.592 345.413 266.46L347.753 265.272C349.673 265.296 351.167 265.734 352.235 266.586C353.315 267.438 353.855 268.68 353.855 270.312V270.618C353.855 272.586 353.123 274.05 351.659 275.01C350.195 275.97 348.143 276.45 345.503 276.45ZM337.223 268.62V264.75L345.179 263.544L347.951 266.55L337.223 268.62ZM344.063 263.346L355.169 261.096V264.912L345.575 266.334L344.063 263.346ZM358.501 267.396V254.436H363.109V267.396H358.501ZM358.501 276V265.254H363.109V276H358.501ZM359.995 253.14C357.979 252.132 355.951 251.118 353.911 250.098C351.871 249.066 349.843 248.034 347.827 247.002L350.239 242.97C352.147 244.206 354.055 245.448 355.963 246.696C357.871 247.932 359.773 249.168 361.669 250.404L359.995 253.14ZM379.085 267.396V254.436H383.675V267.396H379.085ZM379.085 276V265.254H383.675V276H379.085ZM368.735 272.184C368.363 271.176 368.027 270.138 367.727 269.07C367.427 267.99 367.181 266.862 366.989 265.686C366.797 264.498 366.659 263.232 366.575 261.888L368.663 260.592H372.641V272.184H368.735ZM371.417 264.372V260.592H380.795L381.119 264.372H371.417ZM388.383 267.396V254.436H392.991V267.396H388.383ZM388.383 276V265.254H392.991V276H388.383ZM134.942 334.136C132.434 334.136 130.094 333.824 127.922 333.2C125.75 332.588 123.932 331.808 122.468 330.86L122 326.09C123.008 326.822 124.154 327.5 125.438 328.124C126.734 328.76 128.174 329.27 129.758 329.654C131.342 330.05 133.07 330.248 134.942 330.248C137.486 330.248 139.628 329.858 141.368 329.078C143.108 328.31 144.428 327.158 145.328 325.622C146.228 324.086 146.678 322.178 146.678 319.898V316.694C146.678 315.11 146.51 313.694 146.174 312.446C145.85 311.198 145.37 310.052 144.734 309.008C144.098 307.952 143.318 306.95 142.394 306.002L142.898 304.436H146.642C147.506 305.3 148.292 306.308 149 307.46C149.708 308.6 150.272 309.932 150.692 311.456C151.112 312.968 151.322 314.714 151.322 316.694V319.898C151.322 323.03 150.692 325.652 149.432 327.764C148.172 329.888 146.324 331.478 143.888 332.534C141.464 333.602 138.482 334.136 134.942 334.136ZM134.762 326.45C132.314 326.45 130.442 325.946 129.146 324.938C127.862 323.93 127.22 322.436 127.22 320.456V320.258C127.22 319.382 127.346 318.596 127.598 317.9C127.85 317.204 128.228 316.538 128.732 315.902C129.248 315.266 129.896 314.594 130.676 313.886L133.034 311.726L136.148 314.066L133.934 316.172C133.502 316.604 133.13 317.012 132.818 317.396C132.506 317.78 132.266 318.176 132.098 318.584C131.942 318.98 131.864 319.43 131.864 319.934V320.132C131.864 320.996 132.11 321.644 132.602 322.076C133.094 322.496 133.814 322.706 134.762 322.706C135.71 322.706 136.424 322.496 136.904 322.076C137.384 321.644 137.624 320.996 137.624 320.132V319.934C137.624 319.166 137.432 318.494 137.048 317.918C136.676 317.342 136.178 316.706 135.554 316.01L133.592 313.796L136.976 311.618L138.884 313.76C139.556 314.504 140.144 315.206 140.648 315.866C141.152 316.526 141.548 317.204 141.836 317.9C142.124 318.584 142.268 319.37 142.268 320.258V320.456C142.268 322.436 141.626 323.93 140.342 324.938C139.07 325.946 137.21 326.45 134.762 326.45ZM124.754 318.566L120.29 317.792V309.98C120.29 307.976 120.782 306.47 121.766 305.462C122.762 304.442 124.202 303.932 126.086 303.932C127.046 303.932 127.892 304.058 128.624 304.31C129.356 304.55 130.034 304.91 130.658 305.39C131.282 305.87 131.912 306.476 132.548 307.208L137.084 312.284L133.538 314.624L129.074 309.404C128.69 308.96 128.348 308.612 128.048 308.36C127.76 308.108 127.478 307.928 127.202 307.82C126.938 307.712 126.65 307.658 126.338 307.658C125.846 307.658 125.456 307.832 125.168 308.18C124.892 308.516 124.754 309.05 124.754 309.782V318.566ZM137.138 313.994L133.88 311.618L140.972 304.436H145.958L145.436 305.714L137.138 313.994ZM161.745 322.796C160.089 322.796 158.715 322.484 157.623 321.86C156.543 321.236 155.733 320.33 155.193 319.142C154.665 317.942 154.401 316.496 154.401 314.804V312.464C154.401 309.776 155.019 307.766 156.255 306.434C157.491 305.102 159.315 304.436 161.727 304.436C162.411 304.436 163.029 304.49 163.581 304.598C164.145 304.694 164.613 304.814 164.985 304.958L165.345 308.612C165.045 308.516 164.697 308.438 164.301 308.378C163.917 308.318 163.467 308.288 162.951 308.288C161.643 308.288 160.677 308.654 160.053 309.386C159.441 310.106 159.135 311.192 159.135 312.644V314.552C159.135 315.992 159.471 317.072 160.143 317.792C160.827 318.5 161.853 318.854 163.221 318.854C164.445 318.854 165.423 318.59 166.155 318.062C166.899 317.534 167.367 316.826 167.559 315.938L167.703 319.466H167.307C167.103 320.114 166.767 320.69 166.299 321.194C165.843 321.698 165.237 322.094 164.481 322.382C163.737 322.658 162.825 322.796 161.745 322.796ZM167.505 317.396V304.436H172.095V317.396H167.505ZM167.505 326V315.254H172.095V326H167.505ZM188.081 317.396V304.436H192.671V317.396H188.081ZM188.081 326V315.254H192.671V326H188.081ZM177.731 322.184C177.359 321.176 177.023 320.138 176.723 319.07C176.423 317.99 176.177 316.862 175.985 315.686C175.793 314.498 175.655 313.232 175.571 311.888L177.659 310.592H181.637V322.184H177.731ZM180.413 314.372V310.592H189.791L190.115 314.372H180.413ZM198.855 315.56V309.836C198.855 309.164 198.729 308.666 198.477 308.342C198.225 308.018 197.811 307.856 197.235 307.856C197.007 307.856 196.779 307.874 196.551 307.91C196.335 307.946 196.125 307.994 195.921 308.054L196.191 304.58C196.611 304.448 197.055 304.352 197.523 304.292C198.003 304.22 198.513 304.184 199.053 304.184C200.517 304.184 201.609 304.586 202.329 305.39C203.061 306.182 203.427 307.424 203.427 309.116V315.542L198.855 315.56ZM199.179 323.822C198.783 322.994 198.429 322.142 198.117 321.266C197.805 320.39 197.547 319.472 197.343 318.512C197.139 317.54 197.001 316.502 196.929 315.398L199.017 314.12H203.265V323.822H199.179ZM202.383 317.648V313.868H211.329L211.671 317.648H202.383ZM210.375 317.396V304.436H214.983V317.396H210.375ZM210.375 326V315.254H214.983V326H210.375ZM219.704 317.396V304.436H224.312V317.396H219.704ZM219.704 326V315.254H224.312V326H219.704ZM221.99 301.79C221.078 301.79 220.406 301.562 219.974 301.106C219.542 300.638 219.326 299.996 219.326 299.18V299C219.326 298.22 219.542 297.596 219.974 297.128C220.418 296.648 221.09 296.408 221.99 296.408C222.902 296.408 223.574 296.642 224.006 297.11C224.45 297.566 224.672 298.196 224.672 299V299.18C224.672 299.996 224.456 300.638 224.024 301.106C223.604 301.562 222.926 301.79 221.99 301.79ZM237.354 324.488C234.354 324.488 232.098 323.792 230.586 322.4C229.074 321.008 228.318 319.04 228.318 316.496C228.318 315.968 228.33 315.518 228.354 315.146C228.378 314.762 228.414 314.408 228.462 314.084L232.602 314.066C234.186 314.066 235.32 313.772 236.004 313.184C236.688 312.596 237.03 311.696 237.03 310.484V310.052C237.03 309.188 236.844 308.54 236.472 308.108C236.1 307.664 235.548 307.442 234.816 307.442C234.084 307.442 233.526 307.652 233.142 308.072C232.758 308.492 232.566 309.14 232.566 310.016C232.566 310.388 232.566 310.736 232.566 311.06C232.566 311.372 232.566 311.696 232.566 312.032H228.822C228.702 311.636 228.606 311.204 228.534 310.736C228.474 310.268 228.444 309.806 228.444 309.35C228.444 307.574 228.984 306.23 230.064 305.318C231.144 304.394 232.728 303.932 234.816 303.932C236.976 303.932 238.614 304.448 239.73 305.48C240.858 306.512 241.422 308.036 241.422 310.052V310.556C241.422 312.824 240.834 314.528 239.658 315.668C238.482 316.808 236.664 317.384 234.204 317.396H230.514L232.8 314.966C232.788 315.206 232.782 315.44 232.782 315.668C232.782 315.896 232.782 316.124 232.782 316.352C232.782 317.24 232.974 318.008 233.358 318.656C233.754 319.292 234.36 319.784 235.176 320.132C236.004 320.48 237.066 320.654 238.362 320.654C239.586 320.654 240.624 320.522 241.476 320.258C242.328 319.982 243.018 319.604 243.546 319.124C244.074 318.632 244.452 318.068 244.68 317.432L244.86 320.924H244.374C244.038 321.956 243.312 322.808 242.196 323.48C241.08 324.152 239.466 324.488 237.354 324.488ZM244.572 317.396V304.436H249.162V317.396H244.572ZM244.572 326V315.254H249.162V326H244.572ZM253.911 306.2V299.99C253.911 298.934 253.719 298.16 253.335 297.668C252.963 297.164 252.363 296.912 251.535 296.912C250.731 296.912 250.143 297.158 249.771 297.65C249.387 298.13 249.195 298.856 249.195 299.828V303.14H244.587V300.062C244.587 297.77 245.181 296.06 246.369 294.932C247.557 293.804 249.279 293.24 251.535 293.24C252.987 293.24 254.229 293.498 255.261 294.014C256.305 294.53 257.109 295.304 257.673 296.336C258.237 297.368 258.519 298.658 258.519 300.206V306.2H253.911ZM253.911 317.396V304.436H258.519V317.396H253.911ZM253.911 326V315.254H258.519V326H253.911ZM286.6 317.396V304.436H291.208V317.396H286.6ZM286.6 326V315.254H291.208V326H286.6ZM278.572 325.946C275.644 325.946 273.43 325.172 271.93 323.624C270.442 322.076 269.698 319.79 269.698 316.766V313.4C269.698 310.376 270.43 308.102 271.894 306.578C273.37 305.054 275.53 304.292 278.374 304.292C279.25 304.292 280.048 304.358 280.768 304.49C281.5 304.61 282.13 304.772 282.658 304.976L283.036 308.648C282.58 308.516 282.058 308.408 281.47 308.324C280.882 308.228 280.222 308.18 279.49 308.18C277.798 308.18 276.532 308.63 275.692 309.53C274.864 310.43 274.45 311.804 274.45 313.652V316.514C274.45 318.374 274.87 319.766 275.71 320.69C276.562 321.602 277.834 322.058 279.526 322.058C280.318 322.058 281.02 321.998 281.632 321.878C282.244 321.758 282.796 321.602 283.288 321.41L282.928 325.262C282.364 325.466 281.734 325.634 281.038 325.766C280.342 325.886 279.52 325.946 278.572 325.946ZM278.266 317.72L278.464 313.544L289.12 310.7L289.012 314.858L278.266 317.72ZM310.466 314.57V302.132C310.466 298.136 312.194 296.138 315.65 296.138C316.142 296.138 316.58 296.162 316.964 296.21C317.348 296.258 317.708 296.342 318.044 296.462L318.368 299.99C318.152 299.942 317.93 299.906 317.702 299.882C317.486 299.846 317.252 299.828 317 299.828C316.328 299.828 315.836 300.032 315.524 300.44C315.212 300.836 315.056 301.484 315.056 302.384V314.57H310.466ZM304.688 326.45C301.484 326.45 299.114 325.886 297.578 324.758C296.054 323.63 295.292 322.04 295.292 319.988V319.718C295.292 318.254 295.664 317.114 296.408 316.298C297.152 315.482 298.292 314.984 299.828 314.804V314.714C298.28 314.522 297.14 314.036 296.408 313.256C295.676 312.476 295.31 311.336 295.31 309.836V309.584C295.31 307.64 295.934 306.212 297.182 305.3C298.442 304.388 300.23 303.932 302.546 303.932C303.47 303.932 304.292 304.004 305.012 304.148C305.744 304.28 306.356 304.442 306.848 304.634L307.208 308.288C306.764 308.12 306.254 307.982 305.678 307.874C305.102 307.754 304.442 307.694 303.698 307.694C302.498 307.694 301.592 307.904 300.98 308.324C300.368 308.744 300.062 309.392 300.062 310.268V310.412C300.062 311.216 300.314 311.81 300.818 312.194C301.322 312.566 302.138 312.776 303.266 312.824L306.326 312.932V316.55L303.302 316.676C302.174 316.712 301.346 316.946 300.818 317.378C300.302 317.798 300.044 318.452 300.044 319.34V319.52C300.044 320.564 300.41 321.338 301.142 321.842C301.886 322.334 303.068 322.58 304.688 322.58C306.62 322.58 308.066 322.148 309.026 321.284C309.986 320.408 310.466 319.088 310.466 317.324V313.472H315.056V317.414C315.056 320.438 314.186 322.7 312.446 324.2C310.718 325.7 308.132 326.45 304.688 326.45ZM344.756 317.396V304.436H349.364V317.396H344.756ZM344.756 326V315.254H349.364V326H344.756ZM330.428 320.132L325.55 319.286V315.83L331.346 315.794C333.074 315.782 334.37 315.44 335.234 314.768C336.11 314.084 336.548 313.01 336.548 311.546V310.664C336.548 309.608 336.302 308.822 335.81 308.306C335.33 307.778 334.61 307.514 333.65 307.514C332.69 307.514 331.964 307.766 331.472 308.27C330.98 308.774 330.734 309.53 330.734 310.538V310.7C330.734 311.156 330.764 311.624 330.824 312.104C330.896 312.584 330.974 313.028 331.058 313.436H326.936C326.744 313.004 326.588 312.518 326.468 311.978C326.36 311.426 326.306 310.874 326.306 310.322V310.178C326.306 308.102 326.924 306.542 328.16 305.498C329.396 304.454 331.226 303.932 333.65 303.932C336.122 303.932 337.994 304.508 339.266 305.66C340.538 306.8 341.174 308.528 341.174 310.844V311.744C341.174 314.204 340.442 316.076 338.978 317.36C337.526 318.644 335.432 319.286 332.696 319.286H330.482L330.428 320.132ZM336.836 326.45C335.36 326.45 334.016 326.21 332.804 325.73C331.592 325.25 330.572 324.464 329.744 323.372C328.928 322.268 328.358 320.786 328.034 318.926L327.854 317.882L332.264 317.18L332.48 318.278C332.708 319.442 333.074 320.336 333.578 320.96C334.094 321.584 334.718 322.016 335.45 322.256C336.182 322.484 336.98 322.598 337.844 322.598C338.432 322.598 338.936 322.562 339.356 322.49C339.776 322.418 340.214 322.316 340.67 322.184L340.31 325.91C339.866 326.066 339.332 326.192 338.708 326.288C338.096 326.396 337.472 326.45 336.836 326.45ZM360.479 314.516C359.159 314.468 358.019 314.27 357.059 313.922C356.099 313.562 355.361 313.034 354.845 312.338C354.341 311.642 354.089 310.772 354.089 309.728V309.512C354.089 307.664 354.755 306.272 356.087 305.336C357.431 304.4 359.399 303.932 361.991 303.932C363.203 303.932 364.307 304.04 365.303 304.256C366.299 304.472 367.115 304.724 367.751 305.012L368.165 308.72C367.433 308.456 366.623 308.234 365.735 308.054C364.847 307.862 363.905 307.766 362.909 307.766C361.469 307.766 360.431 307.994 359.795 308.45C359.159 308.894 358.841 309.536 358.841 310.376V310.52C358.841 311.288 359.141 311.906 359.741 312.374C360.353 312.842 361.379 313.124 362.819 313.22L360.479 314.516ZM361.253 326.45C359.765 326.45 358.439 326.342 357.275 326.126C356.123 325.922 355.133 325.664 354.305 325.352L353.909 321.392C354.869 321.728 355.889 322.004 356.969 322.22C358.049 322.424 359.231 322.526 360.515 322.526C361.943 322.526 363.017 322.292 363.737 321.824C364.469 321.356 364.835 320.624 364.835 319.628V319.43C364.835 318.578 364.553 317.906 363.989 317.414C363.437 316.91 362.495 316.592 361.163 316.46L363.503 315.272C365.423 315.296 366.917 315.734 367.985 316.586C369.065 317.438 369.605 318.68 369.605 320.312V320.618C369.605 322.586 368.873 324.05 367.409 325.01C365.945 325.97 363.893 326.45 361.253 326.45ZM352.973 318.62V314.75L360.929 313.544L363.701 316.55L352.973 318.62ZM359.813 313.346L370.919 311.096V314.912L361.325 316.334L359.813 313.346ZM374.251 317.396V304.436H378.859V317.396H374.251ZM374.251 326V315.254H378.859V326H374.251ZM395.357 317.396V304.436H399.947V317.396H395.357ZM395.357 326V315.254H399.947V326H395.357ZM385.493 326C384.953 325.04 384.467 324.026 384.035 322.958C383.603 321.878 383.261 320.786 383.009 319.682C382.769 318.566 382.649 317.474 382.649 316.406C382.649 314.162 383.237 312.446 384.413 311.258C385.601 310.058 387.461 309.458 389.993 309.458H397.607V313.238H391.289C389.945 313.238 388.961 313.55 388.337 314.174C387.713 314.786 387.401 315.728 387.401 317C387.401 317.876 387.521 318.818 387.761 319.826C388.013 320.834 388.361 321.866 388.805 322.922C389.249 323.966 389.747 324.992 390.299 326H385.493ZM404.696 317.396V304.436H409.304V317.396H404.696ZM404.696 326V315.254H409.304V326H404.696ZM203.93 367.396V354.436H208.538V367.396H203.93ZM203.93 376V365.254H208.538V376H203.93ZM195.902 375.946C192.974 375.946 190.76 375.172 189.26 373.624C187.772 372.076 187.028 369.79 187.028 366.766V363.4C187.028 360.376 187.76 358.102 189.224 356.578C190.7 355.054 192.86 354.292 195.704 354.292C196.58 354.292 197.378 354.358 198.098 354.49C198.83 354.61 199.46 354.772 199.988 354.976L200.366 358.648C199.91 358.516 199.388 358.408 198.8 358.324C198.212 358.228 197.552 358.18 196.82 358.18C195.128 358.18 193.862 358.63 193.022 359.53C192.194 360.43 191.78 361.804 191.78 363.652V366.514C191.78 368.374 192.2 369.766 193.04 370.69C193.892 371.602 195.164 372.058 196.856 372.058C197.648 372.058 198.35 371.998 198.962 371.878C199.574 371.758 200.126 371.602 200.618 371.41L200.258 375.262C199.694 375.466 199.064 375.634 198.368 375.766C197.672 375.886 196.85 375.946 195.902 375.946ZM195.596 367.72L195.794 363.544L206.45 360.7L206.342 364.858L195.596 367.72ZM213.253 367.396V354.436H217.861V367.396H213.253ZM213.253 376V365.254H217.861V376H213.253ZM237.113 364.57V352.132C237.113 348.136 238.841 346.138 242.297 346.138C242.789 346.138 243.227 346.162 243.611 346.21C243.995 346.258 244.355 346.342 244.691 346.462L245.015 349.99C244.799 349.942 244.577 349.906 244.349 349.882C244.133 349.846 243.899 349.828 243.647 349.828C242.975 349.828 242.483 350.032 242.171 350.44C241.859 350.836 241.703 351.484 241.703 352.384V364.57H237.113ZM231.335 376.45C228.131 376.45 225.761 375.886 224.225 374.758C222.701 373.63 221.939 372.04 221.939 369.988V369.718C221.939 368.254 222.311 367.114 223.055 366.298C223.799 365.482 224.939 364.984 226.475 364.804V364.714C224.927 364.522 223.787 364.036 223.055 363.256C222.323 362.476 221.957 361.336 221.957 359.836V359.584C221.957 357.64 222.581 356.212 223.829 355.3C225.089 354.388 226.877 353.932 229.193 353.932C230.117 353.932 230.939 354.004 231.659 354.148C232.391 354.28 233.003 354.442 233.495 354.634L233.855 358.288C233.411 358.12 232.901 357.982 232.325 357.874C231.749 357.754 231.089 357.694 230.345 357.694C229.145 357.694 228.239 357.904 227.627 358.324C227.015 358.744 226.709 359.392 226.709 360.268V360.412C226.709 361.216 226.961 361.81 227.465 362.194C227.969 362.566 228.785 362.776 229.913 362.824L232.973 362.932V366.55L229.949 366.676C228.821 366.712 227.993 366.946 227.465 367.378C226.949 367.798 226.691 368.452 226.691 369.34V369.52C226.691 370.564 227.057 371.338 227.789 371.842C228.533 372.334 229.715 372.58 231.335 372.58C233.267 372.58 234.713 372.148 235.673 371.284C236.633 370.408 237.113 369.088 237.113 367.324V363.472H241.703V367.414C241.703 370.438 240.833 372.7 239.093 374.2C237.365 375.7 234.779 376.45 231.335 376.45ZM253.376 376.342C251.888 376.342 250.562 376.228 249.398 376C248.246 375.772 247.256 375.508 246.428 375.208L246.032 371.266C246.992 371.614 248.012 371.896 249.092 372.112C250.172 372.316 251.354 372.418 252.638 372.418C254.066 372.418 255.14 372.184 255.86 371.716C256.592 371.248 256.958 370.516 256.958 369.52V369.322C256.958 368.458 256.676 367.78 256.112 367.288C255.56 366.796 254.618 366.484 253.286 366.352L255.626 365.164C257.546 365.188 259.04 365.626 260.108 366.478C261.188 367.33 261.728 368.578 261.728 370.222V370.51C261.728 371.818 261.398 372.904 260.738 373.768C260.078 374.632 259.124 375.28 257.876 375.712C256.628 376.132 255.128 376.342 253.376 376.342ZM252.602 364.516C251.282 364.468 250.142 364.27 249.182 363.922C248.222 363.562 247.484 363.034 246.968 362.338C246.464 361.642 246.212 360.772 246.212 359.728V359.512C246.212 357.664 246.878 356.272 248.21 355.336C249.554 354.4 251.522 353.932 254.114 353.932C255.326 353.932 256.43 354.04 257.426 354.256C258.422 354.472 259.238 354.724 259.874 355.012L260.288 358.72C259.556 358.456 258.746 358.234 257.858 358.054C256.97 357.862 256.028 357.766 255.032 357.766C253.592 357.766 252.554 357.994 251.918 358.45C251.282 358.894 250.964 359.536 250.964 360.376V360.52C250.964 361.288 251.264 361.906 251.864 362.374C252.476 362.842 253.502 363.124 254.942 363.22L252.602 364.516ZM245.096 368.584V364.714L253.052 363.526L255.824 366.514L245.096 368.584ZM252.818 381.904L248.138 375.118L251.126 375.136C252.254 375.76 253.178 376.372 253.898 376.972C254.618 377.584 255.242 378.184 255.77 378.772L258.524 381.778V381.904H252.818ZM251.936 363.292L263.042 361.042V364.858L253.448 366.28L251.936 363.292ZM289.746 367.396V354.436H294.354V367.396H289.746ZM289.746 376V365.254H294.354V376H289.746ZM281.718 375.946C278.79 375.946 276.576 375.172 275.076 373.624C273.588 372.076 272.844 369.79 272.844 366.766V363.4C272.844 360.376 273.576 358.102 275.04 356.578C276.516 355.054 278.676 354.292 281.52 354.292C282.396 354.292 283.194 354.358 283.914 354.49C284.646 354.61 285.276 354.772 285.804 354.976L286.182 358.648C285.726 358.516 285.204 358.408 284.616 358.324C284.028 358.228 283.368 358.18 282.636 358.18C280.944 358.18 279.678 358.63 278.838 359.53C278.01 360.43 277.596 361.804 277.596 363.652V366.514C277.596 368.374 278.016 369.766 278.856 370.69C279.708 371.602 280.98 372.058 282.672 372.058C283.464 372.058 284.166 371.998 284.778 371.878C285.39 371.758 285.942 371.602 286.434 371.41L286.074 375.262C285.51 375.466 284.88 375.634 284.184 375.766C283.488 375.886 282.666 375.946 281.718 375.946ZM281.412 367.72L281.61 363.544L292.266 360.7L292.158 364.858L281.412 367.72ZM291.223 353.14C289.207 352.132 287.179 351.118 285.139 350.098C283.099 349.066 281.071 348.034 279.055 347.002L281.467 342.97C283.375 344.206 285.283 345.448 287.191 346.696C289.099 347.932 291.007 349.168 292.915 350.404L291.223 353.14ZM317.141 367.396V354.436H321.749V367.396H317.141ZM317.141 376V365.254H321.749V376H317.141ZM302.813 370.132L297.935 369.286V365.83L303.731 365.794C305.459 365.782 306.755 365.44 307.619 364.768C308.495 364.084 308.933 363.01 308.933 361.546V360.664C308.933 359.608 308.687 358.822 308.195 358.306C307.715 357.778 306.995 357.514 306.035 357.514C305.075 357.514 304.349 357.766 303.857 358.27C303.365 358.774 303.119 359.53 303.119 360.538V360.7C303.119 361.156 303.149 361.624 303.209 362.104C303.281 362.584 303.359 363.028 303.443 363.436H299.321C299.129 363.004 298.973 362.518 298.853 361.978C298.745 361.426 298.691 360.874 298.691 360.322V360.178C298.691 358.102 299.309 356.542 300.545 355.498C301.781 354.454 303.611 353.932 306.035 353.932C308.507 353.932 310.379 354.508 311.651 355.66C312.923 356.8 313.559 358.528 313.559 360.844V361.744C313.559 364.204 312.827 366.076 311.363 367.36C309.911 368.644 307.817 369.286 305.081 369.286H302.867L302.813 370.132ZM309.221 376.45C307.745 376.45 306.401 376.21 305.189 375.73C303.977 375.25 302.957 374.464 302.129 373.372C301.313 372.268 300.743 370.786 300.419 368.926L300.239 367.882L304.649 367.18L304.865 368.278C305.093 369.442 305.459 370.336 305.963 370.96C306.479 371.584 307.103 372.016 307.835 372.256C308.567 372.484 309.365 372.598 310.229 372.598C310.817 372.598 311.321 372.562 311.741 372.49C312.161 372.418 312.599 372.316 313.055 372.184L312.695 375.91C312.251 376.066 311.717 376.192 311.093 376.288C310.481 376.396 309.857 376.45 309.221 376.45ZM337.724 367.396V354.436H342.314V367.396H337.724ZM337.724 376V365.254H342.314V376H337.724ZM327.374 372.184C327.002 371.176 326.666 370.138 326.366 369.07C326.066 367.99 325.82 366.862 325.628 365.686C325.436 364.498 325.298 363.232 325.214 361.888L327.302 360.592H331.28V372.184H327.374ZM330.056 364.372V360.592H339.434L339.758 364.372H330.056Z" fill="white"/>
<defs>
<filter id="filter0_d_216_483" x="0" y="39" width="526" height="169.5" filterUnits="userSpaceOnUse" color-interpolation-filters="sRGB">
<feFlood flood-opacity="0" result="BackgroundImageFix"/>
<feColorMatrix in="SourceAlpha" type="matrix" values="0 0 0 0 0 0 0 0 0 0 0 0 0 0 0 0 0 0 127 0" result="hardAlpha"/>
<feOffset dy="12"/>
<feGaussianBlur stdDeviation="12"/>
<feComposite in2="hardAlpha" operator="out"/>
<feColorMatrix type="matrix" values="0 0 0 0 0 0 0 0 0 0 0 0 0 0 0 0 0 0 0.12 0"/>
<feBlend mode="normal" in2="BackgroundImageFix" result="effect1_dropShadow_216_483"/>
<feBlend mode="normal" in="SourceGraphic" in2="effect1_dropShadow_216_483" result="shape"/>
</filter>
</defs>
</svg>
