<svg width="526" height="410" viewBox="0 0 526 410" fill="none" xmlns="http://www.w3.org/2000/svg">
<circle cx="265" cy="205" r="205" fill="#A9541E"/>
<g filter="url(#filter0_d_216_533)">
<path d="M502 79C502 63.536 489.464 51 474 51H52C36.536 51 24 63.536 24 79V104C24 119.464 36.536 132 52 132H474C489.464 132 502 119.464 502 104V79Z" fill="#FB7F01"/>
<path d="M501.5 92V172.5C491.501 145.927 481.375 136.715 454 132L400 96.5L501.5 92Z" fill="#FB7F01"/>
</g>
<path d="M364.161 117.088C362.785 117.088 361.769 116.695 361.113 115.909C360.473 115.122 360.153 114.023 360.153 112.612V112.317C360.153 110.923 360.473 109.824 361.113 109.02C361.769 108.216 362.785 107.814 364.161 107.814C365.505 107.814 366.505 108.216 367.161 109.02C367.817 109.824 368.145 110.923 368.145 112.317V112.612C368.145 114.023 367.817 115.122 367.161 115.909C366.505 116.695 365.505 117.088 364.161 117.088ZM364.161 100.255C362.785 100.255 361.769 99.8619 361.113 99.0756C360.473 98.2894 360.153 97.1904 360.153 95.7787V95.4839C360.153 94.0901 360.473 92.9911 361.113 92.187C361.769 91.3828 362.785 90.9808 364.161 90.9808C365.505 90.9808 366.505 91.3828 367.161 92.187C367.817 92.9911 368.145 94.0901 368.145 95.4839V95.7787C368.145 97.1904 367.817 98.2894 367.161 99.0756C366.505 99.8619 365.505 100.255 364.161 100.255Z" fill="white"/>
<path d="M338.892 86.8798V77.4715C338.892 76.1134 338.684 75.1127 338.268 74.4694C337.852 73.8083 337.148 73.4777 336.156 73.4777C335.212 73.4777 334.532 73.7993 334.116 74.4426C333.684 75.0859 333.468 76.0598 333.468 77.3643V82.2158H326.148V77.82C326.148 74.1746 327.004 71.4584 328.716 69.6715C330.428 67.8846 332.908 66.9911 336.156 66.9911C338.236 66.9911 340.028 67.4021 341.532 68.2241C343.036 69.0282 344.188 70.2433 344.988 71.8694C345.804 73.4956 346.212 75.5148 346.212 77.9272V86.8798H338.892ZM338.892 103.927V84.1457H346.212V103.927H338.892ZM338.892 116.364V101.059H346.212V116.364H338.892Z" fill="white"/>
<path d="M317.213 114.515C313.901 114.515 311.421 113.72 309.773 112.129C308.141 110.521 307.325 108.323 307.325 105.535V105.241C307.325 103.078 307.797 101.381 308.741 100.148C309.701 98.897 311.181 98.1286 313.181 97.8427V97.655C311.149 97.4227 309.661 96.7794 308.717 95.7251C307.789 94.653 307.325 93.1251 307.325 91.1416V90.9808C307.325 89.9086 307.477 88.8901 307.781 87.9251C308.085 86.9423 308.533 85.9684 309.125 85.0035C309.733 84.0207 310.493 83.0021 311.405 81.9478H319.733V82.2695C318.741 83.4131 317.877 84.4942 317.141 85.5128C316.421 86.5313 315.861 87.5141 315.461 88.4612C315.077 89.3904 314.885 90.3286 314.885 91.2757V91.3829C314.885 92.3836 315.173 93.143 315.749 93.6612C316.341 94.1616 317.253 94.4296 318.485 94.4654L322.373 94.6262V100.872L318.509 101.006C317.261 101.059 316.349 101.345 315.773 101.863C315.197 102.364 314.909 103.141 314.909 104.195V104.302C314.909 105.482 315.293 106.357 316.061 106.929C316.829 107.483 318.061 107.76 319.757 107.76C321.581 107.76 323.053 107.394 324.173 106.661C325.293 105.929 325.981 104.982 326.237 103.82L326.645 109.315H325.853C325.549 110.333 325.045 111.236 324.341 112.022C323.653 112.79 322.725 113.398 321.557 113.845C320.405 114.291 318.957 114.515 317.213 114.515ZM326.117 103.927V84.1458H333.461V103.927H326.117ZM326.117 116.364V101.059H333.461V116.364H326.117Z" fill="white"/>
<path d="M295.439 103.927V84.1457H302.759V103.927H295.439ZM295.439 116.364V101.059H302.759V116.364H295.439ZM299.087 80.6344C297.695 80.6344 296.671 80.2502 296.015 79.4818C295.359 78.6956 295.031 77.6323 295.031 76.2921V76.0241C295.031 74.7196 295.367 73.6743 296.039 72.888C296.711 72.1017 297.727 71.7086 299.087 71.7086C300.463 71.7086 301.487 72.0928 302.159 72.8612C302.831 73.6296 303.167 74.6839 303.167 76.0241V76.2921C303.167 77.6323 302.839 78.6956 302.183 79.4818C301.527 80.2502 300.495 80.6344 299.087 80.6344Z" fill="white"/>
<path d="M282.673 103.927V84.1457H289.993V103.927H282.673ZM282.673 116.364V101.059H289.993V116.364H282.673ZM267.937 110.789C266.609 110.789 265.401 110.646 264.313 110.36C263.225 110.074 262.289 109.69 261.505 109.208L260.953 102.587C261.721 102.98 262.513 103.302 263.329 103.552C264.145 103.784 265.065 103.9 266.089 103.9C267.577 103.9 268.689 103.418 269.425 102.453C270.161 101.488 270.529 100.041 270.529 98.1107V95.8324C270.529 93.9203 270.169 92.4997 269.449 91.5705C268.729 90.6413 267.633 90.1767 266.161 90.1767C265.249 90.1767 264.393 90.3018 263.593 90.5519C262.809 90.7842 262.065 91.1059 261.361 91.5169L261.889 84.8159C262.689 84.3691 263.617 84.0117 264.673 83.7437C265.729 83.4578 266.857 83.3148 268.057 83.3148C270.185 83.3148 271.993 83.7526 273.481 84.6282C274.985 85.486 276.129 86.8172 276.913 88.622C277.713 90.409 278.113 92.7052 278.113 95.5107V98.5664C278.113 101.39 277.713 103.704 276.913 105.509C276.113 107.313 274.953 108.645 273.433 109.502C271.913 110.36 270.081 110.789 267.937 110.789Z" fill="white"/>
<path d="M240.22 86.8798V77.4715C240.22 76.1134 240.012 75.1127 239.596 74.4694C239.18 73.8083 238.476 73.4777 237.484 73.4777C236.54 73.4777 235.86 73.7993 235.444 74.4426C235.012 75.0859 234.796 76.0598 234.796 77.3643V82.2158H227.476V77.82C227.476 74.1746 228.332 71.4584 230.044 69.6715C231.756 67.8846 234.236 66.9911 237.484 66.9911C239.564 66.9911 241.356 67.4021 242.86 68.2241C244.364 69.0282 245.516 70.2433 246.316 71.8694C247.132 73.4956 247.54 75.5148 247.54 77.9272V86.8798H240.22ZM240.22 103.927V84.1457H247.54V103.927H240.22ZM240.22 116.364V101.059H247.54V116.364H240.22Z" fill="white"/>
<path d="M227.491 103.927V84.1457H234.811V103.927H227.491ZM227.491 116.364V101.059H234.811V116.364H227.491ZM218.371 104.356V97.6818H230.155L230.659 104.356H218.371ZM202.819 116.364C201.507 114.595 200.491 112.424 199.771 109.851C199.067 107.278 198.715 104.49 198.715 101.488V97.8963C198.715 93.0894 199.819 89.4619 202.027 87.0138C204.251 84.5478 207.627 83.3148 212.155 83.3148C213.755 83.3148 215.299 83.4756 216.787 83.7973C218.275 84.1011 219.707 84.6014 221.083 85.2983V100.63H213.835V88.5684L215.011 90.954C214.547 90.6681 214.067 90.4715 213.571 90.3643C213.091 90.2571 212.619 90.2035 212.155 90.2035C210.235 90.2035 208.771 90.8468 207.763 92.1334C206.755 93.4021 206.251 95.332 206.251 97.9231V101.568C206.251 103.48 206.411 105.294 206.731 107.01C207.051 108.707 207.539 110.333 208.195 111.888C208.851 113.425 209.659 114.917 210.619 116.364H202.819ZM214.531 111.995C213.907 110.887 213.347 109.717 212.851 108.484C212.371 107.251 211.979 105.946 211.675 104.571C211.371 103.177 211.179 101.711 211.099 100.175L214.243 98.0035H220.963V111.995H214.531Z" fill="white"/>
<path d="M179.924 82.2159C177.188 80.8399 174.436 79.455 171.668 78.0612C168.916 76.6495 166.164 75.2379 163.412 73.8262L167.18 66.5622C169.74 68.3671 172.3 70.1808 174.86 72.0035C177.42 73.8083 179.972 75.6131 182.516 77.4179L179.924 82.2159ZM182.324 72.7808C181.156 72.7808 180.268 72.4413 179.66 71.7622C179.068 71.0832 178.772 70.1808 178.772 69.055V68.8138C178.772 67.688 179.076 66.7856 179.684 66.1066C180.292 65.4275 181.18 65.088 182.348 65.088C183.532 65.088 184.412 65.4186 184.988 66.0798C185.58 66.7409 185.876 67.6523 185.876 68.8138V69.055C185.876 70.1808 185.58 71.0832 184.988 71.7622C184.396 72.4413 183.508 72.7808 182.324 72.7808Z" fill="white"/>
<path d="M161.991 100.738V93.0448C161.991 92.0798 161.831 91.365 161.511 90.9004C161.191 90.418 160.647 90.1767 159.879 90.1767C159.559 90.1767 159.247 90.2035 158.943 90.2571C158.655 90.3107 158.375 90.3733 158.103 90.4448L158.535 84.3602C159.175 84.1458 159.847 83.985 160.551 83.8778C161.271 83.7527 162.039 83.6901 162.855 83.6901C164.999 83.6901 166.599 84.3424 167.655 85.6468C168.711 86.9334 169.239 88.9616 169.239 91.7314V100.684L161.991 100.738ZM162.519 113.336C161.895 112.138 161.343 110.87 160.863 109.529C160.383 108.189 159.991 106.76 159.687 105.241C159.383 103.722 159.183 102.122 159.087 100.443L162.255 98.2984H168.975V113.336H162.519ZM167.607 104.544V97.8695H179.223L179.751 104.544H167.607ZM177.471 103.927V84.1458H184.791V103.927H177.471ZM177.471 116.364V101.059H184.791V116.364H177.471Z" fill="white"/>
<path d="M160.147 204.44C158.307 204.44 156.78 204.093 155.567 203.4C154.367 202.707 153.467 201.7 152.867 200.38C152.28 199.047 151.987 197.44 151.987 195.56V192.96C151.987 189.973 152.674 187.74 154.047 186.26C155.42 184.78 157.447 184.04 160.127 184.04C160.887 184.04 161.574 184.1 162.187 184.22C162.814 184.327 163.334 184.46 163.747 184.62L164.147 188.68C163.814 188.573 163.427 188.487 162.987 188.42C162.56 188.353 162.06 188.32 161.487 188.32C160.034 188.32 158.96 188.727 158.267 189.54C157.587 190.34 157.247 191.547 157.247 193.16V195.28C157.247 196.88 157.62 198.08 158.367 198.88C159.127 199.667 160.267 200.06 161.787 200.06C163.147 200.06 164.234 199.767 165.047 199.18C165.874 198.593 166.394 197.807 166.607 196.82L166.767 200.74H166.327C166.1 201.46 165.727 202.1 165.207 202.66C164.7 203.22 164.027 203.66 163.187 203.98C162.36 204.287 161.347 204.44 160.147 204.44ZM166.547 198.44V184.04H171.647V198.44H166.547ZM166.547 208V196.06H171.647V208H166.547ZM189.99 198.44V184.04H195.09V198.44H189.99ZM189.99 208V196.06H195.09V208H189.99ZM179.03 208C178.43 206.933 177.89 205.807 177.41 204.62C176.93 203.42 176.55 202.207 176.27 200.98C176.003 199.74 175.87 198.527 175.87 197.34C175.87 194.847 176.523 192.94 177.83 191.62C179.15 190.287 181.216 189.62 184.03 189.62H192.49V193.82H185.47C183.976 193.82 182.883 194.167 182.19 194.86C181.496 195.54 181.15 196.587 181.15 198C181.15 198.973 181.283 200.02 181.55 201.14C181.83 202.26 182.216 203.407 182.71 204.58C183.203 205.74 183.756 206.88 184.37 208H179.03ZM193.848 181.28L190.728 182.6C189.555 182.013 188.668 181.22 188.068 180.22C187.468 179.22 187.168 178.027 187.168 176.64V176.44C187.168 174.76 187.721 173.413 188.828 172.4C189.948 171.373 191.601 170.86 193.788 170.86C194.481 170.86 195.121 170.9 195.708 170.98C196.295 171.047 196.888 171.16 197.488 171.32L197.968 175.18C197.501 175.047 197.081 174.96 196.708 174.92C196.348 174.88 195.961 174.86 195.548 174.86C194.481 174.86 193.675 175.113 193.128 175.62C192.581 176.113 192.308 176.847 192.308 177.82V177.98C192.308 178.647 192.435 179.247 192.688 179.78C192.941 180.313 193.328 180.813 193.848 181.28ZM224.408 198.44V184.04H229.508V198.44H224.408ZM224.408 208V196.06H229.508V208H224.408ZM213.448 200.08C212.488 200.08 211.621 199.987 210.848 199.8C210.088 199.6 209.435 199.34 208.888 199.02L208.488 195.1C209.021 195.367 209.588 195.58 210.188 195.74C210.788 195.9 211.468 195.98 212.228 195.98C213.268 195.98 214.068 195.7 214.628 195.14C215.201 194.567 215.488 193.68 215.488 192.48V190.98C215.488 189.807 215.208 188.94 214.648 188.38C214.101 187.82 213.328 187.54 212.328 187.54C211.608 187.54 210.941 187.627 210.328 187.8C209.715 187.96 209.161 188.16 208.668 188.4L209.008 184.4C209.581 184.133 210.255 183.913 211.028 183.74C211.815 183.567 212.661 183.48 213.568 183.48C215.768 183.48 217.481 184.073 218.708 185.26C219.948 186.447 220.568 188.293 220.568 190.8V192.64C220.568 195.16 219.941 197.033 218.688 198.26C217.435 199.473 215.688 200.08 213.448 200.08ZM211.688 208.5C207.781 208.5 204.861 207.68 202.928 206.04C201.008 204.4 200.048 201.827 200.048 198.32V184.04H205.168V197.96C205.168 200.093 205.755 201.66 206.928 202.66C208.115 203.647 209.948 204.14 212.428 204.14C213.641 204.14 214.875 204.04 216.128 203.84C217.381 203.627 218.588 203.34 219.748 202.98L219.328 207.34C218.368 207.673 217.228 207.947 215.908 208.16C214.588 208.387 213.181 208.5 211.688 208.5ZM225.238 221.92C223.238 221.92 221.471 221.58 219.938 220.9C218.418 220.22 217.125 219.167 216.058 217.74C215.005 216.313 214.165 214.5 213.538 212.3H218.358C219.038 214.327 219.931 215.8 221.038 216.72C222.158 217.653 223.545 218.12 225.198 218.12C226.318 218.12 227.118 217.9 227.598 217.46C228.078 217.02 228.318 216.427 228.318 215.68V215.52C228.318 214.8 228.098 214.227 227.658 213.8C227.218 213.387 226.485 213.18 225.458 213.18C224.791 213.18 224.131 213.26 223.478 213.42C222.825 213.58 222.178 213.8 221.538 214.08L221.938 210.22C222.578 209.953 223.245 209.753 223.938 209.62C224.631 209.487 225.398 209.42 226.238 209.42C228.491 209.42 230.158 209.967 231.238 211.06C232.331 212.153 232.878 213.613 232.878 215.44V215.7C232.878 217.62 232.265 219.133 231.038 220.24C229.811 221.36 227.878 221.92 225.238 221.92ZM241.861 195.24C240.394 195.187 239.128 194.967 238.061 194.58C236.994 194.18 236.174 193.593 235.601 192.82C235.041 192.047 234.761 191.08 234.761 189.92V189.68C234.761 187.627 235.501 186.08 236.981 185.04C238.474 184 240.661 183.48 243.541 183.48C244.888 183.48 246.114 183.6 247.221 183.84C248.328 184.08 249.234 184.36 249.941 184.68L250.401 188.8C249.588 188.507 248.688 188.26 247.701 188.06C246.714 187.847 245.668 187.74 244.561 187.74C242.961 187.74 241.808 187.993 241.101 188.5C240.394 188.993 240.041 189.707 240.041 190.64V190.8C240.041 191.653 240.374 192.34 241.041 192.86C241.721 193.38 242.861 193.693 244.461 193.8L241.861 195.24ZM242.721 208.5C241.068 208.5 239.594 208.38 238.301 208.14C237.021 207.913 235.921 207.627 235.001 207.28L234.561 202.88C235.628 203.253 236.761 203.56 237.961 203.8C239.161 204.027 240.474 204.14 241.901 204.14C243.488 204.14 244.681 203.88 245.481 203.36C246.294 202.84 246.701 202.027 246.701 200.92V200.7C246.701 199.753 246.388 199.007 245.761 198.46C245.148 197.9 244.101 197.547 242.621 197.4L245.221 196.08C247.354 196.107 249.014 196.593 250.201 197.54C251.401 198.487 252.001 199.867 252.001 201.68V202.02C252.001 204.207 251.188 205.833 249.561 206.9C247.934 207.967 245.654 208.5 242.721 208.5ZM233.521 199.8V195.5L242.361 194.16L245.441 197.5L233.521 199.8ZM241.121 193.94L253.461 191.44V195.68L242.801 197.26L241.121 193.94ZM286.173 198.44V184.04H291.293V198.44H286.173ZM286.173 208V196.06H291.293V208H286.173ZM278.873 197.5V193.3H288.993L289.353 197.5H278.873ZM272.793 205.52C269.966 205.52 267.846 204.793 266.433 203.34C265.019 201.887 264.313 199.647 264.313 196.62V193.36C264.313 191.36 264.566 189.587 265.073 188.04C265.579 186.493 266.313 185.16 267.273 184.04H272.653C271.626 185.373 270.859 186.787 270.353 188.28C269.846 189.773 269.593 191.46 269.593 193.34V196.72C269.593 198.2 269.853 199.32 270.373 200.08C270.906 200.827 271.726 201.2 272.833 201.2C274.873 201.2 275.893 199.953 275.893 197.46V187.8H280.953V197.34C280.953 200.1 280.266 202.153 278.893 203.5C277.533 204.847 275.499 205.52 272.793 205.52ZM304.878 208.5C301.905 208.5 299.645 207.927 298.098 206.78C296.551 205.62 295.778 203.96 295.778 201.8V201.52C295.778 199.813 296.218 198.487 297.098 197.54C297.978 196.58 299.271 195.987 300.978 195.76V195.64C299.325 195.453 298.091 194.927 297.278 194.06C296.478 193.18 296.078 191.9 296.078 190.22V189.96C296.078 187.787 296.831 186.167 298.338 185.1C299.845 184.02 301.971 183.48 304.718 183.48C306.105 183.48 307.351 183.613 308.458 183.88C309.578 184.133 310.505 184.44 311.238 184.8L311.718 189.04C310.878 188.653 309.938 188.333 308.898 188.08C307.871 187.827 306.791 187.7 305.658 187.7C304.245 187.7 303.171 187.947 302.438 188.44C301.718 188.933 301.358 189.667 301.358 190.64V190.84C301.358 191.733 301.665 192.4 302.278 192.84C302.891 193.28 303.811 193.513 305.038 193.54L309.778 193.66V197.74L305.058 197.86C303.711 197.9 302.711 198.16 302.058 198.64C301.405 199.12 301.078 199.867 301.078 200.88V201.06C301.078 202.113 301.458 202.9 302.218 203.42C302.991 203.927 304.138 204.18 305.658 204.18C306.991 204.18 308.178 204.027 309.218 203.72C310.271 203.4 311.245 203 312.138 202.52L311.718 206.98C310.971 207.393 310.018 207.747 308.858 208.04C307.698 208.347 306.371 208.5 304.878 208.5ZM333.64 198.44V184.04H338.76V198.44H333.64ZM333.64 208V196.06H338.76V208H333.64ZM324.72 207.94C321.467 207.94 319.007 207.08 317.34 205.36C315.687 203.64 314.86 201.1 314.86 197.74V194C314.86 190.64 315.674 188.113 317.3 186.42C318.94 184.727 321.34 183.88 324.5 183.88C325.474 183.88 326.36 183.953 327.16 184.1C327.974 184.233 328.674 184.413 329.26 184.64L329.68 188.72C329.174 188.573 328.594 188.453 327.94 188.36C327.287 188.253 326.554 188.2 325.74 188.2C323.86 188.2 322.454 188.7 321.52 189.7C320.6 190.7 320.14 192.227 320.14 194.28V197.46C320.14 199.527 320.607 201.073 321.54 202.1C322.487 203.113 323.9 203.62 325.78 203.62C326.66 203.62 327.44 203.553 328.12 203.42C328.8 203.287 329.414 203.113 329.96 202.9L329.56 207.18C328.934 207.407 328.234 207.593 327.46 207.74C326.687 207.873 325.774 207.94 324.72 207.94ZM324.38 198.8L324.6 194.16L336.44 191L336.32 195.62L324.38 198.8ZM343.999 198.44V184.04H349.119V198.44H343.999ZM343.999 208V196.06H349.119V208H343.999ZM361.67 204.44C359.83 204.44 358.304 204.093 357.09 203.4C355.89 202.707 354.99 201.7 354.39 200.38C353.804 199.047 353.51 197.44 353.51 195.56V192.96C353.51 189.973 354.197 187.74 355.57 186.26C356.944 184.78 358.97 184.04 361.65 184.04C362.41 184.04 363.097 184.1 363.71 184.22C364.337 184.327 364.857 184.46 365.27 184.62L365.67 188.68C365.337 188.573 364.95 188.487 364.51 188.42C364.084 188.353 363.584 188.32 363.01 188.32C361.557 188.32 360.484 188.727 359.79 189.54C359.11 190.34 358.77 191.547 358.77 193.16V195.28C358.77 196.88 359.144 198.08 359.89 198.88C360.65 199.667 361.79 200.06 363.31 200.06C364.67 200.06 365.757 199.767 366.57 199.18C367.397 198.593 367.917 197.807 368.13 196.82L368.29 200.74H367.85C367.624 201.46 367.25 202.1 366.73 202.66C366.224 203.22 365.55 203.66 364.71 203.98C363.884 204.287 362.87 204.44 361.67 204.44ZM368.07 198.44V184.04H373.17V198.44H368.07ZM368.07 208V196.06H373.17V208H368.07ZM147.232 250.14V251.76C147.232 253.773 147.398 255.66 147.732 257.42C148.078 259.167 148.605 260.82 149.312 262.38C150.032 263.94 150.938 265.46 152.032 266.94H146.812C145.825 265.62 144.992 264.207 144.312 262.7C143.645 261.193 143.145 259.553 142.812 257.78C142.478 256.007 142.312 254.06 142.312 251.94V249.98C142.312 247.86 142.478 245.92 142.812 244.16C143.158 242.387 143.672 240.747 144.352 239.24C145.032 237.72 145.872 236.3 146.872 234.98H152.032C150.938 236.447 150.032 237.967 149.312 239.54C148.605 241.1 148.078 242.753 147.732 244.5C147.398 246.247 147.232 248.127 147.232 250.14ZM176.251 252.44V238.04H181.371V252.44H176.251ZM176.251 262V250.06H181.371V262H176.251ZM168.951 251.5V247.3H179.071L179.431 251.5H168.951ZM162.871 259.52C160.044 259.52 157.924 258.793 156.511 257.34C155.097 255.887 154.391 253.647 154.391 250.62V247.36C154.391 245.36 154.644 243.587 155.151 242.04C155.657 240.493 156.391 239.16 157.351 238.04H162.731C161.704 239.373 160.937 240.787 160.431 242.28C159.924 243.773 159.671 245.46 159.671 247.34V250.72C159.671 252.2 159.931 253.32 160.451 254.08C160.984 254.827 161.804 255.2 162.911 255.2C164.951 255.2 165.971 253.953 165.971 251.46V241.8H171.031V251.34C171.031 254.1 170.344 256.153 168.971 257.5C167.611 258.847 165.577 259.52 162.871 259.52ZM186.616 240V233.1C186.616 231.927 186.403 231.067 185.976 230.52C185.563 229.96 184.896 229.68 183.976 229.68C183.083 229.68 182.429 229.953 182.016 230.5C181.589 231.033 181.376 231.84 181.376 232.92V236.6H176.256V233.18C176.256 230.633 176.916 228.733 178.236 227.48C179.556 226.227 181.469 225.6 183.976 225.6C185.589 225.6 186.969 225.887 188.116 226.46C189.276 227.033 190.169 227.893 190.796 229.04C191.423 230.187 191.736 231.62 191.736 233.34V240H186.616ZM186.616 252.44V238.04H191.736V252.44H186.616ZM186.616 262V250.06H191.736V262H186.616ZM207.128 263.24C203.501 263.24 200.754 262.553 198.888 261.18C197.021 259.793 196.088 257.733 196.088 255C196.088 254.427 196.121 253.853 196.188 253.28C196.254 252.707 196.348 252.133 196.468 251.56H201.488C201.448 251.987 201.414 252.407 201.388 252.82C201.374 253.22 201.368 253.633 201.368 254.06C201.368 255.7 201.921 256.92 203.028 257.72C204.148 258.507 205.754 258.9 207.848 258.9C209.141 258.9 210.368 258.787 211.528 258.56C212.701 258.32 213.794 258.02 214.808 257.66L214.388 262.08C213.414 262.44 212.308 262.72 211.068 262.92C209.828 263.133 208.514 263.24 207.128 263.24ZM209.528 255.56C209.661 255.16 209.754 254.78 209.808 254.42C209.874 254.06 209.908 253.7 209.908 253.34C209.908 252.353 209.668 251.633 209.188 251.18C208.708 250.713 207.861 250.44 206.648 250.36L203.428 250.18C201.334 250.06 199.721 249.507 198.588 248.52C197.468 247.533 196.908 246.107 196.908 244.24V244.02C196.908 241.847 197.648 240.213 199.128 239.12C200.621 238.027 202.848 237.48 205.808 237.48C207.301 237.48 208.648 237.613 209.848 237.88C211.048 238.147 212.048 238.453 212.848 238.8L213.308 243.1C212.401 242.713 211.374 242.393 210.228 242.14C209.094 241.873 207.881 241.74 206.588 241.74C205.054 241.74 203.934 241.947 203.228 242.36C202.534 242.76 202.188 243.347 202.188 244.12V244.2C202.188 244.8 202.428 245.28 202.908 245.64C203.388 245.987 204.168 246.2 205.248 246.28L209.108 246.56C211.108 246.72 212.601 247.24 213.588 248.12C214.588 248.987 215.088 250.293 215.088 252.04C215.088 252.627 215.021 253.22 214.888 253.82C214.768 254.42 214.581 255 214.328 255.56H209.528ZM208.358 236.6C206.425 235.427 204.478 234.253 202.518 233.08C200.572 231.893 198.625 230.72 196.678 229.56L199.598 225.3C201.398 226.687 203.198 228.08 204.998 229.48C206.798 230.88 208.598 232.28 210.398 233.68L208.358 236.6ZM226.514 258.44C224.674 258.44 223.148 258.093 221.934 257.4C220.734 256.707 219.834 255.7 219.234 254.38C218.648 253.047 218.354 251.44 218.354 249.56V246.96C218.354 243.973 219.041 241.74 220.414 240.26C221.788 238.78 223.814 238.04 226.494 238.04C227.254 238.04 227.941 238.1 228.554 238.22C229.181 238.327 229.701 238.46 230.114 238.62L230.514 242.68C230.181 242.573 229.794 242.487 229.354 242.42C228.928 242.353 228.428 242.32 227.854 242.32C226.401 242.32 225.328 242.727 224.634 243.54C223.954 244.34 223.614 245.547 223.614 247.16V249.28C223.614 250.88 223.988 252.08 224.734 252.88C225.494 253.667 226.634 254.06 228.154 254.06C229.514 254.06 230.601 253.767 231.414 253.18C232.241 252.593 232.761 251.807 232.974 250.82L233.134 254.74H232.694C232.468 255.46 232.094 256.1 231.574 256.66C231.068 257.22 230.394 257.66 229.554 257.98C228.728 258.287 227.714 258.44 226.514 258.44ZM232.914 252.44V238.04H238.014V252.44H232.914ZM232.914 262V250.06H238.014V262H232.914ZM243.257 240V233.1C243.257 231.927 243.043 231.067 242.617 230.52C242.203 229.96 241.537 229.68 240.617 229.68C239.723 229.68 239.07 229.953 238.657 230.5C238.23 231.033 238.017 231.84 238.017 232.92V236.6H232.897V233.18C232.897 230.633 233.557 228.733 234.877 227.48C236.197 226.227 238.11 225.6 240.617 225.6C242.23 225.6 243.61 225.887 244.757 226.46C245.917 227.033 246.81 227.893 247.437 229.04C248.063 230.187 248.377 231.62 248.377 233.34V240H243.257ZM243.257 252.44V238.04H248.377V252.44H243.257ZM243.257 262V250.06H248.377V262H243.257ZM262.148 260.18C259.082 260.18 256.728 259.373 255.088 257.76C253.462 256.147 252.648 253.9 252.648 251.02C252.648 250.46 252.662 249.953 252.688 249.5C252.715 249.033 252.755 248.58 252.808 248.14H256.208C257.448 248.127 258.395 247.88 259.048 247.4C259.702 246.907 260.028 246.127 260.028 245.06V244.64C260.028 243.627 259.748 242.88 259.188 242.4C258.642 241.907 257.855 241.66 256.828 241.66C256.122 241.66 255.462 241.74 254.848 241.9C254.235 242.06 253.662 242.267 253.128 242.52L253.488 238.44C254.062 238.147 254.728 237.913 255.488 237.74C256.248 237.567 257.102 237.48 258.048 237.48C260.302 237.48 262.055 238.053 263.308 239.2C264.562 240.347 265.188 242.107 265.188 244.48V245.1C265.188 247.273 264.608 248.933 263.448 250.08C262.288 251.227 260.642 251.8 258.508 251.8H255.768L257.888 248.98C257.875 249.367 257.862 249.707 257.848 250C257.835 250.28 257.828 250.633 257.828 251.06C257.828 252.593 258.322 253.773 259.308 254.6C260.295 255.427 261.715 255.84 263.568 255.84C265.302 255.84 266.662 255.527 267.648 254.9C268.648 254.26 269.322 253.413 269.668 252.36L269.788 256.24H269.328C269.115 256.973 268.722 257.64 268.148 258.24C267.588 258.84 266.815 259.313 265.828 259.66C264.855 260.007 263.628 260.18 262.148 260.18ZM269.548 252.44V238.04H274.648V252.44H269.548ZM269.548 262V250.06H274.648V262H269.548ZM283.556 254.28L278.416 253.3V249.48L283.696 249.46C285.256 249.447 286.436 249.147 287.236 248.56C288.036 247.96 288.436 247.027 288.436 245.76V245.3C288.436 244.087 288.076 243.187 287.356 242.6C286.636 242.013 285.603 241.72 284.256 241.72C283.31 241.72 282.403 241.82 281.536 242.02C280.67 242.207 279.876 242.44 279.156 242.72L279.536 238.58C280.256 238.273 281.096 238.013 282.056 237.8C283.03 237.587 284.143 237.48 285.396 237.48C287.143 237.48 288.636 237.76 289.876 238.32C291.13 238.867 292.083 239.7 292.736 240.82C293.403 241.927 293.736 243.34 293.736 245.06V245.78C293.736 248.22 293.05 250.1 291.676 251.42C290.316 252.727 288.343 253.38 285.756 253.38H283.636L283.556 254.28ZM290.276 262.5C288.663 262.5 287.23 262.233 285.976 261.7C284.736 261.153 283.703 260.307 282.876 259.16C282.063 258 281.483 256.493 281.136 254.64L280.576 251.64L285.456 251.2L285.996 253.84C286.316 255.44 286.936 256.573 287.856 257.24C288.79 257.893 289.91 258.22 291.216 258.22C291.736 258.22 292.236 258.173 292.716 258.08C293.196 257.973 293.556 257.88 293.796 257.8L293.396 261.98C292.97 262.127 292.503 262.247 291.996 262.34C291.49 262.447 290.916 262.5 290.276 262.5ZM317.509 255.56C318.963 255.56 320.123 255.253 320.989 254.64C321.869 254.027 322.449 253.253 322.729 252.32L322.869 256.2H322.369C322.129 256.907 321.749 257.54 321.229 258.1C320.723 258.66 320.043 259.1 319.189 259.42C318.336 259.74 317.269 259.9 315.989 259.9C313.389 259.9 311.389 259.267 309.989 258C308.603 256.733 307.809 254.84 307.609 252.32L307.489 250.94L312.669 250.5L312.789 251.88C312.869 253.08 313.316 253.993 314.129 254.62C314.943 255.247 316.069 255.56 317.509 255.56ZM322.569 252.44V238.04H327.689V252.44H322.569ZM322.569 262V250.06H327.689V262H322.569ZM308.989 253.06L304.509 252.22V248.46L308.529 248.42C309.836 248.42 310.829 248.16 311.509 247.64C312.189 247.107 312.529 246.287 312.529 245.18V244.78C312.529 243.727 312.229 242.947 311.629 242.44C311.043 241.92 310.189 241.66 309.069 241.66C308.296 241.66 307.576 241.747 306.909 241.92C306.243 242.08 305.609 242.293 305.009 242.56L305.409 238.46C306.009 238.18 306.729 237.947 307.569 237.76C308.423 237.573 309.363 237.48 310.389 237.48C312.709 237.48 314.503 238.073 315.769 239.26C317.049 240.433 317.689 242.227 317.689 244.64V245.28C317.689 247.52 317.096 249.24 315.909 250.44C314.723 251.64 313.043 252.247 310.869 252.26H309.209L308.989 253.06ZM324.226 236.6C321.986 235.48 319.733 234.353 317.466 233.22C315.2 232.073 312.946 230.927 310.706 229.78L313.386 225.3C315.506 226.673 317.626 228.053 319.746 229.44C321.866 230.813 323.986 232.187 326.106 233.56L324.226 236.6ZM334.104 257.76C333.691 256.64 333.318 255.487 332.984 254.3C332.651 253.1 332.371 251.847 332.144 250.54C331.931 249.22 331.784 247.813 331.704 246.32L334.024 244.88H338.444V257.76H334.104ZM337.084 249.08V244.88H347.484L347.864 249.08H337.084ZM363.906 248.36L360.526 245.92L367.346 238.04H373.326V238.44L363.906 248.36ZM350.686 253.74L345.726 252.88V244.2C345.726 241.973 346.273 240.3 347.366 239.18C348.473 238.047 350.073 237.48 352.166 237.48C353.233 237.48 354.173 237.62 354.986 237.9C355.8 238.167 356.553 238.567 357.246 239.1C357.94 239.633 358.64 240.307 359.346 241.12L364.386 246.76L360.446 249.36L355.486 243.56C355.06 243.067 354.68 242.68 354.346 242.4C354.026 242.12 353.713 241.92 353.406 241.8C353.113 241.68 352.793 241.62 352.446 241.62C351.9 241.62 351.466 241.813 351.146 242.2C350.84 242.573 350.686 243.167 350.686 243.98V253.74ZM361.806 262.5C359.086 262.5 357.006 261.94 355.566 260.82C354.14 259.7 353.426 258.04 353.426 255.84V255.62C353.426 254.62 353.58 253.733 353.886 252.96C354.193 252.173 354.633 251.413 355.206 250.68C355.78 249.947 356.466 249.167 357.266 248.34L359.826 245.74L363.286 248.34L360.886 250.88C360.166 251.64 359.6 252.34 359.186 252.98C358.786 253.62 358.586 254.38 358.586 255.26V255.48C358.586 256.44 358.86 257.16 359.406 257.64C359.953 258.107 360.753 258.34 361.806 258.34C362.86 258.34 363.653 258.107 364.186 257.64C364.72 257.16 364.986 256.44 364.986 255.48V255.26C364.986 254.407 364.773 253.66 364.346 253.02C363.933 252.38 363.38 251.673 362.686 250.9L360.506 248.44L364.266 246.02L366.386 248.4C367.133 249.227 367.786 250.007 368.346 250.74C368.906 251.473 369.346 252.227 369.666 253C369.986 253.76 370.146 254.633 370.146 255.62V255.84C370.146 258.04 369.433 259.7 368.006 260.82C366.593 261.94 364.526 262.5 361.806 262.5ZM378.75 250.14C378.75 248.127 378.577 246.247 378.23 244.5C377.897 242.753 377.377 241.1 376.67 239.54C375.963 237.967 375.057 236.447 373.95 234.98H379.11C380.11 236.3 380.95 237.72 381.63 239.24C382.31 240.747 382.817 242.387 383.15 244.16C383.497 245.92 383.67 247.86 383.67 249.98V251.94C383.67 254.06 383.503 256.007 383.17 257.78C382.837 259.553 382.337 261.193 381.67 262.7C381.003 264.207 380.17 265.62 379.17 266.94H373.95C375.057 265.46 375.963 263.94 376.67 262.38C377.377 260.82 377.897 259.167 378.23 257.42C378.577 255.66 378.75 253.773 378.75 251.76V250.14ZM178.49 306.44V292.04H183.61V306.44H178.49ZM178.49 316V304.06H183.61V316H178.49ZM164.37 307.8L159.49 306.86V303.06L164.17 303.04C165.517 303.013 166.523 302.72 167.19 302.16C167.857 301.587 168.19 300.687 168.19 299.46V299.02C168.19 297.9 167.897 297.073 167.31 296.54C166.723 295.993 165.89 295.72 164.81 295.72C163.957 295.72 163.137 295.82 162.35 296.02C161.577 296.207 160.863 296.433 160.21 296.7L160.59 292.56C161.23 292.253 161.983 292 162.85 291.8C163.73 291.587 164.737 291.48 165.87 291.48C168.243 291.48 170.083 292.087 171.39 293.3C172.697 294.5 173.35 296.34 173.35 298.82V299.58C173.35 301.94 172.743 303.76 171.53 305.04C170.317 306.307 168.557 306.94 166.25 306.94H164.41L164.37 307.8ZM171.37 316.5C169.823 316.5 168.43 316.227 167.19 315.68C165.963 315.133 164.937 314.287 164.11 313.14C163.283 311.98 162.703 310.48 162.37 308.64L161.79 305.48L166.59 305.02L167.15 307.82C167.363 308.873 167.71 309.727 168.19 310.38C168.683 311.02 169.277 311.487 169.97 311.78C170.663 312.073 171.43 312.22 172.27 312.22C172.723 312.22 173.137 312.187 173.51 312.12C173.883 312.053 174.197 311.973 174.45 311.88L174.05 316.08C173.677 316.2 173.27 316.3 172.83 316.38C172.403 316.46 171.917 316.5 171.37 316.5ZM175.17 305.64C174.317 305.64 173.477 305.593 172.65 305.5C171.823 305.393 171.057 305.247 170.35 305.06L170.75 301.42H178.03C178.563 301.42 179.143 301.42 179.77 301.42C180.41 301.42 181.003 301.42 181.55 301.42L181.91 305.62L175.17 305.64ZM206.883 306.44V292.04H212.003V306.44H206.883ZM206.883 316V304.06H212.003V316H206.883ZM197.963 315.94C194.709 315.94 192.249 315.08 190.583 313.36C188.929 311.64 188.103 309.1 188.103 305.74V302C188.103 298.64 188.916 296.113 190.543 294.42C192.183 292.727 194.583 291.88 197.743 291.88C198.716 291.88 199.603 291.953 200.403 292.1C201.216 292.233 201.916 292.413 202.503 292.64L202.923 296.72C202.416 296.573 201.836 296.453 201.183 296.36C200.529 296.253 199.796 296.2 198.983 296.2C197.103 296.2 195.696 296.7 194.763 297.7C193.843 298.7 193.383 300.227 193.383 302.28V305.46C193.383 307.527 193.849 309.073 194.783 310.1C195.729 311.113 197.143 311.62 199.023 311.62C199.903 311.62 200.683 311.553 201.363 311.42C202.043 311.287 202.656 311.113 203.203 310.9L202.803 315.18C202.176 315.407 201.476 315.593 200.703 315.74C199.929 315.873 199.016 315.94 197.963 315.94ZM197.623 306.8L197.843 302.16L209.683 299L209.563 303.62L197.623 306.8ZM221.561 309.4C220.441 309.4 219.428 309.287 218.521 309.06C217.628 308.833 216.874 308.553 216.261 308.22L215.861 303.92C216.501 304.253 217.181 304.527 217.901 304.74C218.634 304.953 219.468 305.06 220.401 305.06C221.748 305.06 222.754 304.687 223.421 303.94C224.101 303.193 224.441 302.08 224.441 300.6V300.2C224.441 298.72 224.108 297.613 223.441 296.88C222.774 296.147 221.788 295.78 220.481 295.78C219.614 295.78 218.828 295.887 218.121 296.1C217.428 296.313 216.788 296.58 216.201 296.9L216.601 292.64C217.228 292.307 217.968 292.033 218.821 291.82C219.688 291.593 220.648 291.48 221.701 291.48C223.394 291.48 224.841 291.787 226.041 292.4C227.241 293 228.154 293.933 228.781 295.2C229.421 296.453 229.741 298.067 229.741 300.04V300.76C229.741 303.733 229.021 305.92 227.581 307.32C226.154 308.707 224.148 309.4 221.561 309.4ZM226.061 320.4C225.074 319.72 224.248 319.027 223.581 318.32C222.914 317.613 222.288 316.733 221.701 315.68L223.021 313.06L228.541 310.5C229.328 310.127 230.081 309.8 230.801 309.52C231.521 309.227 232.281 308.953 233.081 308.7C233.881 308.433 234.774 308.167 235.761 307.9L236.741 311.04L226.581 315.88L227.301 314.02L229.521 318.7L226.061 320.4ZM234.241 316.5V309.3H239.141V316.5H234.241ZM234.021 310.08V292.04H239.141V310.08H234.021ZM259.439 303.24C257.973 303.187 256.706 302.967 255.639 302.58C254.573 302.18 253.753 301.593 253.179 300.82C252.619 300.047 252.339 299.08 252.339 297.92V297.68C252.339 295.627 253.079 294.08 254.559 293.04C256.053 292 258.239 291.48 261.119 291.48C262.466 291.48 263.693 291.6 264.799 291.84C265.906 292.08 266.813 292.36 267.519 292.68L267.979 296.8C267.166 296.507 266.266 296.26 265.279 296.06C264.293 295.847 263.246 295.74 262.139 295.74C260.539 295.74 259.386 295.993 258.679 296.5C257.973 296.993 257.619 297.707 257.619 298.64V298.8C257.619 299.653 257.953 300.34 258.619 300.86C259.299 301.38 260.439 301.693 262.039 301.8L259.439 303.24ZM260.299 316.5C258.646 316.5 257.173 316.38 255.879 316.14C254.599 315.913 253.499 315.627 252.579 315.28L252.139 310.88C253.206 311.253 254.339 311.56 255.539 311.8C256.739 312.027 258.053 312.14 259.479 312.14C261.066 312.14 262.259 311.88 263.059 311.36C263.873 310.84 264.279 310.027 264.279 308.92V308.7C264.279 307.753 263.966 307.007 263.339 306.46C262.726 305.9 261.679 305.547 260.199 305.4L262.799 304.08C264.933 304.107 266.593 304.593 267.779 305.54C268.979 306.487 269.579 307.867 269.579 309.68V310.02C269.579 312.207 268.766 313.833 267.139 314.9C265.513 315.967 263.233 316.5 260.299 316.5ZM251.099 307.8V303.5L259.939 302.16L263.019 305.5L251.099 307.8ZM258.699 301.94L271.039 299.44V303.68L260.379 305.26L258.699 301.94ZM274.741 306.44V292.04H279.861V306.44H274.741ZM274.741 316V304.06H279.861V316H274.741ZM276.401 290.6C274.161 289.48 271.908 288.353 269.641 287.22C267.374 286.073 265.121 284.927 262.881 283.78L265.561 279.3C267.681 280.673 269.801 282.053 271.921 283.44C274.041 284.813 276.154 286.187 278.261 287.56L276.401 290.6ZM286.073 312.5C285.659 311.46 285.286 310.393 284.953 309.3C284.633 308.193 284.366 307.04 284.153 305.84C283.939 304.627 283.793 303.34 283.713 301.98L286.033 300.54H290.453V312.5H286.073ZM289.093 304.74V300.54H298.833L299.193 304.74H289.093ZM316.373 306.44V292.04H321.493V306.44H316.373ZM316.373 316V304.06H321.493V316H316.373ZM302.273 307.8L297.373 306.86V303.06L302.073 303.04C303.406 303.013 304.406 302.72 305.073 302.16C305.753 301.587 306.093 300.687 306.093 299.46V299.02C306.093 297.9 305.799 297.073 305.213 296.54C304.626 295.993 303.793 295.72 302.713 295.72C301.846 295.72 301.019 295.82 300.233 296.02C299.459 296.207 298.746 296.433 298.093 296.7L298.493 292.56C299.119 292.253 299.873 292 300.753 291.8C301.633 291.587 302.639 291.48 303.773 291.48C306.146 291.48 307.986 292.087 309.293 293.3C310.599 294.5 311.253 296.34 311.253 298.82V299.58C311.253 301.94 310.646 303.76 309.433 305.04C308.219 306.307 306.453 306.94 304.133 306.94H302.313L302.273 307.8ZM309.273 316.5C307.713 316.5 306.313 316.227 305.073 315.68C303.846 315.133 302.819 314.287 301.993 313.14C301.179 311.98 300.599 310.48 300.253 308.64L299.673 305.48L304.493 305.02L305.053 307.82C305.266 308.873 305.613 309.727 306.093 310.38C306.573 311.02 307.159 311.487 307.853 311.78C308.546 312.073 309.319 312.22 310.173 312.22C310.613 312.22 311.019 312.187 311.393 312.12C311.779 312.053 312.099 311.973 312.353 311.88L311.953 316.08C311.579 316.2 311.173 316.3 310.733 316.38C310.306 316.46 309.819 316.5 309.273 316.5ZM313.053 305.64C312.213 305.64 311.379 305.593 310.553 305.5C309.726 305.393 308.953 305.247 308.233 305.06L308.653 301.42H315.913C316.459 301.42 317.046 301.42 317.673 301.42C318.313 301.42 318.899 301.42 319.433 301.42L319.813 305.62L313.053 305.64ZM318.015 290.6C315.775 289.48 313.522 288.353 311.255 287.22C308.989 286.073 306.735 284.927 304.495 283.78L307.175 279.3C309.295 280.673 311.415 282.053 313.535 283.44C315.655 284.813 317.775 286.187 319.895 287.56L318.015 290.6ZM334.413 311.7C332.773 311.7 331.42 311.393 330.353 310.78C329.287 310.167 328.493 309.26 327.973 308.06C327.467 306.847 327.213 305.36 327.213 303.6V299.94H332.333V303C332.333 304.48 332.66 305.573 333.313 306.28C333.967 306.973 334.933 307.32 336.213 307.32C336.96 307.32 337.613 307.207 338.173 306.98C338.733 306.74 339.2 306.413 339.573 306L341.033 307.32C340.727 308.213 340.307 308.987 339.773 309.64C339.24 310.293 338.54 310.8 337.673 311.16C336.82 311.52 335.733 311.7 334.413 311.7ZM327.213 300.78V297.62C327.213 297.007 327.1 296.553 326.873 296.26C326.66 295.953 326.287 295.8 325.753 295.8C325.553 295.8 325.347 295.82 325.133 295.86C324.933 295.9 324.74 295.947 324.553 296L324.853 292.24C325.253 292.093 325.687 291.98 326.153 291.9C326.62 291.82 327.12 291.78 327.653 291.78C329.227 291.78 330.4 292.2 331.173 293.04C331.947 293.867 332.333 295.153 332.333 296.9V300.78H327.213ZM348.953 316.5C345.46 316.5 342.873 315.86 341.193 314.58C339.527 313.3 338.693 311.433 338.693 308.98V308.56C338.693 307.253 338.933 306.113 339.413 305.14C339.907 304.167 340.693 303.353 341.773 302.7C342.867 302.033 344.307 301.527 346.093 301.18L348.493 300.68C349.493 300.467 350.213 300.16 350.653 299.76C351.093 299.347 351.313 298.827 351.313 298.2V298.1C351.313 297.26 350.98 296.66 350.313 296.3C349.66 295.927 348.587 295.74 347.093 295.74C345.96 295.74 344.833 295.873 343.713 296.14C342.607 296.393 341.567 296.693 340.593 297.04L341.153 292.74C341.887 292.42 342.84 292.133 344.013 291.88C345.187 291.613 346.467 291.48 347.853 291.48C350.667 291.48 352.827 292.013 354.333 293.08C355.84 294.133 356.593 295.78 356.593 298.02V298.32C356.593 299.413 356.38 300.367 355.953 301.18C355.54 301.98 354.907 302.653 354.053 303.2C353.2 303.747 352.12 304.16 350.813 304.44L347.813 305.06C346.893 305.26 346.153 305.52 345.593 305.84C345.033 306.16 344.62 306.553 344.353 307.02C344.1 307.487 343.973 308.047 343.973 308.7V308.86C343.973 309.98 344.413 310.807 345.293 311.34C346.187 311.873 347.56 312.14 349.413 312.14C350.28 312.14 351.16 312.067 352.053 311.92C352.96 311.773 353.827 311.567 354.653 311.3C355.493 311.02 356.253 310.693 356.933 310.32L356.493 315.04C355.533 315.48 354.407 315.833 353.113 316.1C351.82 316.367 350.433 316.5 348.953 316.5ZM363.182 316.48C362.195 316.48 361.468 316.22 361.002 315.7C360.535 315.18 360.302 314.46 360.302 313.54V313.34C360.302 312.407 360.535 311.68 361.002 311.16C361.468 310.64 362.195 310.38 363.182 310.38C364.155 310.38 364.882 310.64 365.362 311.16C365.842 311.68 366.082 312.407 366.082 313.34V313.54C366.082 314.46 365.842 315.18 365.362 315.7C364.882 316.22 364.155 316.48 363.182 316.48Z" fill="white"/>
<defs>
<filter id="filter0_d_216_533" x="0" y="39" width="526" height="169.5" filterUnits="userSpaceOnUse" color-interpolation-filters="sRGB">
<feFlood flood-opacity="0" result="BackgroundImageFix"/>
<feColorMatrix in="SourceAlpha" type="matrix" values="0 0 0 0 0 0 0 0 0 0 0 0 0 0 0 0 0 0 127 0" result="hardAlpha"/>
<feOffset dy="12"/>
<feGaussianBlur stdDeviation="12"/>
<feComposite in2="hardAlpha" operator="out"/>
<feColorMatrix type="matrix" values="0 0 0 0 0 0 0 0 0 0 0 0 0 0 0 0 0 0 0.12 0"/>
<feBlend mode="normal" in2="BackgroundImageFix" result="effect1_dropShadow_216_533"/>
<feBlend mode="normal" in="SourceGraphic" in2="effect1_dropShadow_216_533" result="shape"/>
</filter>
</defs>
</svg>
