<svg width="526" height="410" viewBox="0 0 526 410" fill="none" xmlns="http://www.w3.org/2000/svg">
<circle cx="265" cy="205" r="205" fill="#2C7864"/>
<g filter="url(#filter0_d_216_482)">
<path d="M502 79C502 63.536 489.464 51 474 51H52C36.536 51 24 63.536 24 79V104C24 119.464 36.536 132 52 132H474C489.464 132 502 119.464 502 104V79Z" fill="#FB7F01"/>
<path d="M501.5 92V172.5C491.501 145.927 481.375 136.715 454 132L400 96.5L501.5 92Z" fill="#FB7F01"/>
</g>
<path d="M466.21 116.124C464.948 116.124 464.017 115.75 463.416 115.003C462.829 114.257 462.536 113.212 462.536 111.871V111.591C462.536 110.267 462.829 109.223 463.416 108.459C464.017 107.695 464.948 107.313 466.21 107.313C467.442 107.313 468.358 107.695 468.96 108.459C469.561 109.223 469.862 110.267 469.862 111.591V111.871C469.862 113.212 469.561 114.257 468.96 115.003C468.358 115.75 467.442 116.124 466.21 116.124ZM466.21 100.132C464.948 100.132 464.017 99.7589 463.416 99.012C462.829 98.265 462.536 97.221 462.536 95.8799V95.5998C462.536 94.2756 462.829 93.2316 463.416 92.4677C464.017 91.7037 464.948 91.3218 466.21 91.3218C467.442 91.3218 468.358 91.7037 468.96 92.4677C469.561 93.2316 469.862 94.2756 469.862 95.5998V95.8799C469.862 97.221 469.561 98.265 468.96 99.012C468.358 99.7589 467.442 100.132 466.21 100.132Z" fill="white"/>
<path d="M439.27 106.117L433.088 104.64V98.8848L438.962 98.8593C440.472 98.8424 441.624 98.5113 442.416 97.8662C443.208 97.2211 443.604 96.2111 443.604 94.836V94.4031C443.604 93.045 443.237 92.0519 442.504 91.4238C441.785 90.7787 440.744 90.4562 439.38 90.4562C438.426 90.4562 437.48 90.558 436.542 90.7617C435.618 90.9485 434.752 91.2031 433.946 91.5257L434.43 85.3633C435.251 84.9729 436.204 84.6588 437.29 84.4211C438.375 84.1665 439.585 84.0392 440.92 84.0392C442.929 84.0392 444.652 84.4042 446.09 85.1341C447.542 85.8641 448.649 86.9676 449.412 88.4445C450.174 89.9044 450.556 91.7718 450.556 94.0466V94.8105C450.556 97.9851 449.793 100.43 448.268 102.144C446.742 103.859 444.557 104.716 441.712 104.716H439.358L439.27 106.117ZM446.398 116.124C444.579 116.124 442.951 115.785 441.514 115.105C440.076 114.426 438.888 113.348 437.95 111.872C437.011 110.378 436.351 108.408 435.97 105.964L435.376 102.119L441.756 101.431L442.306 104.742C442.628 106.609 443.281 107.899 444.264 108.612C445.246 109.308 446.405 109.656 447.74 109.656C448.268 109.656 448.796 109.597 449.324 109.478C449.852 109.359 450.248 109.249 450.512 109.147L450.006 115.462C449.478 115.666 448.92 115.827 448.334 115.946C447.747 116.065 447.102 116.124 446.398 116.124Z" fill="white"/>
<path d="M398.222 110.395C397.694 108.986 397.217 107.492 396.792 105.913C396.367 104.317 396.022 102.637 395.758 100.871C395.494 99.0885 395.318 97.2126 395.23 95.2434L398.134 93.1808H403.854V110.395H398.222ZM402.138 99.5214V93.1808H414.964L415.426 99.5214H402.138ZM419.892 116.124C418.073 116.124 416.401 115.912 414.876 115.487C413.365 115.063 412.067 114.571 410.982 114.011L410.388 107.135C411.561 107.763 412.859 108.324 414.282 108.816C415.719 109.308 417.252 109.554 418.88 109.554C420.523 109.554 421.725 109.283 422.488 108.739C423.251 108.179 423.632 107.373 423.632 106.32V106.117C423.632 105.522 423.522 105.022 423.302 104.614C423.097 104.207 422.723 103.859 422.18 103.57C421.652 103.265 420.911 102.985 419.958 102.73L418.176 102.297C416.313 101.822 414.817 101.185 413.688 100.387C412.573 99.5893 411.759 98.6132 411.246 97.4588C410.733 96.2874 410.476 94.9294 410.476 93.3845V93.028C410.476 90.0572 411.327 87.8164 413.028 86.3055C414.744 84.7946 417.303 84.0392 420.706 84.0392C422.319 84.0392 423.786 84.2174 425.106 84.5739C426.441 84.9135 427.555 85.3209 428.45 85.7962L429.022 92.1877C428.025 91.6954 426.917 91.2965 425.7 90.9909C424.483 90.6684 423.229 90.5071 421.938 90.5071C420.281 90.5071 419.107 90.7532 418.418 91.2455C417.729 91.7209 417.384 92.4169 417.384 93.3336V93.5119C417.384 94.0042 417.494 94.4371 417.714 94.8105C417.949 95.184 418.315 95.5065 418.814 95.7782C419.313 96.0498 419.958 96.2959 420.75 96.5166L422.752 97.0768C424.629 97.5861 426.133 98.2227 427.262 98.9866C428.406 99.7336 429.242 100.701 429.77 101.89C430.298 103.061 430.562 104.529 430.562 106.295V106.728C430.562 108.884 430.137 110.658 429.286 112.05C428.45 113.442 427.233 114.469 425.634 115.131C424.05 115.793 422.136 116.124 419.892 116.124Z" fill="white"/>
<path d="M387.346 82.9951C384.838 81.6879 382.315 80.3723 379.778 79.0482C377.255 77.707 374.732 76.3659 372.21 75.0248L375.664 68.124C378.01 69.8386 380.357 71.5617 382.704 73.2932C385.05 75.0078 387.39 76.7224 389.722 78.437L387.346 82.9951Z" fill="white"/>
<path d="M385.061 103.621V84.8286H391.771V103.621H385.061ZM385.061 115.437V100.897H391.771V115.437H385.061ZM375.293 115.437C371.627 115.437 368.847 114.325 366.955 112.101C365.063 109.86 364.117 106.558 364.117 102.195V97.7135C364.117 93.3676 365.041 90.0912 366.889 87.8843C368.737 85.6774 371.451 84.574 375.029 84.574C376.129 84.574 377.149 84.6673 378.087 84.8541C379.026 85.0238 379.855 85.253 380.573 85.5416L381.101 91.7039C380.529 91.5172 379.891 91.3644 379.187 91.2456C378.483 91.1268 377.699 91.0673 376.833 91.0673C374.883 91.0673 373.423 91.6445 372.455 92.7989C371.502 93.9533 371.025 95.7358 371.025 98.1464V101.762C371.025 104.19 371.502 105.989 372.455 107.161C373.423 108.332 374.875 108.918 376.811 108.918C377.691 108.918 378.505 108.833 379.253 108.663C380.001 108.493 380.683 108.273 381.299 108.001L380.771 114.469C380.023 114.758 379.209 114.995 378.329 115.182C377.449 115.352 376.437 115.437 375.293 115.437ZM375.117 104.13L375.403 97.2042L388.757 93.2573L388.647 100.133L375.117 104.13Z" fill="white"/>
<path d="M352.47 82.9951C350.284 81.62 348.084 80.245 345.87 78.8699C343.67 77.4779 341.462 76.0858 339.248 74.6938L343.032 68.124C345.041 69.8556 347.043 71.5872 349.038 73.3187C351.047 75.0333 353.056 76.7649 355.066 78.5134L352.47 82.9951Z" fill="white"/>
<path d="M347.584 98.9357C346 98.8848 344.621 98.6132 343.448 98.1209C342.289 97.6116 341.394 96.8731 340.764 95.9055C340.133 94.9209 339.818 93.6901 339.818 92.2132V91.9585C339.818 89.3442 340.676 87.375 342.392 86.0509C344.122 84.7097 346.652 84.0392 349.982 84.0392C351.478 84.0392 352.849 84.1835 354.096 84.4721C355.342 84.7607 356.376 85.1002 357.198 85.4906L357.77 91.6275C356.86 91.305 355.863 91.0418 354.778 90.8381C353.707 90.6174 352.592 90.5071 351.434 90.5071C349.747 90.5071 348.537 90.7872 347.804 91.3474C347.085 91.8906 346.726 92.6546 346.726 93.6392V93.792C346.726 94.6577 347.048 95.3707 347.694 95.931C348.339 96.4912 349.454 96.8307 351.038 96.9495L347.584 98.9357ZM348.904 116.124C347.085 116.124 345.45 115.98 343.998 115.691C342.56 115.42 341.314 115.088 340.258 114.698L339.708 108.23C340.896 108.638 342.15 108.96 343.47 109.198C344.804 109.435 346.256 109.554 347.826 109.554C349.439 109.554 350.656 109.283 351.478 108.739C352.299 108.179 352.71 107.313 352.71 106.142V105.938C352.71 104.954 352.424 104.164 351.852 103.57C351.28 102.976 350.26 102.594 348.794 102.424L352.226 100.616C354.558 100.616 356.376 101.211 357.682 102.399C359.002 103.57 359.662 105.276 359.662 107.517V107.848C359.662 110.649 358.708 112.729 356.802 114.087C354.91 115.445 352.277 116.124 348.904 116.124ZM338.498 105.505V99.0885L348.42 97.5352L352.27 102.552L338.498 105.505ZM346.968 97.1278L361.202 93.9193V100.234L348.948 102.144L346.968 97.1278Z" fill="white"/>
<path d="M319.382 87.4258V80.0666C319.382 78.2332 319.03 76.8836 318.326 76.0178C317.622 75.1351 316.464 74.6937 314.85 74.6937C313.266 74.6937 312.122 75.1181 311.418 75.9669C310.714 76.8157 310.362 78.1059 310.362 79.8375V82.995H303.652V80.2704C303.652 76.3149 304.613 73.3696 306.534 71.4343C308.456 69.499 311.228 68.5314 314.85 68.5314C317.168 68.5314 319.162 68.9812 320.834 69.881C322.521 70.7637 323.819 72.0964 324.728 73.8788C325.638 75.6444 326.092 77.8513 326.092 80.4995V87.4258H319.382ZM319.382 103.621V84.8284H326.092V103.621H319.382ZM319.382 115.436V100.896H326.092V115.436H319.382Z" fill="white"/>
<path d="M306.529 116.124C302.481 116.124 299.489 115.284 297.553 113.603C295.632 111.922 294.671 109.495 294.671 106.32V105.811C294.671 104.147 294.935 102.696 295.463 101.457C295.991 100.217 296.871 99.1734 298.103 98.3246C299.335 97.4588 300.985 96.7882 303.053 96.3129L305.605 95.7018C306.603 95.4471 307.307 95.1076 307.717 94.6832C308.128 94.2588 308.333 93.7156 308.333 93.0535V92.9262C308.333 92.0604 308.003 91.4408 307.343 91.0673C306.698 90.6938 305.62 90.5071 304.109 90.5071C302.921 90.5071 301.704 90.6599 300.457 90.9654C299.225 91.254 298.045 91.6105 296.915 92.0349L297.619 85.6434C298.47 85.219 299.563 84.8455 300.897 84.523C302.232 84.2005 303.64 84.0392 305.121 84.0392C308.363 84.0392 310.856 84.7607 312.601 86.2036C314.361 87.6296 315.241 89.8535 315.241 92.8753V93.2063C315.241 94.6493 315.007 95.914 314.537 97.0004C314.083 98.0699 313.379 98.9612 312.425 99.6742C311.487 100.387 310.284 100.922 308.817 101.278L305.341 102.119C304.432 102.339 303.699 102.628 303.141 102.985C302.599 103.324 302.203 103.74 301.953 104.232C301.719 104.725 301.601 105.31 301.601 105.989V106.142C301.601 107.313 302.041 108.179 302.921 108.739C303.801 109.283 305.202 109.554 307.123 109.554C308.033 109.554 308.986 109.469 309.983 109.3C310.981 109.113 311.949 108.867 312.887 108.561C313.826 108.239 314.677 107.882 315.439 107.492L314.867 114.367C313.782 114.893 312.521 115.318 311.083 115.64C309.646 115.963 308.128 116.124 306.529 116.124Z" fill="white"/>
<path d="M277.034 111.286C274.981 111.286 273.287 110.836 271.952 109.936C270.632 109.036 269.649 107.729 269.004 106.015C268.359 104.283 268.036 102.204 268.036 99.776V96.4147C268.036 92.5272 268.791 89.6242 270.302 87.7059C271.827 85.7876 274.093 84.8285 277.1 84.8285C277.936 84.8285 278.713 84.9049 279.432 85.0577C280.151 85.1935 280.752 85.3887 281.236 85.6433L281.742 91.6784C281.375 91.5595 280.972 91.4661 280.532 91.3982C280.107 91.3134 279.623 91.2709 279.08 91.2709C277.657 91.2709 276.609 91.7293 275.934 92.646C275.274 93.5627 274.944 94.9547 274.944 96.8221V99.1903C274.944 101.058 275.311 102.441 276.044 103.341C276.792 104.241 277.921 104.691 279.432 104.691C280.796 104.691 281.874 104.351 282.666 103.672C283.473 102.993 283.971 102.102 284.162 100.998L284.36 106.371H283.832C283.597 107.356 283.201 108.222 282.644 108.969C282.101 109.698 281.361 110.267 280.422 110.675C279.498 111.082 278.369 111.286 277.034 111.286ZM284.074 103.621V84.8285H290.784V103.621H284.074ZM284.074 115.436V100.896H290.784V115.436H284.074Z" fill="white"/>
<path d="M257.206 85.9998C257.206 85.5924 257.206 85.2189 257.206 84.8794C257.206 84.5398 257.206 84.1833 257.206 83.8099C257.206 83.4364 257.206 83.029 257.206 82.5876C257.206 79.4131 257.778 76.7903 258.922 74.7192C260.066 72.6481 261.694 71.1033 263.806 70.0847C265.918 69.0491 268.412 68.5314 271.286 68.5314C274.014 68.5314 276.53 68.9897 278.832 69.9064C281.135 70.8231 283.188 72.0624 284.992 73.6242C286.796 75.169 288.3 76.8836 289.502 78.768L284.904 82.995C283.848 81.4841 282.624 80.1176 281.23 78.8953C279.837 77.656 278.312 76.6714 276.654 75.9414C274.997 75.2115 273.244 74.8465 271.396 74.8465C269.768 74.8465 268.397 75.1181 267.282 75.6613C266.168 76.1876 265.324 77.0194 264.752 78.1568C264.195 79.2942 263.916 80.7712 263.916 82.5876C263.916 82.8932 263.916 83.2157 263.916 83.5552C263.916 83.8948 263.916 84.2597 263.916 84.6502C263.916 85.0406 263.916 85.4905 263.916 85.9998H257.206ZM257.206 103.621V84.8284H263.916V103.621H257.206ZM257.206 115.436V100.896H263.916V115.436H257.206Z" fill="white"/>
<path d="M217.345 98.9357C215.761 98.8848 214.383 98.6132 213.209 98.1209C212.051 97.6116 211.156 96.8731 210.525 95.9055C209.895 94.9209 209.579 93.6901 209.579 92.2132V91.9585C209.579 89.3442 210.437 87.375 212.153 86.0509C213.884 84.7097 216.414 84.0392 219.743 84.0392C221.239 84.0392 222.611 84.1835 223.857 84.4721C225.104 84.7607 226.138 85.1002 226.959 85.4906L227.531 91.6275C226.622 91.305 225.625 91.0418 224.539 90.8381C223.469 90.6174 222.354 90.5071 221.195 90.5071C219.509 90.5071 218.299 90.7872 217.565 91.3474C216.847 91.8906 216.487 92.6546 216.487 93.6392V93.792C216.487 94.6577 216.81 95.3707 217.455 95.931C218.101 96.4912 219.215 96.8307 220.799 96.9495L217.345 98.9357ZM218.665 116.124C216.847 116.124 215.211 115.98 213.759 115.691C212.322 115.42 211.075 115.088 210.019 114.698L209.469 108.23C210.657 108.638 211.911 108.96 213.231 109.198C214.566 109.435 216.018 109.554 217.587 109.554C219.201 109.554 220.418 109.283 221.239 108.739C222.061 108.179 222.471 107.313 222.471 106.142V105.938C222.471 104.954 222.185 104.164 221.613 103.57C221.041 102.976 220.022 102.594 218.555 102.424L221.987 100.616C224.319 100.616 226.138 101.211 227.443 102.399C228.763 103.57 229.423 105.276 229.423 107.517V107.848C229.423 110.649 228.47 112.729 226.563 114.087C224.671 115.445 222.039 116.124 218.665 116.124ZM208.259 105.505V99.0885L218.181 97.5352L222.031 102.552L208.259 105.505ZM223.175 102.348L215.453 101.737V97.0514L224.473 96.4657H240.951L241.369 102.373L223.175 102.348ZM244.317 116.124C240.255 116.124 237.255 115.284 235.319 113.603C233.398 111.922 232.437 109.495 232.437 106.32V105.811C232.437 104.147 232.701 102.696 233.229 101.457C233.772 100.217 234.659 99.1734 235.891 98.3246C237.123 97.4588 238.773 96.7882 240.841 96.3129L243.371 95.7018C244.369 95.4471 245.073 95.1076 245.483 94.6832C245.894 94.2588 246.099 93.7156 246.099 93.0535V92.9262C246.099 92.0604 245.777 91.4408 245.131 91.0673C244.486 90.6938 243.401 90.5071 241.875 90.5071C240.687 90.5071 239.477 90.6599 238.245 90.9654C237.013 91.254 235.825 91.6105 234.681 92.0349L235.385 85.6434C236.251 85.219 237.343 84.8455 238.663 84.523C239.998 84.2005 241.406 84.0392 242.887 84.0392C246.129 84.0392 248.622 84.7607 250.367 86.2036C252.127 87.6296 253.007 89.8535 253.007 92.8753V93.2063C253.007 94.6493 252.773 95.914 252.303 97.0004C251.849 98.0699 251.152 98.9612 250.213 99.6742C249.275 100.387 248.072 100.922 246.605 101.278L243.129 102.119C242.22 102.339 241.487 102.628 240.929 102.985C240.372 103.324 239.976 103.74 239.741 104.232C239.507 104.725 239.389 105.31 239.389 105.989V106.142C239.389 107.313 239.829 108.179 240.709 108.739C241.589 109.283 242.983 109.554 244.889 109.554C245.813 109.554 246.767 109.469 247.749 109.3C248.747 109.113 249.715 108.867 250.653 108.561C251.592 108.239 252.45 107.882 253.227 107.492L252.655 114.367C251.555 114.893 250.287 115.318 248.849 115.64C247.427 115.963 245.916 116.124 244.317 116.124Z" fill="white"/>
<path d="M197.738 86.2799C197.738 85.8894 197.738 85.5245 197.738 85.1849C197.738 84.8284 197.738 84.4719 197.738 84.1154C197.738 83.742 197.738 83.3345 197.738 82.8932C197.738 79.6677 198.412 76.994 199.762 74.872C201.111 72.7499 203.091 71.1627 205.702 70.1102C208.312 69.0576 211.51 68.5314 215.294 68.5314C218.55 68.5314 221.696 68.803 224.732 69.3462C227.782 69.8895 230.65 70.6194 233.334 71.5361C236.018 72.4529 238.467 73.4969 240.682 74.6682C242.911 75.8396 244.847 77.0619 246.49 78.3351L242.486 83.1733C240.858 82.0698 239.032 81.0173 237.008 80.0157C234.984 79.0141 232.813 78.1229 230.496 77.342C228.178 76.5611 225.758 75.9499 223.236 75.5086C220.713 75.0672 218.139 74.8465 215.514 74.8465C212.976 74.8465 210.886 75.1266 209.244 75.6868C207.616 76.23 206.406 77.0958 205.614 78.2841C204.836 79.4725 204.448 81.0088 204.448 82.8932C204.448 83.2327 204.448 83.5722 204.448 83.9117C204.448 84.2343 204.448 84.5823 204.448 84.9558C204.448 85.3292 204.448 85.7706 204.448 86.2799H197.738ZM197.738 103.621V84.8284H204.448V103.621H197.738ZM197.738 115.436V100.896H204.448V115.436H197.738Z" fill="white"/>
<path d="M171.223 113.934C167.938 113.934 165.408 113.085 163.633 111.388C161.873 109.69 160.891 107.135 160.685 103.723L160.575 101.915L166.999 101.049L167.109 102.959C167.212 104.487 167.608 105.616 168.297 106.346C169.001 107.059 169.962 107.415 171.179 107.415C172.411 107.415 173.357 107.025 174.017 106.244C174.677 105.463 175.007 104.275 175.007 102.679V89.5394H181.519V102.857C181.519 106.507 180.639 109.266 178.879 111.133C177.134 113 174.582 113.934 171.223 113.934ZM162.335 105.149L157.341 104.029V98.2736L161.191 98.2227C162.394 98.2057 163.311 97.8916 163.941 97.2805C164.572 96.6524 164.887 95.7102 164.887 94.454V93.8938C164.887 92.7054 164.616 91.8227 164.073 91.2455C163.531 90.6513 162.753 90.3542 161.741 90.3542C161.008 90.3542 160.311 90.4476 159.651 90.6343C159.006 90.8041 158.405 91.0248 157.847 91.2964L158.309 85.2359C158.911 84.8794 159.637 84.5909 160.487 84.3702C161.338 84.1495 162.262 84.0391 163.259 84.0391C165.87 84.0391 167.901 84.8115 169.353 86.3564C170.805 87.8842 171.531 90.2439 171.531 93.4354V94.6322C171.531 97.5861 170.886 99.8524 169.595 101.431C168.319 103.01 166.523 103.799 164.205 103.799H162.335V105.149ZM186.073 103.621V84.8285H192.783V103.621H186.073ZM186.073 115.436V100.896H192.783V115.436H186.073ZM178.703 102.934V96.593H188.779L189.241 102.934H178.703ZM188.361 82.9951C185.839 81.6879 183.309 80.3723 180.771 79.0482C178.249 77.707 175.733 76.3659 173.225 75.0248L176.679 68.124C179.026 69.8386 181.365 71.5617 183.697 73.2932C186.044 75.0078 188.391 76.7224 190.737 78.437L188.361 82.9951Z" fill="white"/>
<path d="M138.226 103.621V84.8285H144.936V103.621H138.226ZM138.226 115.436V100.896H144.936V115.436H138.226Z" fill="white"/>
<path d="M126.532 115.437V94.4031C126.532 93.1299 126.312 92.1792 125.872 91.5511C125.432 90.906 124.779 90.5835 123.914 90.5835C123.048 90.5835 122.396 90.8975 121.956 91.5257C121.53 92.1538 121.318 93.0959 121.318 94.3522C121.318 95.1331 121.332 95.914 121.362 96.6949C121.391 97.4758 121.42 98.2991 121.45 99.1649C121.494 100.014 121.516 100.973 121.516 102.042C121.516 105.607 120.724 108.256 119.14 109.987C117.556 111.702 115.209 112.559 112.1 112.559C108.77 112.559 106.284 111.617 104.642 109.733C102.999 107.831 102.178 104.92 102.178 100.998V96.8222C102.178 94.3607 102.434 92.1113 102.948 90.0742C103.476 88.0201 104.253 86.2715 105.28 84.8286H112.188C111.161 86.4922 110.384 88.3087 109.856 90.2779C109.342 92.2302 109.086 94.3776 109.086 96.7203V101.202C109.086 102.798 109.335 104.003 109.834 104.818C110.332 105.616 111.102 106.015 112.144 106.015C113.948 106.015 114.85 104.759 114.85 102.246C114.85 101.295 114.828 100.413 114.784 99.5978C114.754 98.766 114.725 97.9426 114.696 97.1278C114.666 96.2959 114.652 95.4132 114.652 94.4795C114.652 90.9654 115.436 88.3511 117.006 86.6365C118.575 84.905 120.892 84.0392 123.958 84.0392C127.052 84.0392 129.37 84.9135 130.91 86.662C132.464 88.3936 133.242 91.0758 133.242 94.7087V115.437H126.532Z" fill="white"/>
<path d="M91.3042 103.621V84.8285H98.0142V103.621H91.3042ZM91.3042 115.436V100.896H98.0142V115.436H91.3042Z" fill="white"/>
<path d="M79.628 103.621V84.8286H86.338V103.621H79.628ZM79.628 115.437V100.896H86.338V115.437H79.628ZM62.512 107.695L56 106.295V100.464L63.282 100.413C65.218 100.396 66.6773 99.9628 67.66 99.114C68.6573 98.2482 69.156 96.8816 69.156 95.0142V93.8429C69.156 92.5697 68.8993 91.619 68.386 90.9909C67.8873 90.3628 67.154 90.0487 66.186 90.0487C65.2033 90.0487 64.4553 90.3628 63.942 90.9909C63.4433 91.602 63.194 92.5272 63.194 93.7665V93.9702C63.194 94.5474 63.2233 95.15 63.282 95.7782C63.3407 96.4063 63.4067 96.9835 63.48 97.5097H57.518C57.298 96.9156 57.1147 96.2535 56.968 95.5235C56.836 94.7766 56.77 94.0381 56.77 93.3081V93.1554C56.77 90.1336 57.562 87.8588 59.146 86.331C60.7447 84.8031 63.0913 84.0392 66.186 84.0392C69.3687 84.0392 71.7813 84.888 73.424 86.5856C75.0667 88.2662 75.888 90.7957 75.888 94.1739V95.3453C75.888 98.8763 74.964 101.576 73.116 103.443C71.2827 105.293 68.6573 106.218 65.24 106.218H62.578L62.512 107.695ZM70.102 116.124C68.21 116.124 66.4793 115.785 64.91 115.105C63.3407 114.409 62.028 113.272 60.972 111.693C59.9307 110.098 59.2267 107.942 58.86 105.225L58.684 103.927L65.108 102.704L65.328 104.13C65.5627 105.658 65.9807 106.821 66.582 107.619C67.1833 108.417 67.924 108.96 68.804 109.249C69.6987 109.52 70.6667 109.656 71.708 109.656C72.3973 109.656 73.006 109.614 73.534 109.529C74.062 109.427 74.6267 109.274 75.228 109.07L74.7 115.335C74.0987 115.555 73.38 115.742 72.544 115.895C71.7227 116.048 70.9087 116.124 70.102 116.124Z" fill="white"/>
<path d="M122.925 172.82C122.925 172.487 122.925 172.187 122.925 171.92C122.925 171.653 122.925 171.38 122.925 171.1C122.925 170.82 122.925 170.5 122.925 170.14C122.925 167.767 123.405 165.807 124.365 164.26C125.338 162.7 126.725 161.533 128.525 160.76C130.325 159.987 132.465 159.6 134.945 159.6C137.305 159.6 139.498 159.96 141.525 160.68C143.551 161.387 145.371 162.367 146.985 163.62C148.611 164.86 149.971 166.273 151.065 167.86L147.525 170.6C146.538 169.267 145.391 168.093 144.085 167.08C142.791 166.053 141.378 165.247 139.845 164.66C138.311 164.073 136.705 163.78 135.025 163.78C133.478 163.78 132.185 164.007 131.145 164.46C130.105 164.9 129.325 165.593 128.805 166.54C128.298 167.473 128.045 168.673 128.045 170.14C128.045 170.407 128.045 170.673 128.045 170.94C128.045 171.207 128.045 171.487 128.045 171.78C128.045 172.073 128.045 172.42 128.045 172.82H122.925ZM122.925 186.44V172.04H128.045V186.44H122.925ZM122.925 196V184.06H128.045V196H122.925ZM140.596 192.44C138.756 192.44 137.23 192.093 136.016 191.4C134.816 190.707 133.916 189.7 133.316 188.38C132.73 187.047 132.436 185.44 132.436 183.56V180.96C132.436 177.973 133.123 175.74 134.496 174.26C135.87 172.78 137.896 172.04 140.576 172.04C141.336 172.04 142.023 172.1 142.636 172.22C143.263 172.327 143.783 172.46 144.196 172.62L144.596 176.68C144.263 176.573 143.876 176.487 143.436 176.42C143.01 176.353 142.51 176.32 141.936 176.32C140.483 176.32 139.41 176.727 138.716 177.54C138.036 178.34 137.696 179.547 137.696 181.16V183.28C137.696 184.88 138.07 186.08 138.816 186.88C139.576 187.667 140.716 188.06 142.236 188.06C143.596 188.06 144.683 187.767 145.496 187.18C146.323 186.593 146.843 185.807 147.056 184.82L147.216 188.74H146.776C146.55 189.46 146.176 190.1 145.656 190.66C145.15 191.22 144.476 191.66 143.636 191.98C142.81 192.287 141.796 192.44 140.596 192.44ZM146.996 186.44V172.04H152.096V186.44H146.996ZM146.996 196V184.06H152.096V196H146.996ZM169.639 178.52L164.919 177.38V172.04H169.639V178.52ZM165.439 195.34C162.505 195.34 160.305 194.833 158.839 193.82C157.372 192.807 156.639 191.387 156.639 189.56V189.34C156.639 187.927 157.032 186.833 157.819 186.06C158.619 185.273 159.819 184.787 161.419 184.6V184.48C159.739 184.32 158.505 183.867 157.719 183.12C156.932 182.373 156.539 181.273 156.539 179.82V179.64C156.539 177.893 157.199 176.593 158.519 175.74C159.852 174.873 161.739 174.44 164.179 174.44C164.979 174.44 165.692 174.48 166.319 174.56C166.945 174.627 167.532 174.727 168.079 174.86C168.625 174.993 169.145 175.16 169.639 175.36V178.64C169.132 178.533 168.565 178.447 167.939 178.38C167.325 178.313 166.625 178.28 165.839 178.28C164.492 178.28 163.485 178.447 162.819 178.78C162.152 179.113 161.819 179.64 161.819 180.36V180.44C161.819 181.133 162.092 181.64 162.639 181.96C163.199 182.267 164.085 182.433 165.299 182.46L168.699 182.56V186.5L165.299 186.6C164.165 186.627 163.325 186.8 162.779 187.12C162.232 187.44 161.959 187.947 161.959 188.64V188.74C161.959 189.553 162.352 190.153 163.139 190.54C163.939 190.913 165.205 191.1 166.939 191.1C168.845 191.1 170.339 190.8 171.419 190.2C172.499 189.6 173.179 188.807 173.459 187.82L173.719 191.56H173.159C172.772 192.68 171.965 193.593 170.739 194.3C169.525 194.993 167.759 195.34 165.439 195.34ZM173.359 186.44V172.04H178.459V186.44H173.359ZM173.359 196V184.06H178.459V196H173.359ZM183.706 186.44V172.04H188.826V186.44H183.706ZM183.706 196V184.06H188.826V196H183.706ZM203.318 194.32C199.984 194.32 197.478 193.547 195.798 192C194.118 190.453 193.278 188.267 193.278 185.44C193.278 184.853 193.291 184.353 193.318 183.94C193.344 183.513 193.384 183.12 193.438 182.76L198.038 182.74C199.798 182.74 201.058 182.413 201.818 181.76C202.578 181.107 202.958 180.107 202.958 178.76V178.28C202.958 177.32 202.751 176.6 202.338 176.12C201.924 175.627 201.311 175.38 200.498 175.38C199.684 175.38 199.064 175.613 198.638 176.08C198.211 176.547 197.998 177.267 197.998 178.24C197.998 178.653 197.998 179.04 197.998 179.4C197.998 179.747 197.998 180.107 197.998 180.48H193.838C193.704 180.04 193.598 179.56 193.518 179.04C193.451 178.52 193.418 178.007 193.418 177.5C193.418 175.527 194.018 174.033 195.218 173.02C196.418 171.993 198.178 171.48 200.498 171.48C202.898 171.48 204.718 172.053 205.958 173.2C207.211 174.347 207.838 176.04 207.838 178.28V178.84C207.838 181.36 207.184 183.253 205.878 184.52C204.571 185.787 202.551 186.427 199.818 186.44H195.718L198.258 183.74C198.244 184.007 198.238 184.267 198.238 184.52C198.238 184.773 198.238 185.027 198.238 185.28C198.238 186.267 198.451 187.12 198.878 187.84C199.318 188.547 199.991 189.093 200.898 189.48C201.818 189.867 202.998 190.06 204.438 190.06C205.798 190.06 206.951 189.913 207.898 189.62C208.844 189.313 209.611 188.893 210.198 188.36C210.784 187.813 211.204 187.187 211.458 186.48L211.658 190.36H211.118C210.744 191.507 209.938 192.453 208.698 193.2C207.458 193.947 205.664 194.32 203.318 194.32ZM211.338 186.44V172.04H216.438V186.44H211.338ZM211.338 196V184.06H216.438V196H211.338ZM221.714 174V167.1C221.714 165.927 221.5 165.067 221.074 164.52C220.66 163.96 219.994 163.68 219.074 163.68C218.18 163.68 217.527 163.953 217.114 164.5C216.687 165.033 216.474 165.84 216.474 166.92V170.6H211.354V167.18C211.354 164.633 211.967 162.733 213.194 161.48C214.407 160.227 216.147 159.6 218.414 159.6C220.04 159.6 221.34 159.947 222.314 160.64C223.3 161.333 223.987 162.307 224.374 163.56H226.834V174H221.714ZM224.474 169.46V165.1L224.534 163.68C224.6 162.067 225.047 160.873 225.874 160.1C226.714 159.327 227.874 158.94 229.354 158.94C229.847 158.94 230.3 158.98 230.714 159.06C231.14 159.127 231.58 159.24 232.034 159.4L232.494 163.24C232.04 163.12 231.627 163.04 231.254 163C230.88 162.96 230.494 162.94 230.094 162.94C229.014 162.94 228.2 163.187 227.654 163.68C227.107 164.173 226.834 164.893 226.834 165.84V169.46H224.474ZM221.714 186.44V172.04H226.834V186.44H221.714ZM221.714 196V184.06H226.834V196H221.714ZM243.025 194.54C240.199 194.54 238.019 193.893 236.485 192.6C234.965 191.307 234.092 189.373 233.865 186.8L233.725 185.2L238.645 184.64L238.765 186.28C238.885 187.627 239.305 188.627 240.025 189.28C240.759 189.933 241.752 190.26 243.005 190.26C244.272 190.26 245.239 189.913 245.905 189.22C246.585 188.513 246.925 187.453 246.925 186.04V175.8H251.885V186.14C251.885 188.913 251.132 191.007 249.625 192.42C248.119 193.833 245.919 194.54 243.025 194.54ZM235.085 187.36L230.745 186.6V182.8L234.345 182.78C235.559 182.767 236.479 182.487 237.105 181.94C237.745 181.38 238.065 180.533 238.065 179.4V178.86C238.065 177.78 237.792 176.98 237.245 176.46C236.712 175.927 235.945 175.66 234.945 175.66C234.225 175.66 233.552 175.74 232.925 175.9C232.312 176.06 231.732 176.267 231.185 176.52L231.565 172.48C232.112 172.187 232.765 171.947 233.525 171.76C234.299 171.573 235.139 171.48 236.045 171.48C238.285 171.48 240.025 172.067 241.265 173.24C242.519 174.4 243.145 176.18 243.145 178.58V179.52C243.145 181.787 242.572 183.52 241.425 184.72C240.292 185.92 238.685 186.52 236.605 186.52H235.105L235.085 187.36ZM256.725 186.44V172.04H261.825V186.44H256.725ZM256.725 196V184.06H261.825V196H256.725ZM249.725 185.8V181.6H258.725L259.085 185.8H249.725ZM267.085 186.44V172.04H272.185V186.44H267.085ZM267.085 196V184.06H272.185V196H267.085ZM268.725 170.6C266.485 169.48 264.232 168.353 261.965 167.22C259.699 166.073 257.445 164.927 255.205 163.78L257.885 159.3C260.005 160.673 262.125 162.053 264.245 163.44C266.365 164.813 268.485 166.187 270.605 167.56L268.725 170.6ZM289.937 186.44V172.04H295.037V186.44H289.937ZM289.937 196V184.06H295.037V196H289.937ZM278.437 191.76C278.024 190.64 277.65 189.487 277.317 188.3C276.984 187.1 276.71 185.847 276.497 184.54C276.284 183.22 276.13 181.813 276.037 180.32L278.357 178.88H282.777V191.76H278.437ZM281.417 183.08V178.88H291.837L292.197 183.08H281.417ZM300.268 186.44V172.04H305.388V186.44H300.268ZM300.268 196V184.06H305.388V196H300.268ZM336.01 186.44V172.04H341.13V186.44H336.01ZM336.01 196V184.06H341.13V196H336.01ZM321.89 187.8L317.01 186.86V183.06L321.69 183.04C323.036 183.013 324.043 182.72 324.71 182.16C325.376 181.587 325.71 180.687 325.71 179.46V179.02C325.71 177.9 325.416 177.073 324.83 176.54C324.243 175.993 323.41 175.72 322.33 175.72C321.476 175.72 320.656 175.82 319.87 176.02C319.096 176.207 318.383 176.433 317.73 176.7L318.11 172.56C318.75 172.253 319.503 172 320.37 171.8C321.25 171.587 322.256 171.48 323.39 171.48C325.763 171.48 327.603 172.087 328.91 173.3C330.216 174.5 330.87 176.34 330.87 178.82V179.58C330.87 181.94 330.263 183.76 329.05 185.04C327.836 186.307 326.076 186.94 323.77 186.94H321.93L321.89 187.8ZM328.89 196.5C327.343 196.5 325.95 196.227 324.71 195.68C323.483 195.133 322.456 194.287 321.63 193.14C320.803 191.98 320.223 190.48 319.89 188.64L319.31 185.48L324.11 185.02L324.67 187.82C324.883 188.873 325.23 189.727 325.71 190.38C326.203 191.02 326.796 191.487 327.49 191.78C328.183 192.073 328.95 192.22 329.79 192.22C330.243 192.22 330.656 192.187 331.03 192.12C331.403 192.053 331.716 191.973 331.97 191.88L331.57 196.08C331.196 196.2 330.79 196.3 330.35 196.38C329.923 196.46 329.436 196.5 328.89 196.5ZM332.69 185.64C331.836 185.64 330.996 185.593 330.17 185.5C329.343 185.393 328.576 185.247 327.87 185.06L328.27 181.42H335.55C336.083 181.42 336.663 181.42 337.29 181.42C337.93 181.42 338.523 181.42 339.07 181.42L339.43 185.62L332.69 185.64ZM353.682 192.44C351.842 192.44 350.316 192.093 349.102 191.4C347.902 190.707 347.002 189.7 346.402 188.38C345.816 187.047 345.522 185.44 345.522 183.56V180.96C345.522 177.973 346.209 175.74 347.582 174.26C348.956 172.78 350.982 172.04 353.662 172.04C354.422 172.04 355.109 172.1 355.722 172.22C356.349 172.327 356.869 172.46 357.282 172.62L357.682 176.68C357.349 176.573 356.962 176.487 356.522 176.42C356.096 176.353 355.596 176.32 355.022 176.32C353.569 176.32 352.496 176.727 351.802 177.54C351.122 178.34 350.782 179.547 350.782 181.16V183.28C350.782 184.88 351.156 186.08 351.902 186.88C352.662 187.667 353.802 188.06 355.322 188.06C356.682 188.06 357.769 187.767 358.582 187.18C359.409 186.593 359.929 185.807 360.142 184.82L360.302 188.74H359.862C359.636 189.46 359.262 190.1 358.742 190.66C358.236 191.22 357.562 191.66 356.722 191.98C355.896 192.287 354.882 192.44 353.682 192.44ZM360.082 186.44V172.04H365.182V186.44H360.082ZM360.082 196V184.06H365.182V196H360.082ZM370.425 186.44V172.04H375.545V186.44H370.425ZM370.425 196V184.06H375.545V196H370.425ZM376.965 168.24C376.338 168.24 375.878 168.08 375.585 167.76C375.291 167.44 375.145 167.007 375.145 166.46V166.32C375.145 165.787 375.291 165.36 375.585 165.04C375.891 164.72 376.351 164.56 376.965 164.56C377.578 164.56 378.031 164.72 378.325 165.04C378.631 165.347 378.785 165.773 378.785 166.32V166.46C378.785 167.007 378.638 167.44 378.345 167.76C378.065 168.08 377.605 168.24 376.965 168.24ZM374.545 169.28L371.425 170.6C370.251 170.013 369.365 169.22 368.765 168.22C368.165 167.22 367.865 166.027 367.865 164.64V164.44C367.865 162.76 368.418 161.413 369.525 160.4C370.645 159.373 372.298 158.86 374.485 158.86C375.178 158.86 375.818 158.9 376.405 158.98C376.991 159.047 377.585 159.16 378.185 159.32L378.645 162.94C378.178 162.82 377.758 162.74 377.385 162.7C377.025 162.66 376.645 162.64 376.245 162.64C375.178 162.64 374.371 162.9 373.825 163.42C373.278 163.94 373.005 164.7 373.005 165.7V165.86C373.005 166.553 373.131 167.18 373.385 167.74C373.638 168.287 374.025 168.8 374.545 169.28ZM397.616 186.44V172.04H402.716V186.44H397.616ZM397.616 196V184.06H402.716V196H397.616ZM385.096 191.54C383.963 191.54 382.95 191.433 382.056 191.22C381.163 191.007 380.41 190.733 379.796 190.4L379.396 186.08C380.036 186.4 380.716 186.667 381.436 186.88C382.17 187.093 383.003 187.2 383.936 187.2C385.283 187.2 386.29 186.8 386.956 186C387.636 185.2 387.976 184 387.976 182.4V180.5C387.976 178.927 387.643 177.747 386.976 176.96C386.31 176.173 385.323 175.78 384.016 175.78C383.176 175.78 382.396 175.893 381.676 176.12C380.97 176.333 380.323 176.6 379.736 176.92L380.136 172.64C380.763 172.307 381.503 172.033 382.356 171.82C383.223 171.593 384.183 171.48 385.236 171.48C386.93 171.48 388.376 171.793 389.576 172.42C390.776 173.047 391.69 174.013 392.316 175.32C392.956 176.627 393.276 178.293 393.276 180.32V182.64C393.276 184.68 392.95 186.36 392.296 187.68C391.656 188.987 390.73 189.96 389.516 190.6C388.303 191.227 386.83 191.54 385.096 191.54ZM407.964 174V167.1C407.964 165.927 407.75 165.067 407.324 164.52C406.91 163.96 406.244 163.68 405.324 163.68C404.43 163.68 403.777 163.953 403.364 164.5C402.937 165.033 402.724 165.84 402.724 166.92V170.6H397.604V167.18C397.604 164.633 398.264 162.733 399.584 161.48C400.904 160.227 402.817 159.6 405.324 159.6C406.937 159.6 408.317 159.887 409.464 160.46C410.624 161.033 411.517 161.893 412.144 163.04C412.77 164.187 413.084 165.62 413.084 167.34V174H407.964ZM407.964 186.44V172.04H413.084V186.44H407.964ZM407.964 196V184.06H413.084V196H407.964ZM148.061 226.82C148.061 226.487 148.061 226.187 148.061 225.92C148.061 225.653 148.061 225.38 148.061 225.1C148.061 224.82 148.061 224.5 148.061 224.14C148.061 221.767 148.541 219.807 149.501 218.26C150.475 216.7 151.861 215.533 153.661 214.76C155.461 213.987 157.601 213.6 160.081 213.6C162.441 213.6 164.635 213.96 166.661 214.68C168.688 215.387 170.508 216.367 172.121 217.62C173.748 218.86 175.108 220.273 176.201 221.86L172.661 224.6C171.675 223.267 170.528 222.093 169.221 221.08C167.928 220.053 166.515 219.247 164.981 218.66C163.448 218.073 161.841 217.78 160.161 217.78C158.615 217.78 157.321 218.007 156.281 218.46C155.241 218.9 154.461 219.593 153.941 220.54C153.435 221.473 153.181 222.673 153.181 224.14C153.181 224.407 153.181 224.673 153.181 224.94C153.181 225.207 153.181 225.487 153.181 225.78C153.181 226.073 153.181 226.42 153.181 226.82H148.061ZM148.061 240.44V226.04H153.181V240.44H148.061ZM148.061 250V238.06H153.181V250H148.061ZM165.733 246.44C163.893 246.44 162.366 246.093 161.153 245.4C159.953 244.707 159.053 243.7 158.453 242.38C157.866 241.047 157.573 239.44 157.573 237.56V234.96C157.573 231.973 158.26 229.74 159.633 228.26C161.006 226.78 163.033 226.04 165.713 226.04C166.473 226.04 167.16 226.1 167.773 226.22C168.4 226.327 168.92 226.46 169.333 226.62L169.733 230.68C169.4 230.573 169.013 230.487 168.573 230.42C168.146 230.353 167.646 230.32 167.073 230.32C165.62 230.32 164.546 230.727 163.853 231.54C163.173 232.34 162.833 233.547 162.833 235.16V237.28C162.833 238.88 163.206 240.08 163.953 240.88C164.713 241.667 165.853 242.06 167.373 242.06C168.733 242.06 169.82 241.767 170.633 241.18C171.46 240.593 171.98 239.807 172.193 238.82L172.353 242.74H171.913C171.686 243.46 171.313 244.1 170.793 244.66C170.286 245.22 169.613 245.66 168.773 245.98C167.946 246.287 166.933 246.44 165.733 246.44ZM172.133 240.44V226.04H177.233V240.44H172.133ZM172.133 250V238.06H177.233V250H172.133ZM189.595 237.24C188.129 237.187 186.862 236.967 185.795 236.58C184.729 236.18 183.909 235.593 183.335 234.82C182.775 234.047 182.495 233.08 182.495 231.92V231.68C182.495 229.627 183.235 228.08 184.715 227.04C186.209 226 188.395 225.48 191.275 225.48C192.622 225.48 193.849 225.6 194.955 225.84C196.062 226.08 196.969 226.36 197.675 226.68L198.135 230.8C197.322 230.507 196.422 230.26 195.435 230.06C194.449 229.847 193.402 229.74 192.295 229.74C190.695 229.74 189.542 229.993 188.835 230.5C188.129 230.993 187.775 231.707 187.775 232.64V232.8C187.775 233.653 188.109 234.34 188.775 234.86C189.455 235.38 190.595 235.693 192.195 235.8L189.595 237.24ZM190.455 250.5C188.802 250.5 187.329 250.38 186.035 250.14C184.755 249.913 183.655 249.627 182.735 249.28L182.295 244.88C183.362 245.253 184.495 245.56 185.695 245.8C186.895 246.027 188.209 246.14 189.635 246.14C191.222 246.14 192.415 245.88 193.215 245.36C194.029 244.84 194.435 244.027 194.435 242.92V242.7C194.435 241.753 194.122 241.007 193.495 240.46C192.882 239.9 191.835 239.547 190.355 239.4L192.955 238.08C195.089 238.107 196.749 238.593 197.935 239.54C199.135 240.487 199.735 241.867 199.735 243.68V244.02C199.735 246.207 198.922 247.833 197.295 248.9C195.669 249.967 193.389 250.5 190.455 250.5ZM181.255 241.8V237.5L190.095 236.16L193.175 239.5L181.255 241.8ZM188.855 235.94L201.195 233.44V237.68L190.535 239.26L188.855 235.94ZM204.897 240.44V226.04H210.017V240.44H204.897ZM204.897 250V238.06H210.017V250H204.897ZM232.709 240.44V226.04H237.829V240.44H232.709ZM232.709 250V238.06H237.829V250H232.709ZM218.589 241.8L213.709 240.86V237.06L218.389 237.04C219.736 237.013 220.742 236.72 221.409 236.16C222.076 235.587 222.409 234.687 222.409 233.46V233.02C222.409 231.9 222.116 231.073 221.529 230.54C220.942 229.993 220.109 229.72 219.029 229.72C218.176 229.72 217.356 229.82 216.569 230.02C215.796 230.207 215.082 230.433 214.429 230.7L214.809 226.56C215.449 226.253 216.202 226 217.069 225.8C217.949 225.587 218.956 225.48 220.089 225.48C222.462 225.48 224.302 226.087 225.609 227.3C226.916 228.5 227.569 230.34 227.569 232.82V233.58C227.569 235.94 226.962 237.76 225.749 239.04C224.536 240.307 222.776 240.94 220.469 240.94H218.629L218.589 241.8ZM225.589 250.5C224.042 250.5 222.649 250.227 221.409 249.68C220.182 249.133 219.156 248.287 218.329 247.14C217.502 245.98 216.922 244.48 216.589 242.64L216.009 239.48L220.809 239.02L221.369 241.82C221.582 242.873 221.929 243.727 222.409 244.38C222.902 245.02 223.496 245.487 224.189 245.78C224.882 246.073 225.649 246.22 226.489 246.22C226.942 246.22 227.356 246.187 227.729 246.12C228.102 246.053 228.416 245.973 228.669 245.88L228.269 250.08C227.896 250.2 227.489 250.3 227.049 250.38C226.622 250.46 226.136 250.5 225.589 250.5ZM229.389 239.64C228.536 239.64 227.696 239.593 226.869 239.5C226.042 239.393 225.276 239.247 224.569 239.06L224.969 235.42H232.249C232.782 235.42 233.362 235.42 233.989 235.42C234.629 235.42 235.222 235.42 235.769 235.42L236.129 239.62L229.389 239.64ZM252.631 238.4V232.04C252.631 231.293 252.491 230.74 252.211 230.38C251.931 230.02 251.471 229.84 250.831 229.84C250.578 229.84 250.324 229.86 250.071 229.9C249.831 229.94 249.598 229.993 249.371 230.06L249.671 226.2C250.138 226.053 250.631 225.947 251.151 225.88C251.684 225.8 252.251 225.76 252.851 225.76C254.478 225.76 255.691 226.207 256.491 227.1C257.304 227.98 257.711 229.36 257.711 231.24V238.38L252.631 238.4ZM252.991 247.58C252.551 246.66 252.158 245.713 251.811 244.74C251.464 243.767 251.178 242.747 250.951 241.68C250.724 240.6 250.571 239.447 250.491 238.22L252.811 236.8H257.531V247.58H252.991ZM256.551 240.72V236.52H266.491L266.871 240.72H256.551ZM265.431 240.44V226.04H270.551V240.44H265.431ZM265.431 250V238.06H270.551V250H265.431ZM275.796 240.44V226.04H280.916V240.44H275.796ZM275.796 250V238.06H280.916V250H275.796ZM295.327 250.5C291.834 250.5 289.247 249.86 287.567 248.58C285.901 247.3 285.067 245.433 285.067 242.98V242.56C285.067 241.253 285.307 240.113 285.787 239.14C286.281 238.167 287.067 237.353 288.147 236.7C289.241 236.033 290.681 235.527 292.467 235.18L294.867 234.68C295.881 234.467 296.601 234.16 297.027 233.76C297.467 233.347 297.687 232.827 297.687 232.2V232.1C297.687 231.26 297.354 230.66 296.687 230.3C296.034 229.927 294.961 229.74 293.467 229.74C292.334 229.74 291.207 229.873 290.087 230.14C288.981 230.393 287.941 230.693 286.967 231.04L287.527 226.74C288.261 226.42 289.214 226.133 290.387 225.88C291.561 225.613 292.841 225.48 294.227 225.48C297.041 225.48 299.201 226.013 300.707 227.08C302.214 228.133 302.967 229.78 302.967 232.02V232.32C302.967 233.413 302.754 234.367 302.327 235.18C301.914 235.98 301.281 236.653 300.427 237.2C299.574 237.747 298.494 238.16 297.187 238.44L294.187 239.06C293.281 239.26 292.541 239.52 291.967 239.84C291.407 240.16 290.994 240.553 290.727 241.02C290.474 241.487 290.347 242.047 290.347 242.7V242.86C290.347 243.98 290.787 244.807 291.667 245.34C292.561 245.873 293.941 246.14 295.807 246.14C296.661 246.14 297.534 246.067 298.427 245.92C299.334 245.773 300.201 245.567 301.027 245.3C301.867 245.02 302.627 244.693 303.307 244.32L302.867 249.04C301.907 249.48 300.781 249.833 299.487 250.1C298.194 250.367 296.807 250.5 295.327 250.5ZM297.538 224.6C295.605 223.427 293.658 222.253 291.698 221.08C289.751 219.893 287.805 218.72 285.858 217.56L288.778 213.3C290.578 214.687 292.378 216.08 294.178 217.48C295.978 218.88 297.778 220.28 299.578 221.68L297.538 224.6ZM333.086 236.36L329.706 233.92L336.526 226.04H342.506V226.44L333.086 236.36ZM319.866 241.74L314.906 240.88V232.2C314.906 229.973 315.453 228.3 316.546 227.18C317.653 226.047 319.253 225.48 321.346 225.48C322.413 225.48 323.353 225.62 324.166 225.9C324.979 226.167 325.733 226.567 326.426 227.1C327.119 227.633 327.819 228.307 328.526 229.12L333.566 234.76L329.626 237.36L324.666 231.56C324.239 231.067 323.859 230.68 323.526 230.4C323.206 230.12 322.893 229.92 322.586 229.8C322.293 229.68 321.973 229.62 321.626 229.62C321.079 229.62 320.646 229.813 320.326 230.2C320.019 230.573 319.866 231.167 319.866 231.98V241.74ZM330.986 250.5C328.266 250.5 326.186 249.94 324.746 248.82C323.319 247.7 322.606 246.04 322.606 243.84V243.62C322.606 242.62 322.759 241.733 323.066 240.96C323.373 240.173 323.813 239.413 324.386 238.68C324.959 237.947 325.646 237.167 326.446 236.34L329.006 233.74L332.466 236.34L330.066 238.88C329.346 239.64 328.779 240.34 328.366 240.98C327.966 241.62 327.766 242.38 327.766 243.26V243.48C327.766 244.44 328.039 245.16 328.586 245.64C329.133 246.107 329.933 246.34 330.986 246.34C332.039 246.34 332.833 246.107 333.366 245.64C333.899 245.16 334.166 244.44 334.166 243.48V243.26C334.166 242.407 333.953 241.66 333.526 241.02C333.113 240.38 332.559 239.673 331.866 238.9L329.686 236.44L333.446 234.02L335.566 236.4C336.313 237.227 336.966 238.007 337.526 238.74C338.086 239.473 338.526 240.227 338.846 241C339.166 241.76 339.326 242.633 339.326 243.62V243.84C339.326 246.04 338.613 247.7 337.186 248.82C335.773 249.94 333.706 250.5 330.986 250.5ZM351.032 250.5C349.552 250.5 348.232 250.353 347.072 250.06C345.925 249.78 344.972 249.44 344.212 249.04L343.772 244.54C344.665 245.007 345.625 245.4 346.652 245.72C347.692 246.04 348.885 246.2 350.232 246.2C351.818 246.2 353.005 245.947 353.792 245.44C354.592 244.92 354.992 244.133 354.992 243.08V242.9C354.992 241.847 354.658 241.08 353.992 240.6C353.325 240.12 352.312 239.867 350.952 239.84L346.232 239.7V235.66L350.992 235.58C352.232 235.553 353.158 235.313 353.772 234.86C354.398 234.407 354.712 233.713 354.712 232.78V232.64C354.712 231.667 354.338 230.933 353.592 230.44C352.845 229.947 351.732 229.7 350.252 229.7C349.132 229.7 348.052 229.827 347.012 230.08C345.972 230.333 345.045 230.653 344.232 231.04L344.712 226.78C345.445 226.447 346.358 226.147 347.452 225.88C348.558 225.613 349.805 225.48 351.192 225.48C353.992 225.48 356.158 226.013 357.692 227.08C359.238 228.147 360.012 229.76 360.012 231.92V232.18C360.012 233.873 359.592 235.167 358.752 236.06C357.925 236.94 356.672 237.473 354.992 237.66V237.76C356.752 238 358.072 238.6 358.952 239.56C359.832 240.507 360.272 241.827 360.272 243.52V243.82C360.272 245.98 359.485 247.633 357.912 248.78C356.338 249.927 354.045 250.5 351.032 250.5ZM351.052 256.56L345.872 249.02L349.172 249.04C350.438 249.733 351.472 250.413 352.272 251.08C353.072 251.76 353.765 252.427 354.352 253.08L357.392 256.42V256.56H351.052ZM368.244 242.28L363.104 241.3V237.48L368.384 237.46C369.944 237.447 371.124 237.147 371.924 236.56C372.724 235.96 373.124 235.027 373.124 233.76V233.3C373.124 232.087 372.764 231.187 372.044 230.6C371.324 230.013 370.291 229.72 368.944 229.72C367.997 229.72 367.091 229.82 366.224 230.02C365.357 230.207 364.564 230.44 363.844 230.72L364.224 226.58C364.944 226.273 365.784 226.013 366.744 225.8C367.717 225.587 368.831 225.48 370.084 225.48C371.831 225.48 373.324 225.76 374.564 226.32C375.817 226.867 376.771 227.7 377.424 228.82C378.091 229.927 378.424 231.34 378.424 233.06V233.78C378.424 236.22 377.737 238.1 376.364 239.42C375.004 240.727 373.031 241.38 370.444 241.38H368.324L368.244 242.28ZM374.964 250.5C373.351 250.5 371.917 250.233 370.664 249.7C369.424 249.153 368.391 248.307 367.564 247.16C366.751 246 366.171 244.493 365.824 242.64L365.264 239.64L370.144 239.2L370.684 241.84C371.004 243.44 371.624 244.573 372.544 245.24C373.477 245.893 374.597 246.22 375.904 246.22C376.424 246.22 376.924 246.173 377.404 246.08C377.884 245.973 378.244 245.88 378.484 245.8L378.084 249.98C377.657 250.127 377.191 250.247 376.684 250.34C376.177 250.447 375.604 250.5 374.964 250.5ZM382.827 228V222.1C382.827 220.58 382.52 219.467 381.907 218.76C381.294 218.04 380.3 217.68 378.927 217.68C377.607 217.68 376.634 218.02 376.007 218.7C375.367 219.367 375.047 220.387 375.047 221.76V224.6H369.947V222C369.947 219.173 370.72 217.067 372.267 215.68C373.8 214.293 376.02 213.6 378.927 213.6C380.807 213.6 382.42 213.927 383.767 214.58C385.114 215.22 386.147 216.187 386.867 217.48C387.587 218.76 387.947 220.373 387.947 222.32V228H382.827ZM382.827 240.44V226.04H387.947V240.44H382.827ZM382.827 250V238.06H387.947V250H382.827ZM158.909 290.62V272.08L164.009 271.46V290.62H158.909ZM152.489 304.5C148.929 304.5 146.296 303.873 144.589 302.62C142.896 301.367 142.049 299.6 142.049 297.32V297.02C142.049 295.393 142.462 294.127 143.289 293.22C144.116 292.313 145.382 291.76 147.089 291.56V291.46C145.369 291.247 144.102 290.707 143.289 289.84C142.476 288.973 142.069 287.707 142.069 286.04V285.76C142.069 283.6 142.762 282.013 144.149 281C145.549 279.987 147.536 279.48 150.109 279.48C151.136 279.48 152.049 279.56 152.849 279.72C153.662 279.867 154.342 280.047 154.889 280.26L155.289 284.32C154.796 284.133 154.229 283.98 153.589 283.86C152.949 283.727 152.216 283.66 151.389 283.66C150.056 283.66 149.049 283.893 148.369 284.36C147.689 284.827 147.349 285.547 147.349 286.52V286.68C147.349 287.573 147.629 288.233 148.189 288.66C148.749 289.073 149.656 289.307 150.909 289.36L154.309 289.48V293.5L150.949 293.64C149.696 293.68 148.776 293.94 148.189 294.42C147.616 294.887 147.329 295.613 147.329 296.6V296.8C147.329 297.96 147.736 298.82 148.549 299.38C149.376 299.927 150.689 300.2 152.489 300.2C154.636 300.2 156.242 299.72 157.309 298.76C158.376 297.787 158.909 296.32 158.909 294.36V290.08H164.009V294.46C164.009 297.82 163.042 300.333 161.109 302C159.189 303.667 156.316 304.5 152.489 304.5ZM185.459 294.44V280.04H190.559V294.44H185.459ZM185.459 304V292.06H190.559V304H185.459ZM167.379 289.82V285.62H180.699L175.799 289.08L167.379 289.82ZM174.499 304C173.886 302.96 173.339 301.853 172.859 300.68C172.392 299.507 172.019 298.307 171.739 297.08C171.472 295.853 171.339 294.66 171.339 293.5C171.339 292.433 171.512 291.507 171.859 290.72C172.219 289.933 172.732 289.26 173.399 288.7C174.079 288.127 174.892 287.64 175.839 287.24C176.212 287.067 176.572 286.853 176.919 286.6C177.279 286.347 177.659 286.12 178.059 285.92C178.459 285.72 178.886 285.62 179.339 285.62H187.959V289.82H180.939C179.446 289.82 178.352 290.167 177.659 290.86C176.966 291.553 176.619 292.62 176.619 294.06C176.619 295.02 176.752 296.06 177.019 297.18C177.299 298.287 177.686 299.42 178.179 300.58C178.672 301.74 179.219 302.88 179.819 304H174.499ZM199.455 296.28L194.315 295.3V291.48L199.595 291.46C201.155 291.447 202.335 291.147 203.135 290.56C203.935 289.96 204.335 289.027 204.335 287.76V287.3C204.335 286.087 203.975 285.187 203.255 284.6C202.535 284.013 201.502 283.72 200.155 283.72C199.208 283.72 198.302 283.82 197.435 284.02C196.568 284.207 195.775 284.44 195.055 284.72L195.435 280.58C196.155 280.273 196.995 280.013 197.955 279.8C198.928 279.587 200.042 279.48 201.295 279.48C203.042 279.48 204.535 279.76 205.775 280.32C207.028 280.867 207.982 281.7 208.635 282.82C209.302 283.927 209.635 285.34 209.635 287.06V287.78C209.635 290.22 208.948 292.1 207.575 293.42C206.215 294.727 204.242 295.38 201.655 295.38H199.535L199.455 296.28ZM206.175 304.5C204.562 304.5 203.128 304.233 201.875 303.7C200.635 303.153 199.602 302.307 198.775 301.16C197.962 300 197.382 298.493 197.035 296.64L196.475 293.64L201.355 293.2L201.895 295.84C202.215 297.44 202.835 298.573 203.755 299.24C204.688 299.893 205.808 300.22 207.115 300.22C207.635 300.22 208.135 300.173 208.615 300.08C209.095 299.973 209.455 299.88 209.695 299.8L209.295 303.98C208.868 304.127 208.402 304.247 207.895 304.34C207.388 304.447 206.815 304.5 206.175 304.5ZM222.448 288.78V285.62C222.448 285.007 222.334 284.553 222.108 284.26C221.894 283.953 221.521 283.8 220.988 283.8C220.788 283.8 220.581 283.82 220.368 283.86C220.168 283.9 219.974 283.947 219.788 284L220.088 280.24C220.488 280.093 220.921 279.98 221.388 279.9C221.854 279.82 222.354 279.78 222.888 279.78C224.461 279.78 225.634 280.2 226.408 281.04C227.181 281.867 227.568 283.153 227.568 284.9V288.78H222.448ZM221.688 304V303.18L235.948 293.48L236.008 297.36L228.768 304H221.688ZM235.648 296.36V280.04H240.748V296.36H235.648ZM235.728 304V294.88H240.748V304H235.728ZM229.648 298.42C228.008 298.42 226.654 298.133 225.588 297.56C224.521 296.973 223.728 296.107 223.208 294.96C222.701 293.813 222.448 292.393 222.448 290.7V287.7H227.568V290.4C227.568 291.88 227.894 292.973 228.548 293.68C229.201 294.373 230.168 294.72 231.448 294.72C232.208 294.72 232.868 294.6 233.428 294.36C233.988 294.12 234.514 293.82 235.008 293.46L235.848 292.86L235.948 295.02L233.368 297.3C232.888 297.607 232.341 297.873 231.728 298.1C231.128 298.313 230.434 298.42 229.648 298.42ZM253.311 300.44C251.471 300.44 249.944 300.093 248.731 299.4C247.531 298.707 246.631 297.7 246.031 296.38C245.444 295.047 245.151 293.44 245.151 291.56V288.96C245.151 285.973 245.838 283.74 247.211 282.26C248.584 280.78 250.611 280.04 253.291 280.04C254.051 280.04 254.738 280.1 255.351 280.22C255.978 280.327 256.498 280.46 256.911 280.62L257.311 284.68C256.978 284.573 256.591 284.487 256.151 284.42C255.724 284.353 255.224 284.32 254.651 284.32C253.198 284.32 252.124 284.727 251.431 285.54C250.751 286.34 250.411 287.547 250.411 289.16V291.28C250.411 292.88 250.784 294.08 251.531 294.88C252.291 295.667 253.431 296.06 254.951 296.06C256.311 296.06 257.398 295.767 258.211 295.18C259.038 294.593 259.558 293.807 259.771 292.82L259.931 296.74H259.491C259.264 297.46 258.891 298.1 258.371 298.66C257.864 299.22 257.191 299.66 256.351 299.98C255.524 300.287 254.511 300.44 253.311 300.44ZM259.711 294.44V280.04H264.811V294.44H259.711ZM259.711 304V292.06H264.811V304H259.711ZM260.936 317.92C258.696 317.92 256.889 317.393 255.516 316.34C254.156 315.3 253.476 313.787 253.476 311.8V311.52C253.476 309.467 254.089 307.933 255.316 306.92C256.556 305.92 258.443 305.42 260.976 305.42H265.156V309.14H261.536C260.309 309.14 259.416 309.333 258.856 309.72C258.296 310.107 258.016 310.707 258.016 311.52V311.68C258.016 312.48 258.323 313.073 258.936 313.46C259.549 313.86 260.449 314.06 261.636 314.06C262.596 314.06 263.516 313.947 264.396 313.72C265.289 313.493 266.109 313.18 266.856 312.78L266.496 316.78C265.763 317.153 264.943 317.433 264.036 317.62C263.129 317.82 262.096 317.92 260.936 317.92ZM270.054 280.94C270.054 280.567 270.054 280.24 270.054 279.96C270.054 279.68 270.054 279.393 270.054 279.1C270.054 278.793 270.054 278.447 270.054 278.06C270.054 275.713 270.547 273.767 271.534 272.22C272.534 270.673 273.96 269.52 275.814 268.76C277.68 267.987 279.9 267.6 282.474 267.6C285.047 267.6 287.454 267.947 289.694 268.64C291.934 269.333 293.96 270.307 295.774 271.56C297.587 272.813 299.127 274.273 300.394 275.94L296.914 278.68C295.78 277.307 294.46 276.107 292.954 275.08C291.447 274.04 289.814 273.233 288.054 272.66C286.307 272.073 284.474 271.78 282.554 271.78C280.927 271.78 279.56 272.007 278.454 272.46C277.36 272.9 276.54 273.587 275.994 274.52C275.447 275.44 275.174 276.62 275.174 278.06C275.174 278.367 275.174 278.66 275.174 278.94C275.174 279.207 275.174 279.5 275.174 279.82C275.174 280.127 275.174 280.5 275.174 280.94H270.054ZM270.054 294.44V280.04H275.174V294.44H270.054ZM270.054 304V292.06H275.174V304H270.054ZM296.865 294.44V280.04H301.965V294.44H296.865ZM296.865 304V292.06H301.965V304H296.865ZM278.785 289.82V285.62H292.105L287.205 289.08L278.785 289.82ZM285.905 304C285.292 302.96 284.745 301.853 284.265 300.68C283.798 299.507 283.425 298.307 283.145 297.08C282.878 295.853 282.745 294.66 282.745 293.5C282.745 292.433 282.918 291.507 283.265 290.72C283.625 289.933 284.138 289.26 284.805 288.7C285.485 288.127 286.298 287.64 287.245 287.24C287.618 287.067 287.978 286.853 288.325 286.6C288.685 286.347 289.065 286.12 289.465 285.92C289.865 285.72 290.292 285.62 290.745 285.62H299.365V289.82H292.345C290.852 289.82 289.758 290.167 289.065 290.86C288.372 291.553 288.025 292.62 288.025 294.06C288.025 295.02 288.158 296.06 288.425 297.18C288.705 298.287 289.092 299.42 289.585 300.58C290.078 301.74 290.625 302.88 291.225 304H285.905ZM332.592 294.44V280.04H337.712V294.44H332.592ZM332.592 304V292.06H337.712V304H332.592ZM318.472 295.8L313.592 294.86V291.06L318.272 291.04C319.618 291.013 320.625 290.72 321.292 290.16C321.958 289.587 322.292 288.687 322.292 287.46V287.02C322.292 285.9 321.998 285.073 321.412 284.54C320.825 283.993 319.992 283.72 318.912 283.72C318.058 283.72 317.238 283.82 316.452 284.02C315.678 284.207 314.965 284.433 314.312 284.7L314.692 280.56C315.332 280.253 316.085 280 316.952 279.8C317.832 279.587 318.838 279.48 319.972 279.48C322.345 279.48 324.185 280.087 325.492 281.3C326.798 282.5 327.452 284.34 327.452 286.82V287.58C327.452 289.94 326.845 291.76 325.632 293.04C324.418 294.307 322.658 294.94 320.352 294.94H318.512L318.472 295.8ZM325.472 304.5C323.925 304.5 322.532 304.227 321.292 303.68C320.065 303.133 319.038 302.287 318.212 301.14C317.385 299.98 316.805 298.48 316.472 296.64L315.892 293.48L320.692 293.02L321.252 295.82C321.465 296.873 321.812 297.727 322.292 298.38C322.785 299.02 323.378 299.487 324.072 299.78C324.765 300.073 325.532 300.22 326.372 300.22C326.825 300.22 327.238 300.187 327.612 300.12C327.985 300.053 328.298 299.973 328.552 299.88L328.152 304.08C327.778 304.2 327.372 304.3 326.932 304.38C326.505 304.46 326.018 304.5 325.472 304.5ZM329.272 293.64C328.418 293.64 327.578 293.593 326.752 293.5C325.925 293.393 325.158 293.247 324.452 293.06L324.852 289.42H332.132C332.665 289.42 333.245 289.42 333.872 289.42C334.512 289.42 335.105 289.42 335.652 289.42L336.012 293.62L329.272 293.64ZM360.984 294.44V280.04H366.104V294.44H360.984ZM360.984 304V292.06H366.104V304H360.984ZM352.064 303.94C348.811 303.94 346.351 303.08 344.684 301.36C343.031 299.64 342.204 297.1 342.204 293.74V290C342.204 286.64 343.018 284.113 344.644 282.42C346.284 280.727 348.684 279.88 351.844 279.88C352.818 279.88 353.704 279.953 354.504 280.1C355.318 280.233 356.018 280.413 356.604 280.64L357.024 284.72C356.518 284.573 355.938 284.453 355.284 284.36C354.631 284.253 353.898 284.2 353.084 284.2C351.204 284.2 349.798 284.7 348.864 285.7C347.944 286.7 347.484 288.227 347.484 290.28V293.46C347.484 295.527 347.951 297.073 348.884 298.1C349.831 299.113 351.244 299.62 353.124 299.62C354.004 299.62 354.784 299.553 355.464 299.42C356.144 299.287 356.758 299.113 357.304 298.9L356.904 303.18C356.278 303.407 355.578 303.593 354.804 303.74C354.031 303.873 353.118 303.94 352.064 303.94ZM351.724 294.8L351.944 290.16L363.784 287L363.664 291.62L351.724 294.8ZM375.663 297.4C374.543 297.4 373.529 297.287 372.623 297.06C371.729 296.833 370.976 296.553 370.363 296.22L369.963 291.92C370.603 292.253 371.283 292.527 372.003 292.74C372.736 292.953 373.569 293.06 374.503 293.06C375.849 293.06 376.856 292.687 377.523 291.94C378.203 291.193 378.543 290.08 378.543 288.6V288.2C378.543 286.72 378.209 285.613 377.543 284.88C376.876 284.147 375.889 283.78 374.583 283.78C373.716 283.78 372.929 283.887 372.223 284.1C371.529 284.313 370.889 284.58 370.303 284.9L370.703 280.64C371.329 280.307 372.069 280.033 372.923 279.82C373.789 279.593 374.749 279.48 375.803 279.48C377.496 279.48 378.943 279.787 380.143 280.4C381.343 281 382.256 281.933 382.883 283.2C383.523 284.453 383.843 286.067 383.843 288.04V288.76C383.843 291.733 383.123 293.92 381.683 295.32C380.256 296.707 378.249 297.4 375.663 297.4ZM380.163 308.4C379.176 307.72 378.349 307.027 377.683 306.32C377.016 305.613 376.389 304.733 375.803 303.68L377.123 301.06L382.643 298.5C383.429 298.127 384.183 297.8 384.903 297.52C385.623 297.227 386.383 296.953 387.183 296.7C387.983 296.433 388.876 296.167 389.863 295.9L390.843 299.04L380.683 303.88L381.403 302.02L383.623 306.7L380.163 308.4ZM388.343 304.5V297.3H393.243V304.5H388.343ZM388.123 298.08V280.04H393.243V298.08H388.123ZM239.721 348.44V334.04H244.841V348.44H239.721ZM239.721 358V346.06H244.841V358H239.721ZM225.601 349.8L220.721 348.86V345.06L225.401 345.04C226.747 345.013 227.754 344.72 228.421 344.16C229.087 343.587 229.421 342.687 229.421 341.46V341.02C229.421 339.9 229.127 339.073 228.541 338.54C227.954 337.993 227.121 337.72 226.041 337.72C225.187 337.72 224.367 337.82 223.581 338.02C222.807 338.207 222.094 338.433 221.441 338.7L221.821 334.56C222.461 334.253 223.214 334 224.081 333.8C224.961 333.587 225.967 333.48 227.101 333.48C229.474 333.48 231.314 334.087 232.621 335.3C233.927 336.5 234.581 338.34 234.581 340.82V341.58C234.581 343.94 233.974 345.76 232.761 347.04C231.547 348.307 229.787 348.94 227.481 348.94H225.641L225.601 349.8ZM232.601 358.5C231.054 358.5 229.661 358.227 228.421 357.68C227.194 357.133 226.167 356.287 225.341 355.14C224.514 353.98 223.934 352.48 223.601 350.64L223.021 347.48L227.821 347.02L228.381 349.82C228.594 350.873 228.941 351.727 229.421 352.38C229.914 353.02 230.507 353.487 231.201 353.78C231.894 354.073 232.661 354.22 233.501 354.22C233.954 354.22 234.367 354.187 234.741 354.12C235.114 354.053 235.427 353.973 235.681 353.88L235.281 358.08C234.907 358.2 234.501 358.3 234.061 358.38C233.634 358.46 233.147 358.5 232.601 358.5ZM236.401 347.64C235.547 347.64 234.707 347.593 233.881 347.5C233.054 347.393 232.287 347.247 231.581 347.06L231.981 343.42H239.261C239.794 343.42 240.374 343.42 241.001 343.42C241.641 343.42 242.234 343.42 242.781 343.42L243.141 347.62L236.401 347.64ZM240.57 371.92C238.57 371.92 236.803 371.58 235.27 370.9C233.75 370.22 232.457 369.167 231.39 367.74C230.337 366.313 229.497 364.5 228.87 362.3H233.69C234.37 364.327 235.263 365.8 236.37 366.72C237.49 367.653 238.877 368.12 240.53 368.12C241.65 368.12 242.45 367.9 242.93 367.46C243.41 367.02 243.65 366.427 243.65 365.68V365.52C243.65 364.8 243.43 364.227 242.99 363.8C242.55 363.387 241.817 363.18 240.79 363.18C240.123 363.18 239.463 363.26 238.81 363.42C238.157 363.58 237.51 363.8 236.87 364.08L237.27 360.22C237.91 359.953 238.577 359.753 239.27 359.62C239.963 359.487 240.73 359.42 241.57 359.42C243.823 359.42 245.49 359.967 246.57 361.06C247.663 362.153 248.21 363.613 248.21 365.44V365.7C248.21 367.62 247.597 369.133 246.37 370.24C245.143 371.36 243.21 371.92 240.57 371.92ZM261.513 351.56C262.966 351.56 264.126 351.253 264.993 350.64C265.873 350.027 266.453 349.253 266.733 348.32L266.873 352.2H266.373C266.133 352.907 265.753 353.54 265.233 354.1C264.726 354.66 264.046 355.1 263.193 355.42C262.34 355.74 261.273 355.9 259.993 355.9C257.393 355.9 255.393 355.267 253.993 354C252.606 352.733 251.813 350.84 251.613 348.32L251.493 346.94L256.673 346.5L256.793 347.88C256.873 349.08 257.32 349.993 258.133 350.62C258.946 351.247 260.073 351.56 261.513 351.56ZM266.573 348.44V334.04H271.693V348.44H266.573ZM266.573 358V346.06H271.693V358H266.573ZM252.993 349.06L248.513 348.22V344.46L252.533 344.42C253.84 344.42 254.833 344.16 255.513 343.64C256.193 343.107 256.533 342.287 256.533 341.18V340.78C256.533 339.727 256.233 338.947 255.633 338.44C255.046 337.92 254.193 337.66 253.073 337.66C252.3 337.66 251.58 337.747 250.913 337.92C250.246 338.08 249.613 338.293 249.013 338.56L249.413 334.46C250.013 334.18 250.733 333.947 251.573 333.76C252.426 333.573 253.366 333.48 254.393 333.48C256.713 333.48 258.506 334.073 259.773 335.26C261.053 336.433 261.693 338.227 261.693 340.64V341.28C261.693 343.52 261.1 345.24 259.913 346.44C258.726 347.64 257.046 348.247 254.873 348.26H253.213L252.993 349.06ZM289.468 348.44V334.04H294.568V348.44H289.468ZM289.468 358V346.06H294.568V358H289.468ZM277.968 353.76C277.555 352.64 277.181 351.487 276.848 350.3C276.515 349.1 276.241 347.847 276.028 346.54C275.815 345.22 275.661 343.813 275.568 342.32L277.888 340.88H282.308V353.76H277.968ZM280.948 345.08V340.88H291.368L291.728 345.08H280.948ZM299.8 348.44V334.04H304.92V348.44H299.8ZM299.8 358V346.06H304.92V358H299.8ZM301.46 332.6C299.22 331.48 296.966 330.353 294.7 329.22C292.433 328.073 290.18 326.927 287.94 325.78L290.62 321.3C292.74 322.673 294.86 324.053 296.98 325.44C299.1 326.813 301.213 328.187 303.32 329.56L301.46 332.6ZM311.951 358.48C310.965 358.48 310.238 358.22 309.771 357.7C309.305 357.18 309.071 356.46 309.071 355.54V355.34C309.071 354.407 309.305 353.68 309.771 353.16C310.238 352.64 310.965 352.38 311.951 352.38C312.925 352.38 313.651 352.64 314.131 353.16C314.611 353.68 314.851 354.407 314.851 355.34V355.54C314.851 356.46 314.611 357.18 314.131 357.7C313.651 358.22 312.925 358.48 311.951 358.48Z" fill="white"/>
<defs>
<filter id="filter0_d_216_482" x="0" y="39" width="526" height="169.5" filterUnits="userSpaceOnUse" color-interpolation-filters="sRGB">
<feFlood flood-opacity="0" result="BackgroundImageFix"/>
<feColorMatrix in="SourceAlpha" type="matrix" values="0 0 0 0 0 0 0 0 0 0 0 0 0 0 0 0 0 0 127 0" result="hardAlpha"/>
<feOffset dy="12"/>
<feGaussianBlur stdDeviation="12"/>
<feComposite in2="hardAlpha" operator="out"/>
<feColorMatrix type="matrix" values="0 0 0 0 0 0 0 0 0 0 0 0 0 0 0 0 0 0 0.12 0"/>
<feBlend mode="normal" in2="BackgroundImageFix" result="effect1_dropShadow_216_482"/>
<feBlend mode="normal" in="SourceGraphic" in2="effect1_dropShadow_216_482" result="shape"/>
</filter>
</defs>
</svg>
