<svg width="526" height="410" viewBox="0 0 526 410" fill="none" xmlns="http://www.w3.org/2000/svg">
<circle cx="265" cy="205" r="205" fill="#A9541E"/>
<g filter="url(#filter0_d_216_484)">
<path d="M24 79C24 63.536 36.536 51 52 51H474C489.464 51 502 63.536 502 79V104C502 119.464 489.464 132 474 132H52C36.536 132 24 119.464 24 104V79Z" fill="#FB7F01"/>
<path d="M24.5 92V172.5C34.4988 145.927 44.6249 136.715 72 132L126 96.5L24.5 92Z" fill="#FB7F01"/>
</g>
<path d="M400.903 110.024C399.527 110.024 398.511 109.626 397.855 108.831C397.215 108.035 396.895 106.923 396.895 105.494V105.196C396.895 103.786 397.215 102.674 397.855 101.86C398.511 101.046 399.527 100.639 400.903 100.639C402.247 100.639 403.247 101.046 403.903 101.86C404.559 102.674 404.887 103.786 404.887 105.196V105.494C404.887 106.923 404.559 108.035 403.903 108.831C403.247 109.626 402.247 110.024 400.903 110.024ZM400.903 92.9905C399.527 92.9905 398.511 92.5926 397.855 91.797C397.215 91.0014 396.895 89.8893 396.895 88.4608V88.1625C396.895 86.7521 397.215 85.64 397.855 84.8263C398.511 84.0126 399.527 83.6057 400.903 83.6057C402.247 83.6057 403.247 84.0126 403.903 84.8263C404.559 85.64 404.887 86.7521 404.887 88.1625V88.4608C404.887 89.8893 404.559 91.0014 403.903 91.797C403.247 92.5926 402.247 92.9905 400.903 92.9905Z" fill="white"/>
<path d="M376.1 109.292V93.6143C376.1 92.6379 375.988 91.797 375.764 91.0918C375.54 90.3685 375.164 89.817 374.636 89.4373C374.108 89.0576 373.388 88.8677 372.476 88.8677C371.724 88.8677 371.06 89.0214 370.484 89.3288C369.908 89.6181 369.42 90.025 369.02 90.5494C368.636 91.0557 368.348 91.6343 368.156 92.2853L367.028 88.4066H368.276C368.532 87.1951 368.948 86.1101 369.524 85.1518C370.116 84.1934 370.924 83.434 371.948 82.8734C372.972 82.2948 374.268 82.0055 375.836 82.0055C377.596 82.0055 379.036 82.3942 380.156 83.1718C381.276 83.9312 382.1 85.0704 382.628 86.5893C383.172 88.1082 383.444 90.0069 383.444 92.2853V109.292H376.1ZM360.932 109.292V82.6293H368.228L367.988 89.3017L368.276 90.0883V109.292H360.932Z" fill="white"/>
<path d="M348.675 109.292V82.6293H356.019V109.292H348.675ZM352.347 80.1068C350.971 80.1068 349.971 79.7542 349.347 79.049C348.723 78.3257 348.411 77.3583 348.411 76.1468V75.9569C348.411 74.7454 348.723 73.787 349.347 73.0818C349.971 72.3766 350.971 72.024 352.347 72.024C353.691 72.024 354.675 72.3766 355.299 73.0818C355.939 73.787 356.259 74.7454 356.259 75.9569V76.1468C356.259 77.3764 355.939 78.3438 355.299 79.049C354.675 79.7542 353.691 80.1068 352.347 80.1068Z" fill="white"/>
<path d="M311.406 109.292L306.006 74.6279H313.638L316.542 98.4151L317.046 102.212H317.454L318.006 98.4151L321.15 75.4145H330.342L333.462 98.4151L333.99 102.212H334.422L334.95 98.4151L337.902 74.6279H345.438L340.11 109.292H329.43L326.766 88.488L325.926 82.3852H325.542L324.702 88.488L322.086 109.292H311.406Z" fill="white"/>
<path d="M285.909 109.292V73.4615H293.253V109.292H285.909Z" fill="white"/>
<path d="M273.534 109.292V73.4615H280.878V109.292H273.534Z" fill="white"/>
<path d="M261.206 109.292V82.6293H268.55V109.292H261.206ZM264.878 80.1068C263.502 80.1068 262.502 79.7542 261.878 79.049C261.254 78.3257 260.942 77.3583 260.942 76.1468V75.9569C260.942 74.7454 261.254 73.787 261.878 73.0818C262.502 72.3766 263.502 72.024 264.878 72.024C266.222 72.024 267.206 72.3766 267.83 73.0818C268.47 73.787 268.79 74.7454 268.79 75.9569V76.1468C268.79 77.3764 268.47 78.3438 267.83 79.049C267.206 79.7542 266.222 80.1068 264.878 80.1068Z" fill="white"/>
<path d="M223.937 109.292L218.537 74.6279H226.169L229.073 98.4151L229.577 102.212H229.985L230.537 98.4151L233.681 75.4145H242.873L245.993 98.4151L246.521 102.212H246.953L247.481 98.4151L250.433 74.6279H257.969L252.641 109.292H241.961L239.297 88.488L238.457 82.3852H238.073L237.233 88.488L234.617 109.292H223.937Z" fill="white"/>
<path d="M198.441 109.292V73.4615H205.785V109.292H198.441Z" fill="white"/>
<path d="M186.066 109.292V73.4615H193.41V109.292H186.066Z" fill="white"/>
<path d="M173.738 109.292V82.6293H181.082V109.292H173.738ZM177.41 80.1068C176.034 80.1068 175.034 79.7542 174.41 79.049C173.786 78.3257 173.474 77.3583 173.474 76.1468V75.9569C173.474 74.7454 173.786 73.787 174.41 73.0818C175.034 72.3766 176.034 72.024 177.41 72.024C178.754 72.024 179.738 72.3766 180.362 73.0818C181.002 73.787 181.322 74.7454 181.322 75.9569V76.1468C181.322 77.3764 181.002 78.3438 180.362 79.049C179.738 79.7542 178.754 80.1068 177.41 80.1068Z" fill="white"/>
<path d="M162.675 109.292L155.715 97.7913H153.795V92.909H155.715L162.483 82.6292H170.907L161.931 95.8655V94.2923L171.243 109.292H162.675ZM147.651 109.292V73.4615H154.947V109.292H147.651Z" fill="white"/>
<path d="M131.593 110.024C130.169 110.024 128.833 109.915 127.585 109.698C126.353 109.5 125.225 109.237 124.201 108.912C123.193 108.568 122.305 108.216 121.537 107.854L120.889 100.043C122.153 100.712 123.649 101.335 125.377 101.914C127.105 102.475 128.937 102.755 130.873 102.755C132.745 102.755 134.073 102.493 134.857 101.968C135.657 101.426 136.057 100.585 136.057 99.4458V99.2559C136.057 98.4965 135.873 97.8817 135.505 97.4115C135.153 96.9233 134.553 96.4803 133.705 96.0825C132.873 95.6666 131.745 95.2236 130.321 94.7535C128.177 94.0302 126.385 93.2255 124.945 92.3395C123.521 91.4534 122.457 90.3504 121.753 89.0304C121.049 87.6923 120.697 86.0016 120.697 83.9583V83.6057C120.697 80.4594 121.641 78.0544 123.529 76.3909C125.433 74.7273 128.225 73.8955 131.905 73.8955C134.113 73.8955 136.017 74.1125 137.617 74.5465C139.233 74.9804 140.601 75.4958 141.721 76.0925L142.369 83.3616C141.137 82.6926 139.737 82.132 138.169 81.6799C136.617 81.2098 134.953 80.9747 133.177 80.9747C131.929 80.9747 130.945 81.0923 130.225 81.3273C129.521 81.5624 129.025 81.906 128.737 82.358C128.449 82.792 128.305 83.3254 128.305 83.9583V84.0668C128.305 84.7178 128.465 85.2874 128.785 85.7756C129.121 86.2638 129.713 86.7339 130.561 87.186C131.425 87.6381 132.649 88.1263 134.233 88.6507C136.361 89.3559 138.121 90.1153 139.513 90.929C140.921 91.7247 141.969 92.7644 142.657 94.0482C143.361 95.314 143.713 97.0047 143.713 99.1203V99.5543C143.713 103.044 142.713 105.666 140.713 107.42C138.713 109.156 135.673 110.024 131.593 110.024Z" fill="white"/>
<path d="M136.951 211.54C134.124 211.54 131.944 210.893 130.411 209.6C128.891 208.307 128.018 206.373 127.791 203.8L127.651 202.2L132.571 201.64L132.691 203.28C132.811 204.627 133.231 205.627 133.951 206.28C134.684 206.933 135.678 207.26 136.931 207.26C138.198 207.26 139.164 206.913 139.831 206.22C140.511 205.513 140.851 204.453 140.851 203.04V192.8H145.811V203.14C145.811 205.913 145.058 208.007 143.551 209.42C142.044 210.833 139.844 211.54 136.951 211.54ZM129.011 204.36L124.671 203.6V199.8L128.271 199.78C129.484 199.767 130.404 199.487 131.031 198.94C131.671 198.38 131.991 197.533 131.991 196.4V195.86C131.991 194.78 131.718 193.98 131.171 193.46C130.638 192.927 129.871 192.66 128.871 192.66C128.151 192.66 127.478 192.74 126.851 192.9C126.238 193.06 125.658 193.267 125.111 193.52L125.491 189.48C126.038 189.187 126.691 188.947 127.451 188.76C128.224 188.573 129.064 188.48 129.971 188.48C132.211 188.48 133.951 189.067 135.191 190.24C136.444 191.4 137.071 193.18 137.071 195.58V196.52C137.071 198.787 136.498 200.52 135.351 201.72C134.218 202.92 132.611 203.52 130.531 203.52H129.031L129.011 204.36ZM150.651 203.44V189.04H155.751V203.44H150.651ZM150.651 213V201.06H155.751V213H150.651ZM143.651 202.8V198.6H152.651L153.011 202.8H143.651ZM152.291 187.6C150.051 186.48 147.798 185.353 145.531 184.22C143.264 183.073 141.011 181.927 138.771 180.78L141.451 176.3C143.571 177.673 145.691 179.053 147.811 180.44C149.931 181.813 152.051 183.187 154.171 184.56L152.291 187.6ZM165.491 204.74L160.531 203.88V195.2C160.531 192.973 161.078 191.3 162.171 190.18C163.278 189.047 164.878 188.48 166.971 188.48C168.038 188.48 168.978 188.62 169.791 188.9C170.604 189.167 171.358 189.567 172.051 190.1C172.744 190.633 173.444 191.307 174.151 192.12L179.191 197.76L175.251 200.36L170.291 194.56C169.864 194.067 169.484 193.68 169.151 193.4C168.831 193.12 168.518 192.92 168.211 192.8C167.918 192.68 167.598 192.62 167.251 192.62C166.704 192.62 166.271 192.813 165.951 193.2C165.644 193.573 165.491 194.167 165.491 194.98V204.74ZM176.611 213.5C173.891 213.5 171.811 212.94 170.371 211.82C168.944 210.7 168.231 209.04 168.231 206.84V206.62C168.231 205.62 168.384 204.733 168.691 203.96C168.998 203.173 169.438 202.413 170.011 201.68C170.584 200.947 171.271 200.167 172.071 199.34L174.631 196.74L178.091 199.34L175.691 201.88C174.971 202.64 174.404 203.34 173.991 203.98C173.591 204.62 173.391 205.38 173.391 206.26V206.48C173.391 207.44 173.664 208.16 174.211 208.64C174.758 209.107 175.558 209.34 176.611 209.34C177.664 209.34 178.458 209.107 178.991 208.64C179.524 208.16 179.791 207.44 179.791 206.48V206.26C179.791 205.407 179.578 204.66 179.151 204.02C178.738 203.38 178.184 202.673 177.491 201.9L175.311 199.44L179.071 197.02L181.191 199.4C181.938 200.227 182.591 201.007 183.151 201.74C183.711 202.473 184.151 203.227 184.471 204C184.791 204.76 184.951 205.633 184.951 206.62V206.84C184.951 209.04 184.238 210.7 182.811 211.82C181.398 212.94 179.331 213.5 176.611 213.5ZM180.091 200.44L173.631 200.14V197.04L182.331 196.52H189.171L189.511 200.44H180.091ZM197.031 211.18C193.964 211.18 191.611 210.373 189.971 208.76C188.344 207.147 187.531 204.9 187.531 202.02C187.531 201.46 187.544 200.953 187.571 200.5C187.598 200.033 187.638 199.58 187.691 199.14H191.091C192.331 199.127 193.278 198.88 193.931 198.4C194.584 197.907 194.911 197.127 194.911 196.06V195.64C194.911 194.627 194.631 193.88 194.071 193.4C193.524 192.907 192.738 192.66 191.711 192.66C191.004 192.66 190.344 192.74 189.731 192.9C189.118 193.06 188.544 193.267 188.011 193.52L188.371 189.44C188.944 189.147 189.611 188.913 190.371 188.74C191.131 188.567 191.984 188.48 192.931 188.48C195.184 188.48 196.931 189.053 198.171 190.2C199.424 191.347 200.051 193.107 200.051 195.48V196.1C200.051 198.273 199.471 199.933 198.311 201.08C197.151 202.227 195.511 202.8 193.391 202.8H190.651L192.751 199.98C192.738 200.367 192.724 200.707 192.711 201C192.698 201.28 192.691 201.633 192.691 202.06C192.691 203.593 193.184 204.773 194.171 205.6C195.158 206.427 196.584 206.84 198.451 206.84C200.184 206.84 201.544 206.527 202.531 205.9C203.531 205.26 204.204 204.413 204.551 203.36L204.671 207.24H204.211C203.998 207.973 203.604 208.64 203.031 209.24C202.471 209.84 201.698 210.313 200.711 210.66C199.738 211.007 198.511 211.18 197.031 211.18ZM204.431 203.44V189.04H209.531V203.44H204.431ZM204.431 213V201.06H209.531V213H204.431ZM205.238 226.92C203.238 226.92 201.471 226.58 199.938 225.9C198.418 225.22 197.125 224.167 196.058 222.74C195.005 221.313 194.165 219.5 193.538 217.3H198.358C199.038 219.327 199.931 220.8 201.038 221.72C202.158 222.653 203.545 223.12 205.198 223.12C206.318 223.12 207.118 222.9 207.598 222.46C208.078 222.02 208.318 221.427 208.318 220.68V220.52C208.318 219.8 208.098 219.227 207.658 218.8C207.218 218.387 206.485 218.18 205.458 218.18C204.791 218.18 204.131 218.26 203.478 218.42C202.825 218.58 202.178 218.8 201.538 219.08L201.938 215.22C202.578 214.953 203.245 214.753 203.938 214.62C204.631 214.487 205.398 214.42 206.238 214.42C208.491 214.42 210.158 214.967 211.238 216.06C212.331 217.153 212.878 218.613 212.878 220.44V220.7C212.878 222.62 212.265 224.133 211.038 225.24C209.811 226.36 207.878 226.92 205.238 226.92ZM221.9 200.24C220.433 200.187 219.167 199.967 218.1 199.58C217.033 199.18 216.213 198.593 215.64 197.82C215.08 197.047 214.8 196.08 214.8 194.92V194.68C214.8 192.627 215.54 191.08 217.02 190.04C218.513 189 220.7 188.48 223.58 188.48C224.927 188.48 226.153 188.6 227.26 188.84C228.367 189.08 229.273 189.36 229.98 189.68L230.44 193.8C229.627 193.507 228.727 193.26 227.74 193.06C226.753 192.847 225.707 192.74 224.6 192.74C223 192.74 221.847 192.993 221.14 193.5C220.433 193.993 220.08 194.707 220.08 195.64V195.8C220.08 196.653 220.413 197.34 221.08 197.86C221.76 198.38 222.9 198.693 224.5 198.8L221.9 200.24ZM222.76 213.5C221.107 213.5 219.633 213.38 218.34 213.14C217.06 212.913 215.96 212.627 215.04 212.28L214.6 207.88C215.667 208.253 216.8 208.56 218 208.8C219.2 209.027 220.513 209.14 221.94 209.14C223.527 209.14 224.72 208.88 225.52 208.36C226.333 207.84 226.74 207.027 226.74 205.92V205.7C226.74 204.753 226.427 204.007 225.8 203.46C225.187 202.9 224.14 202.547 222.66 202.4L225.26 201.08C227.393 201.107 229.053 201.593 230.24 202.54C231.44 203.487 232.04 204.867 232.04 206.68V207.02C232.04 209.207 231.227 210.833 229.6 211.9C227.973 212.967 225.693 213.5 222.76 213.5ZM213.56 204.8V200.5L222.4 199.16L225.48 202.5L213.56 204.8ZM221.16 198.94L233.5 196.44V200.68L222.84 202.26L221.16 198.94ZM225.975 187.6C224.042 186.427 222.095 185.253 220.135 184.08C218.189 182.893 216.242 181.72 214.295 180.56L217.215 176.3C219.015 177.687 220.815 179.08 222.615 180.48C224.415 181.88 226.215 183.28 228.015 184.68L225.975 187.6ZM257.477 203.44V189.04H262.597V203.44H257.477ZM257.477 213V201.06H262.597V213H257.477ZM241.557 206.48L236.137 205.54V201.7L242.577 201.66C244.497 201.647 245.937 201.267 246.897 200.52C247.871 199.76 248.357 198.567 248.357 196.94V195.96C248.357 194.787 248.084 193.913 247.537 193.34C247.004 192.753 246.204 192.46 245.137 192.46C244.071 192.46 243.264 192.74 242.717 193.3C242.171 193.86 241.897 194.7 241.897 195.82V196C241.897 196.507 241.931 197.027 241.997 197.56C242.077 198.093 242.164 198.587 242.257 199.04H237.677C237.464 198.56 237.291 198.02 237.157 197.42C237.037 196.807 236.977 196.193 236.977 195.58V195.42C236.977 193.113 237.664 191.38 239.037 190.22C240.411 189.06 242.444 188.48 245.137 188.48C247.884 188.48 249.964 189.12 251.377 190.4C252.791 191.667 253.497 193.587 253.497 196.16V197.16C253.497 199.893 252.684 201.973 251.057 203.4C249.444 204.827 247.117 205.54 244.077 205.54H241.617L241.557 206.48ZM248.677 213.5C247.037 213.5 245.544 213.233 244.197 212.7C242.851 212.167 241.717 211.293 240.797 210.08C239.891 208.853 239.257 207.207 238.897 205.14L238.697 203.98L243.597 203.2L243.837 204.42C244.091 205.713 244.497 206.707 245.057 207.4C245.631 208.093 246.324 208.573 247.137 208.84C247.951 209.093 248.837 209.22 249.797 209.22C250.451 209.22 251.011 209.18 251.477 209.1C251.944 209.02 252.431 208.907 252.937 208.76L252.537 212.9C252.044 213.073 251.451 213.213 250.757 213.32C250.077 213.44 249.384 213.5 248.677 213.5ZM280.347 203.44V189.04H285.447V203.44H280.347ZM280.347 213V201.06H285.447V213H280.347ZM268.847 208.76C268.434 207.64 268.06 206.487 267.727 205.3C267.394 204.1 267.12 202.847 266.907 201.54C266.694 200.22 266.54 198.813 266.447 197.32L268.767 195.88H273.187V208.76H268.847ZM271.827 200.08V195.88H282.247L282.607 200.08H271.827ZM308.719 203.44V189.04H313.839V203.44H308.719ZM308.719 213V201.06H313.839V213H308.719ZM299.799 212.94C296.545 212.94 294.085 212.08 292.419 210.36C290.765 208.64 289.939 206.1 289.939 202.74V199C289.939 195.64 290.752 193.113 292.379 191.42C294.019 189.727 296.419 188.88 299.579 188.88C300.552 188.88 301.439 188.953 302.239 189.1C303.052 189.233 303.752 189.413 304.339 189.64L304.759 193.72C304.252 193.573 303.672 193.453 303.019 193.36C302.365 193.253 301.632 193.2 300.819 193.2C298.939 193.2 297.532 193.7 296.599 194.7C295.679 195.7 295.219 197.227 295.219 199.28V202.46C295.219 204.527 295.685 206.073 296.619 207.1C297.565 208.113 298.979 208.62 300.859 208.62C301.739 208.62 302.519 208.553 303.199 208.42C303.879 208.287 304.492 208.113 305.039 207.9L304.639 212.18C304.012 212.407 303.312 212.593 302.539 212.74C301.765 212.873 300.852 212.94 299.799 212.94ZM299.459 203.8L299.679 199.16L311.519 196L311.399 200.62L299.459 203.8ZM327.007 189.94C327.007 189.62 327.007 189.32 327.007 189.04C327.007 188.76 327.007 188.467 327.007 188.16C327.007 187.853 327.007 187.513 327.007 187.14C327.007 184.767 327.54 182.807 328.607 181.26C329.687 179.7 331.227 178.533 333.227 177.76C335.24 176.987 337.647 176.6 340.447 176.6C343.753 176.6 346.82 176.96 349.647 177.68C352.473 178.4 354.993 179.367 357.207 180.58C359.433 181.793 361.293 183.16 362.787 184.68L359.687 187.68C358.233 186.333 356.507 185.147 354.507 184.12C352.507 183.08 350.327 182.267 347.967 181.68C345.607 181.08 343.153 180.78 340.607 180.78C338.727 180.78 337.153 181.007 335.887 181.46C334.633 181.9 333.693 182.593 333.067 183.54C332.44 184.473 332.127 185.673 332.127 187.14C332.127 187.433 332.127 187.713 332.127 187.98C332.127 188.247 332.127 188.533 332.127 188.84C332.127 189.147 332.127 189.513 332.127 189.94H327.007ZM327.007 203.44V189.04H332.127V203.44H327.007ZM327.007 213V201.06H332.127V213H327.007ZM340.698 204.8L335.818 203.86V200.06L340.498 200.04C341.845 200.013 342.852 199.72 343.518 199.16C344.185 198.587 344.518 197.687 344.518 196.46V196.02C344.518 194.9 344.225 194.073 343.638 193.54C343.052 192.993 342.218 192.72 341.138 192.72C340.285 192.72 339.465 192.82 338.678 193.02C337.905 193.207 337.192 193.433 336.538 193.7L336.918 189.56C337.558 189.253 338.312 189 339.178 188.8C340.058 188.587 341.065 188.48 342.198 188.48C344.572 188.48 346.412 189.087 347.718 190.3C349.025 191.5 349.678 193.34 349.678 195.82V196.58C349.678 198.94 349.072 200.76 347.858 202.04C346.645 203.307 344.885 203.94 342.578 203.94H340.738L340.698 204.8ZM347.698 213.5C346.152 213.5 344.758 213.227 343.518 212.68C342.292 212.133 341.265 211.287 340.438 210.14C339.612 208.98 339.032 207.48 338.698 205.64L338.118 202.48L342.918 202.02L343.478 204.82C343.692 205.873 344.038 206.727 344.518 207.38C345.012 208.02 345.605 208.487 346.298 208.78C346.992 209.073 347.758 209.22 348.598 209.22C349.052 209.22 349.465 209.187 349.838 209.12C350.212 209.053 350.525 208.973 350.778 208.88L350.378 213.08C350.005 213.2 349.598 213.3 349.158 213.38C348.732 213.46 348.245 213.5 347.698 213.5ZM351.478 202.76C350.625 202.76 349.785 202.713 348.958 202.62C348.132 202.513 347.365 202.373 346.658 202.2L347.058 198.54H360.078C360.585 198.54 361.105 198.573 361.638 198.64C362.172 198.693 362.698 198.76 363.218 198.84C363.752 198.92 364.258 199.013 364.738 199.12L365.678 202.74L351.478 202.76ZM361.378 200.24C359.912 200.187 358.645 199.967 357.578 199.58C356.525 199.18 355.712 198.593 355.138 197.82C354.565 197.047 354.278 196.08 354.278 194.92V194.68C354.278 192.627 355.018 191.08 356.498 190.04C357.992 189 360.178 188.48 363.058 188.48C364.418 188.48 365.645 188.6 366.738 188.84C367.845 189.08 368.758 189.36 369.478 189.68L369.918 193.8C369.105 193.507 368.205 193.26 367.218 193.06C366.232 192.847 365.185 192.74 364.078 192.74C362.492 192.74 361.338 192.993 360.618 193.5C359.912 193.993 359.558 194.707 359.558 195.64V195.8C359.558 196.653 359.898 197.34 360.578 197.86C361.258 198.38 362.392 198.693 363.978 198.8L361.378 200.24ZM362.238 213.5C360.585 213.5 359.118 213.38 357.838 213.14C356.558 212.913 355.458 212.627 354.538 212.28L354.098 207.88C355.152 208.253 356.278 208.56 357.478 208.8C358.678 209.027 359.998 209.14 361.438 209.14C363.012 209.14 364.198 208.88 364.998 208.36C365.812 207.84 366.218 207.027 366.218 205.92V205.7C366.218 204.753 365.905 204.007 365.278 203.46C364.665 202.9 363.618 202.547 362.138 202.4L364.738 201.08C366.872 201.107 368.532 201.593 369.718 202.54C370.918 203.487 371.518 204.867 371.518 206.68V207.02C371.518 209.207 370.705 210.833 369.078 211.9C367.452 212.967 365.172 213.5 362.238 213.5ZM360.638 198.94L372.998 196.44V200.68L362.318 202.26L360.638 198.94ZM394.89 203.44V189.04H400.01V203.44H394.89ZM394.89 213V201.06H400.01V213H394.89ZM385.97 212.94C382.717 212.94 380.257 212.08 378.59 210.36C376.937 208.64 376.11 206.1 376.11 202.74V199C376.11 195.64 376.924 193.113 378.55 191.42C380.19 189.727 382.59 188.88 385.75 188.88C386.724 188.88 387.61 188.953 388.41 189.1C389.224 189.233 389.924 189.413 390.51 189.64L390.93 193.72C390.424 193.573 389.844 193.453 389.19 193.36C388.537 193.253 387.804 193.2 386.99 193.2C385.11 193.2 383.704 193.7 382.77 194.7C381.85 195.7 381.39 197.227 381.39 199.28V202.46C381.39 204.527 381.857 206.073 382.79 207.1C383.737 208.113 385.15 208.62 387.03 208.62C387.91 208.62 388.69 208.553 389.37 208.42C390.05 208.287 390.664 208.113 391.21 207.9L390.81 212.18C390.184 212.407 389.484 212.593 388.71 212.74C387.937 212.873 387.024 212.94 385.97 212.94ZM385.63 203.8L385.85 199.16L397.69 196L397.57 200.62L385.63 203.8ZM127.299 267.5C125.619 267.5 124.106 267.333 122.759 267C121.426 266.653 120.293 266.26 119.359 265.82L118.879 261.18C119.933 261.7 121.106 262.16 122.399 262.56C123.693 262.947 125.086 263.14 126.579 263.14C128.179 263.14 129.359 262.887 130.119 262.38C130.879 261.86 131.259 261.087 131.259 260.06V259.86C131.259 259.273 131.146 258.787 130.919 258.4C130.706 258.013 130.313 257.687 129.739 257.42C129.179 257.14 128.399 256.88 127.399 256.64L125.899 256.32C124.246 255.933 122.913 255.44 121.899 254.84C120.886 254.24 120.153 253.507 119.699 252.64C119.246 251.76 119.019 250.72 119.019 249.52V249.22C119.019 246.993 119.759 245.313 121.239 244.18C122.733 243.047 124.959 242.48 127.919 242.48C129.386 242.48 130.706 242.62 131.879 242.9C133.053 243.167 134.026 243.487 134.799 243.86L135.259 248.14C134.379 247.727 133.386 247.393 132.279 247.14C131.186 246.873 130.033 246.74 128.819 246.74C127.206 246.74 126.046 246.967 125.339 247.42C124.646 247.86 124.299 248.527 124.299 249.42V249.6C124.299 250.093 124.419 250.513 124.659 250.86C124.899 251.207 125.279 251.507 125.799 251.76C126.319 252.013 127.013 252.247 127.879 252.46L129.519 252.86C131.226 253.273 132.593 253.773 133.619 254.36C134.646 254.933 135.386 255.673 135.839 256.58C136.306 257.473 136.539 258.6 136.539 259.96V260.34C136.539 261.98 136.173 263.327 135.439 264.38C134.719 265.433 133.673 266.22 132.299 266.74C130.926 267.247 129.259 267.5 127.299 267.5ZM130.39 241.6C128.456 240.427 126.51 239.253 124.55 238.08C122.603 236.893 120.656 235.72 118.71 234.56L121.63 230.3C123.43 231.687 125.23 233.08 127.03 234.48C128.83 235.88 130.63 237.28 132.43 238.68L130.39 241.6ZM147.686 263.44C145.846 263.44 144.319 263.093 143.106 262.4C141.906 261.707 141.006 260.7 140.406 259.38C139.819 258.047 139.526 256.44 139.526 254.56V251.96C139.526 248.973 140.213 246.74 141.586 245.26C142.959 243.78 144.986 243.04 147.666 243.04C148.426 243.04 149.113 243.1 149.726 243.22C150.353 243.327 150.873 243.46 151.286 243.62L151.686 247.68C151.353 247.573 150.966 247.487 150.526 247.42C150.099 247.353 149.599 247.32 149.026 247.32C147.573 247.32 146.499 247.727 145.806 248.54C145.126 249.34 144.786 250.547 144.786 252.16V254.28C144.786 255.88 145.159 257.08 145.906 257.88C146.666 258.667 147.806 259.06 149.326 259.06C150.686 259.06 151.773 258.767 152.586 258.18C153.413 257.593 153.933 256.807 154.146 255.82L154.306 259.74H153.866C153.639 260.46 153.266 261.1 152.746 261.66C152.239 262.22 151.566 262.66 150.726 262.98C149.899 263.287 148.886 263.44 147.686 263.44ZM154.086 257.44V243.04H159.186V257.44H154.086ZM154.086 267V255.06H159.186V267H154.086ZM182.469 257.44V243.04H187.589V257.44H182.469ZM182.469 267V255.06H187.589V267H182.469ZM173.549 266.94C170.295 266.94 167.835 266.08 166.169 264.36C164.515 262.64 163.689 260.1 163.689 256.74V253C163.689 249.64 164.502 247.113 166.129 245.42C167.769 243.727 170.169 242.88 173.329 242.88C174.302 242.88 175.189 242.953 175.989 243.1C176.802 243.233 177.502 243.413 178.089 243.64L178.509 247.72C178.002 247.573 177.422 247.453 176.769 247.36C176.115 247.253 175.382 247.2 174.569 247.2C172.689 247.2 171.282 247.7 170.349 248.7C169.429 249.7 168.969 251.227 168.969 253.28V256.46C168.969 258.527 169.435 260.073 170.369 261.1C171.315 262.113 172.729 262.62 174.609 262.62C175.489 262.62 176.269 262.553 176.949 262.42C177.629 262.287 178.242 262.113 178.789 261.9L178.389 266.18C177.762 266.407 177.062 266.593 176.289 266.74C175.515 266.873 174.602 266.94 173.549 266.94ZM173.209 257.8L173.429 253.16L185.269 250L185.149 254.62L173.209 257.8ZM192.827 257.44V243.04H197.947V257.44H192.827ZM192.827 267V255.06H197.947V267H192.827ZM194.487 241.6C192.247 240.48 189.994 239.353 187.727 238.22C185.46 237.073 183.207 235.927 180.967 234.78L183.647 230.3C185.767 231.673 187.887 233.053 190.007 234.44C192.127 235.813 194.24 237.187 196.347 238.56L194.487 241.6ZM210.859 262.7C209.219 262.7 207.865 262.393 206.799 261.78C205.732 261.167 204.939 260.26 204.419 259.06C203.912 257.847 203.659 256.36 203.659 254.6V250.94H208.779V254C208.779 255.48 209.105 256.573 209.759 257.28C210.412 257.973 211.379 258.32 212.659 258.32C213.859 258.32 214.812 258.033 215.519 257.46C216.239 256.887 216.712 256.12 216.939 255.16L217.139 259.02H216.639C216.452 259.7 216.119 260.32 215.639 260.88C215.172 261.427 214.539 261.867 213.739 262.2C212.952 262.533 211.992 262.7 210.859 262.7ZM203.659 251.78V248.62C203.659 248.007 203.545 247.553 203.319 247.26C203.105 246.953 202.732 246.8 202.199 246.8C201.999 246.8 201.792 246.82 201.579 246.86C201.379 246.9 201.185 246.947 200.999 247L201.299 243.24C201.699 243.093 202.132 242.98 202.599 242.9C203.065 242.82 203.565 242.78 204.099 242.78C205.672 242.78 206.845 243.2 207.619 244.04C208.392 244.867 208.779 246.153 208.779 247.9V251.78H203.659ZM216.859 257.44V243.04H221.959V257.44H216.859ZM216.859 267V255.06H221.959V267H216.859ZM228.842 255.4V249.04C228.842 248.293 228.702 247.74 228.422 247.38C228.142 247.02 227.682 246.84 227.042 246.84C226.789 246.84 226.535 246.86 226.282 246.9C226.042 246.94 225.809 246.993 225.582 247.06L225.882 243.2C226.349 243.053 226.842 242.947 227.362 242.88C227.895 242.8 228.462 242.76 229.062 242.76C230.689 242.76 231.902 243.207 232.702 244.1C233.515 244.98 233.922 246.36 233.922 248.24V255.38L228.842 255.4ZM229.202 264.58C228.762 263.66 228.369 262.713 228.022 261.74C227.675 260.767 227.389 259.747 227.162 258.68C226.935 257.6 226.782 256.447 226.702 255.22L229.022 253.8H233.742V264.58H229.202ZM232.762 257.72V253.52H242.702L243.082 257.72H232.762ZM241.642 257.44V243.04H246.762V257.44H241.642ZM241.642 267V255.06H246.762V267H241.642ZM243.289 241.6C241.049 240.48 238.796 239.353 236.529 238.22C234.262 237.073 232.009 235.927 229.769 234.78L232.449 230.3C234.569 231.673 236.689 233.053 238.809 234.44C240.929 235.813 243.049 237.187 245.169 238.56L243.289 241.6ZM252.987 264.06C252.573 263.02 252.2 261.953 251.867 260.86C251.547 259.753 251.28 258.593 251.067 257.38C250.853 256.167 250.707 254.88 250.627 253.52L252.947 252.08H257.367V264.06H252.987ZM256.007 256.28V252.08H271.287L271.647 256.28H256.007ZM273.487 267.5C269.993 267.5 267.407 266.86 265.727 265.58C264.06 264.3 263.227 262.433 263.227 259.98V259.56C263.227 258.253 263.467 257.113 263.947 256.14C264.44 255.167 265.233 254.353 266.327 253.7C267.42 253.033 268.853 252.527 270.627 252.18L273.027 251.68C274.04 251.467 274.76 251.16 275.187 250.76C275.627 250.347 275.847 249.827 275.847 249.2V249.1C275.847 248.26 275.513 247.66 274.847 247.3C274.193 246.927 273.12 246.74 271.627 246.74C270.493 246.74 269.367 246.873 268.247 247.14C267.14 247.393 266.1 247.693 265.127 248.04L265.687 243.74C266.42 243.42 267.373 243.133 268.547 242.88C269.72 242.613 271 242.48 272.387 242.48C275.213 242.48 277.373 243.013 278.867 244.08C280.373 245.133 281.127 246.78 281.127 249.02V249.32C281.127 250.413 280.913 251.367 280.487 252.18C280.073 252.98 279.44 253.653 278.587 254.2C277.747 254.747 276.667 255.16 275.347 255.44L272.347 256.06C271.44 256.26 270.7 256.52 270.127 256.84C269.567 257.16 269.16 257.553 268.907 258.02C268.653 258.487 268.527 259.047 268.527 259.7V259.86C268.527 260.98 268.967 261.807 269.847 262.34C270.727 262.873 272.1 263.14 273.967 263.14C274.82 263.14 275.693 263.067 276.587 262.92C277.493 262.773 278.367 262.567 279.207 262.3C280.047 262.02 280.807 261.693 281.487 261.32L281.027 266.04C280.067 266.48 278.94 266.833 277.647 267.1C276.353 267.367 274.967 267.5 273.487 267.5ZM300.65 254.24C299.183 254.187 297.917 253.967 296.85 253.58C295.783 253.18 294.963 252.593 294.39 251.82C293.83 251.047 293.55 250.08 293.55 248.92V248.68C293.55 246.627 294.29 245.08 295.77 244.04C297.263 243 299.45 242.48 302.33 242.48C303.677 242.48 304.903 242.6 306.01 242.84C307.117 243.08 308.023 243.36 308.73 243.68L309.19 247.8C308.377 247.507 307.477 247.26 306.49 247.06C305.503 246.847 304.457 246.74 303.35 246.74C301.75 246.74 300.597 246.993 299.89 247.5C299.183 247.993 298.83 248.707 298.83 249.64V249.8C298.83 250.653 299.163 251.34 299.83 251.86C300.51 252.38 301.65 252.693 303.25 252.8L300.65 254.24ZM301.51 267.5C299.857 267.5 298.383 267.38 297.09 267.14C295.81 266.913 294.71 266.627 293.79 266.28L293.35 261.88C294.417 262.253 295.55 262.56 296.75 262.8C297.95 263.027 299.263 263.14 300.69 263.14C302.277 263.14 303.47 262.88 304.27 262.36C305.083 261.84 305.49 261.027 305.49 259.92V259.7C305.49 258.753 305.177 258.007 304.55 257.46C303.937 256.9 302.89 256.547 301.41 256.4L304.01 255.08C306.143 255.107 307.803 255.593 308.99 256.54C310.19 257.487 310.79 258.867 310.79 260.68V261.02C310.79 263.207 309.977 264.833 308.35 265.9C306.723 266.967 304.443 267.5 301.51 267.5ZM292.31 258.8V254.5L301.15 253.16L304.23 256.5L292.31 258.8ZM299.91 252.94L312.25 250.44V254.68L301.59 256.26L299.91 252.94ZM315.952 257.44V243.04H321.072V257.44H315.952ZM315.952 267V255.06H321.072V267H315.952ZM317.612 241.6C315.372 240.48 313.119 239.353 310.852 238.22C308.585 237.073 306.332 235.927 304.092 234.78L306.772 230.3C308.892 231.673 311.012 233.053 313.132 234.44C315.252 235.813 317.365 237.187 319.472 238.56L317.612 241.6ZM327.284 263.5C326.87 262.46 326.497 261.393 326.164 260.3C325.844 259.193 325.577 258.04 325.364 256.84C325.15 255.627 325.004 254.34 324.924 252.98L327.244 251.54H331.664V263.5H327.284ZM330.304 255.74V251.54H340.044L340.404 255.74H330.304ZM357.584 257.44V243.04H362.704V257.44H357.584ZM357.584 267V255.06H362.704V267H357.584ZM343.484 258.8L338.584 257.86V254.06L343.284 254.04C344.617 254.013 345.617 253.72 346.284 253.16C346.964 252.587 347.304 251.687 347.304 250.46V250.02C347.304 248.9 347.01 248.073 346.424 247.54C345.837 246.993 345.004 246.72 343.924 246.72C343.057 246.72 342.23 246.82 341.444 247.02C340.67 247.207 339.957 247.433 339.304 247.7L339.704 243.56C340.33 243.253 341.084 243 341.964 242.8C342.844 242.587 343.85 242.48 344.984 242.48C347.357 242.48 349.197 243.087 350.504 244.3C351.81 245.5 352.464 247.34 352.464 249.82V250.58C352.464 252.94 351.857 254.76 350.644 256.04C349.43 257.307 347.664 257.94 345.344 257.94H343.524L343.484 258.8ZM350.484 267.5C348.924 267.5 347.524 267.227 346.284 266.68C345.057 266.133 344.03 265.287 343.204 264.14C342.39 262.98 341.81 261.48 341.464 259.64L340.884 256.48L345.704 256.02L346.264 258.82C346.477 259.873 346.824 260.727 347.304 261.38C347.784 262.02 348.37 262.487 349.064 262.78C349.757 263.073 350.53 263.22 351.384 263.22C351.824 263.22 352.23 263.187 352.604 263.12C352.99 263.053 353.31 262.973 353.564 262.88L353.164 267.08C352.79 267.2 352.384 267.3 351.944 267.38C351.517 267.46 351.03 267.5 350.484 267.5ZM354.264 256.64C353.424 256.64 352.59 256.593 351.764 256.5C350.937 256.393 350.164 256.247 349.444 256.06L349.864 252.42H357.124C357.67 252.42 358.257 252.42 358.884 252.42C359.524 252.42 360.11 252.42 360.644 252.42L361.024 256.62L354.264 256.64ZM359.226 241.6C356.986 240.48 354.733 239.353 352.466 238.22C350.2 237.073 347.946 235.927 345.706 234.78L348.386 230.3C350.506 231.673 352.626 233.053 354.746 234.44C356.866 235.813 358.986 237.187 361.106 238.56L359.226 241.6ZM375.624 262.7C373.984 262.7 372.631 262.393 371.564 261.78C370.498 261.167 369.704 260.26 369.184 259.06C368.678 257.847 368.424 256.36 368.424 254.6V250.94H373.544V254C373.544 255.48 373.871 256.573 374.524 257.28C375.178 257.973 376.144 258.32 377.424 258.32C378.171 258.32 378.824 258.207 379.384 257.98C379.944 257.74 380.411 257.413 380.784 257L382.244 258.32C381.938 259.213 381.518 259.987 380.984 260.64C380.451 261.293 379.751 261.8 378.884 262.16C378.031 262.52 376.944 262.7 375.624 262.7ZM368.424 251.78V248.62C368.424 248.007 368.311 247.553 368.084 247.26C367.871 246.953 367.498 246.8 366.964 246.8C366.764 246.8 366.558 246.82 366.344 246.86C366.144 246.9 365.951 246.947 365.764 247L366.064 243.24C366.464 243.093 366.898 242.98 367.364 242.9C367.831 242.82 368.331 242.78 368.864 242.78C370.438 242.78 371.611 243.2 372.384 244.04C373.158 244.867 373.544 246.153 373.544 247.9V251.78H368.424ZM390.164 267.5C386.671 267.5 384.084 266.86 382.404 265.58C380.738 264.3 379.904 262.433 379.904 259.98V259.56C379.904 258.253 380.144 257.113 380.624 256.14C381.118 255.167 381.904 254.353 382.984 253.7C384.078 253.033 385.518 252.527 387.304 252.18L389.704 251.68C390.704 251.467 391.424 251.16 391.864 250.76C392.304 250.347 392.524 249.827 392.524 249.2V249.1C392.524 248.26 392.191 247.66 391.524 247.3C390.871 246.927 389.798 246.74 388.304 246.74C387.171 246.74 386.044 246.873 384.924 247.14C383.818 247.393 382.778 247.693 381.804 248.04L382.364 243.74C383.098 243.42 384.051 243.133 385.224 242.88C386.398 242.613 387.678 242.48 389.064 242.48C391.878 242.48 394.038 243.013 395.544 244.08C397.051 245.133 397.804 246.78 397.804 249.02V249.32C397.804 250.413 397.591 251.367 397.164 252.18C396.751 252.98 396.118 253.653 395.264 254.2C394.411 254.747 393.331 255.16 392.024 255.44L389.024 256.06C388.104 256.26 387.364 256.52 386.804 256.84C386.244 257.16 385.831 257.553 385.564 258.02C385.311 258.487 385.184 259.047 385.184 259.7V259.86C385.184 260.98 385.624 261.807 386.504 262.34C387.398 262.873 388.771 263.14 390.624 263.14C391.491 263.14 392.371 263.067 393.264 262.92C394.171 262.773 395.038 262.567 395.864 262.3C396.704 262.02 397.464 261.693 398.144 261.32L397.704 266.04C396.744 266.48 395.618 266.833 394.324 267.1C393.031 267.367 391.644 267.5 390.164 267.5ZM404.393 267.48C403.406 267.48 402.679 267.22 402.213 266.7C401.746 266.18 401.513 265.46 401.513 264.54V264.34C401.513 263.407 401.746 262.68 402.213 262.16C402.679 261.64 403.406 261.38 404.393 261.38C405.366 261.38 406.093 261.64 406.573 262.16C407.053 262.68 407.293 263.407 407.293 264.34V264.54C407.293 265.46 407.053 266.18 406.573 266.7C406.093 267.22 405.366 267.48 404.393 267.48ZM167.505 309.14V310.76C167.505 312.773 167.672 314.66 168.005 316.42C168.352 318.167 168.878 319.82 169.585 321.38C170.305 322.94 171.212 324.46 172.305 325.94H167.085C166.098 324.62 165.265 323.207 164.585 321.7C163.918 320.193 163.418 318.553 163.085 316.78C162.752 315.007 162.585 313.06 162.585 310.94V308.98C162.585 306.86 162.752 304.92 163.085 303.16C163.432 301.387 163.945 299.747 164.625 298.24C165.305 296.72 166.145 295.3 167.145 293.98H172.305C171.212 295.447 170.305 296.967 169.585 298.54C168.878 300.1 168.352 301.753 168.005 303.5C167.672 305.247 167.505 307.127 167.505 309.14ZM182.844 319.4C180.138 319.4 178.091 318.833 176.704 317.7C175.331 316.553 174.644 314.94 174.644 312.86V312.6C174.644 311 175.031 309.753 175.804 308.86C176.591 307.953 177.784 307.4 179.384 307.2V307.08C177.771 306.92 176.578 306.46 175.804 305.7C175.044 304.927 174.664 303.8 174.664 302.32V302.22C174.664 301.393 174.804 300.607 175.084 299.86C175.378 299.113 175.804 298.373 176.364 297.64C176.924 296.893 177.611 296.127 178.424 295.34H184.304V295.54C183.411 296.393 182.638 297.207 181.984 297.98C181.331 298.74 180.824 299.487 180.464 300.22C180.118 300.94 179.944 301.66 179.944 302.38V302.48C179.944 303.347 180.224 303.987 180.784 304.4C181.358 304.8 182.251 305.02 183.464 305.06L186.664 305.16V309.12L183.484 309.22C182.284 309.26 181.391 309.5 180.804 309.94C180.231 310.38 179.944 311.06 179.944 311.98V312.1C179.944 313.153 180.311 313.927 181.044 314.42C181.791 314.913 182.931 315.16 184.464 315.16C186.131 315.16 187.478 314.867 188.504 314.28C189.544 313.68 190.184 312.887 190.424 311.9L190.744 315.68H190.144C189.891 316.4 189.464 317.04 188.864 317.6C188.278 318.16 187.491 318.6 186.504 318.92C185.518 319.24 184.298 319.4 182.844 319.4ZM190.344 311.44V297.04H195.464V311.44H190.344ZM190.344 321V309.06H195.464V321H190.344ZM200.718 311.44V297.04H205.838V311.44H200.718ZM200.718 321V309.06H205.838V321H200.718ZM202.378 295.6C200.138 294.48 197.884 293.353 195.618 292.22C193.351 291.073 191.098 289.927 188.858 288.78L191.538 284.3C193.658 285.673 195.778 287.053 197.898 288.44C200.018 289.813 202.131 291.187 204.238 292.56L202.378 295.6ZM218.399 312.72V308.6H229.839V312.72H218.399ZM251.217 321.6C249.404 321.6 247.864 321.427 246.597 321.08C245.331 320.747 244.304 320.26 243.517 319.62C242.731 318.98 242.157 318.22 241.797 317.34C241.437 316.447 241.257 315.46 241.257 314.38V313.88C241.257 312.72 241.451 311.727 241.837 310.9C242.224 310.06 242.784 309.38 243.517 308.86C244.264 308.327 245.171 307.94 246.237 307.7V307.5C245.211 307.313 244.344 306.987 243.637 306.52C242.944 306.04 242.417 305.427 242.057 304.68C241.697 303.933 241.517 303.06 241.517 302.06V301.56C241.517 299.507 242.291 297.88 243.837 296.68C245.397 295.48 247.857 294.88 251.217 294.88C254.617 294.88 257.091 295.48 258.637 296.68C260.197 297.88 260.977 299.507 260.977 301.56V302.06C260.977 303.073 260.797 303.953 260.437 304.7C260.077 305.447 259.544 306.053 258.837 306.52C258.131 306.973 257.264 307.3 256.237 307.5V307.7C257.317 307.953 258.224 308.34 258.957 308.86C259.704 309.38 260.271 310.053 260.657 310.88C261.044 311.707 261.237 312.707 261.237 313.88V314.38C261.237 315.42 261.064 316.38 260.717 317.26C260.384 318.14 259.831 318.907 259.057 319.56C258.284 320.2 257.257 320.7 255.977 321.06C254.697 321.42 253.111 321.6 251.217 321.6ZM251.297 317.4C253.004 317.4 254.211 317.073 254.917 316.42C255.637 315.767 255.997 314.913 255.997 313.86V313.54C255.997 312.487 255.597 311.647 254.797 311.02C254.011 310.38 252.777 309.947 251.097 309.72C249.524 309.947 248.364 310.387 247.617 311.04C246.871 311.693 246.497 312.527 246.497 313.54V313.86C246.497 314.913 246.864 315.767 247.597 316.42C248.344 317.073 249.577 317.4 251.297 317.4ZM251.377 306.06C252.724 305.94 253.804 305.58 254.617 304.98C255.444 304.367 255.857 303.513 255.857 302.42V302.2C255.857 301.213 255.491 300.427 254.757 299.84C254.037 299.253 252.857 298.96 251.217 298.96C249.617 298.96 248.451 299.253 247.717 299.84C246.997 300.427 246.637 301.207 246.637 302.18V302.42C246.637 303.14 246.824 303.76 247.197 304.28C247.571 304.787 248.104 305.187 248.797 305.48C249.504 305.773 250.364 305.967 251.377 306.06ZM279.037 321V296.42H284.297V321H279.037ZM271.757 299.82V295.44H291.537V299.82H271.757ZM300.733 321.54C297.693 321.54 295.386 320.76 293.813 319.2C292.253 317.64 291.473 315.42 291.473 312.54V309.88C291.473 306.987 292.253 304.76 293.813 303.2C295.386 301.627 297.693 300.84 300.733 300.84C303.759 300.84 306.053 301.627 307.613 303.2C309.173 304.76 309.953 306.987 309.953 309.88V312.54C309.953 315.42 309.173 317.64 307.613 319.2C306.066 320.76 303.773 321.54 300.733 321.54ZM300.733 317.44C302.066 317.44 303.079 317.04 303.773 316.24C304.479 315.44 304.833 314.293 304.833 312.8V309.62C304.833 308.1 304.479 306.94 303.773 306.14C303.079 305.327 302.066 304.92 300.733 304.92C299.386 304.92 298.359 305.327 297.653 306.14C296.959 306.94 296.613 308.1 296.613 309.62V312.8C296.613 314.293 296.959 315.44 297.653 316.24C298.359 317.04 299.386 317.44 300.733 317.44ZM325.907 321V300.76H325.647L320.167 303.54L320.307 298.56L326.387 295.44H331.127V321H325.907ZM334.825 321V316.22L341.145 310.48C342.251 309.48 343.171 308.593 343.905 307.82C344.651 307.033 345.211 306.28 345.585 305.56C345.971 304.827 346.165 304.06 346.165 303.26V303.06C346.165 302.313 346.011 301.673 345.705 301.14C345.411 300.607 344.931 300.193 344.265 299.9C343.598 299.607 342.718 299.46 341.625 299.46C340.345 299.46 339.138 299.653 338.005 300.04C336.871 300.427 335.871 300.86 335.005 301.34L335.465 296.76C336.011 296.44 336.651 296.147 337.385 295.88C338.118 295.6 338.938 295.373 339.845 295.2C340.765 295.027 341.771 294.94 342.865 294.94C345.745 294.94 347.905 295.593 349.345 296.9C350.798 298.193 351.525 300.02 351.525 302.38V302.66C351.525 303.94 351.311 305.1 350.885 306.14C350.458 307.167 349.825 308.18 348.985 309.18C348.145 310.167 347.091 311.24 345.825 312.4L341.525 316.36V317.4L339.305 316.58H351.825V321H334.825ZM358.477 309.14C358.477 307.127 358.303 305.247 357.957 303.5C357.623 301.753 357.103 300.1 356.397 298.54C355.69 296.967 354.783 295.447 353.677 293.98H358.837C359.837 295.3 360.677 296.72 361.357 298.24C362.037 299.747 362.543 301.387 362.877 303.16C363.223 304.92 363.397 306.86 363.397 308.98V310.94C363.397 313.06 363.23 315.007 362.897 316.78C362.563 318.553 362.063 320.193 361.397 321.7C360.73 323.207 359.897 324.62 358.897 325.94H353.677C354.783 324.46 355.69 322.94 356.397 321.38C357.103 319.82 357.623 318.167 357.957 316.42C358.303 314.66 358.477 312.773 358.477 310.76V309.14Z" fill="white"/>
<defs>
<filter id="filter0_d_216_484" x="0" y="39" width="526" height="169.5" filterUnits="userSpaceOnUse" color-interpolation-filters="sRGB">
<feFlood flood-opacity="0" result="BackgroundImageFix"/>
<feColorMatrix in="SourceAlpha" type="matrix" values="0 0 0 0 0 0 0 0 0 0 0 0 0 0 0 0 0 0 127 0" result="hardAlpha"/>
<feOffset dy="12"/>
<feGaussianBlur stdDeviation="12"/>
<feComposite in2="hardAlpha" operator="out"/>
<feColorMatrix type="matrix" values="0 0 0 0 0 0 0 0 0 0 0 0 0 0 0 0 0 0 0.12 0"/>
<feBlend mode="normal" in2="BackgroundImageFix" result="effect1_dropShadow_216_484"/>
<feBlend mode="normal" in="SourceGraphic" in2="effect1_dropShadow_216_484" result="shape"/>
</filter>
</defs>
</svg>
