<svg width="526" height="410" viewBox="0 0 526 410" fill="none" xmlns="http://www.w3.org/2000/svg">
<circle cx="265" cy="205" r="205" fill="#2C7864"/>
<g filter="url(#filter0_d_216_555)">
<path d="M24 79C24 63.536 36.536 51 52 51H474C489.464 51 502 63.536 502 79V104C502 119.464 489.464 132 474 132H52C36.536 132 24 119.464 24 104V79Z" fill="#FB7F01"/>
<path d="M24.5 92V172.5C34.4988 145.927 44.6249 136.715 72 132L126 96.5L24.5 92Z" fill="#FB7F01"/>
</g>
<path d="M389.731 113.292C388.355 113.292 387.339 112.907 386.683 112.138C386.043 111.368 385.723 110.292 385.723 108.91V108.621C385.723 107.256 386.043 106.18 386.683 105.393C387.339 104.606 388.355 104.212 389.731 104.212C391.075 104.212 392.075 104.606 392.731 105.393C393.387 106.18 393.715 107.256 393.715 108.621V108.91C393.715 110.292 393.387 111.368 392.731 112.138C392.075 112.907 391.075 113.292 389.731 113.292ZM389.731 96.8119C388.355 96.8119 387.339 96.427 386.683 95.6572C386.043 94.8875 385.723 93.8115 385.723 92.4294V92.1407C385.723 90.7761 386.043 89.7002 386.683 88.9129C387.339 88.1256 388.355 87.732 389.731 87.732C391.075 87.732 392.075 88.1256 392.731 88.9129C393.387 89.7002 393.715 90.7761 393.715 92.1407V92.4294C393.715 93.8115 393.387 94.8875 392.731 95.6572C392.075 96.427 391.075 96.8119 389.731 96.8119Z" fill="white"/>
<path d="M364.462 83.7169V76.1329C364.462 74.2434 364.078 72.8525 363.31 71.9603C362.542 71.0506 361.278 70.5957 359.518 70.5957C357.79 70.5957 356.542 71.0331 355.774 71.9078C355.006 72.7826 354.622 74.1122 354.622 75.8967V79.1508H347.302V76.3428C347.302 72.2665 348.35 69.2311 350.446 67.2366C352.542 65.2422 355.566 64.245 359.518 64.245C362.046 64.245 364.222 64.7086 366.046 65.6359C367.886 66.5456 369.302 67.9189 370.294 69.7559C371.286 71.5754 371.782 73.8498 371.782 76.579V83.7169H364.462ZM364.462 100.407V81.0402H371.782V100.407H364.462ZM364.462 112.584V97.5992H371.782V112.584H364.462Z" fill="white"/>
<path d="M345.821 95.5786C344.093 95.5261 342.589 95.2462 341.309 94.7388C340.045 94.2139 339.069 93.4529 338.381 92.4557C337.693 91.441 337.349 90.1726 337.349 88.6505V88.3881C337.349 85.6939 338.285 83.6645 340.157 82.2998C342.045 80.9177 344.805 80.2267 348.437 80.2267C350.069 80.2267 351.565 80.3754 352.925 80.6728C354.285 80.9702 355.413 81.3201 356.309 81.7225L356.933 88.047C355.941 87.7145 354.853 87.4434 353.669 87.2334C352.501 87.006 351.285 86.8923 350.021 86.8923C348.181 86.8923 346.861 87.181 346.061 87.7583C345.277 88.3181 344.885 89.1054 344.885 90.1201V90.2776C344.885 91.1698 345.237 91.9046 345.941 92.4819C346.645 93.0593 347.861 93.4092 349.589 93.5316L345.821 95.5786ZM347.261 113.292C345.277 113.292 343.493 113.144 341.909 112.846C340.341 112.566 338.981 112.225 337.829 111.823L337.229 105.157C338.525 105.577 339.893 105.909 341.333 106.154C342.789 106.399 344.373 106.522 346.085 106.522C347.845 106.522 349.173 106.242 350.069 105.682C350.965 105.105 351.413 104.212 351.413 103.005V102.795C351.413 101.781 351.101 100.967 350.477 100.355C349.853 99.7424 348.741 99.3487 347.141 99.1738L350.885 97.3106C353.429 97.3106 355.413 97.9229 356.837 99.1475C358.277 100.355 358.997 102.113 358.997 104.422V104.763C358.997 107.65 357.957 109.793 355.877 111.193C353.813 112.592 350.941 113.292 347.261 113.292ZM335.909 102.349V95.736L346.733 94.1352L350.933 99.305L335.909 102.349ZM345.149 93.7153L360.677 90.4088V96.9169L347.309 98.8851L345.149 93.7153Z" fill="white"/>
<path d="M315.029 100.407V81.0402H322.349V100.407H315.029ZM315.029 112.584V97.5992H322.349V112.584H315.029ZM301.709 112.584C300.989 111.079 300.349 109.548 299.789 107.991C299.245 106.417 298.821 104.833 298.517 103.241C298.229 101.632 298.085 100.057 298.085 98.5177C298.085 95.1761 298.901 92.6044 300.533 90.8024C302.181 89.0004 304.781 88.0994 308.333 88.0994H318.629V94.6338H310.325C308.677 94.6338 307.477 95.0537 306.725 95.8934C305.989 96.7157 305.621 97.9666 305.621 99.6461C305.621 100.853 305.765 102.157 306.053 103.556C306.357 104.938 306.781 106.39 307.325 107.913C307.885 109.435 308.525 110.992 309.245 112.584H301.709Z" fill="white"/>
<path d="M271.786 124.944C268.378 124.944 265.186 124.489 262.21 123.579C259.234 122.687 256.73 121.559 254.698 120.194L253.954 111.98C255.346 113.047 256.93 114.053 258.706 114.998C260.482 115.96 262.458 116.73 264.634 117.307C266.81 117.902 269.194 118.2 271.786 118.2C275.13 118.2 277.946 117.657 280.234 116.573C282.538 115.488 284.282 113.87 285.466 111.718C286.65 109.566 287.242 106.889 287.242 103.687V98.8326C287.242 96.6283 287.026 94.6513 286.594 92.9018C286.178 91.1523 285.546 89.534 284.698 88.047C283.85 86.5599 282.786 85.1078 281.506 83.6907L282.298 81.0402H288.25C289.466 82.2823 290.554 83.7344 291.514 85.3965C292.474 87.0585 293.226 89.0004 293.77 91.2223C294.33 93.4267 294.61 95.9635 294.61 98.8326V103.687C294.61 108.376 293.73 112.295 291.97 115.444C290.226 118.611 287.658 120.981 284.266 122.556C280.874 124.148 276.714 124.944 271.786 124.944ZM271.57 113.292C268.13 113.292 265.506 112.54 263.698 111.035C261.89 109.513 260.986 107.265 260.986 104.291V104.029C260.986 102.752 261.154 101.606 261.49 100.591C261.826 99.5762 262.338 98.5965 263.026 97.6517C263.73 96.6895 264.618 95.666 265.69 94.5813L268.714 91.5372L273.682 95.4736L270.898 98.4915C270.354 99.0863 269.89 99.6374 269.506 100.145C269.122 100.652 268.826 101.168 268.618 101.693C268.426 102.218 268.33 102.804 268.33 103.451V103.687C268.33 104.755 268.602 105.551 269.146 106.076C269.69 106.6 270.498 106.863 271.57 106.863C272.61 106.863 273.394 106.6 273.922 106.076C274.466 105.551 274.738 104.755 274.738 103.687V103.451C274.738 102.489 274.49 101.614 273.994 100.827C273.498 100.04 272.874 99.1825 272.122 98.2553L269.698 95.2636L274.786 91.2485L277.474 94.4501C278.386 95.5348 279.186 96.567 279.874 97.5468C280.562 98.5265 281.098 99.5324 281.482 100.565C281.882 101.597 282.082 102.752 282.082 104.029V104.291C282.082 107.265 281.186 109.513 279.394 111.035C277.602 112.54 274.994 113.292 271.57 113.292ZM258.49 101.798L251.41 100.512V89.8577C251.41 86.6911 252.13 84.2943 253.57 82.6672C255.026 81.0402 257.154 80.2267 259.954 80.2267C261.33 80.2267 262.538 80.4191 263.578 80.804C264.634 81.1714 265.602 81.7225 266.482 82.4573C267.362 83.1746 268.226 84.0668 269.074 85.134L275.074 92.5607L269.554 96.5758L263.482 88.8605C263.034 88.3006 262.642 87.8633 262.306 87.5483C261.97 87.2159 261.65 86.9885 261.346 86.866C261.042 86.7261 260.714 86.6561 260.362 86.6561C259.754 86.6561 259.29 86.8923 258.97 87.3647C258.65 87.8195 258.49 88.5106 258.49 89.4378V101.798ZM275.242 95.3686L270.082 91.3273L279.202 81.0402H287.314L286.33 83.2446L275.242 95.3686Z" fill="white"/>
<path d="M229.837 83.7169V75.7392C229.837 73.9897 229.509 72.6951 228.853 71.8553C228.213 71.0156 227.149 70.5957 225.661 70.5957C224.205 70.5957 223.149 70.9981 222.493 71.8028C221.837 72.6076 221.509 73.8235 221.509 75.4506V79.1508H214.189V75.8704C214.189 71.9516 215.173 69.0386 217.141 67.1317C219.109 65.2072 221.949 64.245 225.661 64.245C228.029 64.245 230.069 64.6911 231.781 65.5834C233.509 66.4581 234.837 67.779 235.765 69.546C236.693 71.313 237.157 73.5174 237.157 76.1591V83.7169H229.837ZM229.837 100.407V81.0402H237.157V100.407H229.837ZM229.837 112.584V97.5992H237.157V112.584H229.837Z" fill="white"/>
<path d="M212.967 102.979L206.223 101.457V95.5261L212.631 95.4998C214.279 95.4823 215.535 95.1412 216.399 94.4764C217.263 93.8116 217.695 92.7706 217.695 91.3535V90.9074C217.695 89.5078 217.295 88.4843 216.495 87.837C215.711 87.1722 214.575 86.8398 213.087 86.8398C212.047 86.8398 211.015 86.9448 209.991 87.1547C208.983 87.3472 208.039 87.6096 207.159 87.942L207.687 81.5913C208.583 81.1889 209.623 80.8653 210.807 80.6203C211.991 80.3579 213.311 80.2267 214.767 80.2267C216.959 80.2267 218.839 80.6028 220.407 81.3551C221.991 82.1074 223.199 83.2446 224.031 84.7666C224.863 86.2712 225.279 88.1957 225.279 90.54V91.3273C225.279 94.5988 224.447 97.1181 222.783 98.8851C221.119 100.652 218.735 101.536 215.631 101.536H213.063L212.967 102.979ZM220.743 113.292C218.759 113.292 216.983 112.942 215.415 112.243C213.847 111.543 212.551 110.432 211.527 108.91C210.503 107.37 209.783 105.341 209.367 102.821L208.719 98.8589L215.679 98.1503L216.279 101.562C216.631 103.486 217.343 104.816 218.415 105.551C219.487 106.268 220.751 106.627 222.207 106.627C222.783 106.627 223.359 106.565 223.935 106.443C224.511 106.32 224.943 106.207 225.231 106.102L224.679 112.61C224.103 112.82 223.495 112.986 222.855 113.109C222.215 113.231 221.511 113.292 220.743 113.292Z" fill="white"/>
<path d="M194.915 100.407V81.0402H202.235V100.407H194.915ZM194.915 112.584V97.5992H202.235V112.584H194.915Z" fill="white"/>
<path d="M173.342 110.537C169.598 110.537 166.742 109.426 164.774 107.204C162.806 104.982 161.822 101.921 161.822 98.0191C161.822 97.2318 161.838 96.532 161.87 95.9197C161.902 95.2899 161.958 94.6776 162.038 94.0827L166.142 94.0565C167.486 94.039 168.51 93.7591 169.214 93.2167C169.918 92.6744 170.27 91.7996 170.27 90.5925V90.1726C170.27 88.9829 169.966 88.1169 169.358 87.5746C168.766 87.0322 167.902 86.7611 166.766 86.7611C165.934 86.7611 165.158 86.8485 164.438 87.0235C163.734 87.1984 163.062 87.4259 162.422 87.7058L162.926 81.4338C163.63 81.0839 164.454 80.7953 165.398 80.5678C166.358 80.3404 167.422 80.2267 168.59 80.2267C171.454 80.2267 173.678 81.014 175.262 82.5885C176.862 84.1631 177.662 86.5949 177.662 89.8839V90.5925C177.662 93.4792 176.958 95.701 175.55 97.2581C174.142 98.8151 172.166 99.5937 169.622 99.5937H166.334L169.286 95.3686C169.27 95.8935 169.254 96.3396 169.238 96.707C169.222 97.0569 169.214 97.5118 169.214 98.0716C169.214 99.8911 169.758 101.299 170.846 102.297C171.934 103.276 173.518 103.766 175.598 103.766C177.534 103.766 179.038 103.39 180.11 102.638C181.198 101.886 181.934 100.906 182.318 99.6986L182.534 105.157H181.886C181.63 106.154 181.174 107.064 180.518 107.886C179.862 108.709 178.95 109.356 177.782 109.828C176.63 110.301 175.15 110.537 173.342 110.537ZM182.15 100.407V81.0402H189.47V100.407H182.15ZM182.15 112.584V97.5992H189.47V112.584H182.15Z" fill="white"/>
<path d="M152.535 79.1507L135.519 73.6398L138.063 67.604L150.279 73.8497L150.375 73.6923L141.135 63.5102L145.551 58.944L155.871 74.3483L152.535 79.1507Z" fill="white"/>
<path d="M150.029 100.407V81.0402H157.349V100.407H150.029ZM150.029 112.584V97.5992H157.349V112.584H150.029ZM136.709 112.584C135.989 111.079 135.349 109.548 134.789 107.991C134.245 106.417 133.821 104.833 133.517 103.241C133.229 101.632 133.085 100.057 133.085 98.5177C133.085 95.1761 133.901 92.6044 135.533 90.8024C137.181 89.0004 139.781 88.0994 143.333 88.0994H153.629V94.6338H145.325C143.677 94.6338 142.477 95.0537 141.725 95.8934C140.989 96.7157 140.621 97.9666 140.621 99.6461C140.621 100.853 140.765 102.157 141.053 103.556C141.357 104.938 141.781 106.39 142.325 107.913C142.885 109.435 143.525 110.992 144.245 112.584H136.709Z" fill="white"/>
<path d="M109.477 176.21L104.841 175.317V171.707L109.287 171.688C110.567 171.663 111.523 171.384 112.156 170.852C112.79 170.307 113.106 169.452 113.106 168.287V167.869C113.106 166.805 112.828 166.02 112.27 165.513C111.713 164.994 110.921 164.734 109.895 164.734C109.085 164.734 108.306 164.829 107.558 165.019C106.824 165.196 106.146 165.412 105.525 165.665L105.886 161.732C106.494 161.441 107.21 161.2 108.033 161.01C108.869 160.807 109.826 160.706 110.902 160.706C113.157 160.706 114.905 161.282 116.146 162.435C117.388 163.575 118.008 165.323 118.008 167.679V168.401C118.008 170.643 117.432 172.372 116.279 173.588C115.127 174.791 113.455 175.393 111.263 175.393H109.515L109.477 176.21ZM116.127 184.475C114.658 184.475 113.334 184.215 112.156 183.696C110.991 183.177 110.016 182.372 109.23 181.283C108.445 180.181 107.894 178.756 107.577 177.008L107.026 174.006L111.586 173.569L112.118 176.229C112.321 177.23 112.65 178.04 113.106 178.661C113.575 179.269 114.139 179.712 114.797 179.991C115.456 180.27 116.184 180.409 116.982 180.409C117.413 180.409 117.806 180.377 118.16 180.314C118.515 180.251 118.813 180.175 119.053 180.086L118.673 184.076C118.319 184.19 117.932 184.285 117.514 184.361C117.109 184.437 116.647 184.475 116.127 184.475ZM119.737 174.158C118.927 174.158 118.129 174.114 117.343 174.025C116.558 173.924 115.83 173.784 115.158 173.607L115.538 170.149H122.454C122.961 170.149 123.512 170.149 124.107 170.149C124.715 170.149 125.279 170.149 125.798 170.149L126.14 174.139L119.737 174.158ZM130.586 179.915C129.016 179.915 127.724 179.624 126.71 179.041C125.71 178.458 124.962 177.597 124.468 176.457C123.987 175.304 123.746 173.892 123.746 172.22V168.743H128.61V171.65C128.61 173.056 128.921 174.095 129.541 174.766C130.162 175.425 131.08 175.754 132.296 175.754C133.436 175.754 134.342 175.482 135.013 174.937C135.697 174.392 136.141 173.664 136.343 172.752L136.552 176.419H136.077C135.9 177.065 135.583 177.654 135.127 178.186C134.671 178.705 134.07 179.123 133.322 179.44C132.575 179.757 131.663 179.915 130.586 179.915ZM123.746 169.541V166.539C123.746 165.956 123.639 165.526 123.423 165.247C123.221 164.956 122.866 164.81 122.359 164.81C122.169 164.81 121.973 164.829 121.77 164.867C121.58 164.905 121.397 164.949 121.219 165L121.504 161.428C121.884 161.289 122.29 161.181 122.72 161.105C123.164 161.029 123.645 160.991 124.164 160.991C125.646 160.991 126.755 161.39 127.489 162.188C128.237 162.973 128.61 164.196 128.61 165.855V169.541H123.746ZM136.286 174.918V161.238H141.131V174.918H136.286ZM136.286 184V172.657H141.131V184H136.286ZM146.123 174.918V161.238H150.987V174.918H146.123ZM146.123 184V172.657H150.987V184H146.123ZM147.7 159.87C145.572 158.806 143.431 157.736 141.278 156.659C139.124 155.57 136.984 154.48 134.856 153.391L137.402 149.135C139.416 150.44 141.43 151.751 143.444 153.068C145.458 154.373 147.465 155.677 149.467 156.982L147.7 159.87ZM164.678 184.475C161.359 184.475 158.902 183.867 157.306 182.651C155.722 181.435 154.931 179.662 154.931 177.331V176.932C154.931 175.691 155.159 174.608 155.615 173.683C156.083 172.758 156.831 171.986 157.857 171.365C158.895 170.732 160.263 170.25 161.961 169.921L164.241 169.446C165.203 169.243 165.887 168.952 166.293 168.572C166.711 168.179 166.92 167.685 166.92 167.09V166.995C166.92 166.197 166.603 165.627 165.97 165.285C165.349 164.93 164.329 164.753 162.911 164.753C161.834 164.753 160.764 164.88 159.7 165.133C158.648 165.374 157.66 165.659 156.736 165.988L157.268 161.903C157.964 161.599 158.87 161.327 159.985 161.086C161.099 160.833 162.315 160.706 163.633 160.706C166.305 160.706 168.357 161.213 169.789 162.226C171.22 163.227 171.936 164.791 171.936 166.919V167.204C171.936 168.243 171.733 169.148 171.328 169.921C170.935 170.681 170.333 171.321 169.523 171.84C168.712 172.359 167.686 172.752 166.445 173.018L163.595 173.607C162.733 173.797 162.03 174.044 161.486 174.348C160.954 174.652 160.561 175.026 160.308 175.469C160.067 175.912 159.947 176.444 159.947 177.065V177.217C159.947 178.281 160.365 179.066 161.201 179.573C162.049 180.08 163.36 180.333 165.134 180.333C165.944 180.333 166.774 180.263 167.623 180.124C168.484 179.985 169.307 179.788 170.093 179.535C170.891 179.269 171.613 178.959 172.259 178.604L171.841 183.088C170.929 183.506 169.858 183.842 168.63 184.095C167.401 184.348 166.084 184.475 164.678 184.475ZM171.563 196.825L162.69 189.13L165.996 185.786L173.862 194.602L171.563 196.825ZM168.876 158.616L165.912 159.87C164.797 159.313 163.955 158.559 163.385 157.609C162.815 156.659 162.53 155.525 162.53 154.208V154.018C162.53 152.422 163.056 151.143 164.107 150.18C165.171 149.205 166.742 148.717 168.819 148.717C169.478 148.717 170.086 148.755 170.643 148.831C171.2 148.894 171.764 149.002 172.334 149.154L172.79 152.821C172.347 152.694 171.948 152.612 171.593 152.574C171.251 152.536 170.884 152.517 170.491 152.517C169.478 152.517 168.711 152.758 168.192 153.239C167.673 153.708 167.413 154.404 167.413 155.329V155.481C167.413 156.114 167.533 156.684 167.774 157.191C168.015 157.698 168.382 158.173 168.876 158.616ZM192.657 174.918V161.238H197.521V174.918H192.657ZM192.657 184V172.657H197.521V184H192.657ZM179.243 176.21L174.607 175.317V171.707L179.053 171.688C180.332 171.663 181.289 171.384 181.922 170.852C182.555 170.307 182.872 169.452 182.872 168.287V167.869C182.872 166.805 182.593 166.02 182.036 165.513C181.479 164.994 180.687 164.734 179.661 164.734C178.85 164.734 178.071 164.829 177.324 165.019C176.589 165.196 175.912 165.412 175.291 165.665L175.652 161.732C176.26 161.441 176.976 161.2 177.799 161.01C178.635 160.807 179.591 160.706 180.668 160.706C182.923 160.706 184.671 161.282 185.912 162.435C187.153 163.575 187.774 165.323 187.774 167.679V168.401C187.774 170.643 187.198 172.372 186.045 173.588C184.892 174.791 183.22 175.393 181.029 175.393H179.281L179.243 176.21ZM185.893 184.475C184.424 184.475 183.1 184.215 181.922 183.696C180.757 183.177 179.781 182.372 178.996 181.283C178.211 180.181 177.66 178.756 177.343 177.008L176.792 174.006L181.352 173.569L181.884 176.229C182.087 177.23 182.416 178.04 182.872 178.661C183.341 179.269 183.904 179.712 184.563 179.991C185.222 180.27 185.95 180.409 186.748 180.409C187.179 180.409 187.571 180.377 187.926 180.314C188.281 180.251 188.578 180.175 188.819 180.086L188.439 184.076C188.084 184.19 187.698 184.285 187.28 184.361C186.875 184.437 186.412 184.475 185.893 184.475ZM189.503 174.158C188.692 174.158 187.894 174.114 187.109 174.025C186.324 173.924 185.595 173.784 184.924 173.607L185.304 170.149H192.22C192.727 170.149 193.278 170.149 193.873 170.149C194.481 170.149 195.045 170.149 195.564 170.149L195.906 174.139L189.503 174.158ZM209.455 176.134V172.22H220.323V176.134H209.455ZM235.693 176.666L230.81 175.735V172.106L235.826 172.087C237.308 172.074 238.429 171.789 239.189 171.232C239.949 170.662 240.329 169.775 240.329 168.572V168.135C240.329 166.982 239.987 166.127 239.303 165.57C238.619 165.013 237.637 164.734 236.358 164.734C235.458 164.734 234.597 164.829 233.774 165.019C232.95 165.196 232.197 165.418 231.513 165.684L231.874 161.751C232.558 161.46 233.356 161.213 234.268 161.01C235.192 160.807 236.25 160.706 237.441 160.706C239.1 160.706 240.519 160.972 241.697 161.504C242.887 162.023 243.793 162.815 244.414 163.879C245.047 164.93 245.364 166.273 245.364 167.907V168.591C245.364 170.909 244.711 172.695 243.407 173.949C242.115 175.19 240.24 175.811 237.783 175.811H235.769L235.693 176.666ZM242.077 184.475C240.544 184.475 239.182 184.222 237.992 183.715C236.814 183.196 235.832 182.391 235.047 181.302C234.274 180.2 233.723 178.769 233.394 177.008L232.862 174.158L237.498 173.74L238.011 176.248C238.315 177.768 238.904 178.845 239.778 179.478C240.664 180.099 241.728 180.409 242.97 180.409C243.464 180.409 243.939 180.365 244.395 180.276C244.851 180.175 245.193 180.086 245.421 180.01L245.041 183.981C244.635 184.12 244.192 184.234 243.711 184.323C243.229 184.424 242.685 184.475 242.077 184.475ZM250.993 172.98V166.938C250.993 166.229 250.86 165.703 250.594 165.361C250.328 165.019 249.891 164.848 249.283 164.848C249.043 164.848 248.802 164.867 248.561 164.905C248.333 164.943 248.112 164.994 247.896 165.057L248.181 161.39C248.625 161.251 249.093 161.149 249.587 161.086C250.094 161.01 250.632 160.972 251.202 160.972C252.748 160.972 253.9 161.396 254.66 162.245C255.433 163.081 255.819 164.392 255.819 166.178V172.961L250.993 172.98ZM251.335 181.701C250.917 180.827 250.544 179.928 250.214 179.003C249.885 178.078 249.613 177.109 249.397 176.096C249.182 175.07 249.036 173.974 248.96 172.809L251.164 171.46H255.648V181.701H251.335ZM254.717 175.184V171.194H264.16L264.521 175.184H254.717ZM263.153 174.918V161.238H268.017V174.918H263.153ZM263.153 184V172.657H268.017V184H263.153ZM285.445 174.918V161.238H290.29V174.918H285.445ZM285.445 184V172.657H290.29V184H285.445ZM275.033 184C274.463 182.987 273.95 181.916 273.494 180.789C273.038 179.649 272.677 178.496 272.411 177.331C272.157 176.153 272.031 175 272.031 173.873C272.031 171.504 272.651 169.693 273.893 168.439C275.147 167.172 277.11 166.539 279.783 166.539H287.82V170.529H281.151C279.732 170.529 278.693 170.858 278.035 171.517C277.376 172.163 277.047 173.157 277.047 174.5C277.047 175.425 277.173 176.419 277.427 177.483C277.693 178.547 278.06 179.636 278.529 180.751C278.997 181.853 279.523 182.936 280.106 184H275.033ZM311.3 174.918V161.238H316.145V174.918H311.3ZM311.3 184V172.657H316.145V184H311.3ZM299.406 179.763C298.33 179.763 297.367 179.662 296.518 179.459C295.67 179.256 294.954 178.997 294.371 178.68L293.991 174.576C294.599 174.88 295.245 175.133 295.929 175.336C296.626 175.539 297.418 175.64 298.304 175.64C299.584 175.64 300.54 175.26 301.173 174.5C301.819 173.74 302.142 172.6 302.142 171.08V169.275C302.142 167.78 301.826 166.659 301.192 165.912C300.559 165.165 299.622 164.791 298.38 164.791C297.582 164.791 296.841 164.899 296.157 165.114C295.486 165.317 294.872 165.57 294.314 165.874L294.694 161.808C295.29 161.491 295.993 161.232 296.803 161.029C297.627 160.814 298.539 160.706 299.539 160.706C301.148 160.706 302.522 161.004 303.662 161.599C304.802 162.194 305.67 163.113 306.265 164.354C306.873 165.595 307.177 167.179 307.177 169.104V171.308C307.177 173.246 306.867 174.842 306.246 176.096C305.638 177.337 304.758 178.262 303.605 178.87C302.453 179.465 301.053 179.763 299.406 179.763ZM322.689 172.98V166.938C322.689 166.229 322.556 165.703 322.29 165.361C322.024 165.019 321.587 164.848 320.979 164.848C320.738 164.848 320.497 164.867 320.257 164.905C320.029 164.943 319.807 164.994 319.592 165.057L319.877 161.39C320.32 161.251 320.789 161.149 321.283 161.086C321.789 161.01 322.328 160.972 322.898 160.972C324.443 160.972 325.596 161.396 326.356 162.245C327.128 163.081 327.515 164.392 327.515 166.178V172.961L322.689 172.98ZM323.031 181.701C322.613 180.827 322.239 179.928 321.91 179.003C321.58 178.078 321.308 177.109 321.093 176.096C320.877 175.07 320.732 173.974 320.656 172.809L322.86 171.46H327.344V181.701H323.031ZM326.413 175.184V171.194H335.856L336.217 175.184H326.413ZM334.849 174.918V161.238H339.713V174.918H334.849ZM334.849 184V172.657H339.713V184H334.849ZM357.14 174.918V161.238H361.985V174.918H357.14ZM357.14 184V172.657H361.985V184H357.14ZM346.728 184C346.158 182.987 345.645 181.916 345.189 180.789C344.733 179.649 344.372 178.496 344.106 177.331C343.853 176.153 343.726 175 343.726 173.873C343.726 171.504 344.347 169.693 345.588 168.439C346.842 167.172 348.805 166.539 351.478 166.539H359.515V170.529H352.846C351.427 170.529 350.389 170.858 349.73 171.517C349.071 172.163 348.742 173.157 348.742 174.5C348.742 175.425 348.869 176.419 349.122 177.483C349.388 178.547 349.755 179.636 350.224 180.751C350.693 181.853 351.218 182.936 351.801 184H346.728ZM381.523 184.551C379.104 184.551 377.216 183.975 375.861 182.822C374.506 181.657 373.828 179.985 373.828 177.806V177.54C373.828 176.248 374.062 175.165 374.531 174.291C375.012 173.417 375.753 172.695 376.754 172.125C377.767 171.555 379.072 171.093 380.668 170.738L382.359 170.187C383.22 169.984 383.923 169.756 384.468 169.503C385.013 169.25 385.412 168.933 385.665 168.553C385.918 168.16 386.045 167.673 386.045 167.09V167.033C386.045 166.184 385.804 165.551 385.323 165.133C384.842 164.715 384.101 164.506 383.1 164.506C382.112 164.506 381.371 164.721 380.877 165.152C380.396 165.583 380.155 166.235 380.155 167.109V167.185C380.155 168.021 380.427 168.673 380.972 169.142C381.517 169.598 382.391 169.965 383.594 170.244L380.497 171.84C379.319 171.587 378.356 171.245 377.609 170.814C376.874 170.371 376.33 169.813 375.975 169.142C375.633 168.458 375.462 167.641 375.462 166.691V166.577C375.462 164.69 376.114 163.239 377.419 162.226C378.724 161.213 380.624 160.706 383.119 160.706C385.589 160.706 387.476 161.194 388.781 162.169C390.098 163.144 390.757 164.563 390.757 166.425V166.501C390.757 167.654 390.478 168.585 389.921 169.294C389.376 169.991 388.483 170.567 387.242 171.023L384.487 173.227C383.094 173.506 381.979 173.822 381.143 174.177C380.32 174.532 379.724 174.962 379.357 175.469C378.99 175.976 378.806 176.609 378.806 177.369V177.521C378.806 178.56 379.135 179.332 379.794 179.839C380.465 180.346 381.396 180.599 382.587 180.599C383.372 180.599 384.088 180.504 384.734 180.314C385.393 180.124 385.956 179.852 386.425 179.497L386.995 182.651C386.488 183.246 385.773 183.709 384.848 184.038C383.923 184.38 382.815 184.551 381.523 184.551ZM387.242 187.648L386.406 181.739H386.083V176.324H390.814V181.264L391.859 187.648H387.242ZM388.249 173.854C387.451 173.854 386.659 173.81 385.874 173.721C385.089 173.62 384.36 173.487 383.689 173.322L384.069 169.864H392.885C393.404 169.864 393.962 169.864 394.557 169.864C395.165 169.864 395.729 169.864 396.248 169.864L396.628 173.835L388.249 173.854ZM395.222 174.918V161.238H400.067V174.918H395.222ZM395.222 184V172.657H400.067V184H395.222ZM396.79 159.87C394.662 158.806 392.521 157.736 390.368 156.659C388.215 155.57 386.074 154.48 383.946 153.391L386.492 149.135C388.506 150.44 390.52 151.751 392.534 153.068C394.548 154.373 396.562 155.677 398.576 156.982L396.79 159.87ZM418.829 174.918V161.238H423.693V174.918H418.829ZM418.829 184V172.657H423.693V184H418.829ZM408.341 176.59C409.114 176.02 409.665 175.361 409.994 174.614C410.323 173.867 410.488 172.904 410.488 171.726V171.441C410.488 170.187 410.247 169.269 409.766 168.686C409.285 168.091 408.518 167.793 407.467 167.793C406.897 167.793 406.327 167.882 405.757 168.059C405.187 168.236 404.655 168.464 404.161 168.743L404.541 164.677C405.136 164.398 405.82 164.17 406.593 163.993C407.366 163.816 408.17 163.727 409.006 163.727C411.147 163.727 412.73 164.24 413.756 165.266C414.782 166.292 415.295 167.768 415.295 169.693V170.016C415.295 171.169 415.092 172.125 414.687 172.885C414.282 173.645 413.705 174.272 412.958 174.766L413.262 175.602L408.341 176.59ZM404.256 182.48V177.996L411.324 175.336L412.103 175.45C412.749 175.108 413.42 174.772 414.117 174.443C414.826 174.101 415.561 173.784 416.321 173.493L419.969 172.106L419.988 176.267L404.256 182.48ZM420.392 159.87C418.264 158.806 416.123 157.736 413.97 156.659C411.816 155.57 409.676 154.48 407.548 153.391L410.094 149.135C412.108 150.44 414.122 151.751 416.136 153.068C418.15 154.373 420.164 155.677 422.178 156.982L420.392 159.87ZM141.576 226.918V213.238H146.44V226.918H141.576ZM141.576 236V224.657H146.44V236H141.576ZM128.162 228.21L123.526 227.317V223.707L127.972 223.688C129.251 223.663 130.208 223.384 130.841 222.852C131.474 222.307 131.791 221.452 131.791 220.287V219.869C131.791 218.805 131.512 218.02 130.955 217.513C130.398 216.994 129.606 216.734 128.58 216.734C127.769 216.734 126.99 216.829 126.243 217.019C125.508 217.196 124.831 217.412 124.21 217.665L124.571 213.732C125.179 213.441 125.895 213.2 126.718 213.01C127.554 212.807 128.51 212.706 129.587 212.706C131.842 212.706 133.59 213.282 134.831 214.435C136.072 215.575 136.693 217.323 136.693 219.679V220.401C136.693 222.643 136.117 224.372 134.964 225.588C133.811 226.791 132.139 227.393 129.948 227.393H128.2L128.162 228.21ZM134.812 236.475C133.343 236.475 132.019 236.215 130.841 235.696C129.676 235.177 128.7 234.372 127.915 233.283C127.13 232.181 126.579 230.756 126.262 229.008L125.711 226.006L130.271 225.569L130.803 228.229C131.006 229.23 131.335 230.04 131.791 230.661C132.26 231.269 132.823 231.712 133.482 231.991C134.141 232.27 134.869 232.409 135.667 232.409C136.098 232.409 136.49 232.377 136.845 232.314C137.2 232.251 137.497 232.175 137.738 232.086L137.358 236.076C137.003 236.19 136.617 236.285 136.199 236.361C135.794 236.437 135.331 236.475 134.812 236.475ZM138.422 226.158C137.611 226.158 136.813 226.114 136.028 226.025C135.243 225.924 134.514 225.784 133.843 225.607L134.223 222.149H141.139C141.646 222.149 142.197 222.149 142.792 222.149C143.4 222.149 143.964 222.149 144.483 222.149L144.825 226.139L138.422 226.158ZM158.992 236.361C157.421 236.361 156.022 236.241 154.793 236C153.577 235.759 152.532 235.481 151.658 235.164L151.24 231.003C152.253 231.37 153.33 231.668 154.47 231.896C155.61 232.111 156.858 232.219 158.213 232.219C159.72 232.219 160.854 231.972 161.614 231.478C162.387 230.984 162.773 230.211 162.773 229.16V228.951C162.773 228.039 162.475 227.323 161.88 226.804C161.297 226.285 160.303 225.955 158.897 225.816L161.367 224.562C163.394 224.587 164.971 225.05 166.098 225.949C167.238 226.848 167.808 228.166 167.808 229.901V230.205C167.808 231.586 167.46 232.732 166.763 233.644C166.066 234.556 165.059 235.24 163.742 235.696C162.425 236.139 160.841 236.361 158.992 236.361ZM158.175 223.878C156.782 223.827 155.578 223.618 154.565 223.251C153.552 222.871 152.773 222.314 152.228 221.579C151.696 220.844 151.43 219.926 151.43 218.824V218.596C151.43 216.645 152.133 215.176 153.539 214.188C154.958 213.2 157.035 212.706 159.771 212.706C161.05 212.706 162.216 212.82 163.267 213.048C164.318 213.276 165.18 213.542 165.851 213.846L166.288 217.76C165.515 217.481 164.66 217.247 163.723 217.057C162.786 216.854 161.791 216.753 160.74 216.753C159.22 216.753 158.124 216.994 157.453 217.475C156.782 217.944 156.446 218.621 156.446 219.508V219.66C156.446 220.471 156.763 221.123 157.396 221.617C158.042 222.111 159.125 222.409 160.645 222.51L158.175 223.878ZM150.252 228.172V224.087L158.65 222.833L161.576 225.987L150.252 228.172ZM158.403 242.232L153.463 235.069L156.617 235.088C157.808 235.747 158.783 236.393 159.543 237.026C160.303 237.672 160.962 238.305 161.519 238.926L164.426 242.099V242.232H158.403ZM157.472 222.586L169.195 220.211V224.239L159.068 225.74L157.472 222.586ZM192.887 236V220.154C192.887 219.027 192.665 218.191 192.222 217.646C191.779 217.089 191.114 216.81 190.227 216.81C189.34 216.81 188.675 217.082 188.232 217.627C187.789 218.172 187.567 218.982 187.567 220.059C187.567 220.692 187.58 221.326 187.605 221.959C187.643 222.58 187.675 223.226 187.7 223.897C187.725 224.568 187.738 225.309 187.738 226.12C187.738 228.666 187.098 230.56 185.819 231.801C184.552 233.03 182.652 233.644 180.119 233.644C177.421 233.644 175.407 232.966 174.077 231.611C172.747 230.243 172.082 228.153 172.082 225.341V222.092C172.082 220.192 172.323 218.507 172.804 217.038C173.285 215.569 173.982 214.302 174.894 213.238H180.005C179.03 214.505 178.301 215.847 177.82 217.266C177.339 218.685 177.098 220.287 177.098 222.073V225.474C177.098 226.829 177.345 227.843 177.839 228.514C178.333 229.185 179.112 229.521 180.176 229.521C182 229.521 182.912 228.425 182.912 226.234C182.912 225.499 182.893 224.809 182.855 224.163C182.83 223.504 182.798 222.852 182.76 222.206C182.735 221.547 182.722 220.857 182.722 220.135C182.722 217.627 183.355 215.765 184.622 214.549C185.889 213.32 187.763 212.706 190.246 212.706C192.741 212.706 194.616 213.333 195.87 214.587C197.124 215.828 197.751 217.747 197.751 220.344V236H192.887ZM217.03 223.878C215.637 223.827 214.434 223.618 213.42 223.251C212.407 222.871 211.628 222.314 211.083 221.579C210.551 220.844 210.285 219.926 210.285 218.824V218.596C210.285 216.645 210.988 215.176 212.394 214.188C213.813 213.2 215.89 212.706 218.626 212.706C219.906 212.706 221.071 212.82 222.122 213.048C223.174 213.276 224.035 213.542 224.706 213.846L225.143 217.76C224.371 217.481 223.516 217.247 222.578 217.057C221.641 216.854 220.647 216.753 219.595 216.753C218.075 216.753 216.98 216.994 216.308 217.475C215.637 217.944 215.301 218.621 215.301 219.508V219.66C215.301 220.471 215.618 221.123 216.251 221.617C216.897 222.111 217.98 222.409 219.5 222.51L217.03 223.878ZM217.847 236.475C216.277 236.475 214.877 236.361 213.648 236.133C212.432 235.918 211.387 235.645 210.513 235.316L210.095 231.136C211.109 231.491 212.185 231.782 213.325 232.01C214.465 232.225 215.713 232.333 217.068 232.333C218.576 232.333 219.709 232.086 220.469 231.592C221.242 231.098 221.628 230.325 221.628 229.274V229.065C221.628 228.166 221.331 227.456 220.735 226.937C220.153 226.405 219.158 226.069 217.752 225.93L220.222 224.676C222.249 224.701 223.826 225.164 224.953 226.063C226.093 226.962 226.663 228.273 226.663 229.996V230.319C226.663 232.396 225.891 233.942 224.345 234.955C222.8 235.968 220.634 236.475 217.847 236.475ZM209.107 228.21V224.125L217.505 222.852L220.431 226.025L209.107 228.21ZM216.327 222.643L228.05 220.268V224.296L217.923 225.797L216.327 222.643ZM231.567 226.918V213.238H236.431V226.918H231.567ZM231.567 236V224.657H236.431V236H231.567ZM244.877 228.666L239.994 227.735V224.106L245.01 224.087C246.492 224.074 247.613 223.789 248.373 223.232C249.133 222.662 249.513 221.775 249.513 220.572V220.135C249.513 218.982 249.171 218.127 248.487 217.57C247.803 217.013 246.822 216.734 245.542 216.734C244.643 216.734 243.782 216.829 242.958 217.019C242.135 217.196 241.381 217.418 240.697 217.684L241.058 213.751C241.742 213.46 242.54 213.213 243.452 213.01C244.377 212.807 245.435 212.706 246.625 212.706C248.285 212.706 249.703 212.972 250.881 213.504C252.072 214.023 252.978 214.815 253.598 215.879C254.232 216.93 254.548 218.273 254.548 219.907V220.591C254.548 222.909 253.896 224.695 252.591 225.949C251.299 227.19 249.425 227.811 246.967 227.811H244.953L244.877 228.666ZM251.261 236.475C249.729 236.475 248.367 236.222 247.176 235.715C245.998 235.196 245.017 234.391 244.231 233.302C243.459 232.2 242.908 230.769 242.578 229.008L242.046 226.158L246.682 225.74L247.195 228.248C247.499 229.768 248.088 230.845 248.962 231.478C249.849 232.099 250.913 232.409 252.154 232.409C252.648 232.409 253.123 232.365 253.579 232.276C254.035 232.175 254.377 232.086 254.605 232.01L254.225 235.981C253.82 236.12 253.377 236.234 252.895 236.323C252.414 236.424 251.869 236.475 251.261 236.475ZM258.731 214.131C258.731 213.764 258.731 213.422 258.731 213.105C258.731 212.788 258.731 212.478 258.731 212.174C258.731 211.87 258.731 211.56 258.731 211.243C258.731 210.914 258.731 210.559 258.731 210.179C258.731 208.178 259.111 206.531 259.871 205.239C260.644 203.947 261.727 202.991 263.12 202.37C264.514 201.737 266.16 201.42 268.06 201.42C269.783 201.42 271.379 201.743 272.848 202.389C274.318 203.022 275.648 203.985 276.838 205.277C278.042 206.569 279.087 208.197 279.973 210.16L276.078 211.946C275.458 210.553 274.761 209.368 273.988 208.393C273.216 207.418 272.348 206.677 271.385 206.17C270.435 205.651 269.384 205.391 268.231 205.391C266.737 205.391 265.59 205.777 264.792 206.55C263.994 207.31 263.595 208.52 263.595 210.179C263.595 210.483 263.595 210.787 263.595 211.091C263.595 211.382 263.595 211.686 263.595 212.003C263.595 212.32 263.595 212.655 263.595 213.01C263.595 213.365 263.595 213.738 263.595 214.131H258.731ZM258.731 226.918V213.238H263.595V226.918H258.731ZM258.731 236V224.657H263.595V236H258.731ZM275.329 223.878C273.936 223.827 272.733 223.618 271.719 223.251C270.706 222.871 269.927 222.314 269.382 221.579C268.85 220.844 268.584 219.926 268.584 218.824V218.596C268.584 216.645 269.287 215.176 270.693 214.188C272.112 213.2 274.189 212.706 276.925 212.706C278.205 212.706 279.37 212.82 280.421 213.048C281.473 213.276 282.334 213.542 283.005 213.846L283.442 217.76C282.67 217.481 281.815 217.247 280.877 217.057C279.94 216.854 278.946 216.753 277.894 216.753C276.374 216.753 275.279 216.994 274.607 217.475C273.936 217.944 273.6 218.621 273.6 219.508V219.66C273.6 220.471 273.917 221.123 274.55 221.617C275.196 222.111 276.279 222.409 277.799 222.51L275.329 223.878ZM276.146 236.475C274.576 236.475 273.176 236.361 271.947 236.133C270.731 235.918 269.686 235.645 268.812 235.316L268.394 231.136C269.408 231.491 270.484 231.782 271.624 232.01C272.764 232.225 274.012 232.333 275.367 232.333C276.875 232.333 278.008 232.086 278.768 231.592C279.541 231.098 279.927 230.325 279.927 229.274V229.065C279.927 228.166 279.63 227.456 279.034 226.937C278.452 226.405 277.457 226.069 276.051 225.93L278.521 224.676C280.548 224.701 282.125 225.164 283.252 226.063C284.392 226.962 284.962 228.273 284.962 229.996V230.319C284.962 232.396 284.19 233.942 282.644 234.955C281.099 235.968 278.933 236.475 276.146 236.475ZM267.406 228.21V224.125L275.804 222.852L278.73 226.025L267.406 228.21ZM274.626 222.643L286.349 220.268V224.296L276.222 225.797L274.626 222.643ZM297.826 236.475C295.001 236.475 292.854 235.93 291.385 234.841C289.916 233.739 289.181 232.162 289.181 230.11V229.844C289.181 228.223 289.599 226.962 290.435 226.063C291.271 225.151 292.5 224.587 294.121 224.372V224.258C292.55 224.081 291.379 223.58 290.606 222.757C289.846 221.921 289.466 220.705 289.466 219.109V218.862C289.466 216.797 290.182 215.258 291.613 214.245C293.044 213.219 295.065 212.706 297.674 212.706C298.991 212.706 300.176 212.833 301.227 213.086C302.291 213.327 303.171 213.618 303.868 213.96L304.324 217.988C303.526 217.621 302.633 217.317 301.645 217.076C300.67 216.835 299.644 216.715 298.567 216.715C297.224 216.715 296.205 216.949 295.508 217.418C294.824 217.887 294.482 218.583 294.482 219.508V219.698C294.482 220.547 294.773 221.18 295.356 221.598C295.939 222.016 296.813 222.238 297.978 222.263L302.481 222.377V226.253L297.997 226.367C296.718 226.405 295.768 226.652 295.147 227.108C294.526 227.564 294.216 228.273 294.216 229.236V229.407C294.216 230.408 294.577 231.155 295.299 231.649C296.034 232.13 297.123 232.371 298.567 232.371C299.834 232.371 300.961 232.225 301.949 231.934C302.95 231.63 303.874 231.25 304.723 230.794L304.324 235.031C303.615 235.424 302.709 235.759 301.607 236.038C300.505 236.329 299.245 236.475 297.826 236.475ZM308.384 215.1V209.457C308.384 208.038 308.092 206.993 307.51 206.322C306.927 205.638 305.983 205.296 304.679 205.296C303.425 205.296 302.5 205.619 301.905 206.265C301.297 206.898 300.993 207.867 300.993 209.172V211.87H296.148V209.4C296.148 206.715 296.851 204.713 298.257 203.396C299.663 202.079 301.689 201.42 304.337 201.42C306.034 201.42 307.44 201.756 308.555 202.427C309.669 203.098 310.455 204.042 310.911 205.258H313.248V215.1H308.384ZM311.006 210.787V206.645L311.063 205.334C311.126 203.789 311.55 202.649 312.336 201.914C313.134 201.167 314.236 200.793 315.642 200.793C316.11 200.793 316.541 200.831 316.934 200.907C317.339 200.97 317.757 201.078 318.188 201.23L318.625 204.878C318.194 204.764 317.801 204.688 317.447 204.65C317.092 204.612 316.725 204.593 316.345 204.593C315.319 204.593 314.546 204.827 314.027 205.296C313.507 205.765 313.248 206.449 313.248 207.348V210.787H311.006ZM308.384 226.918V213.238H313.248V226.918H308.384ZM308.384 236V224.657H313.248V236H308.384ZM333.218 234.48C330.52 234.48 328.487 233.967 327.119 232.941C325.763 231.902 325.086 230.446 325.086 228.571V228.4C325.086 226.931 325.459 225.791 326.207 224.98C326.967 224.157 328.113 223.65 329.646 223.46V223.365C328.05 223.2 326.872 222.725 326.112 221.94C325.364 221.142 324.991 219.97 324.991 218.425V218.254C324.991 216.392 325.63 215.005 326.91 214.093C328.189 213.168 329.994 212.706 332.325 212.706C333.287 212.706 334.155 212.782 334.928 212.934C335.7 213.086 336.346 213.27 336.866 213.485L337.265 217.323C336.796 217.133 336.251 216.981 335.631 216.867C335.023 216.74 334.339 216.677 333.579 216.677C332.388 216.677 331.495 216.867 330.9 217.247C330.317 217.627 330.026 218.222 330.026 219.033V219.128C330.026 219.901 330.285 220.471 330.805 220.838C331.337 221.193 332.173 221.389 333.313 221.427L336.239 221.541V225.284L333.351 225.398C332.249 225.423 331.432 225.62 330.9 225.987C330.38 226.354 330.121 226.924 330.121 227.697V227.811C330.121 228.71 330.488 229.375 331.223 229.806C331.957 230.224 333.097 230.433 334.643 230.433C336.454 230.433 337.873 230.154 338.899 229.597C339.925 229.027 340.571 228.273 340.837 227.336L341.084 230.927H340.533C340.165 231.978 339.405 232.833 338.253 233.492C337.1 234.151 335.422 234.48 333.218 234.48ZM340.742 226.918V213.238H345.587V226.918H340.742ZM340.742 236V224.657H345.587V236H340.742ZM357.683 236.475C356.087 236.475 354.649 236.317 353.37 236C352.103 235.671 351.027 235.297 350.14 234.879L349.684 230.471C350.685 230.965 351.799 231.402 353.028 231.782C354.257 232.149 355.58 232.333 356.999 232.333C358.519 232.333 359.64 232.092 360.362 231.611C361.084 231.117 361.445 230.382 361.445 229.407V229.217C361.445 228.66 361.337 228.197 361.122 227.83C360.919 227.463 360.546 227.152 360.001 226.899C359.469 226.633 358.728 226.386 357.778 226.158L356.353 225.854C354.782 225.487 353.516 225.018 352.553 224.448C351.59 223.878 350.894 223.181 350.463 222.358C350.032 221.522 349.817 220.534 349.817 219.394V219.109C349.817 216.994 350.52 215.398 351.926 214.321C353.345 213.244 355.46 212.706 358.272 212.706C359.665 212.706 360.919 212.839 362.034 213.105C363.149 213.358 364.073 213.662 364.808 214.017L365.245 218.083C364.409 217.69 363.465 217.374 362.414 217.133C361.375 216.88 360.28 216.753 359.127 216.753C357.594 216.753 356.492 216.968 355.821 217.399C355.162 217.817 354.833 218.45 354.833 219.299V219.47C354.833 219.939 354.947 220.338 355.175 220.667C355.403 220.996 355.764 221.281 356.258 221.522C356.752 221.763 357.411 221.984 358.234 222.187L359.792 222.567C361.413 222.96 362.712 223.435 363.687 223.992C364.662 224.537 365.365 225.24 365.796 226.101C366.239 226.95 366.461 228.02 366.461 229.312V229.673C366.461 231.231 366.113 232.51 365.416 233.511C364.732 234.512 363.738 235.259 362.433 235.753C361.128 236.234 359.545 236.475 357.683 236.475ZM382.801 226.918V213.238H387.646V226.918H382.801ZM382.801 236V224.657H387.646V236H382.801ZM372.389 236C371.819 234.987 371.306 233.916 370.85 232.789C370.394 231.649 370.033 230.496 369.767 229.331C369.514 228.153 369.387 227 369.387 225.873C369.387 223.504 370.008 221.693 371.249 220.439C372.503 219.172 374.467 218.539 377.139 218.539H385.176V222.529H378.507C377.089 222.529 376.05 222.858 375.391 223.517C374.733 224.163 374.403 225.157 374.403 226.5C374.403 227.425 374.53 228.419 374.783 229.483C375.049 230.547 375.417 231.636 375.885 232.751C376.354 233.853 376.88 234.936 377.462 236H372.389ZM396.135 228.666L391.252 227.735V224.106L396.268 224.087C397.75 224.074 398.871 223.789 399.631 223.232C400.391 222.662 400.771 221.775 400.771 220.572V220.135C400.771 218.982 400.429 218.127 399.745 217.57C399.061 217.013 398.079 216.734 396.8 216.734C395.901 216.734 395.039 216.829 394.216 217.019C393.393 217.196 392.639 217.418 391.955 217.684L392.316 213.751C393 213.46 393.798 213.213 394.71 213.01C395.635 212.807 396.692 212.706 397.883 212.706C399.542 212.706 400.961 212.972 402.139 213.504C403.33 214.023 404.235 214.815 404.856 215.879C405.489 216.93 405.806 218.273 405.806 219.907V220.591C405.806 222.909 405.154 224.695 403.849 225.949C402.557 227.19 400.682 227.811 398.225 227.811H396.211L396.135 228.666ZM402.519 236.475C400.986 236.475 399.625 236.222 398.434 235.715C397.256 235.196 396.274 234.391 395.489 233.302C394.716 232.2 394.165 230.769 393.836 229.008L393.304 226.158L397.94 225.74L398.453 228.248C398.757 229.768 399.346 230.845 400.22 231.478C401.107 232.099 402.171 232.409 403.412 232.409C403.906 232.409 404.381 232.365 404.837 232.276C405.293 232.175 405.635 232.086 405.863 232.01L405.483 235.981C405.078 236.12 404.634 236.234 404.153 236.323C403.672 236.424 403.127 236.475 402.519 236.475ZM149.369 276.98V270.938C149.369 270.229 149.236 269.703 148.97 269.361C148.704 269.019 148.267 268.848 147.659 268.848C147.419 268.848 147.178 268.867 146.937 268.905C146.709 268.943 146.488 268.994 146.272 269.057L146.557 265.39C147.001 265.251 147.469 265.149 147.963 265.086C148.47 265.01 149.008 264.972 149.578 264.972C151.124 264.972 152.276 265.396 153.036 266.245C153.809 267.081 154.195 268.392 154.195 270.178V276.961L149.369 276.98ZM149.711 285.701C149.293 284.827 148.92 283.928 148.59 283.003C148.261 282.078 147.989 281.109 147.773 280.096C147.558 279.07 147.412 277.974 147.336 276.809L149.54 275.46H154.024V285.701H149.711ZM153.093 279.184V275.194H162.536L162.897 279.184H153.093ZM161.529 278.918V265.238H166.393V278.918H161.529ZM161.529 288V276.657H166.393V288H161.529ZM171.376 278.918V265.238H176.24V278.918H171.376ZM171.376 288V276.657H176.24V288H171.376ZM189.931 288.475C186.612 288.475 184.155 287.867 182.559 286.651C180.975 285.435 180.184 283.662 180.184 281.331V280.932C180.184 279.691 180.412 278.608 180.868 277.683C181.336 276.758 182.084 275.986 183.11 275.365C184.148 274.732 185.516 274.25 187.214 273.921L189.494 273.446C190.456 273.243 191.14 272.952 191.546 272.572C191.964 272.179 192.173 271.685 192.173 271.09V270.995C192.173 270.197 191.856 269.627 191.223 269.285C190.602 268.93 189.582 268.753 188.164 268.753C187.087 268.753 186.017 268.88 184.953 269.133C183.901 269.374 182.913 269.659 181.989 269.988L182.521 265.903C183.217 265.599 184.123 265.327 185.238 265.086C186.352 264.833 187.568 264.706 188.886 264.706C191.558 264.706 193.61 265.213 195.042 266.226C196.473 267.227 197.189 268.791 197.189 270.919V271.204C197.189 272.243 196.986 273.148 196.581 273.921C196.188 274.681 195.586 275.321 194.776 275.84C193.965 276.359 192.939 276.752 191.698 277.018L188.848 277.607C187.986 277.797 187.283 278.044 186.739 278.348C186.207 278.652 185.814 279.026 185.561 279.469C185.32 279.912 185.2 280.444 185.2 281.065V281.217C185.2 282.281 185.618 283.066 186.454 283.573C187.302 284.08 188.613 284.333 190.387 284.333C191.197 284.333 192.027 284.263 192.876 284.124C193.737 283.985 194.56 283.788 195.346 283.535C196.144 283.269 196.866 282.959 197.512 282.604L197.094 287.088C196.182 287.506 195.111 287.842 193.883 288.095C192.654 288.348 191.337 288.475 189.931 288.475ZM192.031 263.87C190.194 262.755 188.345 261.641 186.483 260.526C184.633 259.399 182.784 258.284 180.935 257.182L183.709 253.135C185.419 254.452 187.129 255.776 188.839 257.106C190.549 258.436 192.259 259.766 193.969 261.096L192.031 263.87ZM225.802 275.042L222.591 272.724L229.07 265.238H234.751V265.618L225.802 275.042ZM213.243 280.153L208.531 279.336V271.09C208.531 268.975 209.05 267.385 210.089 266.321C211.14 265.244 212.66 264.706 214.649 264.706C215.662 264.706 216.555 264.839 217.328 265.105C218.1 265.358 218.816 265.738 219.475 266.245C220.133 266.752 220.798 267.391 221.47 268.164L226.258 273.522L222.515 275.992L217.803 270.482C217.397 270.013 217.036 269.646 216.72 269.38C216.416 269.114 216.118 268.924 215.827 268.81C215.548 268.696 215.244 268.639 214.915 268.639C214.395 268.639 213.984 268.823 213.68 269.19C213.388 269.545 213.243 270.108 213.243 270.881V280.153ZM223.807 288.475C221.223 288.475 219.247 287.943 217.879 286.879C216.523 285.815 215.846 284.238 215.846 282.148V281.939C215.846 280.989 215.991 280.147 216.283 279.412C216.574 278.665 216.992 277.943 217.537 277.246C218.081 276.549 218.734 275.808 219.494 275.023L221.926 272.553L225.213 275.023L222.933 277.436C222.249 278.158 221.71 278.823 221.318 279.431C220.938 280.039 220.748 280.761 220.748 281.597V281.806C220.748 282.718 221.007 283.402 221.527 283.858C222.046 284.301 222.806 284.523 223.807 284.523C224.807 284.523 225.561 284.301 226.068 283.858C226.574 283.402 226.828 282.718 226.828 281.806V281.597C226.828 280.786 226.625 280.077 226.22 279.469C225.827 278.861 225.301 278.19 224.643 277.455L222.572 275.118L226.144 272.819L228.158 275.08C228.867 275.865 229.488 276.606 230.02 277.303C230.552 278 230.97 278.715 231.274 279.45C231.578 280.172 231.73 281.002 231.73 281.939V282.148C231.73 284.238 231.052 285.815 229.697 286.879C228.354 287.943 226.391 288.475 223.807 288.475ZM242.85 288.475C241.444 288.475 240.19 288.336 239.088 288.057C237.999 287.791 237.093 287.468 236.371 287.088L235.953 282.813C236.802 283.256 237.714 283.63 238.689 283.934C239.677 284.238 240.811 284.39 242.09 284.39C243.597 284.39 244.725 284.149 245.472 283.668C246.232 283.174 246.612 282.427 246.612 281.426V281.255C246.612 280.254 246.295 279.526 245.662 279.07C245.029 278.614 244.066 278.373 242.774 278.348L238.29 278.215V274.377L242.812 274.301C243.99 274.276 244.87 274.048 245.453 273.617C246.048 273.186 246.346 272.528 246.346 271.641V271.508C246.346 270.583 245.991 269.887 245.282 269.418C244.573 268.949 243.515 268.715 242.109 268.715C241.045 268.715 240.019 268.835 239.031 269.076C238.043 269.317 237.163 269.621 236.39 269.988L236.846 265.941C237.543 265.624 238.41 265.339 239.449 265.086C240.5 264.833 241.685 264.706 243.002 264.706C245.662 264.706 247.72 265.213 249.177 266.226C250.646 267.239 251.381 268.772 251.381 270.824V271.071C251.381 272.68 250.982 273.908 250.184 274.757C249.399 275.593 248.208 276.1 246.612 276.277V276.372C248.284 276.6 249.538 277.17 250.374 278.082C251.21 278.981 251.628 280.235 251.628 281.844V282.129C251.628 284.181 250.881 285.752 249.386 286.841C247.891 287.93 245.713 288.475 242.85 288.475ZM242.869 294.232L237.948 287.069L241.083 287.088C242.286 287.747 243.268 288.393 244.028 289.026C244.788 289.672 245.447 290.305 246.004 290.926L248.892 294.099V294.232H242.869ZM259.201 280.666L254.318 279.735V276.106L259.334 276.087C260.816 276.074 261.937 275.789 262.697 275.232C263.457 274.662 263.837 273.775 263.837 272.572V272.135C263.837 270.982 263.495 270.127 262.811 269.57C262.127 269.013 261.146 268.734 259.866 268.734C258.967 268.734 258.106 268.829 257.282 269.019C256.459 269.196 255.705 269.418 255.021 269.684L255.382 265.751C256.066 265.46 256.864 265.213 257.776 265.01C258.701 264.807 259.759 264.706 260.949 264.706C262.609 264.706 264.027 264.972 265.205 265.504C266.396 266.023 267.302 266.815 267.922 267.879C268.556 268.93 268.872 270.273 268.872 271.907V272.591C268.872 274.909 268.22 276.695 266.915 277.949C265.623 279.19 263.749 279.811 261.291 279.811H259.277L259.201 280.666ZM265.585 288.475C264.053 288.475 262.691 288.222 261.5 287.715C260.322 287.196 259.341 286.391 258.555 285.302C257.783 284.2 257.232 282.769 256.902 281.008L256.37 278.158L261.006 277.74L261.519 280.248C261.823 281.768 262.412 282.845 263.286 283.478C264.173 284.099 265.237 284.409 266.478 284.409C266.972 284.409 267.447 284.365 267.903 284.276C268.359 284.175 268.701 284.086 268.929 284.01L268.549 287.981C268.144 288.12 267.701 288.234 267.219 288.323C266.738 288.424 266.193 288.475 265.585 288.475ZM273.055 267.1V261.495C273.055 260.051 272.764 258.993 272.181 258.322C271.599 257.638 270.655 257.296 269.35 257.296C268.096 257.296 267.172 257.619 266.576 258.265C265.968 258.898 265.664 259.867 265.664 261.172V263.87H260.819V261.4C260.819 258.715 261.554 256.713 263.023 255.396C264.48 254.079 266.589 253.42 269.35 253.42C271.136 253.42 272.669 253.73 273.948 254.351C275.228 254.959 276.209 255.877 276.893 257.106C277.577 258.322 277.919 259.855 277.919 261.704V267.1H273.055ZM273.055 278.918V265.238H277.919V278.918H273.055ZM273.055 288V276.657H277.919V288H273.055ZM291.981 276.98V270.938C291.981 270.229 291.848 269.703 291.582 269.361C291.316 269.019 290.879 268.848 290.271 268.848C290.03 268.848 289.789 268.867 289.549 268.905C289.321 268.943 289.099 268.994 288.884 269.057L289.169 265.39C289.612 265.251 290.081 265.149 290.575 265.086C291.081 265.01 291.62 264.972 292.19 264.972C293.735 264.972 294.888 265.396 295.648 266.245C296.42 267.081 296.807 268.392 296.807 270.178V276.961L291.981 276.98ZM292.323 285.701C291.905 284.827 291.531 283.928 291.202 283.003C290.872 282.078 290.6 281.109 290.385 280.096C290.169 279.07 290.024 277.974 289.948 276.809L292.152 275.46H296.636V285.701H292.323ZM295.705 279.184V275.194H305.148L305.509 279.184H295.705ZM304.141 278.918V265.238H309.005V278.918H304.141ZM304.141 288V276.657H309.005V288H304.141ZM313.987 278.918V265.238H318.851V278.918H313.987ZM313.987 288V276.657H318.851V288H313.987ZM323.821 266.131C323.821 265.764 323.821 265.422 323.821 265.105C323.821 264.788 323.821 264.478 323.821 264.174C323.821 263.87 323.821 263.56 323.821 263.243C323.821 262.914 323.821 262.559 323.821 262.179C323.821 260.178 324.201 258.531 324.961 257.239C325.734 255.947 326.817 254.991 328.21 254.37C329.603 253.737 331.25 253.42 333.15 253.42C334.873 253.42 336.469 253.743 337.938 254.389C339.407 255.022 340.737 255.985 341.928 257.277C343.131 258.569 344.176 260.197 345.063 262.16L341.168 263.946C340.547 262.553 339.851 261.368 339.078 260.393C338.305 259.418 337.438 258.677 336.475 258.17C335.525 257.651 334.474 257.391 333.321 257.391C331.826 257.391 330.68 257.777 329.882 258.55C329.084 259.31 328.685 260.52 328.685 262.179C328.685 262.483 328.685 262.787 328.685 263.091C328.685 263.382 328.685 263.686 328.685 264.003C328.685 264.32 328.685 264.655 328.685 265.01C328.685 265.365 328.685 265.738 328.685 266.131H323.821ZM323.821 278.918V265.238H328.685V278.918H323.821ZM323.821 288V276.657H328.685V288H323.821ZM343.307 289.178C339.862 289.178 337.252 288.526 335.479 287.221C333.706 285.904 332.819 283.947 332.819 281.35C332.819 280.805 332.851 280.261 332.914 279.716C332.977 279.171 333.066 278.627 333.18 278.082H337.949C337.911 278.487 337.879 278.886 337.854 279.279C337.841 279.659 337.835 280.052 337.835 280.457C337.835 282.015 338.361 283.174 339.412 283.934C340.476 284.681 342.002 285.055 343.991 285.055C345.22 285.055 346.385 284.947 347.487 284.732C348.602 284.504 349.64 284.219 350.603 283.877L350.204 288.076C349.279 288.418 348.228 288.684 347.05 288.874C345.872 289.077 344.624 289.178 343.307 289.178ZM345.587 281.882C345.714 281.502 345.802 281.141 345.853 280.799C345.916 280.457 345.948 280.115 345.948 279.773C345.948 278.836 345.72 278.152 345.264 277.721C344.808 277.278 344.004 277.018 342.851 276.942L339.792 276.771C337.803 276.657 336.271 276.131 335.194 275.194C334.13 274.257 333.598 272.901 333.598 271.128V270.919C333.598 268.854 334.301 267.303 335.707 266.264C337.126 265.225 339.241 264.706 342.053 264.706C343.472 264.706 344.751 264.833 345.891 265.086C347.031 265.339 347.981 265.631 348.741 265.96L349.178 270.045C348.317 269.678 347.341 269.374 346.252 269.133C345.175 268.88 344.023 268.753 342.794 268.753C341.337 268.753 340.273 268.949 339.602 269.342C338.943 269.722 338.614 270.279 338.614 271.014V271.09C338.614 271.66 338.842 272.116 339.298 272.458C339.754 272.787 340.495 272.99 341.521 273.066L345.188 273.332C347.088 273.484 348.507 273.978 349.444 274.814C350.394 275.637 350.869 276.879 350.869 278.538C350.869 279.095 350.806 279.659 350.679 280.229C350.565 280.799 350.388 281.35 350.147 281.882H345.587ZM367.475 278.918V265.238H372.32V278.918H367.475ZM367.475 288V276.657H372.32V288H367.475ZM357.063 288C356.493 286.987 355.98 285.916 355.524 284.789C355.068 283.649 354.707 282.496 354.441 281.331C354.188 280.153 354.061 279 354.061 277.873C354.061 275.504 354.682 273.693 355.923 272.439C357.177 271.172 359.14 270.539 361.813 270.539H369.85V274.529H363.181C361.762 274.529 360.724 274.858 360.065 275.517C359.406 276.163 359.077 277.157 359.077 278.5C359.077 279.425 359.204 280.419 359.457 281.483C359.723 282.547 360.09 283.636 360.559 284.751C361.028 285.853 361.553 286.936 362.136 288H357.063ZM377.333 267.1V260.545C377.333 259.43 377.13 258.613 376.725 258.094C376.332 257.562 375.699 257.296 374.825 257.296C373.976 257.296 373.355 257.556 372.963 258.075C372.557 258.582 372.355 259.348 372.355 260.374V263.87H367.491V260.621C367.491 258.202 368.118 256.397 369.372 255.206C370.626 254.015 372.443 253.42 374.825 253.42C376.357 253.42 377.668 253.692 378.758 254.237C379.86 254.782 380.708 255.599 381.304 256.688C381.899 257.777 382.197 259.139 382.197 260.773V267.1H377.333ZM377.333 278.918V265.238H382.197V278.918H377.333ZM377.333 288V276.657H382.197V288H377.333ZM128.699 328.98V322.938C128.699 322.229 128.566 321.703 128.3 321.361C128.034 321.019 127.597 320.848 126.989 320.848C126.749 320.848 126.508 320.867 126.267 320.905C126.039 320.943 125.818 320.994 125.602 321.057L125.887 317.39C126.331 317.251 126.799 317.149 127.293 317.086C127.8 317.01 128.338 316.972 128.908 316.972C130.454 316.972 131.606 317.396 132.366 318.245C133.139 319.081 133.525 320.392 133.525 322.178V328.961L128.699 328.98ZM129.041 337.701C128.623 336.827 128.25 335.928 127.92 335.003C127.591 334.078 127.319 333.109 127.103 332.096C126.888 331.07 126.742 329.974 126.666 328.809L128.87 327.46H133.354V337.701H129.041ZM132.423 331.184V327.194H141.866L142.227 331.184H132.423ZM140.859 330.918V317.238H145.723V330.918H140.859ZM140.859 340V328.657H145.723V340H140.859ZM150.706 330.918V317.238H155.57V330.918H150.706ZM150.706 340V328.657H155.57V340H150.706ZM176.538 330.918V317.238H181.383V330.918H176.538ZM176.538 340V328.657H181.383V340H176.538ZM164.644 335.763C163.567 335.763 162.604 335.662 161.756 335.459C160.907 335.256 160.191 334.997 159.609 334.68L159.229 330.576C159.837 330.88 160.483 331.133 161.167 331.336C161.863 331.539 162.655 331.64 163.542 331.64C164.821 331.64 165.777 331.26 166.411 330.5C167.057 329.74 167.38 328.6 167.38 327.08V325.275C167.38 323.78 167.063 322.659 166.43 321.912C165.796 321.165 164.859 320.791 163.618 320.791C162.82 320.791 162.079 320.899 161.395 321.114C160.723 321.317 160.109 321.57 159.552 321.874L159.932 317.808C160.527 317.491 161.23 317.232 162.041 317.029C162.864 316.814 163.776 316.706 164.777 316.706C166.385 316.706 167.76 317.004 168.9 317.599C170.04 318.194 170.907 319.113 171.503 320.354C172.111 321.595 172.415 323.179 172.415 325.104V327.308C172.415 329.246 172.104 330.842 171.484 332.096C170.876 333.337 169.995 334.262 168.843 334.87C167.69 335.465 166.29 335.763 164.644 335.763ZM180.176 314.616L177.212 315.87C176.097 315.313 175.255 314.559 174.685 313.609C174.115 312.659 173.83 311.525 173.83 310.208V310.018C173.83 308.422 174.355 307.143 175.407 306.18C176.471 305.205 178.041 304.717 180.119 304.717C180.777 304.717 181.385 304.755 181.943 304.831C182.5 304.894 183.064 305.002 183.634 305.154L184.09 308.821C183.646 308.694 183.247 308.612 182.893 308.574C182.551 308.536 182.183 308.517 181.791 308.517C180.777 308.517 180.011 308.758 179.492 309.239C178.972 309.708 178.713 310.404 178.713 311.329V311.481C178.713 312.114 178.833 312.684 179.074 313.191C179.314 313.698 179.682 314.173 180.176 314.616ZM194.291 340.475C191.466 340.475 189.319 339.93 187.85 338.841C186.381 337.739 185.646 336.162 185.646 334.11V333.844C185.646 332.223 186.064 330.962 186.9 330.063C187.736 329.151 188.965 328.587 190.586 328.372V328.258C189.015 328.081 187.844 327.58 187.071 326.757C186.311 325.921 185.931 324.705 185.931 323.109V322.862C185.931 320.797 186.647 319.258 188.078 318.245C189.509 317.219 191.53 316.706 194.139 316.706C195.456 316.706 196.641 316.833 197.692 317.086C198.756 317.327 199.636 317.618 200.333 317.96L200.789 321.988C199.991 321.621 199.098 321.317 198.11 321.076C197.135 320.835 196.109 320.715 195.032 320.715C193.689 320.715 192.67 320.949 191.973 321.418C191.289 321.887 190.947 322.583 190.947 323.508V323.698C190.947 324.547 191.238 325.18 191.821 325.598C192.404 326.016 193.278 326.238 194.443 326.263L198.946 326.377V330.253L194.462 330.367C193.183 330.405 192.233 330.652 191.612 331.108C190.991 331.564 190.681 332.273 190.681 333.236V333.407C190.681 334.408 191.042 335.155 191.764 335.649C192.499 336.13 193.588 336.371 195.032 336.371C196.299 336.371 197.426 336.225 198.414 335.934C199.415 335.63 200.339 335.25 201.188 334.794L200.789 339.031C200.08 339.424 199.174 339.759 198.072 340.038C196.97 340.329 195.71 340.475 194.291 340.475ZM223.665 330.918V317.238H228.529V330.918H223.665ZM223.665 340V328.657H228.529V340H223.665ZM208.541 333.806L203.392 332.913V329.265L209.51 329.227C211.334 329.214 212.702 328.853 213.614 328.144C214.538 327.422 215.001 326.288 215.001 324.743V323.812C215.001 322.697 214.741 321.868 214.222 321.323C213.715 320.766 212.955 320.487 211.942 320.487C210.928 320.487 210.162 320.753 209.643 321.285C209.123 321.817 208.864 322.615 208.864 323.679V323.85C208.864 324.331 208.895 324.825 208.959 325.332C209.035 325.839 209.117 326.307 209.206 326.738H204.855C204.652 326.282 204.487 325.769 204.361 325.199C204.247 324.616 204.19 324.034 204.19 323.451V323.299C204.19 321.108 204.842 319.461 206.147 318.359C207.451 317.257 209.383 316.706 211.942 316.706C214.551 316.706 216.527 317.314 217.87 318.53C219.212 319.733 219.884 321.557 219.884 324.002V324.952C219.884 327.549 219.111 329.525 217.566 330.88C216.033 332.235 213.823 332.913 210.935 332.913H208.598L208.541 333.806ZM215.305 340.475C213.747 340.475 212.328 340.222 211.049 339.715C209.769 339.208 208.693 338.379 207.819 337.226C206.957 336.061 206.356 334.496 206.014 332.533L205.824 331.431L210.479 330.69L210.707 331.849C210.947 333.078 211.334 334.021 211.866 334.68C212.41 335.339 213.069 335.795 213.842 336.048C214.614 336.289 215.457 336.409 216.369 336.409C216.989 336.409 217.521 336.371 217.965 336.295C218.408 336.219 218.87 336.111 219.352 335.972L218.972 339.905C218.503 340.07 217.939 340.203 217.281 340.304C216.635 340.418 215.976 340.475 215.305 340.475ZM227.342 314.616L224.378 315.87C223.263 315.313 222.421 314.559 221.851 313.609C221.281 312.659 220.996 311.525 220.996 310.208V310.018C220.996 308.422 221.521 307.143 222.573 306.18C223.637 305.205 225.207 304.717 227.285 304.717C227.943 304.717 228.551 304.755 229.109 304.831C229.666 304.894 230.23 305.002 230.8 305.154L231.256 308.821C230.812 308.694 230.413 308.612 230.059 308.574C229.717 308.536 229.349 308.517 228.957 308.517C227.943 308.517 227.177 308.758 226.658 309.239C226.138 309.708 225.879 310.404 225.879 311.329V311.481C225.879 312.114 225.999 312.684 226.24 313.191C226.48 313.698 226.848 314.173 227.342 314.616ZM245.391 330.918V317.238H250.236V330.918H245.391ZM245.391 340V328.657H250.236V340H245.391ZM234.466 335.972C234.073 334.908 233.718 333.812 233.402 332.685C233.085 331.545 232.825 330.354 232.623 329.113C232.42 327.859 232.274 326.523 232.186 325.104L234.39 323.736H238.589V335.972H234.466ZM237.297 327.726V323.736H247.196L247.538 327.726H237.297ZM264.297 328.98V322.938C264.297 322.229 264.164 321.703 263.898 321.361C263.632 321.019 263.195 320.848 262.587 320.848C262.346 320.848 262.106 320.867 261.865 320.905C261.637 320.943 261.415 320.994 261.2 321.057L261.485 317.39C261.928 317.251 262.397 317.149 262.891 317.086C263.398 317.01 263.936 316.972 264.506 316.972C266.051 316.972 267.204 317.396 267.964 318.245C268.737 319.081 269.123 320.392 269.123 322.178V328.961L264.297 328.98ZM264.639 337.701C264.221 336.827 263.847 335.928 263.518 335.003C263.189 334.078 262.916 333.109 262.701 332.096C262.486 331.07 262.34 329.974 262.264 328.809L264.468 327.46H268.952V337.701H264.639ZM268.021 331.184V327.194H277.464L277.825 331.184H268.021ZM276.457 330.918V317.238H281.321V330.918H276.457ZM276.457 340V328.657H281.321V340H276.457ZM286.303 330.918V317.238H291.167V330.918H286.303ZM286.303 340V328.657H291.167V340H286.303ZM287.88 315.87C285.752 314.806 283.612 313.736 281.458 312.659C279.305 311.57 277.164 310.48 275.036 309.391L277.582 305.135C279.596 306.44 281.61 307.751 283.624 309.068C285.638 310.373 287.646 311.677 289.647 312.982L287.88 315.87ZM296.137 318.131C296.137 317.764 296.137 317.422 296.137 317.105C296.137 316.788 296.137 316.478 296.137 316.174C296.137 315.87 296.137 315.56 296.137 315.243C296.137 314.914 296.137 314.559 296.137 314.179C296.137 312.178 296.517 310.531 297.277 309.239C298.05 307.947 299.133 306.991 300.526 306.37C301.92 305.737 303.566 305.42 305.466 305.42C307.189 305.42 308.785 305.743 310.254 306.389C311.724 307.022 313.054 307.985 314.244 309.277C315.448 310.569 316.493 312.197 317.379 314.16L313.484 315.946C312.864 314.553 312.167 313.368 311.394 312.393C310.622 311.418 309.754 310.677 308.791 310.17C307.841 309.651 306.79 309.391 305.637 309.391C304.143 309.391 302.996 309.777 302.198 310.55C301.4 311.31 301.001 312.52 301.001 314.179C301.001 314.483 301.001 314.787 301.001 315.091C301.001 315.382 301.001 315.686 301.001 316.003C301.001 316.32 301.001 316.655 301.001 317.01C301.001 317.365 301.001 317.738 301.001 318.131H296.137ZM296.137 330.918V317.238H301.001V330.918H296.137ZM296.137 340V328.657H301.001V340H296.137ZM314.692 340.475C311.374 340.475 308.916 339.867 307.32 338.651C305.737 337.435 304.945 335.662 304.945 333.331V332.932C304.945 331.691 305.173 330.608 305.629 329.683C306.098 328.758 306.845 327.986 307.871 327.365C308.91 326.732 310.278 326.25 311.975 325.921L314.255 325.446C315.218 325.243 315.902 324.952 316.307 324.572C316.725 324.179 316.934 323.685 316.934 323.09V322.995C316.934 322.197 316.618 321.627 315.984 321.285C315.364 320.93 314.344 320.753 312.925 320.753C311.849 320.753 310.778 320.88 309.714 321.133C308.663 321.374 307.675 321.659 306.75 321.988L307.282 317.903C307.979 317.599 308.885 317.327 309.999 317.086C311.114 316.833 312.33 316.706 313.647 316.706C316.32 316.706 318.372 317.213 319.803 318.226C321.235 319.227 321.95 320.791 321.95 322.919V323.204C321.95 324.243 321.748 325.148 321.342 325.921C320.95 326.681 320.348 327.321 319.537 327.84C318.727 328.359 317.701 328.752 316.459 329.018L313.609 329.607C312.748 329.797 312.045 330.044 311.5 330.348C310.968 330.652 310.576 331.026 310.322 331.469C310.082 331.912 309.961 332.444 309.961 333.065V333.217C309.961 334.281 310.379 335.066 311.215 335.573C312.064 336.08 313.375 336.333 315.148 336.333C315.959 336.333 316.789 336.263 317.637 336.124C318.499 335.985 319.322 335.788 320.107 335.535C320.905 335.269 321.627 334.959 322.273 334.604L321.855 339.088C320.943 339.506 319.873 339.842 318.644 340.095C317.416 340.348 316.098 340.475 314.692 340.475ZM332.927 336.618C331.179 336.618 329.729 336.289 328.576 335.63C327.436 334.971 326.581 334.015 326.011 332.761C325.454 331.494 325.175 329.968 325.175 328.182V325.712C325.175 322.875 325.828 320.753 327.132 319.347C328.437 317.941 330.362 317.238 332.908 317.238C333.63 317.238 334.283 317.295 334.865 317.409C335.461 317.51 335.955 317.637 336.347 317.789L336.727 321.646C336.411 321.545 336.043 321.462 335.625 321.399C335.22 321.336 334.745 321.304 334.2 321.304C332.82 321.304 331.8 321.69 331.141 322.463C330.495 323.223 330.172 324.369 330.172 325.902V327.916C330.172 329.436 330.527 330.576 331.236 331.336C331.958 332.083 333.041 332.457 334.485 332.457C335.777 332.457 336.81 332.178 337.582 331.621C338.368 331.064 338.862 330.316 339.064 329.379L339.216 333.103H338.798C338.583 333.787 338.228 334.395 337.734 334.927C337.253 335.459 336.613 335.877 335.815 336.181C335.03 336.472 334.067 336.618 332.927 336.618ZM339.007 330.918V317.238H343.852V330.918H339.007ZM339.007 340V328.657H343.852V340H339.007ZM340.551 315.87C338.423 314.806 336.282 313.736 334.129 312.659C331.975 311.57 329.835 310.48 327.707 309.391L330.253 305.135C332.267 306.44 334.281 307.751 336.295 309.068C338.309 310.373 340.323 311.677 342.337 312.982L340.551 315.87ZM367.909 330.918V317.238H372.773V330.918H367.909ZM367.909 340V328.657H372.773V340H367.909ZM352.785 333.806L347.636 332.913V329.265L353.754 329.227C355.578 329.214 356.946 328.853 357.858 328.144C358.782 327.422 359.245 326.288 359.245 324.743V323.812C359.245 322.697 358.985 321.868 358.466 321.323C357.959 320.766 357.199 320.487 356.186 320.487C355.172 320.487 354.406 320.753 353.887 321.285C353.367 321.817 353.108 322.615 353.108 323.679V323.85C353.108 324.331 353.139 324.825 353.203 325.332C353.279 325.839 353.361 326.307 353.45 326.738H349.099C348.896 326.282 348.731 325.769 348.605 325.199C348.491 324.616 348.434 324.034 348.434 323.451V323.299C348.434 321.108 349.086 319.461 350.391 318.359C351.695 317.257 353.627 316.706 356.186 316.706C358.795 316.706 360.771 317.314 362.114 318.53C363.456 319.733 364.128 321.557 364.128 324.002V324.952C364.128 327.549 363.355 329.525 361.81 330.88C360.277 332.235 358.067 332.913 355.179 332.913H352.842L352.785 333.806ZM359.549 340.475C357.991 340.475 356.572 340.222 355.293 339.715C354.013 339.208 352.937 338.379 352.063 337.226C351.201 336.061 350.6 334.496 350.258 332.533L350.068 331.431L354.723 330.69L354.951 331.849C355.191 333.078 355.578 334.021 356.11 334.68C356.654 335.339 357.313 335.795 358.086 336.048C358.858 336.289 359.701 336.409 360.613 336.409C361.233 336.409 361.765 336.371 362.209 336.295C362.652 336.219 363.114 336.111 363.596 335.972L363.216 339.905C362.747 340.07 362.183 340.203 361.525 340.304C360.879 340.418 360.22 340.475 359.549 340.475ZM389.635 330.918V317.238H394.48V330.918H389.635ZM389.635 340V328.657H394.48V340H389.635ZM378.71 335.972C378.317 334.908 377.963 333.812 377.646 332.685C377.329 331.545 377.07 330.354 376.867 329.113C376.664 327.859 376.519 326.523 376.43 325.104L378.634 323.736H382.833V335.972H378.71ZM381.541 327.726V323.736H391.44L391.782 327.726H381.541ZM401.16 340.456C400.223 340.456 399.532 340.209 399.089 339.715C398.646 339.221 398.424 338.537 398.424 337.663V337.473C398.424 336.586 398.646 335.896 399.089 335.402C399.532 334.908 400.223 334.661 401.16 334.661C402.085 334.661 402.775 334.908 403.231 335.402C403.687 335.896 403.915 336.586 403.915 337.473V337.663C403.915 338.537 403.687 339.221 403.231 339.715C402.775 340.209 402.085 340.456 401.16 340.456Z" fill="white"/>
<defs>
<filter id="filter0_d_216_555" x="0" y="39" width="526" height="169.5" filterUnits="userSpaceOnUse" color-interpolation-filters="sRGB">
<feFlood flood-opacity="0" result="BackgroundImageFix"/>
<feColorMatrix in="SourceAlpha" type="matrix" values="0 0 0 0 0 0 0 0 0 0 0 0 0 0 0 0 0 0 127 0" result="hardAlpha"/>
<feOffset dy="12"/>
<feGaussianBlur stdDeviation="12"/>
<feComposite in2="hardAlpha" operator="out"/>
<feColorMatrix type="matrix" values="0 0 0 0 0 0 0 0 0 0 0 0 0 0 0 0 0 0 0.12 0"/>
<feBlend mode="normal" in2="BackgroundImageFix" result="effect1_dropShadow_216_555"/>
<feBlend mode="normal" in="SourceGraphic" in2="effect1_dropShadow_216_555" result="shape"/>
</filter>
</defs>
</svg>
